<svg width="500" height="256" viewBox="0 0 500 256" fill="none" xmlns="http://www.w3.org/2000/svg">
<path d="M0 72.2622H223.065V246.874H0V72.2622Z" fill="white"/>
<path d="M0 72.2622H223.065V83.9455H0V72.2622Z" fill="black" fill-opacity="0.2667"/>
<path d="M214.286 78.2016C214.286 79.0091 214.012 79.6864 213.439 80.2595C212.866 80.8326 212.176 81.1061 211.368 81.1061C210.561 81.1061 209.87 80.8326 209.31 80.2595C208.737 79.6864 208.451 79.0091 208.451 78.2016C208.451 77.407 208.737 76.7167 209.31 76.1436C209.87 75.5835 210.561 75.297 211.368 75.297C212.176 75.297 212.866 75.5835 213.439 76.1436C214.012 76.7167 214.286 77.407 214.286 78.2016Z" fill="black" fill-opacity="0.5686"/>
<path d="M203.306 78.2016C203.306 79.0091 203.019 79.6864 202.446 80.2595C201.873 80.8326 201.196 81.1061 200.388 81.1061C199.581 81.1061 198.89 80.8326 198.317 80.2595C197.744 79.6864 197.458 79.0091 197.458 78.2016C197.458 77.407 197.744 76.7167 198.317 76.1436C198.89 75.5835 199.581 75.297 200.388 75.297C201.196 75.297 201.873 75.5835 202.446 76.1436C203.019 76.7167 203.306 77.407 203.306 78.2016Z" fill="black" fill-opacity="0.5686"/>
<path d="M192.378 78.2016C192.378 79.0091 192.091 79.6864 191.518 80.2595C190.945 80.8326 190.255 81.1061 189.447 81.1061C188.653 81.1061 187.962 80.8326 187.389 80.2595C186.816 79.6864 186.53 79.0091 186.53 78.2016C186.53 77.407 186.816 76.7167 187.389 76.1436C187.962 75.5835 188.653 75.297 189.447 75.297C190.255 75.297 190.945 75.5835 191.518 76.1436C192.091 76.7167 192.378 77.407 192.378 78.2016Z" fill="black" fill-opacity="0.5686"/>
<path d="M237.223 0H500V209.792H237.223V0Z" fill="white"/>
<path d="M237.223 0H500V14.0539H237.223V0Z" fill="black" fill-opacity="0.2667"/>
<path d="M489.671 7.15067C489.671 7.60654 489.58 8.04939 489.411 8.47921C489.241 8.90904 488.994 9.28676 488.668 9.61238C488.343 9.938 487.965 10.1985 487.548 10.3678C487.131 10.5502 486.689 10.6413 486.233 10.6413C485.777 10.6413 485.334 10.5502 484.917 10.3678C484.487 10.1985 484.123 9.938 483.797 9.61238C483.471 9.28676 483.224 8.90904 483.055 8.47921C482.872 8.04939 482.794 7.60654 482.794 7.15067C482.794 6.68178 482.872 6.23893 483.055 5.80911C483.224 5.37929 483.471 5.00156 483.797 4.67594C484.123 4.35031 484.487 4.08982 484.917 3.9205C485.334 3.73815 485.777 3.64697 486.233 3.64697C486.689 3.64697 487.131 3.73815 487.548 3.9205C487.965 4.08982 488.343 4.35031 488.668 4.67594C488.994 5.00156 489.241 5.37929 489.411 5.80911C489.58 6.23893 489.671 6.68178 489.671 7.15067Z" fill="black" fill-opacity="0.5686"/>
<path d="M476.725 7.15067C476.725 7.60654 476.646 8.04939 476.464 8.47921C476.295 8.90904 476.047 9.28676 475.722 9.61238C475.396 9.938 475.031 10.1985 474.601 10.3678C474.185 10.5502 473.742 10.6413 473.286 10.6413C472.83 10.6413 472.387 10.5502 471.97 10.3678C471.554 10.1985 471.176 9.938 470.85 9.61238C470.525 9.28676 470.277 8.90904 470.108 8.47921C469.939 8.04939 469.847 7.60654 469.847 7.15067C469.847 6.68178 469.939 6.23893 470.108 5.80911C470.277 5.37929 470.525 5.00156 470.85 4.67594C471.176 4.35031 471.554 4.08982 471.97 3.9205C472.387 3.73815 472.83 3.64697 473.286 3.64697C473.742 3.64697 474.185 3.73815 474.601 3.9205C475.031 4.08982 475.396 4.35031 475.722 4.67594C476.047 5.00156 476.295 5.37929 476.464 5.80911C476.646 6.23893 476.725 6.68178 476.725 7.15067Z" fill="black" fill-opacity="0.5686"/>
<path d="M463.856 7.15067C463.856 7.60654 463.765 8.04939 463.595 8.47921C463.413 8.90904 463.166 9.28676 462.84 9.61238C462.527 9.938 462.15 10.1985 461.733 10.3678C461.303 10.5502 460.873 10.6413 460.417 10.6413C459.961 10.6413 459.519 10.5502 459.089 10.3678C458.672 10.1985 458.307 9.938 457.982 9.61238C457.656 9.28676 457.409 8.90904 457.226 8.47921C457.057 8.04939 456.966 7.60654 456.966 7.15067C456.966 6.68178 457.057 6.23893 457.226 5.80911C457.409 5.37929 457.656 5.00156 457.982 4.67594C458.307 4.35031 458.672 4.08982 459.089 3.9205C459.519 3.73815 459.961 3.64697 460.417 3.64697C460.873 3.64697 461.303 3.73815 461.733 3.9205C462.15 4.08982 462.527 4.35031 462.84 4.67594C463.166 5.00156 463.413 5.37929 463.595 5.80911C463.765 6.23893 463.856 6.68178 463.856 7.15067Z" fill="black" fill-opacity="0.5686"/>
<path d="M204.4 232.846C204.413 232.547 204.413 232.234 204.4 231.934C204.4 231.752 204.296 231.609 204.126 231.531C203.957 231.465 203.788 231.492 203.657 231.609C203.553 231.7 203.501 231.817 203.501 231.947C203.501 232.299 203.501 232.638 203.488 232.976C203.436 234.565 202.329 235.946 200.766 236.324C199.776 236.571 198.851 236.415 197.979 235.894C197.913 235.855 197.874 235.855 197.822 235.907C197.64 236.102 197.444 236.285 197.249 236.48C197.275 236.506 197.301 236.532 197.327 236.545C197.939 236.962 198.617 237.209 199.346 237.301C199.398 237.314 199.437 237.314 199.437 237.379C199.437 237.952 199.437 238.512 199.437 239.085C199.437 239.098 199.437 239.098 199.424 239.124H199.32C198.486 239.124 197.653 239.124 196.806 239.124C196.715 239.124 196.611 239.15 196.533 239.176C196.376 239.254 196.285 239.385 196.285 239.554C196.272 239.736 196.35 239.867 196.494 239.971C196.507 239.971 196.533 239.984 196.546 239.984C196.546 239.997 196.546 239.997 196.546 239.997H203.241C203.345 239.932 203.423 239.854 203.462 239.736C203.579 239.463 203.384 239.163 203.084 239.137C203.032 239.124 202.993 239.124 202.941 239.124C202.12 239.124 201.3 239.124 200.466 239.124H200.349C200.349 239.085 200.336 239.059 200.336 239.02C200.336 238.486 200.336 237.952 200.336 237.418C200.336 237.34 200.362 237.314 200.44 237.301C201.391 237.183 202.212 236.806 202.915 236.167C203.501 235.646 203.918 234.995 204.178 234.24C204.322 233.784 204.387 233.328 204.4 232.846Z" fill="black"/>
<path d="M197.288 227.584C197.21 227.819 197.184 228.066 197.184 228.326C197.184 229.759 197.184 231.205 197.184 232.638C197.184 232.664 197.184 232.69 197.184 232.729C197.223 232.703 197.249 232.677 197.262 232.664C197.523 232.416 197.77 232.156 198.018 231.908C198.07 231.869 198.083 231.817 198.083 231.752C198.083 230.632 198.083 229.512 198.083 228.392C198.083 227.519 198.63 226.829 199.476 226.607C200.232 226.425 201.078 226.79 201.456 227.493C201.573 227.688 201.639 227.91 201.665 228.131C201.678 228.17 201.678 228.196 201.691 228.248C201.73 228.222 201.756 228.196 201.769 228.183C201.977 227.975 202.173 227.766 202.381 227.571C202.433 227.519 202.446 227.48 202.42 227.415C201.886 226.125 200.453 225.344 199.073 225.8C198.174 226.099 197.588 226.698 197.288 227.584Z" fill="black"/>
<path d="M205.507 227.011C203.11 229.395 200.714 231.778 198.317 234.162C197.171 235.295 196.012 236.441 194.879 237.574C194.813 237.639 194.774 237.639 194.709 237.574C194.553 237.418 194.397 237.249 194.227 237.092C194.162 237.04 194.162 237.001 194.227 236.949C197.783 233.406 201.339 229.864 204.895 226.334C204.921 226.308 204.947 226.282 204.96 226.269C205.181 226.477 205.39 226.685 205.624 226.92C205.585 226.946 205.533 226.972 205.507 227.011Z" fill="black"/>
<path d="M202.602 231.257C202.602 231.791 202.602 232.325 202.589 232.872C202.576 233.667 202.264 234.344 201.678 234.865C200.87 235.594 199.672 235.751 198.708 235.282C198.656 235.256 198.604 235.23 198.552 235.191C198.578 235.165 198.591 235.139 198.617 235.112C198.799 234.943 198.981 234.761 199.151 234.578C199.203 234.526 199.242 234.526 199.307 234.539C199.594 234.644 199.88 234.67 200.167 234.618C200.987 234.487 201.599 233.836 201.678 233.015C201.704 232.729 201.678 232.442 201.691 232.143C201.691 232.104 201.717 232.039 201.756 232C202.003 231.752 202.264 231.492 202.511 231.244C202.537 231.218 202.55 231.205 202.589 231.179C202.589 231.218 202.589 231.231 202.602 231.257Z" fill="black"/>
<path d="M195.439 233.575C195.335 233.028 195.374 232.468 195.374 231.921C195.374 231.7 195.582 231.517 195.79 231.504C196.064 231.491 196.272 231.687 196.285 231.986C196.285 232.494 196.246 233.002 196.337 233.51C196.337 233.549 196.311 233.601 196.285 233.627C196.09 233.836 195.882 234.031 195.686 234.24C195.66 234.253 195.647 234.266 195.595 234.305C195.543 234.044 195.478 233.81 195.439 233.575Z" fill="black"/>
<path d="M168.607 233.524C168.607 233.445 168.607 233.367 168.607 233.289C168.607 232.273 168.607 231.257 168.607 230.241C168.62 230.085 168.633 229.929 168.673 229.785C168.725 229.486 168.868 229.356 169.167 229.303C169.376 229.277 169.584 229.264 169.793 229.264C172.658 229.264 175.511 229.264 178.363 229.264C178.558 229.264 178.754 229.277 178.949 229.303C179.21 229.343 179.392 229.486 179.444 229.746C179.496 230.007 179.522 230.293 179.522 230.567C179.535 232.768 179.522 234.969 179.522 237.184C179.522 237.366 179.509 237.548 179.496 237.744C179.457 238.03 179.314 238.186 179.027 238.252C178.897 238.278 178.767 238.304 178.637 238.304C175.589 238.304 172.554 238.317 169.519 238.304C168.829 238.304 168.62 238.082 168.607 237.392C168.607 237.327 168.607 237.275 168.607 237.21C168.607 236.233 168.607 235.256 168.607 234.292C168.607 234.214 168.607 234.136 168.607 234.058C168.516 234.097 168.464 234.149 168.425 234.214C167.748 235.126 167.07 236.05 166.38 236.962C166.159 237.249 165.937 237.548 165.677 237.809C165.586 237.887 165.351 237.952 165.26 237.9C165.13 237.835 165.065 237.639 164.973 237.496C164.96 237.457 164.973 237.392 164.973 237.34C164.973 234.852 164.973 232.364 164.973 229.877C164.973 229.811 164.973 229.759 164.973 229.694C165.052 229.29 165.364 229.16 165.69 229.408C165.794 229.486 165.885 229.59 165.963 229.694C166.628 230.671 167.279 231.648 167.943 232.625C168.138 232.924 168.347 233.224 168.555 233.537C168.581 233.524 168.594 233.524 168.607 233.524Z" fill="black"/>
<path d="M489.971 32.5101C489.971 32.1975 489.971 31.8979 489.971 31.5983C489.958 31.416 489.867 31.2727 489.697 31.1946C489.515 31.1294 489.359 31.1555 489.215 31.2727C489.111 31.3639 489.059 31.4811 489.059 31.6114C489.059 31.95 489.072 32.3017 489.059 32.6403C489.007 34.2294 487.887 35.61 486.324 35.9877C485.347 36.2352 484.422 36.0789 483.55 35.5579C483.484 35.5188 483.445 35.5188 483.38 35.5709C483.198 35.7663 483.015 35.9486 482.807 36.144C482.846 36.1701 482.872 36.1961 482.898 36.2091C483.51 36.6259 484.188 36.8734 484.917 36.9646C484.969 36.9776 485.008 36.9776 485.008 37.0427C485.008 37.6158 485.008 38.1759 485.008 38.749C485.008 38.749 484.995 38.762 484.995 38.7881H484.891C484.057 38.7881 483.224 38.7881 482.377 38.7881C482.286 38.7881 482.182 38.8011 482.104 38.8402C481.947 38.9183 481.856 39.0486 481.856 39.2179C481.843 39.4002 481.921 39.5305 482.065 39.6347C482.078 39.6347 482.104 39.6477 482.117 39.6477V39.6607H488.812C488.916 39.5956 488.994 39.5175 489.033 39.4002C489.15 39.1267 488.955 38.8271 488.655 38.7881C488.603 38.7881 488.564 38.7881 488.512 38.7881C487.691 38.7881 486.871 38.7881 486.037 38.7881H485.92C485.92 38.749 485.907 38.723 485.907 38.6839C485.907 38.1499 485.907 37.6158 485.907 37.0818C485.907 37.0037 485.933 36.9776 486.011 36.9646C486.962 36.8474 487.783 36.4696 488.486 35.8314C489.072 35.2974 489.489 34.6592 489.749 33.9037C489.893 33.4479 489.958 32.979 489.971 32.5101Z" fill="black"/>
<path d="M482.859 27.2479C482.781 27.4823 482.742 27.7298 482.742 27.9773C482.742 29.423 482.742 30.8558 482.742 32.3015C482.742 32.3276 482.755 32.3536 482.755 32.3927C482.794 32.3667 482.807 32.3406 482.833 32.3276C483.094 32.0801 483.341 31.8196 483.589 31.5721C483.641 31.5331 483.654 31.481 483.654 31.4158C483.654 30.2957 483.654 29.1756 483.654 28.0554C483.654 27.1827 484.188 26.4924 485.047 26.271C485.803 26.0756 486.649 26.4534 487.027 27.1567C487.144 27.3521 487.209 27.5735 487.236 27.7949C487.249 27.834 487.249 27.86 487.262 27.9121C487.301 27.8861 487.314 27.86 487.34 27.847C487.548 27.6386 487.744 27.4302 487.952 27.2348C488.004 27.1828 488.017 27.1437 487.991 27.0785C487.457 25.7891 486.011 25.0076 484.644 25.4635C483.745 25.75 483.159 26.3622 482.859 27.2479Z" fill="black"/>
<path d="M491.078 26.675C488.681 29.0586 486.285 31.4422 483.888 33.8257C482.742 34.9589 481.583 36.1051 480.437 37.2382C480.371 37.3034 480.345 37.3034 480.28 37.2382C480.124 37.0819 479.955 36.9126 479.798 36.7563C479.733 36.7042 479.733 36.6651 479.798 36.6C483.354 33.0703 486.91 29.5275 490.466 25.9847C490.492 25.9717 490.518 25.9456 490.531 25.9326C490.752 26.141 490.961 26.3494 491.195 26.5839C491.156 26.6099 491.104 26.636 491.078 26.675Z" fill="black"/>
<path d="M488.16 30.9212C488.16 31.4552 488.173 31.9892 488.16 32.5363C488.147 33.3308 487.835 33.995 487.236 34.5291C486.441 35.2585 485.243 35.4148 484.279 34.9459C484.227 34.9198 484.175 34.8807 484.123 34.8547C484.149 34.8286 484.162 34.8026 484.188 34.7765C484.37 34.6072 484.553 34.4249 484.722 34.2425C484.774 34.1904 484.813 34.1904 484.878 34.2034C485.165 34.3076 485.451 34.3337 485.738 34.2816C486.558 34.1383 487.171 33.5001 487.249 32.6795C487.275 32.393 487.249 32.1064 487.262 31.8069C487.262 31.7678 487.288 31.7027 487.327 31.6636C487.574 31.4031 487.835 31.1556 488.082 30.9081C488.108 30.8821 488.121 30.8691 488.16 30.843C488.16 30.8821 488.16 30.8951 488.16 30.9212Z" fill="black"/>
<path d="M481.01 33.2393C480.906 32.6923 480.945 32.1322 480.945 31.5851C480.945 31.3637 481.153 31.1814 481.361 31.1683C481.635 31.1553 481.843 31.3507 481.843 31.6503C481.856 32.1582 481.817 32.6662 481.908 33.1742C481.908 33.2132 481.882 33.2653 481.856 33.2914C481.661 33.4998 481.453 33.6952 481.257 33.9036C481.231 33.9166 481.218 33.9296 481.166 33.9687C481.114 33.7082 481.049 33.4737 481.01 33.2393Z" fill="black"/>
<path d="M453.345 32.7577C453.345 32.6795 453.345 32.6014 453.345 32.5232C453.345 31.5073 453.332 30.4913 453.345 29.4884C453.345 29.3321 453.371 29.1758 453.397 29.0195C453.449 28.733 453.592 28.5897 453.892 28.5506C454.1 28.5246 454.309 28.4985 454.53 28.4985C457.382 28.4985 460.235 28.4985 463.1 28.4985C463.296 28.4985 463.491 28.5246 463.687 28.5506C463.934 28.5897 464.129 28.72 464.168 28.9805C464.221 29.254 464.247 29.5275 464.247 29.801C464.26 32.0022 464.26 34.2165 464.26 36.4177C464.26 36.6 464.247 36.7954 464.221 36.9777C464.181 37.2643 464.051 37.4206 463.765 37.4857C463.634 37.5248 463.491 37.5508 463.361 37.5508C460.326 37.5508 457.278 37.5508 454.243 37.5508C453.566 37.5508 453.345 37.3164 453.345 36.6261C453.345 36.574 453.345 36.5089 453.345 36.4437C453.345 35.4799 453.345 34.503 453.345 33.5261C453.345 33.448 453.345 33.3698 453.345 33.2917C453.241 33.3438 453.202 33.3959 453.149 33.448C452.472 34.3597 451.795 35.2845 451.104 36.1963C450.896 36.4958 450.662 36.7824 450.401 37.0429C450.31 37.134 450.089 37.1861 449.984 37.134C449.854 37.0689 449.789 36.8735 449.711 36.7303C449.685 36.6912 449.698 36.6391 449.698 36.574C449.698 34.0862 449.698 31.5985 449.698 29.1107C449.698 29.0586 449.698 28.9935 449.711 28.9284C449.776 28.5376 450.102 28.3943 450.414 28.6418C450.518 28.72 450.623 28.8242 450.688 28.9414C451.352 29.9052 452.016 30.8821 452.667 31.859C452.876 32.1716 453.084 32.4711 453.28 32.7707C453.306 32.7707 453.319 32.7577 453.345 32.7577Z" fill="black"/>
<path d="M373.945 129.389H262.439C262.296 129.389 262.178 129.311 262.113 129.194C262.048 129.077 262.061 128.933 262.139 128.816L317.899 47.4236C318.029 47.2283 318.355 47.2283 318.485 47.4236L374.245 128.816C374.323 128.933 374.336 129.077 374.271 129.194C374.205 129.311 374.088 129.389 373.945 129.389ZM263.116 128.673H373.268L318.185 48.2702L263.116 128.673Z" fill="black"/>
<path d="M325.18 129.389C324.997 129.389 324.841 129.246 324.828 129.051L317.834 47.6582C317.808 47.4628 317.964 47.2935 318.159 47.2674C318.381 47.2544 318.537 47.3977 318.55 47.6061L325.544 128.999C325.557 129.194 325.414 129.363 325.219 129.376C325.206 129.389 325.193 129.389 325.18 129.389Z" fill="black"/>
<path d="M307.909 69.9828L308.612 69.9307C308.912 69.9047 309.25 69.8786 309.628 69.8786C309.81 69.8786 309.98 69.9177 310.123 69.9828C310.266 70.048 310.344 70.1391 310.344 70.2564C310.344 70.3345 310.305 70.4257 310.227 70.5038C310.162 70.582 310.071 70.6211 309.98 70.6211C309.941 70.6211 309.875 70.608 309.745 70.569C309.628 70.5429 309.55 70.5169 309.524 70.5169C309.407 70.5169 309.237 70.5299 309.003 70.5429C308.807 70.5559 308.638 70.569 308.495 70.569C308.404 70.569 308.273 70.582 308.104 70.595C307.961 70.6211 307.831 70.6211 307.713 70.6211L307.505 70.608C307.323 70.608 307.231 70.5038 307.231 70.2954C307.231 70.0089 307.284 69.7354 307.401 69.4618C307.505 69.1883 307.648 68.9669 307.818 68.8106C307.987 68.6413 308.391 68.3547 309.055 67.9379C309.589 67.6253 309.902 67.3518 310.019 67.1434C310.123 66.922 310.188 66.7527 310.188 66.6354C310.188 66.5182 310.11 66.401 309.954 66.3098C309.81 66.2186 309.654 66.1665 309.511 66.1665C309.302 66.1665 309.094 66.2186 308.886 66.3359L308.365 66.7006C308.26 66.7787 308.169 66.8178 308.117 66.8178C307.909 66.8178 307.805 66.7527 307.805 66.6094C307.805 66.414 308.026 66.1926 308.456 65.9191C308.899 65.6586 309.276 65.5283 309.602 65.5283C309.967 65.5283 310.266 65.6195 310.514 65.8149C310.761 65.9972 310.878 66.2317 310.878 66.5052C310.878 66.7266 310.8 67.0132 310.631 67.3648C310.462 67.7035 310.032 68.0682 309.341 68.4719C308.847 68.7585 308.495 68.9929 308.286 69.1883C308.091 69.3967 307.961 69.6572 307.909 69.9828Z" fill="black"/>
<path d="M314.708 70.4516C314.226 70.673 313.887 70.7902 313.692 70.7902C312.858 70.7902 312.441 70.3995 312.441 69.618C312.441 68.8755 312.676 68.2894 313.132 67.8335C313.601 67.3777 314.109 67.1562 314.669 67.1562C314.89 67.1562 315.112 67.2084 315.333 67.3256C315.567 67.4298 315.685 67.56 315.685 67.7033C315.685 67.7945 315.659 67.8596 315.593 67.9117C315.554 68.0029 315.489 68.2503 315.411 68.6671C315.32 69.0709 315.281 69.3705 315.281 69.5528C315.281 69.7743 315.346 70.0869 315.45 70.4776L315.476 70.5297C315.424 70.7381 315.294 70.8423 315.098 70.8423C315.072 70.8423 315.007 70.7902 314.916 70.699C314.825 70.6078 314.76 70.5297 314.708 70.4516ZM314.955 67.8726C314.812 67.7945 314.708 67.7424 314.617 67.7424C314.252 67.7424 313.9 67.9117 313.588 68.2503C313.262 68.576 313.106 68.9928 313.106 69.4877C313.106 69.9696 313.314 70.2171 313.731 70.2171C314.07 70.2171 314.382 70.0999 314.669 69.8524C314.708 68.9276 314.799 68.2634 314.955 67.8726Z" fill="black"/>
<path d="M325.597 70.4516C325.115 70.673 324.776 70.7902 324.568 70.7902C323.747 70.7902 323.33 70.3995 323.33 69.618C323.33 68.8755 323.552 68.2894 324.021 67.8335C324.489 67.3777 324.997 67.1562 325.557 67.1562C325.766 67.1562 325.987 67.2084 326.222 67.3256C326.456 67.4298 326.573 67.56 326.573 67.7033C326.573 67.7945 326.534 67.8596 326.482 67.9117C326.43 68.0029 326.378 68.2503 326.287 68.6671C326.209 69.0709 326.17 69.3705 326.17 69.5528C326.17 69.7743 326.222 70.0869 326.339 70.4776L326.352 70.5297C326.313 70.7381 326.183 70.8423 325.987 70.8423C325.948 70.8423 325.896 70.7902 325.805 70.699C325.714 70.6078 325.636 70.5297 325.597 70.4516ZM325.844 67.8726C325.701 67.7945 325.597 67.7424 325.505 67.7424C325.141 67.7424 324.789 67.9117 324.476 68.2503C324.151 68.576 323.994 68.9928 323.994 69.4877C323.994 69.9696 324.203 70.2171 324.62 70.2171C324.958 70.2171 325.258 70.0999 325.557 69.8524C325.597 68.9276 325.688 68.2634 325.844 67.8726Z" fill="black"/>
<path d="M319.397 42.2528C319.149 42.2788 318.85 42.3309 318.485 42.4091L317.56 42.5914C317.104 43.399 316.831 43.8418 316.74 43.92C316.662 44.0111 316.557 44.0502 316.44 44.0502C316.362 44.0502 316.284 44.0242 316.232 43.9721C316.167 43.9069 316.141 43.8418 316.141 43.7767C316.141 43.6465 316.375 43.2297 316.844 42.5133C316.818 42.4612 316.818 42.4221 316.818 42.357C316.818 42.1486 316.935 42.0183 317.196 41.9662C317.482 41.5364 317.925 40.9503 318.524 40.1948C319.123 39.4524 319.488 39.0747 319.605 39.0747C319.788 39.0747 319.879 39.1919 319.905 39.4394L319.931 40.5465L320.074 42.8519L320.178 43.386C320.204 43.5292 320.217 43.6334 320.217 43.6985C320.217 43.8027 320.178 43.8809 320.087 43.959C320.009 44.0372 319.918 44.0763 319.814 44.0763C319.67 44.0763 319.566 43.933 319.501 43.6334C319.436 43.3469 319.397 42.878 319.397 42.2528ZM319.28 40.286L318.081 41.8099C318.303 41.7578 318.732 41.6797 319.358 41.5625L319.28 40.286Z" fill="black"/>
<path d="M257.593 133.596C258.154 133.857 258.44 134.17 258.44 134.534C258.44 134.886 258.167 135.238 257.619 135.576C257.072 135.928 256.278 136.097 255.21 136.097C255.119 136.097 255.028 136.045 254.962 135.967C254.884 135.876 254.858 135.785 254.871 135.693L255.028 134.717C255.08 134.365 255.184 133.883 255.327 133.271C255.457 132.659 255.562 132.203 255.614 131.89C255.666 131.578 255.705 131.343 255.757 131.174C255.796 131.004 255.835 130.9 255.9 130.874C255.952 130.848 256.083 130.822 256.304 130.783C256.525 130.744 256.747 130.731 256.968 130.731C257.346 130.731 257.698 130.861 258.023 131.122C258.336 131.382 258.492 131.682 258.492 132.046C258.492 132.281 258.427 132.554 258.297 132.841C258.154 133.128 257.919 133.375 257.593 133.596ZM256.473 134L256.2 134.013C256.083 134.013 255.952 134 255.822 133.987L255.679 134.73L255.575 135.42C256.369 135.381 256.929 135.264 257.268 135.068C257.606 134.86 257.776 134.717 257.776 134.625C257.776 134.534 257.672 134.43 257.476 134.326C257.281 134.209 257.059 134.13 256.812 134.065L256.473 134ZM256.343 131.434L256.239 132.007L255.978 133.284L256.473 133.336C256.617 133.336 256.812 133.284 257.046 133.193C257.281 133.101 257.476 132.958 257.606 132.75C257.75 132.554 257.815 132.359 257.815 132.164C257.815 131.981 257.724 131.812 257.528 131.656C257.32 131.486 257.098 131.408 256.864 131.408C256.617 131.408 256.447 131.421 256.343 131.434Z" fill="black"/>
<path d="M374.622 131.057C374.713 130.939 374.831 130.887 374.948 130.887C375.117 130.887 375.195 131.017 375.195 131.278C375.195 131.656 375.156 131.903 375.078 132.033C375 132.151 374.896 132.216 374.753 132.216C374.609 132.216 374.518 132.138 374.466 131.981C374.427 131.812 374.375 131.721 374.323 131.708C374.271 131.682 374.153 131.682 373.997 131.682C373.606 131.682 373.124 132.007 372.551 132.685C371.978 133.362 371.705 133.961 371.705 134.482C371.705 134.704 371.77 134.912 371.913 135.081C372.069 135.251 372.265 135.342 372.499 135.342C372.695 135.342 372.89 135.303 373.072 135.238C373.255 135.159 373.528 135.003 373.88 134.769C374.023 134.677 374.127 134.638 374.179 134.638C374.271 134.638 374.336 134.664 374.401 134.73C374.453 134.782 374.479 134.847 374.479 134.938C374.479 135.003 374.453 135.068 374.414 135.133C374.362 135.198 374.206 135.329 373.932 135.498C373.658 135.68 373.398 135.811 373.15 135.889C372.89 135.98 372.643 136.019 372.395 136.019C371.991 136.019 371.653 135.876 371.405 135.602C371.145 135.316 371.014 134.977 371.014 134.599C371.014 133.883 371.379 133.114 372.095 132.268C372.825 131.421 373.489 130.991 374.114 130.991C374.349 130.991 374.518 131.017 374.622 131.057Z" fill="black"/>
<path d="M324.281 135.954H324.255C324.164 135.954 324.086 135.928 324.034 135.876C323.982 135.824 323.955 135.759 323.955 135.681C323.955 135.628 323.982 135.459 324.047 135.186L324.281 133.974C324.333 133.701 324.45 132.945 324.633 131.695L324.698 131.239C324.711 131.122 324.776 131.018 324.88 130.926C324.997 130.822 325.102 130.783 325.193 130.783C325.245 130.783 325.414 130.861 325.688 131.005C326 131.174 326.183 131.252 326.235 131.278C326.821 131.487 327.29 131.812 327.668 132.242C328.045 132.672 328.228 133.141 328.228 133.636C328.228 134.092 328.097 134.547 327.824 134.977C327.55 135.42 327.225 135.746 326.834 135.954C326.443 136.162 325.961 136.267 325.349 136.267C325.18 136.267 324.984 136.228 324.763 136.176C324.542 136.123 324.385 136.045 324.281 135.954ZM325.31 131.656L325.024 133.544L324.685 135.368C324.698 135.368 324.698 135.368 324.711 135.381C324.919 135.524 325.167 135.602 325.466 135.602C326.026 135.602 326.456 135.498 326.717 135.303C326.99 135.094 327.186 134.86 327.329 134.586C327.472 134.313 327.55 134.026 327.55 133.753C327.55 133.466 327.472 133.193 327.303 132.958C327.147 132.724 326.938 132.516 326.665 132.346C326.404 132.19 325.948 131.955 325.31 131.656Z" fill="black"/>
<path d="M303.116 133.57C303.467 133.414 303.715 133.349 303.884 133.349C304.262 133.349 304.561 133.44 304.757 133.609C304.965 133.792 305.069 134.052 305.069 134.378C305.069 134.886 304.9 135.316 304.574 135.68C304.262 136.045 303.845 136.227 303.35 136.227C302.582 136.227 302.204 135.811 302.204 134.977C302.204 134.456 302.334 133.948 302.595 133.453C302.855 132.958 303.246 132.502 303.767 132.099L304.066 131.825C304.21 131.708 304.314 131.643 304.392 131.643C304.457 131.643 304.522 131.669 304.561 131.721C304.613 131.76 304.64 131.812 304.64 131.877C304.64 131.968 304.522 132.112 304.288 132.307L303.624 132.867C303.454 133.01 303.285 133.245 303.116 133.57ZM302.855 134.222C302.79 134.443 302.764 134.664 302.764 134.873C302.764 135.446 302.985 135.733 303.441 135.733C303.78 135.733 304.04 135.602 304.223 135.342C304.405 135.094 304.496 134.808 304.496 134.508C304.496 134.104 304.236 133.909 303.715 133.909C303.637 133.909 303.532 133.922 303.428 133.948C303.311 133.974 303.129 134.065 302.855 134.222Z" fill="black"/>
<path d="M352.285 88.1395C352.128 88.1395 352.037 88.1265 351.972 88.1004C351.92 88.0744 351.894 88.0223 351.894 87.9441C351.894 87.7227 352.063 87.6055 352.389 87.6055L352.636 87.6185C352.662 87.4622 352.675 87.332 352.675 87.2147C352.701 86.8761 352.806 86.3812 352.949 85.7429C353.079 85.2219 353.157 84.8572 353.183 84.6488C352.91 84.8442 352.727 84.9484 352.649 84.9484C352.584 84.9484 352.519 84.9224 352.48 84.8703C352.441 84.8312 352.415 84.7791 352.415 84.714C352.415 84.6098 352.519 84.4795 352.714 84.3493C352.832 84.2711 352.988 84.1669 353.196 83.9976C353.392 83.8413 353.561 83.7501 353.717 83.7501C353.821 83.7501 353.874 83.8022 353.874 83.9064C353.874 83.9585 353.848 84.0757 353.795 84.2711C353.769 84.3753 353.743 84.5446 353.717 84.7921C353.704 84.9614 353.626 85.3261 353.483 85.8732C353.327 86.4463 353.248 86.8891 353.235 87.2278C353.209 87.4231 353.196 87.5534 353.183 87.6055H353.483C353.561 87.5925 353.613 87.6185 353.652 87.6576C353.704 87.6967 353.73 87.7488 353.73 87.8139C353.73 87.9051 353.691 87.9832 353.639 88.0483C353.574 88.1004 353.496 88.1265 353.405 88.1265H352.285V88.1395Z" fill="black"/>
<path d="M355.58 86.6547C355.58 85.8341 355.775 85.1438 356.166 84.5968C356.557 84.0367 357.039 83.7632 357.625 83.7632C358.029 83.7632 358.341 83.9065 358.55 84.193C358.758 84.4665 358.862 84.8312 358.862 85.261C358.862 85.6257 358.784 86.0686 358.628 86.6026C358.471 87.1236 358.237 87.5274 357.937 87.8139C357.625 88.1005 357.26 88.2438 356.817 88.2438C355.984 88.2438 355.58 87.7097 355.58 86.6547ZM356.127 86.6026C356.127 87.332 356.387 87.6967 356.908 87.6967C357.351 87.6967 357.703 87.4362 357.937 86.8892C358.172 86.3551 358.289 85.8081 358.289 85.261C358.289 84.6228 358.042 84.3102 357.534 84.3102C357.143 84.3102 356.804 84.5186 356.531 84.9484C356.27 85.3783 356.127 85.9383 356.127 86.6026Z" fill="black"/>
<path d="M347.817 130.9C347.804 130.991 347.713 131.291 347.57 131.825C347.856 131.63 348.208 131.525 348.638 131.525C348.976 131.525 349.237 131.63 349.406 131.838C349.575 132.046 349.654 132.32 349.654 132.659C349.654 133.245 349.471 133.753 349.107 134.17C348.742 134.599 348.26 134.808 347.674 134.808C347.309 134.808 347.036 134.73 346.853 134.56C346.658 134.391 346.567 134.248 346.567 134.104C346.567 134.026 346.593 133.948 346.671 133.896C346.736 133.831 346.814 133.792 346.892 133.792C346.97 133.792 347.036 133.844 347.088 133.922C347.179 134.052 347.27 134.143 347.348 134.196C347.426 134.248 347.557 134.274 347.752 134.274C348.13 134.274 348.442 134.13 348.703 133.831C348.976 133.531 349.107 133.18 349.107 132.75C349.107 132.294 348.924 132.073 348.546 132.073C348.377 132.073 348.221 132.086 348.104 132.125C347.973 132.164 347.843 132.242 347.7 132.359L347.348 132.698C347.257 132.789 347.166 132.828 347.062 132.828C346.996 132.828 346.944 132.802 346.905 132.763C346.866 132.711 346.84 132.659 346.84 132.594C346.84 132.567 346.853 132.502 346.879 132.398C347.127 131.434 347.257 130.913 347.257 130.835C347.257 130.796 347.244 130.744 347.231 130.679C347.218 130.601 347.205 130.549 347.205 130.536C347.205 130.405 347.322 130.327 347.53 130.327C347.557 130.327 347.648 130.34 347.804 130.353L348.859 130.327L349.328 130.34C349.354 130.34 349.406 130.327 349.484 130.314C349.549 130.301 349.601 130.301 349.641 130.301C349.706 130.301 349.758 130.327 349.81 130.366C349.849 130.418 349.875 130.47 349.875 130.536C349.875 130.77 349.641 130.887 349.159 130.887H349.054C349.015 130.887 348.976 130.887 348.937 130.887L348.833 130.874H348.768L348.299 130.887L347.817 130.9Z" fill="black"/>
<path d="M309.042 162.85C309.042 162.85 309.459 155.973 300.771 155.179L287.408 153.72C286.209 153.603 285.193 154.554 285.232 155.752C285.258 156.546 285.779 157.263 286.535 157.536L293.021 160.037L276.063 164.518C274.76 164.791 274.031 166.172 274.526 167.396C274.904 168.347 275.907 168.894 276.909 168.712L288.528 166.432L288.84 166.94L277.17 171.004C275.985 171.538 275.581 173.023 276.336 174.091C276.909 174.885 277.978 175.172 278.876 174.768L290.703 171.33L291.146 171.916L281.234 176.683C278.72 177.946 278.941 179.444 279.475 180.239C280.27 181.15 282.68 180.121 283.448 179.666L293.868 175.159L294.298 175.68L285.115 180.538C284.399 181.163 284.438 182.284 285.206 182.844C285.74 183.26 286.496 183.247 287.03 182.818L297.867 177.595C297.867 177.595 309.719 174.508 309.784 168.529L309.042 162.85Z" fill="#FFC3AA"/>
<path d="M301.631 166.914C301.618 166.914 301.605 166.914 301.605 166.914C295.04 166.51 292.696 160.219 292.683 160.154C292.605 159.972 292.709 159.763 292.904 159.698C293.086 159.633 293.295 159.724 293.373 159.907C293.386 159.972 295.574 165.82 301.644 166.185C301.852 166.198 302.008 166.367 301.995 166.575C301.982 166.771 301.813 166.914 301.631 166.914Z" fill="#FFC3AA"/>
<path d="M327.016 160.779L305.747 158.383L305.304 171.121L326.248 173.961L327.016 160.779Z" fill="#FFC3AA"/>
<path d="M321.806 159.164L313.418 158.943L311.412 172.306L321.012 173.739L321.806 159.164Z" fill="white"/>
<path d="M363.03 159.008L325.154 155.986C321.663 155.752 318.589 158.226 318.068 161.665L316.544 171.785C316.023 175.341 318.394 178.663 321.937 179.34L358.966 187.142C365.466 188.379 371.822 184.407 373.528 178.037C375.469 170.743 370.546 160.037 363.03 159.008Z" fill="#007785"/>
<path d="M388.611 123.007C388.611 123.007 372.903 163.971 383.701 215.419L411.235 206.041L388.611 123.007Z" fill="#007785"/>
<path d="M443.146 210.014C443.146 210.014 416.654 227.311 394.85 208.073L398.184 159.568L398.041 126.407L403.381 119.165L417.422 116.964L433.664 120.142L433.052 149.213L443.146 210.014Z" fill="#FF3E4D"/>
<path d="M424.755 122.343C424.755 122.343 411.848 134.183 401.753 122.603L408.617 108.107L426.553 111.259L424.755 122.343Z" fill="#FFC3AA"/>
<path d="M402.3 140.656C401.688 159.92 400.086 195.243 396.087 218.193C395.84 219.587 393.938 219.86 393.313 218.571L393.261 218.467C391.711 215.263 390.969 211.759 391.112 208.242L393.183 156.364L387.83 128.347C387.23 125.221 388.481 122.043 391.034 120.129C393.743 118.097 401.128 113.278 407.106 111.298L406.611 113.017C404.046 122.017 402.587 131.304 402.3 140.656Z" fill="#007785"/>
<path d="M415.859 133.271C415.859 133.271 412.277 178.793 427.139 220.29C427.907 222.439 430.108 223.742 432.375 223.377C437.415 222.557 447.093 219.665 457.122 205.976L459.844 131.773C459.948 128.855 458.62 126.081 456.275 124.323C452.277 121.327 435.344 114.606 426.553 111.259C426.553 111.259 420.118 117.862 415.859 133.271Z" fill="#007785"/>
<path d="M456.328 124.362C456.328 124.362 434.355 144.863 444.748 192.156L445.673 208.62C446.22 218.141 453.319 224.875 461.238 223.364C468.389 222.01 473.703 214.325 473.442 205.689C472.674 180.538 469.47 132.45 456.328 124.362Z" fill="#007785"/>
<path d="M448.539 215.81C448.343 215.81 448.161 215.679 448.135 215.471C448.122 215.302 445.712 197.926 442.925 168.047C440.111 137.96 451.235 129.077 451.704 128.712C451.886 128.582 452.133 128.608 452.264 128.79C452.394 128.96 452.368 129.207 452.186 129.337C452.081 129.429 440.958 138.377 443.719 167.969C446.507 197.835 448.903 215.198 448.929 215.367C448.955 215.588 448.812 215.784 448.591 215.81C448.578 215.81 448.552 215.81 448.539 215.81Z" fill="black"/>
<path d="M430.121 59.1852C430.121 59.1852 429.405 48.2443 415.781 47.6582C407.067 47.2805 407.211 51.5526 398.432 51.4094C390.461 51.2791 383.089 56.971 385.459 66.2708C387.452 74.0727 399.773 77.915 399.773 77.915L430.121 59.1852Z" fill="black"/>
<path d="M401.024 83.7631C401.024 84.5316 400.88 85.261 400.581 85.9513C400.294 86.6546 399.878 87.2798 399.344 87.8138C398.796 88.3479 398.171 88.7647 397.468 89.0512C396.765 89.3378 396.035 89.4941 395.267 89.4941C394.511 89.4941 393.769 89.3378 393.066 89.0512C392.362 88.7647 391.75 88.3479 391.203 87.8138C390.669 87.2798 390.252 86.6546 389.953 85.9513C389.666 85.261 389.523 84.5316 389.523 83.7631C389.523 83.0077 389.666 82.2783 389.953 81.5749C390.252 80.8716 390.669 80.2594 391.203 79.7254C391.75 79.1914 392.362 78.7746 393.066 78.488C393.769 78.1884 394.511 78.0452 395.267 78.0452C396.035 78.0452 396.765 78.1884 397.468 78.488C398.171 78.7746 398.796 79.1914 399.344 79.7254C399.878 80.2594 400.294 80.8716 400.581 81.5749C400.88 82.2783 401.024 83.0077 401.024 83.7631Z" fill="#FFC3AA"/>
<path d="M404.553 95.8633L406.051 119.582L426.553 111.259L421.186 81.588L404.553 95.8633Z" fill="#FFC3AA"/>
<path d="M405.231 106.596C405.231 106.596 419.337 105.554 420.105 91.7214L404.671 97.9734L405.231 106.596Z" fill="black" fill-opacity="0.298"/>
<path d="M396.152 60.123C395.071 61.3473 393.222 63.6137 392.961 67.5993C392.61 73.0307 391.841 86.303 394.55 92.0079C397.989 99.2758 404.697 103.288 414.374 100.135C414.374 100.135 423.283 98.7027 426.54 80.8456C431.489 53.6496 407.106 47.606 396.152 60.123Z" fill="#FFC3AA"/>
<path d="M397.976 80.7154C397.872 81.4317 397.194 81.9137 396.478 81.7964C395.762 81.6922 395.267 81.0149 395.384 80.2986C395.501 79.5822 396.179 79.1003 396.895 79.2175C397.611 79.3217 398.093 79.999 397.976 80.7154Z" fill="black"/>
<path d="M409.607 79.8298C409.49 80.5461 408.826 81.028 408.109 80.9238C407.38 80.8066 406.898 80.1293 407.015 79.426C407.132 78.7096 407.797 78.2147 408.513 78.3319C409.242 78.4491 409.724 79.1134 409.607 79.8298Z" fill="black"/>
<path d="M401.454 86.3943H401.441L399.487 86.3031C399.383 86.2901 399.278 86.238 399.2 86.1468C399.135 86.0556 399.109 85.9514 399.135 85.8342L399.969 82.2784C400.021 82.07 400.229 81.9397 400.438 81.9918C400.633 82.0439 400.763 82.2393 400.711 82.4477L399.982 85.5607L401.467 85.6388C401.688 85.6518 401.844 85.8342 401.831 86.0426C401.818 86.238 401.649 86.3943 401.454 86.3943Z" fill="black"/>
<path d="M405.101 72.4706C405.022 73.5387 405.882 74.4374 406.963 74.4114C408.578 74.3723 410.949 74.4504 413.163 75.1017C413.984 75.3492 414.843 74.9193 415.117 74.1118C415.377 73.3433 414.96 72.5879 414.244 72.1841C412.785 71.3505 410.48 70.1522 406.69 70.8035C405.83 70.9598 405.166 71.611 405.101 72.4706Z" fill="black"/>
<path d="M399.018 72.8093C398.992 73.8513 398.354 74.763 397.624 74.7891C396.543 74.8151 394.941 75.0105 393.417 75.7529C392.844 76.0134 392.297 75.6487 392.167 74.8672C392.05 74.1248 392.388 73.3563 392.896 72.9265C393.938 72.0538 395.579 70.7644 398.08 71.2463C398.64 71.3505 399.044 71.9627 399.018 72.8093Z" fill="black"/>
<path d="M393.886 90.2496L397.064 90.6143L397.794 89.0122C398.093 88.361 398.731 87.9442 399.461 87.9311L406.703 87.8139C407.393 87.8009 408.018 88.1656 408.357 88.7517L410.024 90.2365C410.024 90.2365 418.581 91.7735 419.662 79.8687L422.059 79.1133C422.059 79.1133 419.832 84.5447 423.583 90.3277C423.583 90.3277 420.535 102.519 406.156 101.099C406.156 101.112 397.22 100.604 393.886 90.2496Z" fill="black"/>
<path d="M402.912 91.5522C401.571 91.5522 400.555 91.0833 400.49 91.0572C400.307 90.9661 400.229 90.7446 400.32 90.5493C400.398 90.3669 400.633 90.2888 400.815 90.3799C400.841 90.3799 403.082 91.4089 405.179 90.2106C405.361 90.1064 405.582 90.1715 405.687 90.3539C405.791 90.5362 405.726 90.7707 405.556 90.8749C404.632 91.3829 403.72 91.5522 402.912 91.5522Z" fill="white"/>
<path d="M427.282 81.1452L419.662 79.8688L420.509 70.2304C420.6 69.1884 419.91 68.2245 418.92 68.0161C417.227 67.6775 414.895 66.6225 414.726 63.4704C414.465 58.4689 417.097 55.4471 417.097 55.4471C417.097 55.4471 432.349 52.3602 434.967 63.4835C436.803 71.2463 433.026 86.3161 422.619 92.7634L427.282 81.1452Z" fill="black"/>
<path d="M434.25 82.8252C433.651 86.3028 430.33 88.6343 426.826 88.0351C423.335 87.436 420.978 84.1407 421.577 80.65C422.189 77.1724 425.511 74.8409 429.001 75.4401C432.505 76.0392 434.849 79.3475 434.25 82.8252Z" fill="#FFC3AA"/>
<path d="M425.12 84.4275C425.107 84.4275 425.094 84.4275 425.081 84.4275C424.859 84.4015 424.716 84.2061 424.742 83.9977C424.937 82.2654 425.602 80.9629 426.709 80.1163C428.415 78.8268 430.538 79.1394 430.616 79.1524C430.825 79.1915 430.968 79.3739 430.942 79.5823C430.903 79.7907 430.707 79.9339 430.512 79.9079C430.486 79.8949 428.61 79.6213 427.165 80.7285C426.227 81.4318 425.667 82.565 425.498 84.0889C425.471 84.2843 425.302 84.4275 425.12 84.4275Z" fill="black"/>
<path d="M418.425 57.3358C418.425 57.3358 414.036 61.6861 406.312 61.4517C398.588 61.2302 397.051 59.2635 394.329 62.5197C394.329 62.5197 394.629 51.8523 408.552 50.8233C422.489 49.7944 421.799 58.8467 421.799 58.8467L418.425 57.3358Z" fill="black"/>
<path d="M363.03 159.008L389.523 122.109V173.739L365.909 186.504L363.03 159.008Z" fill="#007785"/>
<path d="M379.91 179.301C379.884 179.301 379.871 179.301 379.858 179.301C379.663 179.275 379.52 179.092 379.546 178.884L386.11 132.528C386.136 132.32 386.306 132.19 386.514 132.216C386.709 132.242 386.853 132.424 386.827 132.619L380.262 178.988C380.236 179.17 380.08 179.301 379.91 179.301Z" fill="black"/>
<path d="M109.565 184.797L117.354 210.469C118.996 215.862 116.338 221.606 111.155 223.885C104.916 226.62 97.6737 223.208 95.8503 216.669L88.1395 189.03L109.565 184.797Z" fill="#FFC3AA"/>
<path d="M94.8083 160.219C94.8083 160.219 107.521 165.13 112.262 180.017L115.127 194.384L98.846 200.61L94.8083 160.219Z" fill="#FF3E4D"/>
<path d="M133.102 165.208L132.854 159.789C132.724 156.95 133.258 154.137 134.43 151.545L136.475 146.999C136.97 145.918 138.311 145.527 139.301 146.191C140.148 146.751 140.552 147.754 140.356 148.731L139.262 153.915L153.056 138.376C153.629 137.699 154.684 137.673 155.296 138.337L155.7 138.78C156.182 139.301 156.221 140.083 155.804 140.656L147.924 150.112L158.487 140.486C159.112 139.848 160.154 139.9 160.714 140.591L161.001 140.929C161.47 141.515 161.431 142.349 160.91 142.896L150.216 153.225L160.298 146.543C161.079 145.996 162.16 146.309 162.525 147.181L162.603 147.351C162.85 147.963 162.681 148.653 162.186 149.07L152.444 157.184L158.956 153.042C159.881 152.443 161.118 153.029 161.248 154.111C161.3 154.632 161.092 155.139 160.675 155.452L140.539 172.58L133.102 165.208Z" fill="#FFC3AA"/>
<path d="M140.382 162.486C140.356 162.486 140.317 162.486 140.291 162.473C140.096 162.421 139.979 162.225 140.031 162.03C141.359 157.302 139.002 154.163 138.976 154.137C138.846 153.98 138.885 153.746 139.041 153.629C139.197 153.512 139.432 153.538 139.549 153.694C139.653 153.837 142.154 157.159 140.734 162.225C140.682 162.381 140.539 162.486 140.382 162.486Z" fill="black"/>
<path d="M133.102 165.208L140.539 172.58C135.759 184.081 117.146 217.698 117.146 217.698C114.958 223.312 108.094 225.448 103.079 222.075C98.9242 219.261 97.7128 213.7 100.344 209.427L133.102 165.208Z" fill="#FFC3AA"/>
<path d="M103.34 205.728C103.274 205.728 103.196 205.702 103.131 205.663C102.975 205.546 102.936 205.325 103.053 205.155L114.059 190.294C114.176 190.138 114.411 190.112 114.567 190.229C114.723 190.346 114.762 190.567 114.645 190.724L103.639 205.585C103.561 205.676 103.457 205.728 103.34 205.728Z" fill="black"/>
<path d="M80.3506 156.625C80.3506 156.625 91.1613 157.927 95.9284 160.819L101.008 180.004L102.324 246.874C75.7138 266.646 44.5061 246.08 44.5061 246.08L45.3788 166.237C45.3788 166.237 47.593 160.337 66.8698 157.08L80.3506 156.625Z" fill="#FF3E4D"/>
<path d="M58.4037 158.943C58.4037 158.943 58.573 169.389 75.6877 168.816C78.0322 168.725 80.3506 168.151 82.3955 166.992C85.2089 165.39 88.0223 162.46 85.769 157.523C85.769 157.523 81.7313 155.999 73.0957 156.312C64.4602 156.611 58.4037 158.943 58.4037 158.943Z" fill="#FF3E4D"/>
<path d="M101.438 199.984C101.23 199.984 101.073 199.828 101.073 199.633L100.865 178.637C100.865 178.441 101.021 178.285 101.23 178.272C101.425 178.272 101.594 178.428 101.594 178.624L101.79 199.62C101.79 199.815 101.633 199.984 101.438 199.984Z" fill="black"/>
<path d="M29.788 255.015L31.8459 197.9L52.8941 194.24L47.6321 253.243L29.788 255.015Z" fill="#FFC3AA"/>
<path d="M54.1055 160.519C54.1055 160.519 25.5028 166.458 27.717 203.644L57.6482 205.181L57.3747 180.76L54.1055 160.519Z" fill="#FF3E4D"/>
<path d="M55.5382 205.715C55.5252 205.715 55.4991 205.702 55.4861 205.702L51.9042 205.246C51.6958 205.22 51.5656 205.038 51.5916 204.843C51.6177 204.634 51.8 204.517 51.9954 204.53L55.2126 204.947L57.0751 185.748C57.0881 185.54 57.2835 185.396 57.4659 185.422C57.6612 185.436 57.8045 185.618 57.7915 185.813L55.8899 205.39C55.8899 205.481 55.8378 205.572 55.7596 205.637C55.6945 205.689 55.6163 205.715 55.5382 205.715Z" fill="black"/>
<path d="M50.9664 154.058H95.4986C107.065 115.895 95.7851 104.16 87.6967 102.037C83.9064 101.034 78.449 102.024 77.1595 103.287C71.5849 101.998 64.877 100.761 59.9015 106.023C48.8955 117.68 48.635 140.213 50.9664 154.058Z" fill="black"/>
<path d="M68.2635 129.441L65.0854 160.831L81.8094 164.283L82.3565 141.424L68.2635 129.441Z" fill="#FFC3AA"/>
<path d="M82.2913 144.602L72.5878 140.369C73.4084 150.581 82.135 150.412 82.135 150.412L82.2913 144.602Z" fill="black" fill-opacity="0.2588"/>
<path d="M65.5153 129.246C68.1463 144.811 78.8267 145.293 78.8267 145.293C88.0223 147.025 93.7272 142.623 96.0587 135.654C97.8691 130.301 95.8633 119.816 94.8474 114.762C94.5087 113.069 93.6491 111.48 92.3205 110.36C80.8326 100.734 61.7771 107.169 65.5153 129.246Z" fill="#FFC3AA"/>
<path d="M78.8788 103.769C94.3654 101.985 94.8473 114.762 94.8473 114.762C90.1063 105.971 79.9338 107.351 79.9338 107.351L78.8788 103.769Z" fill="black"/>
<path d="M78.8788 103.77C58.7163 103.652 63.2098 123.059 63.2098 123.059L69.8916 128.777C76.4301 121.965 72.3663 117.433 73.226 113.226C74.3461 107.651 79.9338 107.351 79.9338 107.351L78.8788 103.77Z" fill="black"/>
<path d="M93.7793 124.544C94.4175 124.375 95.0818 124.753 95.2642 125.404C95.4335 126.042 95.0427 126.706 94.3915 126.876C93.7402 127.045 93.076 126.654 92.9067 126.016C92.7373 125.365 93.1281 124.714 93.7793 124.544Z" fill="black"/>
<path d="M83.5027 124.74C84.1539 124.57 84.8182 124.961 84.9875 125.599C85.1569 126.251 84.7661 126.915 84.1149 127.084C83.4767 127.253 82.8124 126.863 82.63 126.224C82.4607 125.573 82.8515 124.909 83.5027 124.74Z" fill="black"/>
<path d="M90.1063 131.929C89.937 131.929 89.7937 131.825 89.7546 131.669C89.7025 131.473 89.8198 131.278 90.0021 131.226L91.5521 130.809L90.5101 128.321C90.4319 128.139 90.5231 127.931 90.7054 127.852C90.8878 127.774 91.1092 127.865 91.1743 128.048L92.3857 130.913C92.4247 131.004 92.4247 131.122 92.3726 131.213C92.3205 131.304 92.2424 131.369 92.1382 131.395L90.1975 131.916C90.1584 131.929 90.1323 131.929 90.1063 131.929Z" fill="black"/>
<path d="M84.3493 117.068C81.3536 117.107 79.7645 118.357 78.7616 119.191C78.2797 119.595 78.0713 120.233 78.3839 120.793C78.6965 121.366 79.4259 121.561 80.025 121.262C81.6141 120.454 83.4115 120.051 84.6619 119.855C85.4825 119.725 86.0165 118.917 85.8081 118.123C85.6388 117.472 85.0266 117.068 84.3493 117.068Z" fill="black"/>
<path d="M92.6071 116.885C94.5738 116.69 95.7591 117.797 96.5015 118.553C96.8662 118.917 97.0746 119.529 96.9183 120.103C96.7751 120.702 96.3192 120.949 95.8894 120.702C94.7562 120.024 93.5449 119.764 92.6983 119.66C92.1382 119.595 91.7084 118.839 91.7605 118.032C91.8126 117.38 92.1642 116.938 92.6071 116.885Z" fill="black"/>
<path d="M87.4622 136.827C84.0888 136.449 84.5056 133.675 84.5056 133.675L91.3306 134.456C91.3306 134.456 90.8487 137.217 87.4622 136.827Z" fill="white"/>
<path d="M95.4986 130.405C93.115 130.405 91.1743 128.295 91.1743 125.69C91.1743 123.085 93.115 120.962 95.4986 120.962C97.8952 120.962 99.8359 123.085 99.8359 125.69C99.8359 128.282 97.8821 130.405 95.4986 130.405ZM95.4986 121.653C93.4927 121.653 91.8516 123.463 91.8516 125.69C91.8516 127.918 93.4927 129.728 95.4986 129.728C97.5174 129.728 99.1456 127.918 99.1456 125.69C99.1456 123.463 97.5174 121.653 95.4986 121.653Z" fill="white"/>
<path d="M82.643 130.822C80.012 130.822 77.8759 128.699 77.8759 126.081C77.8759 123.476 80.012 121.34 82.643 121.34C85.2741 121.34 87.4101 123.476 87.4101 126.081C87.4101 128.699 85.2741 130.822 82.643 130.822ZM82.643 122.056C80.4027 122.056 78.5923 123.867 78.5923 126.081C78.5923 128.295 80.4027 130.106 82.643 130.106C84.8703 130.106 86.6938 128.295 86.6938 126.081C86.6938 123.867 84.8703 122.056 82.643 122.056Z" fill="white"/>
<path d="M87.2929 126.355L86.811 125.808C89.2336 123.711 91.6953 125.378 91.7214 125.391L91.3046 125.977C91.2264 125.925 89.2727 124.622 87.2929 126.355Z" fill="white"/>
<path d="M68.1333 125.951L68.1723 125.234L78.2406 125.716L78.2145 126.433L68.1333 125.951Z" fill="white"/>
<path d="M71.5328 129.181C71.5328 130.028 71.3635 130.848 71.0378 131.63C70.7122 132.411 70.2433 133.101 69.6442 133.701C69.032 134.3 68.3417 134.769 67.5472 135.094C66.7657 135.42 65.9451 135.576 65.0855 135.576C64.2258 135.576 63.4053 135.42 62.6107 135.094C61.8292 134.769 61.1259 134.3 60.5267 133.701C59.9276 133.101 59.4587 132.411 59.1331 131.63C58.8075 130.848 58.6381 130.028 58.6381 129.181C58.6381 128.334 58.8075 127.514 59.1331 126.732C59.4587 125.951 59.9276 125.26 60.5267 124.661C61.1259 124.049 61.8292 123.593 62.6107 123.268C63.4053 122.942 64.2258 122.786 65.0855 122.786C65.9451 122.786 66.7657 122.942 67.5472 123.268C68.3417 123.593 69.032 124.049 69.6442 124.661C70.2433 125.26 70.7122 125.951 71.0378 126.732C71.3635 127.514 71.5328 128.334 71.5328 129.181Z" fill="#FFC3AA"/>
<path d="M68.1593 131.486C67.99 131.486 67.8468 131.369 67.8077 131.213C67.443 129.715 66.7396 128.66 65.7237 128.061C64.1477 127.149 62.2981 127.657 62.2721 127.657C62.0767 127.709 61.8813 127.605 61.8292 127.41C61.7771 127.214 61.8813 127.019 62.0767 126.967C62.1679 126.941 64.2258 126.368 66.0754 127.436C67.2737 128.139 68.0942 129.35 68.511 131.044C68.5501 131.239 68.4329 131.421 68.2375 131.473C68.2115 131.486 68.1854 131.486 68.1593 131.486Z" fill="black"/>
</svg>
