<svg width="300" height="225" viewBox="0 0 300 225" fill="none" xmlns="http://www.w3.org/2000/svg">
<path d="M69.9188 188.513C87.975 188.513 106.05 188.513 124.106 188.513C129.206 188.513 134.325 188.513 139.425 188.513C139.781 188.513 139.781 187.95 139.425 187.95C121.369 187.95 103.294 187.95 85.2375 187.95C80.1375 187.95 75.0188 187.95 69.9188 187.95C69.5625 187.95 69.5625 188.513 69.9188 188.513Z" fill="#E8E8E8"/>
<path d="M143.063 188.513C161.513 188.513 179.944 188.513 198.394 188.513C203.625 188.513 208.856 188.513 214.088 188.513C214.444 188.513 214.444 187.95 214.088 187.95C195.638 187.95 177.206 187.95 158.756 187.95C153.525 187.95 148.294 187.95 143.063 187.95C142.706 187.95 142.706 188.513 143.063 188.513Z" fill="#E8E8E8"/>
<path d="M156.431 193.669C170.906 193.669 185.362 193.669 199.837 193.669C200.194 193.669 200.194 193.106 199.837 193.106C185.362 193.106 170.906 193.106 156.431 193.106C156.056 193.106 156.056 193.669 156.431 193.669Z" fill="#E8E8E8"/>
<path d="M111.806 194.888C120.206 194.888 128.606 194.888 137.006 194.888C137.362 194.888 137.362 194.325 137.006 194.325C128.606 194.325 120.206 194.325 111.806 194.325C111.45 194.325 111.45 194.888 111.806 194.888Z" fill="#E8E8E8"/>
<path d="M223.8 188.212C230.475 188.212 237.15 188.212 243.825 188.212C244.181 188.212 244.181 187.65 243.825 187.65C237.15 187.65 230.475 187.65 223.8 187.65C223.444 187.65 223.444 188.212 223.8 188.212Z" fill="#E8E8E8"/>
<path d="M77.8125 152.756C80.2125 156.937 80.7187 161.981 79.2187 166.556C79.1625 166.706 79.275 166.856 79.4062 166.894C79.9687 167.081 80.55 167.325 80.9437 167.756C81.45 168.319 81.5625 169.444 80.7 169.781C80.5312 169.856 80.3812 170.1 80.5687 170.25C82.0312 171.394 82.2 173.306 82.3125 175.031C82.425 176.738 82.5937 178.425 83.0062 180.075C83.8125 183.263 85.3875 186.225 88.0312 188.231C88.3125 188.456 88.5937 187.969 88.3125 187.744C85.3875 185.531 83.8875 182.063 83.25 178.538C82.7437 175.8 83.4187 171.788 80.9437 169.856C80.9062 170.006 80.8687 170.175 80.8125 170.325C81.6 170.006 81.9937 169.2 81.825 168.356C81.6 167.25 80.4937 166.669 79.5 166.35C79.5562 166.463 79.6312 166.575 79.6875 166.687C81.2437 161.962 80.7 156.75 78.225 152.456C78.1125 152.156 77.625 152.437 77.8125 152.756Z" fill="#E8E8E8"/>
<path d="M77.9813 152.306C81.8063 154.65 84.8625 157.95 87.375 161.625C88.5938 163.387 89.7 165.244 90.7313 167.119C91.5938 168.694 93.5625 171.506 91.9313 173.175C91.7813 173.325 91.8563 173.587 92.0625 173.644C93.3375 173.981 93.8625 175.425 94.3313 176.531C94.8188 177.694 95.2125 178.894 95.5125 180.112C96.15 182.644 96.4125 185.25 96.3 187.856C96.2812 188.212 96.8437 188.212 96.8625 187.856C96.975 184.856 96.6375 181.856 95.775 178.969C95.3812 177.656 94.9125 176.362 94.3125 175.144C93.8625 174.225 93.2438 173.381 92.2125 173.1C92.25 173.25 92.2875 173.419 92.3438 173.569C93.7313 172.162 92.9625 170.1 92.175 168.581C91.0313 166.35 89.775 164.175 88.3875 162.094C85.7063 158.044 82.4438 154.369 78.2626 151.819C77.9626 151.631 77.6813 152.119 77.9813 152.306Z" fill="#E8E8E8"/>
<path d="M78.2437 152.475C86.7937 162.394 92.2312 174.825 93.6937 187.838C93.7312 188.194 94.2937 188.194 94.2562 187.838C93.0937 177.581 89.5124 167.625 83.8499 159C82.2562 156.581 80.5124 154.275 78.6187 152.081C78.3937 151.8 77.9999 152.212 78.2437 152.475Z" fill="#E8E8E8"/>
<path d="M79.8563 165.787C84.5626 167.831 88.5188 171.262 91.2001 175.631C91.3876 175.931 91.8751 175.65 91.6876 175.35C88.9688 170.906 84.9376 167.381 80.1376 165.3C79.8188 165.169 79.5376 165.637 79.8563 165.787Z" fill="#E8E8E8"/>
<path d="M87.2626 161.194C87.4126 163.181 87.6376 165.131 87.9938 167.1C88.0501 167.456 88.5938 167.306 88.5376 166.95C88.2001 165.037 87.9751 163.125 87.8251 161.194C87.7876 160.837 87.2251 160.837 87.2626 161.194Z" fill="#E8E8E8"/>
<path d="M82.3876 176.1C86.7188 178.05 90.5063 181.069 93.3563 184.875C93.5625 185.156 94.05 184.875 93.8438 184.594C90.9376 180.712 87.1126 177.619 82.6688 175.612C82.3501 175.481 82.0688 175.95 82.3876 176.1Z" fill="#E8E8E8"/>
<path d="M89.8687 164.381C89.8125 159.769 90.5438 155.194 92.0063 150.825C91.875 150.881 91.725 150.937 91.5938 150.994C91.9313 151.162 92.25 151.331 92.5875 151.481C92.775 151.575 93 151.462 93.0188 151.237C93.0938 148.387 93.9188 145.669 95.4563 143.269C95.2875 143.25 95.1188 143.231 94.95 143.194C96.225 146.831 97.5 150.45 98.775 154.087C99.3938 155.85 100.013 157.594 100.631 159.356C101.1 160.687 103.031 164.494 100.575 164.906C100.35 164.944 100.313 165.244 100.444 165.375C101.738 166.762 102.225 168.619 102.469 170.456C102.713 172.35 102.75 174.262 102.675 176.156C102.506 180.131 101.681 184.031 100.256 187.744C100.125 188.081 100.669 188.231 100.8 187.894C102.319 183.937 103.163 179.719 103.256 175.481C103.331 172.05 103.35 167.662 100.838 165C100.8 165.15 100.763 165.319 100.706 165.469C102.15 165.225 102.506 163.687 102.244 162.431C101.775 160.275 100.781 158.137 100.05 156.056C98.5313 151.725 96.9938 147.394 95.475 143.044C95.4 142.819 95.1 142.762 94.9688 142.969C93.375 145.444 92.5125 148.275 92.4563 151.219C92.6063 151.144 92.7375 151.05 92.8875 150.975C92.55 150.806 92.2313 150.637 91.8938 150.487C91.725 150.394 91.5375 150.469 91.4813 150.656C90 155.081 89.2687 159.694 89.325 164.362C89.3062 164.737 89.8687 164.737 89.8687 164.381Z" fill="#E8E8E8"/>
<path d="M94.4063 143.775C97.3501 158.381 95.3438 173.4 97.7626 188.063C97.8188 188.419 98.3625 188.269 98.3063 187.913C95.9063 173.25 97.9125 158.213 94.9501 143.625C94.8751 143.269 94.3313 143.419 94.4063 143.775Z" fill="#E8E8E8"/>
<path d="M90.1688 155.719C91.275 161.081 93.7313 165.994 96.1688 170.869C96.3375 171.187 96.825 170.906 96.6563 170.587C94.2375 165.769 91.8188 160.894 90.7125 155.588C90.6375 155.213 90.0938 155.363 90.1688 155.719Z" fill="#E8E8E8"/>
<path d="M99.5813 155.794C98.2125 158.381 97.1063 161.1 96.2438 163.894C96.1312 164.231 96.675 164.381 96.7875 164.044C97.6313 161.288 98.7375 158.625 100.069 156.075C100.238 155.756 99.75 155.475 99.5813 155.794Z" fill="#E8E8E8"/>
<path d="M182.569 187.744C183.113 183.037 183.656 178.331 184.2 173.625C184.106 173.719 184.013 173.812 183.919 173.906C184.481 173.869 184.912 173.981 185.381 174.337C185.569 174.487 185.85 174.394 185.869 174.131C185.925 173.1 185.962 172.087 186.019 171.056C185.906 171.15 185.775 171.244 185.662 171.319C187.031 171.562 187.762 170.287 188.269 169.237C189.037 167.625 190.012 166.219 191.137 164.85C193.181 162.375 195.506 159.956 196.275 156.731C196.087 156.731 195.919 156.731 195.731 156.731C196.781 160.05 197.869 163.425 198.037 166.931C198.169 169.631 197.869 173.55 194.906 174.712C194.737 174.787 194.644 174.956 194.737 175.125C196.369 178.162 192.112 180.225 190.256 181.725C188.175 183.412 186.469 185.512 185.194 187.856C185.025 188.175 185.512 188.456 185.681 188.137C187.312 185.156 189.581 182.812 192.356 180.881C194.269 179.55 196.575 177.375 195.225 174.844C195.169 174.975 195.112 175.125 195.056 175.256C197.794 174.169 198.544 171 198.619 168.337C198.712 164.306 197.475 160.387 196.275 156.581C196.2 156.319 195.806 156.3 195.731 156.581C195.037 159.525 192.975 161.775 191.081 164.025C190.2 165.075 189.337 166.144 188.625 167.306C188.044 168.281 187.275 171.037 185.794 170.775C185.606 170.737 185.456 170.85 185.437 171.037C185.381 172.069 185.344 173.081 185.287 174.112C185.456 174.037 185.606 173.981 185.775 173.906C185.212 173.456 184.631 173.269 183.9 173.306C183.731 173.325 183.637 173.419 183.619 173.587C183.075 178.294 182.531 183 181.987 187.706C181.969 188.1 182.531 188.1 182.569 187.744Z" fill="#E8E8E8"/>
<path d="M195.712 157.481C195.394 162.806 194.4 168.225 191.55 172.819C190.162 175.069 188.325 177.037 186.844 179.231C185.419 181.331 184.35 183.637 183.6 186.056C183.488 186.394 184.031 186.544 184.144 186.206C184.969 183.562 186.188 181.087 187.8 178.837C189.375 176.644 191.194 174.637 192.525 172.275C195.037 167.775 195.956 162.581 196.256 157.481C196.294 157.125 195.731 157.125 195.712 157.481Z" fill="#E8E8E8"/>
<path d="M189.506 166.463C189.544 169.088 189.937 171.675 190.706 174.188C190.819 174.525 191.363 174.394 191.25 174.038C190.5 171.581 190.106 169.05 190.069 166.463C190.05 166.106 189.487 166.088 189.506 166.463Z" fill="#E8E8E8"/>
<path d="M194.287 168.3C195.769 167.606 197.081 166.65 198.206 165.469C198.45 165.206 198.056 164.813 197.813 165.075C196.706 166.219 195.45 167.138 194.006 167.813C193.669 167.963 193.969 168.45 194.287 168.3Z" fill="#E8E8E8"/>
<path d="M192.244 187.894C192.075 185.831 191.85 183.769 191.587 181.725C191.55 181.369 190.969 181.369 191.025 181.725C191.287 183.769 191.512 185.831 191.681 187.894C191.7 188.25 192.263 188.25 192.244 187.894Z" fill="#E8E8E8"/>
<path d="M198.731 164.794C200.775 160.931 202.519 156.9 203.944 152.756C203.756 152.756 203.587 152.756 203.4 152.756C204.469 157.125 205.519 161.494 206.587 165.863C206.644 165.75 206.719 165.638 206.775 165.525C206.025 165.75 205.275 165.975 204.525 166.2C204.394 166.238 204.319 166.35 204.319 166.463C204.281 166.913 204.525 167.175 204.862 167.438C205.65 168.094 205.856 168.619 205.8 169.65C205.744 170.588 205.65 171.506 205.575 172.425C205.519 173.138 205.556 174.975 204.45 174.919C204.281 174.919 204.112 175.106 204.187 175.275C205.031 177.619 204.094 180.038 202.987 182.119C201.9 184.163 200.569 186.056 199.031 187.8C198.787 188.063 199.181 188.475 199.425 188.194C201.131 186.263 202.612 184.125 203.775 181.819C204.806 179.756 205.556 177.394 204.75 175.125C204.656 175.238 204.562 175.369 204.487 175.481C206.25 175.575 206.137 172.856 206.231 171.731C206.306 170.7 206.531 169.575 206.362 168.544C206.306 168.206 206.194 167.888 205.987 167.625C205.706 167.269 204.9 166.95 204.937 166.463C204.862 166.556 204.806 166.65 204.731 166.725C205.481 166.5 206.231 166.275 206.981 166.05C207.131 166.013 207.206 165.863 207.169 165.713C206.1 161.344 205.05 156.975 203.981 152.606C203.906 152.325 203.531 152.363 203.437 152.606C202.031 156.713 200.325 160.669 198.281 164.513C198.075 164.831 198.562 165.113 198.731 164.794Z" fill="#E8E8E8"/>
<path d="M203.213 153.975C204.975 165.206 197.1 174.863 195.075 185.475C195 185.831 195.544 185.981 195.619 185.625C197.663 174.881 205.537 165.206 203.756 153.825C203.7 153.469 203.156 153.619 203.213 153.975Z" fill="#E8E8E8"/>
<path d="M199.388 162.056C199.819 164.287 200.231 166.519 200.662 168.769C200.737 169.125 201.281 168.975 201.206 168.619C200.775 166.387 200.362 164.156 199.931 161.906C199.856 161.55 199.331 161.7 199.388 162.056Z" fill="#E8E8E8"/>
<path d="M202.8 164.925C203.662 163.669 204.637 162.506 205.706 161.419C205.969 161.156 205.556 160.762 205.312 161.025C204.206 162.131 203.212 163.35 202.312 164.644C202.106 164.944 202.594 165.225 202.8 164.925Z" fill="#E8E8E8"/>
<path d="M51.4688 135.375C65.2688 132.338 79.7438 132.694 93.375 136.444C100.331 138.356 106.894 141.338 113.606 143.963C120.225 146.55 126.994 148.706 133.894 150.431C141.6 152.363 149.438 153.75 157.35 154.594C157.706 154.631 157.706 154.069 157.35 154.031C143.025 152.494 128.888 149.138 115.406 144.038C108.6 141.469 102 138.375 95.025 136.313C88.4063 134.363 81.5438 133.219 74.6438 132.881C66.825 132.488 58.9688 133.163 51.3375 134.831C50.9813 134.906 51.1313 135.45 51.4688 135.375Z" fill="#E8E8E8"/>
<path d="M126.469 143.719C141.244 147.356 156.6 145.837 171.356 142.875C186.563 139.819 201.431 135.15 216.769 132.75C225.469 131.381 234.319 130.8 243.113 131.681C243.469 131.719 243.469 131.156 243.113 131.119C227.738 129.581 212.438 132.562 197.55 136.125C182.55 139.725 167.625 143.962 152.175 145.069C143.606 145.669 134.981 145.256 126.619 143.194C126.262 143.081 126.112 143.625 126.469 143.719Z" fill="#E8E8E8"/>
<path d="M81.8249 119.531C90.7124 117.75 99.5249 120.637 108.056 122.813C116.7 125.025 125.494 126.038 134.4 125.156C143.25 124.275 151.8 121.763 160.462 119.85C169.406 117.863 178.5 116.494 187.631 115.781C197.756 114.975 207.937 114.975 218.081 115.744C218.437 115.762 218.437 115.2 218.081 115.181C200.081 113.831 181.912 114.937 164.212 118.5C155.306 120.3 146.569 122.962 137.55 124.237C128.344 125.531 119.1 124.969 110.081 122.775C100.8 120.506 91.3124 117.075 81.6562 119.006C81.3187 119.044 81.4687 119.587 81.8249 119.531Z" fill="#E8E8E8"/>
<path d="M175.294 107.981C185.306 109.012 195.206 106.8 204.9 104.569C209.85 103.425 214.819 102.281 219.844 101.531C225.037 100.762 230.306 100.481 235.556 100.725C241.481 101.006 247.35 101.925 253.087 103.481C253.444 103.575 253.594 103.031 253.237 102.937C243.206 100.219 232.687 99.4125 222.375 100.631C212.306 101.812 202.594 104.869 192.619 106.556C186.9 107.531 181.106 108 175.312 107.4C174.937 107.381 174.937 107.944 175.294 107.981Z" fill="#E8E8E8"/>
<path d="M54.4125 108.675C61.9687 109.988 69.4125 107.344 76.9312 106.931C84.8624 106.481 92.7562 107.775 100.537 109.069C100.894 109.125 101.044 108.581 100.687 108.525C93.0749 107.269 85.3874 106.012 77.6437 106.331C69.9562 106.65 62.2687 109.481 54.5437 108.131C54.2062 108.075 54.0562 108.619 54.4125 108.675Z" fill="#E8E8E8"/>
<path d="M89.4375 214.875C98.4 214.875 107.363 214.875 116.344 214.875C116.7 214.875 116.7 214.312 116.344 214.312C107.381 214.312 98.4188 214.312 89.4375 214.312C89.0813 214.312 89.0813 214.875 89.4375 214.875Z" fill="#161616"/>
<path d="M110.306 218.438C118.631 218.438 126.956 218.438 135.281 218.438C135.638 218.438 135.638 217.875 135.281 217.875C126.956 217.875 118.631 217.875 110.306 217.875C109.95 217.875 109.95 218.438 110.306 218.438Z" fill="#161616"/>
<path d="M67.7625 214.05C63.0937 214.05 58.425 214.05 53.7563 214.05C53.4 214.05 53.4 214.613 53.7563 214.613C58.425 214.613 63.0937 214.613 67.7625 214.613C68.1187 214.613 68.1187 214.05 67.7625 214.05Z" fill="#161616"/>
<path d="M129.525 204.45C144.169 204.45 158.813 204.45 173.438 204.45C173.794 204.45 173.794 203.888 173.438 203.888C158.794 203.888 144.15 203.888 129.525 203.888C129.169 203.888 129.15 204.45 129.525 204.45Z" fill="#161616"/>
<path d="M199.8 200.325C205.294 200.325 210.787 200.325 216.262 200.325C216.619 200.325 216.619 199.763 216.262 199.763C210.769 199.763 205.275 199.763 199.8 199.763C199.425 199.763 199.425 200.325 199.8 200.325Z" fill="#161616"/>
<path d="M228.337 202.256C236.756 202.256 245.175 202.256 253.594 202.256C253.95 202.256 253.95 201.694 253.594 201.694C245.175 201.694 236.756 201.694 228.337 201.694C227.981 201.694 227.981 202.256 228.337 202.256Z" fill="#161616"/>
<path d="M63.4313 197.287C63.3563 198.356 63.3001 199.406 63.2251 200.475C62.7563 200.606 62.3063 200.756 61.8376 200.887C61.8188 201.675 61.8001 202.462 61.7626 203.25C61.0501 203.25 60.3376 203.25 59.6063 203.25C59.7376 204.337 59.8876 205.425 60.0188 206.512C61.2376 206.531 62.4751 206.55 63.6938 206.587C63.8251 207.469 63.9751 208.35 64.1063 209.231C63.2438 209.231 62.3438 209.212 61.4063 209.156C60.3001 209.1 59.2688 209.006 58.2938 208.875C58.2563 210.037 58.2001 211.181 58.1626 212.344C61.2376 212.306 64.3126 212.25 67.3876 212.213C67.4813 213.019 67.5751 213.825 67.6688 214.631C73.3875 215.269 79.9313 215.494 87.0938 214.838C89.0625 214.65 90.9563 214.425 92.775 214.144C92.775 213.225 92.775 212.288 92.775 211.369C92.1188 211.631 91.3313 211.875 90.4125 212.062C88.875 212.362 87.5438 212.362 86.5313 212.269C86.6438 211.537 86.7563 210.788 86.8688 210.056C87.0188 209.569 87.1688 208.969 87.2063 208.256C87.2438 207.787 87.225 207.375 87.2063 207C85.425 207.019 83.6438 207.037 81.8625 207.075C81.825 205.856 81.7688 204.619 81.7313 203.4C83.3813 203.269 85.0125 203.119 86.6625 202.987C86.7 202.331 86.7563 201.694 86.7938 201.037C85.9688 200.925 85.125 200.812 84.3 200.7C84.2625 199.444 84.2063 198.206 84.1688 196.95C77.2688 197.062 70.35 197.175 63.4313 197.287Z" fill="#5222D0"/>
<path d="M213.862 173.606C213.844 174.375 213.825 175.144 213.806 175.894C215.513 176.006 217.219 176.119 218.925 176.212C218.925 176.925 218.925 177.656 218.925 178.369C218.287 178.519 217.65 178.669 217.031 178.819C216.994 179.644 216.938 180.487 216.9 181.312C214.913 181.331 212.925 181.35 210.937 181.369C210.881 182.194 210.806 183.037 210.75 183.862C213.094 183.9 215.438 183.956 217.763 183.994C217.763 185.006 217.763 186 217.763 187.012C215.381 187.069 213 187.144 210.619 187.2C210.581 188.156 210.525 189.131 210.487 190.087C211.256 190.144 212.025 190.219 212.775 190.275C212.794 191.119 212.812 191.981 212.831 192.825C211.8 192.919 210.769 192.994 209.756 193.087C209.794 194.194 209.85 195.319 209.888 196.425C211.125 196.406 212.381 196.387 213.619 196.369C213.619 197.55 213.619 198.731 213.619 199.912C216.413 200.062 219.319 200.156 222.338 200.175C227.063 200.194 231.544 200.025 235.725 199.725C235.931 198.825 236.119 197.831 236.25 196.781C236.419 195.45 236.494 194.212 236.512 193.106C237.037 193.012 237.562 192.937 238.087 192.844C238.106 192.037 238.125 191.231 238.144 190.425C236.831 190.406 235.519 190.387 234.206 190.369C234.262 189.3 234.337 188.231 234.394 187.162C236.381 187.106 238.369 187.031 240.356 186.975C240.375 186.037 240.394 185.1 240.412 184.162C238.744 184.162 237.094 184.162 235.425 184.162C235.481 183.394 235.556 182.625 235.612 181.875C237.431 181.762 239.25 181.65 241.05 181.556C241.069 180.619 241.087 179.681 241.106 178.744C241.912 178.744 242.719 178.744 243.525 178.744C243.487 177.9 243.431 177.037 243.394 176.194C241.406 176.231 239.419 176.287 237.431 176.325C237.487 175.294 237.562 174.262 237.619 173.25C235.2 172.687 232.387 172.237 229.219 172.069C223.031 171.694 217.725 172.594 213.862 173.606Z" fill="#EC615B"/>
<path d="M67.3313 212.231C67.35 213.019 67.3875 213.825 67.4063 214.612C67.4063 214.781 67.5375 214.875 67.6875 214.894C75.9563 215.456 84.2438 215.4 92.4938 214.706C92.6063 214.687 92.7375 214.631 92.7563 214.5C93 213.469 93.0563 212.475 92.9438 211.425C92.9063 211.069 92.3438 211.069 92.3813 211.425C92.4938 212.419 92.4375 213.375 92.2125 214.35C92.3063 214.275 92.4 214.219 92.475 214.144C84.225 214.819 75.9188 214.894 67.6688 214.331C67.7625 214.425 67.8563 214.519 67.95 214.612C67.9313 213.825 67.8938 213.019 67.875 212.231C67.875 211.875 67.3125 211.875 67.3313 212.231Z" fill="#161616"/>
<path d="M57.9751 208.8C57.9751 209.906 57.9751 211.012 57.9751 212.119C57.9751 212.475 58.5376 212.475 58.5376 212.119C58.5376 211.012 58.5376 209.906 58.5376 208.8C58.5376 208.425 57.9751 208.425 57.9751 208.8Z" fill="#161616"/>
<path d="M58.5938 212.625C67.8751 212.625 77.1563 212.625 86.4376 212.625C86.7938 212.625 86.7938 212.062 86.4376 212.062C77.1563 212.062 67.8751 212.062 58.5938 212.062C58.2376 212.062 58.2376 212.625 58.5938 212.625Z" fill="#161616"/>
<path d="M69.2626 212.681C69.3376 213.3 69.3563 213.9 69.3188 214.519C69.3001 214.875 69.8626 214.875 69.8813 214.519C69.9188 213.9 69.9188 213.3 69.8251 212.681C69.7876 212.325 69.2251 212.325 69.2626 212.681Z" fill="#161616"/>
<path d="M71.0438 212.756C71.1563 213.225 71.175 213.694 71.1563 214.162C71.1375 214.519 71.7 214.519 71.7188 214.162C71.7563 213.637 71.7188 213.112 71.5875 212.606C71.5125 212.269 70.9688 212.419 71.0438 212.756Z" fill="#161616"/>
<path d="M86.8125 212.306C87 211.575 87.0938 210.825 87.075 210.056C87.075 209.7 86.5125 209.7 86.5125 210.056C86.5313 210.769 86.4563 211.463 86.2688 212.156C86.1751 212.494 86.7188 212.644 86.8125 212.306Z" fill="#161616"/>
<path d="M58.6313 209.156C67.8938 210.45 77.2501 210.694 86.5688 209.887C86.9251 209.85 86.9251 209.287 86.5688 209.325C77.3063 210.131 67.9876 209.906 58.7813 208.612C58.4251 208.556 58.2751 209.1 58.6313 209.156Z" fill="#161616"/>
<path d="M87.0189 212.438C88.8751 212.606 90.7126 212.381 92.4939 211.819C92.8314 211.706 92.6814 211.162 92.3439 211.275C90.6001 211.838 88.8376 212.044 87.0189 211.875C86.6626 211.856 86.6626 212.419 87.0189 212.438Z" fill="#161616"/>
<path d="M83.5312 212.681C83.5312 213.338 83.5312 213.975 83.5312 214.631C83.5312 214.988 84.0938 214.988 84.0938 214.631C84.0938 213.975 84.0938 213.338 84.0938 212.681C84.0938 212.325 83.5312 212.325 83.5312 212.681Z" fill="#161616"/>
<path d="M87.7688 212.306C87.8813 213 87.9751 213.694 88.0876 214.369C88.1438 214.725 88.6875 214.575 88.6313 214.219C88.5188 213.525 88.4251 212.831 88.3126 212.156C88.2563 211.8 87.7313 211.95 87.7688 212.306Z" fill="#161616"/>
<path d="M90.3563 212.194C90.4125 212.569 90.375 212.944 90.2813 213.3C90.1875 213.656 90.7313 213.806 90.825 213.45C90.9563 212.981 90.975 212.512 90.9 212.044C90.8438 211.687 90.3 211.837 90.3563 212.194Z" fill="#161616"/>
<path d="M60.6938 209.25C60.7313 210.244 60.7688 211.238 60.8063 212.231C60.8251 212.588 61.3875 212.588 61.3688 212.231C61.3313 211.238 61.2938 210.244 61.2563 209.25C61.2375 208.894 60.6751 208.894 60.6938 209.25Z" fill="#161616"/>
<path d="M64.4251 209.588C64.5001 210.356 64.5751 211.125 64.6501 211.875C64.6876 212.231 65.2501 212.231 65.2126 211.875C65.1376 211.106 65.0626 210.338 64.9876 209.588C64.9501 209.231 64.3876 209.231 64.4251 209.588Z" fill="#161616"/>
<path d="M66.5813 210.056C66.525 210.506 66.5625 210.956 66.6938 211.388C66.7875 211.744 67.3313 211.594 67.2375 211.238C67.125 210.844 67.1063 210.45 67.1438 210.056C67.1813 209.7 66.6188 209.7 66.5813 210.056Z" fill="#161616"/>
<path d="M63.5813 206.737C63.6 207.619 63.675 208.481 63.825 209.325C63.8813 209.681 64.425 209.531 64.3688 209.175C64.2188 208.369 64.1438 207.544 64.1438 206.737C64.1438 206.362 63.5813 206.362 63.5813 206.737Z" fill="#161616"/>
<path d="M64.2188 206.775C71.8688 206.925 79.5188 207.094 87.1688 207.244C87.0751 207.169 86.9813 207.112 86.9063 207.037C87.0376 207.825 87.0376 208.594 86.9438 209.4C86.9063 209.756 87.4688 209.756 87.5063 209.4C87.6001 208.556 87.5813 207.731 87.4501 206.887C87.4313 206.756 87.3001 206.681 87.1876 206.681C79.5376 206.531 71.8876 206.362 64.2376 206.212C63.8626 206.212 63.8626 206.775 64.2188 206.775Z" fill="#161616"/>
<path d="M59.2313 203.475C59.4188 204.469 59.5501 205.481 59.6626 206.494C59.7001 206.85 60.2626 206.85 60.2251 206.494C60.1126 205.425 59.9626 204.375 59.7751 203.325C59.7188 202.969 59.1751 203.119 59.2313 203.475Z" fill="#161616"/>
<path d="M59.8501 203.475C63.4876 203.7 67.1439 203.55 70.7814 203.512C74.4564 203.494 78.1314 203.456 81.8064 203.437C81.7126 203.344 81.6189 203.25 81.5251 203.156C81.5626 204.112 81.6001 205.069 81.6189 206.025C81.6376 206.381 82.2001 206.381 82.1814 206.025C82.1439 205.069 82.1064 204.112 82.0876 203.156C82.0876 203.006 81.9564 202.875 81.8064 202.875C78.1314 202.894 74.4564 202.931 70.7814 202.95C67.1439 202.969 63.4876 203.119 59.8501 202.912C59.4939 202.894 59.4939 203.456 59.8501 203.475Z" fill="#161616"/>
<path d="M60.0938 206.869C61.425 206.831 62.775 206.794 64.1063 206.756C64.4625 206.738 64.4625 206.175 64.1063 206.194C62.775 206.231 61.425 206.269 60.0938 206.306C59.7375 206.306 59.7188 206.869 60.0938 206.869Z" fill="#161616"/>
<path d="M61.05 200.962C61.1625 201.731 61.275 202.481 61.4063 203.25C61.4625 203.606 62.0063 203.456 61.95 203.1C61.8375 202.331 61.725 201.581 61.5938 200.812C61.5375 200.456 60.9938 200.606 61.05 200.962Z" fill="#161616"/>
<path d="M61.5563 201.112C69.9375 199.837 78.4688 199.894 86.8313 201.319C87.1876 201.375 87.3376 200.831 86.9813 200.775C78.5251 199.35 69.8813 199.275 61.4063 200.569C61.05 200.625 61.2 201.169 61.5563 201.112Z" fill="#161616"/>
<path d="M81.6563 203.644C82.8188 203.587 83.9626 203.531 85.1251 203.494C85.6876 203.475 86.3626 203.587 86.7376 203.1C86.9626 202.819 86.4751 202.537 86.2501 202.819C86.0251 203.119 84.3563 202.969 84.0376 202.987C83.2501 203.025 82.4626 203.062 81.6751 203.1C81.2813 203.1 81.2813 203.662 81.6563 203.644Z" fill="#161616"/>
<path d="M86.475 200.681C86.3625 201.244 86.2875 201.806 86.2687 202.369C86.25 202.725 86.8125 202.725 86.8313 202.369C86.85 201.844 86.9063 201.338 87.0188 200.831C87.0938 200.475 86.55 200.325 86.475 200.681Z" fill="#161616"/>
<path d="M63.5438 200.419C63.5438 199.35 63.5438 198.3 63.5438 197.231C63.5438 196.875 62.9813 196.875 62.9813 197.231C62.9813 198.3 62.9813 199.35 62.9813 200.419C62.9813 200.794 63.5438 200.794 63.5438 200.419Z" fill="#161616"/>
<path d="M63.7125 197.494C70.5562 197.156 77.4187 197.025 84.2625 197.081C84.6187 197.081 84.6187 196.519 84.2625 196.519C77.4187 196.462 70.5562 196.594 63.7125 196.931C63.3563 196.95 63.3563 197.513 63.7125 197.494Z" fill="#161616"/>
<path d="M83.9813 197.025C84.0563 198.094 84.1313 199.144 84.2063 200.212C84.2251 200.569 84.7876 200.569 84.7688 200.212C84.6938 199.144 84.6188 198.094 84.5438 197.025C84.5251 196.65 83.9626 196.65 83.9813 197.025Z" fill="#161616"/>
<path d="M64.1813 200.869C64.2563 201.563 64.3126 202.256 64.3876 202.969C64.4251 203.325 64.9876 203.325 64.9501 202.969C64.8751 202.275 64.8188 201.581 64.7438 200.869C64.7251 200.512 64.1438 200.512 64.1813 200.869Z" fill="#161616"/>
<path d="M66.5063 200.531C66.4875 201.112 66.5438 201.675 66.6563 202.256C66.7125 202.612 67.2563 202.462 67.2 202.106C67.1063 201.581 67.0688 201.056 67.0688 200.531C67.0688 200.175 66.5063 200.175 66.5063 200.531Z" fill="#161616"/>
<path d="M70.425 203.831C70.5 204.6 70.5563 205.369 70.6313 206.138C70.6688 206.494 71.2313 206.494 71.1938 206.138C71.1188 205.369 71.0625 204.6 70.9875 203.831C70.9688 203.475 70.4063 203.475 70.425 203.831Z" fill="#161616"/>
<path d="M72.8063 203.606C72.8813 204.375 72.9375 205.144 73.0125 205.913C73.05 206.269 73.6125 206.269 73.575 205.913C73.5 205.144 73.4438 204.375 73.3688 203.606C73.3313 203.25 72.7688 203.25 72.8063 203.606Z" fill="#161616"/>
<path d="M76.7251 203.512C76.8001 204.394 76.8751 205.275 76.9501 206.156C76.9876 206.512 77.55 206.512 77.5125 206.156C77.4375 205.275 77.3625 204.394 77.2876 203.512C77.2688 203.137 76.7063 203.137 76.7251 203.512Z" fill="#161616"/>
<path d="M77.8126 207.019C77.9063 207.9 77.9813 208.781 78.0751 209.662C78.1126 210.019 78.6751 210.019 78.6376 209.662C78.5439 208.781 78.4689 207.9 78.3751 207.019C78.3376 206.662 77.7751 206.662 77.8126 207.019Z" fill="#161616"/>
<path d="M80.25 207.094C80.3813 207.9 80.4 208.725 80.3625 209.55C80.3438 209.906 80.9063 209.906 80.925 209.55C80.9813 208.669 80.9437 207.806 80.7937 206.944C80.7375 206.587 80.1938 206.737 80.25 207.094Z" fill="#161616"/>
<path d="M83.2126 206.906C83.2876 207.75 83.2876 208.594 83.1751 209.437C83.1376 209.794 83.7001 209.794 83.7376 209.437C83.8314 208.594 83.8501 207.75 83.7751 206.906C83.7564 206.55 83.1938 206.55 83.2126 206.906Z" fill="#161616"/>
<path d="M74.55 210.206C74.4938 210.75 74.4563 211.313 74.4 211.856C74.3625 212.213 74.9251 212.213 74.9626 211.856C75.0188 211.313 75.0563 210.75 75.1126 210.206C75.1501 209.85 74.5875 209.85 74.55 210.206Z" fill="#161616"/>
<path d="M75.9751 210.506C76.1626 210.956 76.2188 211.388 76.1626 211.856C76.1251 212.213 76.6876 212.213 76.7251 211.856C76.7813 211.331 76.7063 210.825 76.5188 210.356C76.3876 210.019 75.8438 210.169 75.9751 210.506Z" fill="#161616"/>
<path d="M74.8313 199.987C74.9063 200.869 74.925 201.75 74.9438 202.631C74.9438 202.988 75.5063 202.988 75.5063 202.631C75.5063 201.75 75.4688 200.869 75.3938 199.987C75.375 199.631 74.8125 199.631 74.8313 199.987Z" fill="#161616"/>
<path d="M77.0626 200.288C77.1751 200.888 77.2126 201.469 77.1751 202.087C77.1563 202.444 77.7188 202.444 77.7376 202.087C77.7938 201.431 77.7376 200.794 77.6063 200.138C77.5313 199.781 76.9876 199.931 77.0626 200.288Z" fill="#161616"/>
<path d="M68.7 196.987C68.925 197.869 68.9812 198.75 68.925 199.65C68.8875 200.006 69.45 200.006 69.4875 199.65C69.5625 198.694 69.4875 197.756 69.2437 196.837C69.15 196.481 68.6062 196.631 68.7 196.987Z" fill="#161616"/>
<path d="M71.0063 196.987C71.1376 197.719 71.2501 198.45 71.3813 199.181C71.4376 199.537 71.9813 199.387 71.925 199.031C71.7938 198.3 71.6813 197.569 71.55 196.837C71.4938 196.481 70.9501 196.631 71.0063 196.987Z" fill="#161616"/>
<path d="M79.1438 197.1C79.2563 197.831 79.2938 198.581 79.2563 199.331C79.2376 199.687 79.8 199.687 79.8188 199.331C79.875 198.525 79.8188 197.737 79.6875 196.95C79.6313 196.594 79.0876 196.744 79.1438 197.1Z" fill="#161616"/>
<path d="M213.3 196.912C213.319 198 213.338 199.087 213.356 200.156C213.356 200.306 213.488 200.438 213.638 200.438C218.325 200.475 222.994 200.438 227.681 200.306C229.95 200.25 232.237 200.156 234.506 200.063C235.05 200.044 235.95 200.175 236.269 199.575C236.4 199.331 236.381 198.956 236.381 198.713C236.419 198.15 236.437 197.569 236.456 196.987C236.475 196.631 235.912 196.631 235.894 196.987C235.875 197.437 235.856 197.906 235.837 198.356C235.8 199.012 235.744 199.331 235.05 199.463C234.056 199.65 232.931 199.556 231.919 199.594C229.894 199.669 227.85 199.725 225.825 199.781C221.756 199.875 217.688 199.894 213.638 199.856C213.731 199.95 213.825 200.044 213.919 200.138C213.9 199.05 213.881 197.962 213.863 196.894C213.844 196.556 213.281 196.556 213.3 196.912Z" fill="#161616"/>
<path d="M209.4 193.331C209.438 194.344 209.475 195.356 209.513 196.388C209.531 196.744 210.094 196.744 210.075 196.388C210.037 195.375 210 194.362 209.963 193.331C209.963 192.975 209.4 192.975 209.4 193.331Z" fill="#161616"/>
<path d="M209.925 196.781C218.756 196.781 227.588 196.781 236.419 196.781C236.775 196.781 236.775 196.219 236.419 196.219C227.588 196.219 218.756 196.219 209.925 196.219C209.569 196.219 209.569 196.781 209.925 196.781Z" fill="#161616"/>
<path d="M210.131 193.312C219 193.312 227.869 193.312 236.719 193.312C237.075 193.312 237.075 192.75 236.719 192.75C227.85 192.75 218.981 192.75 210.131 192.75C209.775 192.75 209.775 193.312 210.131 193.312Z" fill="#161616"/>
<path d="M236.231 193.125C236.231 194.25 236.231 195.375 236.231 196.481C236.231 196.838 236.794 196.838 236.794 196.481C236.794 195.356 236.794 194.231 236.794 193.125C236.794 192.769 236.231 192.769 236.231 193.125Z" fill="#161616"/>
<path d="M213.038 192.919C213.038 192.075 213.038 191.231 213.038 190.387C213.038 190.031 212.475 190.031 212.475 190.387C212.475 191.231 212.475 192.075 212.475 192.919C212.475 193.275 213.038 193.275 213.038 192.919Z" fill="#161616"/>
<path d="M212.963 190.669C221.475 190.669 229.988 190.669 238.5 190.669C238.856 190.669 238.856 190.106 238.5 190.106C229.988 190.106 221.475 190.106 212.963 190.106C212.606 190.106 212.606 190.669 212.963 190.669Z" fill="#161616"/>
<path d="M237.806 190.387C237.806 191.194 237.806 192 237.806 192.806C237.806 193.162 238.369 193.162 238.369 192.806C238.369 192 238.369 191.194 238.369 190.387C238.369 190.031 237.806 190.031 237.806 190.387Z" fill="#161616"/>
<path d="M236.419 193.2C236.944 193.2 237.469 193.2 237.994 193.2C238.35 193.2 238.35 192.637 237.994 192.637C237.469 192.637 236.944 192.637 236.419 192.637C236.044 192.637 236.044 193.2 236.419 193.2Z" fill="#161616"/>
<path d="M210.169 187.444C210.169 188.212 210.169 188.981 210.169 189.75C210.169 190.106 210.731 190.106 210.731 189.75C210.731 188.981 210.731 188.212 210.731 187.444C210.731 187.087 210.169 187.087 210.169 187.444Z" fill="#161616"/>
<path d="M210.563 187.519C218.513 187.519 226.463 187.519 234.431 187.519C234.788 187.519 234.788 186.956 234.431 186.956C226.481 186.956 218.531 186.956 210.563 186.956C210.188 186.956 210.188 187.519 210.563 187.519Z" fill="#161616"/>
<path d="M234.019 187.35C234.019 188.194 234.019 189.037 234.019 189.881C234.019 190.237 234.581 190.237 234.581 189.881C234.581 189.037 234.581 188.194 234.581 187.35C234.581 186.994 234.019 186.975 234.019 187.35Z" fill="#161616"/>
<path d="M210.563 190.369C218.381 190.369 226.181 190.369 234 190.369C234.356 190.369 234.356 189.806 234 189.806C226.181 189.806 218.381 189.806 210.563 189.806C210.188 189.806 210.188 190.369 210.563 190.369Z" fill="#161616"/>
<path d="M217.987 186.919C217.987 186.113 217.987 185.306 217.987 184.5C217.987 184.144 217.425 184.144 217.425 184.5C217.425 185.306 217.425 186.113 217.425 186.919C217.425 187.294 217.987 187.294 217.987 186.919Z" fill="#161616"/>
<path d="M217.8 184.575C225.338 184.575 232.875 184.575 240.394 184.575C240.75 184.575 240.75 184.012 240.394 184.012C232.856 184.012 225.319 184.012 217.8 184.012C217.444 184.012 217.444 184.575 217.8 184.575Z" fill="#161616"/>
<path d="M234.206 187.312C236.063 187.312 237.919 187.312 239.775 187.312C240.131 187.312 240.131 186.75 239.775 186.75C237.919 186.75 236.063 186.75 234.206 186.75C233.85 186.75 233.85 187.312 234.206 187.312Z" fill="#161616"/>
<path d="M240.131 184.406C240.131 185.213 240.131 186.019 240.131 186.825C240.131 187.181 240.694 187.181 240.694 186.825C240.694 186.019 240.694 185.213 240.694 184.406C240.694 184.05 240.131 184.05 240.131 184.406Z" fill="#161616"/>
<path d="M211.087 184.256C219.225 184.256 227.344 184.256 235.481 184.256C235.838 184.256 235.838 183.694 235.481 183.694C227.344 183.694 219.225 183.694 211.087 183.694C210.712 183.694 210.712 184.256 211.087 184.256Z" fill="#161616"/>
<path d="M211.144 183.881C211.144 183.15 211.144 182.419 211.144 181.669C211.144 181.312 210.581 181.312 210.581 181.669C210.581 182.4 210.581 183.131 210.581 183.881C210.581 184.237 211.144 184.237 211.144 183.881Z" fill="#161616"/>
<path d="M210.975 181.856C219.169 181.856 227.381 181.856 235.575 181.856C235.931 181.856 235.931 181.294 235.575 181.294C227.381 181.294 219.169 181.294 210.975 181.294C210.619 181.294 210.619 181.856 210.975 181.856Z" fill="#161616"/>
<path d="M235.387 181.575C235.387 182.25 235.387 182.906 235.387 183.581C235.387 183.937 235.95 183.937 235.95 183.581C235.95 182.906 235.95 182.25 235.95 181.575C235.95 181.2 235.387 181.2 235.387 181.575Z" fill="#161616"/>
<path d="M217.256 181.35C217.256 180.544 217.256 179.738 217.256 178.931C217.256 178.575 216.694 178.575 216.694 178.931C216.694 179.738 216.694 180.544 216.694 181.35C216.694 181.725 217.256 181.725 217.256 181.35Z" fill="#161616"/>
<path d="M217.181 179.006C225.131 179.006 233.081 179.006 241.05 179.006C241.406 179.006 241.406 178.444 241.05 178.444C233.1 178.444 225.15 178.444 217.181 178.444C216.806 178.444 216.806 179.006 217.181 179.006Z" fill="#161616"/>
<path d="M240.75 178.837C240.75 179.231 240.75 179.606 240.75 180C240.75 180.356 241.313 180.356 241.313 180C241.313 179.606 241.313 179.231 241.313 178.837C241.313 178.462 240.75 178.462 240.75 178.837Z" fill="#161616"/>
<path d="M235.463 181.856C237.319 181.856 239.175 181.856 241.031 181.856C241.387 181.856 241.387 181.294 241.031 181.294C239.175 181.294 237.319 181.294 235.463 181.294C235.106 181.294 235.106 181.856 235.463 181.856Z" fill="#161616"/>
<path d="M240.75 179.156C240.75 179.85 240.75 180.562 240.75 181.256C240.75 181.612 241.313 181.612 241.313 181.256C241.313 180.562 241.313 179.85 241.313 179.156C241.313 178.781 240.75 178.781 240.75 179.156Z" fill="#161616"/>
<path d="M219.131 178.312C219.131 177.637 219.131 176.981 219.131 176.306C219.131 175.95 218.569 175.95 218.569 176.306C218.569 176.981 218.569 177.637 218.569 178.312C218.569 178.669 219.131 178.669 219.131 178.312Z" fill="#161616"/>
<path d="M218.756 176.494C226.912 176.494 235.088 176.494 243.244 176.494C243.6 176.494 243.6 175.931 243.244 175.931C235.088 175.931 226.912 175.931 218.756 175.931C218.4 175.931 218.381 176.494 218.756 176.494Z" fill="#161616"/>
<path d="M243.244 176.494C243.6 176.494 243.6 175.931 243.244 175.931C242.887 175.931 242.887 176.494 243.244 176.494Z" fill="#161616"/>
<path d="M243.169 176.213C243.169 176.888 243.169 177.544 243.169 178.219C243.169 178.575 243.731 178.575 243.731 178.219C243.731 177.544 243.731 176.888 243.731 176.213C243.731 175.838 243.169 175.838 243.169 176.213Z" fill="#161616"/>
<path d="M240.938 178.913C241.781 178.913 242.625 178.913 243.469 178.913C243.825 178.913 243.825 178.35 243.469 178.35C242.625 178.35 241.781 178.35 240.938 178.35C240.563 178.35 240.563 178.913 240.938 178.913Z" fill="#161616"/>
<path d="M213.525 173.794C213.525 174.525 213.525 175.256 213.525 176.006C213.525 176.362 214.087 176.362 214.087 176.006C214.087 175.275 214.087 174.544 214.087 173.794C214.087 173.419 213.525 173.419 213.525 173.794Z" fill="#161616"/>
<path d="M213.806 176.269C215.813 176.269 217.8 176.269 219.806 176.269C220.163 176.269 220.163 175.706 219.806 175.706C217.8 175.706 215.813 175.706 213.806 175.706C213.45 175.706 213.45 176.269 213.806 176.269Z" fill="#161616"/>
<path d="M213.863 173.737C221.644 172.087 229.688 171.956 237.525 173.362C237.881 173.419 238.031 172.875 237.675 172.819C229.744 171.394 221.606 171.525 213.713 173.194C213.356 173.269 213.506 173.812 213.863 173.737Z" fill="#161616"/>
<path d="M237.394 173.269C237.394 174 237.394 174.731 237.394 175.481C237.394 175.837 237.956 175.837 237.956 175.481C237.956 174.75 237.956 174.019 237.956 173.269C237.956 172.894 237.394 172.894 237.394 173.269Z" fill="#161616"/>
<path d="M215.4 173.887C216.731 174.3 218.194 174.131 219.563 174.112C221.1 174.094 222.638 174.056 224.175 174.037C227.306 173.981 230.438 173.925 233.569 173.887C233.925 173.887 233.925 173.325 233.569 173.325C230.55 173.381 227.55 173.419 224.531 173.475C223.05 173.494 221.588 173.531 220.106 173.55C218.625 173.569 216.975 173.812 215.531 173.362C215.194 173.25 215.044 173.794 215.4 173.887Z" fill="#161616"/>
<path d="M218.044 174.094C218.044 174.731 218.044 175.35 218.044 175.988C218.044 176.344 218.606 176.344 218.606 175.988C218.606 175.35 218.606 174.731 218.606 174.094C218.606 173.738 218.044 173.738 218.044 174.094Z" fill="#161616"/>
<path d="M219.956 174.206C220.013 174.656 220.069 175.125 220.125 175.575C220.163 175.931 220.725 175.931 220.688 175.575C220.631 175.125 220.575 174.656 220.519 174.206C220.481 173.85 219.919 173.85 219.956 174.206Z" fill="#161616"/>
<path d="M227.175 174.112C227.231 174.675 227.288 175.237 227.363 175.8C227.4 176.156 227.963 176.156 227.925 175.8C227.869 175.237 227.813 174.675 227.738 174.112C227.7 173.756 227.138 173.737 227.175 174.112Z" fill="#161616"/>
<path d="M229.406 174.319C229.406 174.731 229.406 175.163 229.406 175.575C229.406 175.931 229.969 175.931 229.969 175.575C229.969 175.163 229.969 174.731 229.969 174.319C229.969 173.944 229.406 173.944 229.406 174.319Z" fill="#161616"/>
<path d="M227.944 176.512C227.887 177.131 227.925 177.75 228.019 178.387C228.075 178.744 228.619 178.594 228.563 178.237C228.469 177.675 228.469 177.094 228.506 176.512C228.525 176.156 227.962 176.156 227.944 176.512Z" fill="#161616"/>
<path d="M230.025 176.512C230.081 177.019 230.063 177.525 229.969 178.012C229.913 178.369 230.438 178.519 230.513 178.162C230.606 177.619 230.644 177.056 230.588 176.512C230.55 176.156 229.988 176.156 230.025 176.512Z" fill="#161616"/>
<path d="M218.475 179.044C218.475 179.812 218.475 180.581 218.475 181.35C218.475 181.706 219.037 181.706 219.037 181.35C219.037 180.581 219.037 179.812 219.037 179.044C219.037 178.687 218.475 178.687 218.475 179.044Z" fill="#161616"/>
<path d="M220.463 179.156C220.463 179.738 220.519 180.319 220.613 180.919C220.669 181.275 221.213 181.125 221.156 180.769C221.081 180.244 221.044 179.7 221.044 179.156C221.025 178.781 220.463 178.781 220.463 179.156Z" fill="#161616"/>
<path d="M223.069 176.531C223.106 177.187 223.163 177.862 223.2 178.519C223.219 178.875 223.781 178.875 223.763 178.519C223.725 177.862 223.669 177.187 223.631 176.531C223.613 176.156 223.05 176.156 223.069 176.531Z" fill="#161616"/>
<path d="M233.756 176.306C233.831 176.944 233.888 177.562 233.963 178.2C234 178.556 234.563 178.556 234.525 178.2C234.45 177.562 234.394 176.944 234.319 176.306C234.281 175.95 233.719 175.95 233.756 176.306Z" fill="#161616"/>
<path d="M238.612 176.419C238.631 176.906 238.65 177.394 238.669 177.9C238.688 178.256 239.25 178.256 239.231 177.9C239.213 177.412 239.194 176.925 239.175 176.419C239.156 176.044 238.594 176.044 238.612 176.419Z" fill="#161616"/>
<path d="M230.025 178.931C230.025 179.662 230.025 180.394 230.025 181.144C230.025 181.5 230.588 181.5 230.588 181.144C230.588 180.412 230.588 179.681 230.588 178.931C230.588 178.575 230.025 178.575 230.025 178.931Z" fill="#161616"/>
<path d="M224.681 178.631C224.681 179.231 224.681 179.831 224.681 180.413C224.681 180.769 225.244 180.769 225.244 180.413C225.244 179.813 225.244 179.213 225.244 178.631C225.244 178.256 224.681 178.256 224.681 178.631Z" fill="#161616"/>
<path d="M213.75 181.781C213.713 182.512 213.75 183.225 213.881 183.956C213.938 184.312 214.481 184.162 214.425 183.806C214.313 183.131 214.275 182.456 214.313 181.781C214.331 181.406 213.769 181.406 213.75 181.781Z" fill="#161616"/>
<path d="M217.631 181.875C217.631 182.513 217.631 183.131 217.631 183.769C217.631 184.125 218.194 184.125 218.194 183.769C218.194 183.131 218.194 182.513 218.194 181.875C218.194 181.519 217.631 181.519 217.631 181.875Z" fill="#161616"/>
<path d="M222.281 182.156C222.375 182.663 222.394 183.15 222.356 183.656C222.319 184.013 222.881 184.013 222.919 183.656C222.975 183.094 222.938 182.55 222.825 182.006C222.75 181.65 222.206 181.8 222.281 182.156Z" fill="#161616"/>
<path d="M227.306 181.875C227.25 182.4 227.288 182.906 227.381 183.431C227.456 183.788 228 183.638 227.925 183.281C227.831 182.813 227.813 182.344 227.869 181.875C227.906 181.519 227.344 181.519 227.306 181.875Z" fill="#161616"/>
<path d="M232.144 181.781C232.144 182.231 232.144 182.7 232.144 183.15C232.144 183.506 232.706 183.506 232.706 183.15C232.706 182.7 232.706 182.231 232.706 181.781C232.706 181.406 232.144 181.406 232.144 181.781Z" fill="#161616"/>
<path d="M219.825 184.613C219.863 185.381 219.863 186.15 219.787 186.937C219.75 187.294 220.313 187.294 220.35 186.937C220.425 186.169 220.444 185.4 220.388 184.613C220.369 184.256 219.806 184.256 219.825 184.613Z" fill="#161616"/>
<path d="M221.062 184.613C221.119 185.419 221.138 186.225 221.1 187.031C221.081 187.387 221.644 187.387 221.663 187.031C221.7 186.225 221.681 185.419 221.625 184.613C221.588 184.256 221.025 184.256 221.062 184.613Z" fill="#161616"/>
<path d="M224.794 184.294C224.756 185.231 224.7 186.187 224.662 187.125C224.644 187.481 225.206 187.481 225.225 187.125C225.263 186.187 225.319 185.231 225.356 184.294C225.375 183.937 224.813 183.937 224.794 184.294Z" fill="#161616"/>
<path d="M225.75 184.5C225.844 185.306 225.881 186.113 225.825 186.919C225.806 187.275 226.369 187.275 226.388 186.919C226.444 186.113 226.406 185.306 226.313 184.5C226.275 184.144 225.712 184.144 225.75 184.5Z" fill="#161616"/>
<path d="M230.044 184.406C229.987 185.288 230.025 186.131 230.156 186.994C230.212 187.35 230.756 187.2 230.7 186.844C230.587 186.038 230.569 185.213 230.606 184.388C230.625 184.05 230.062 184.05 230.044 184.406Z" fill="#161616"/>
<path d="M234.844 184.406C234.919 185.138 234.994 185.869 235.069 186.619C235.106 186.975 235.669 186.975 235.631 186.619C235.556 185.888 235.481 185.156 235.406 184.406C235.369 184.05 234.806 184.05 234.844 184.406Z" fill="#161616"/>
<path d="M236.644 184.725C236.681 185.231 236.681 185.737 236.606 186.225C236.55 186.581 237.094 186.731 237.15 186.375C237.244 185.831 237.263 185.269 237.206 184.725C237.169 184.369 236.606 184.35 236.644 184.725Z" fill="#161616"/>
<path d="M211.425 187.669C211.425 188.4 211.425 189.131 211.425 189.881C211.425 190.237 211.988 190.237 211.988 189.881C211.988 189.15 211.988 188.419 211.988 187.669C211.988 187.294 211.425 187.294 211.425 187.669Z" fill="#161616"/>
<path d="M212.681 187.556C212.756 188.325 212.813 189.094 212.888 189.862C212.925 190.219 213.488 190.219 213.45 189.862C213.375 189.094 213.319 188.325 213.244 187.556C213.225 187.2 212.662 187.2 212.681 187.556Z" fill="#161616"/>
<path d="M215.569 187.35C215.625 188.025 215.681 188.681 215.738 189.356C215.775 189.712 216.337 189.712 216.3 189.356C216.244 188.681 216.187 188.025 216.131 187.35C216.094 186.994 215.531 186.975 215.569 187.35Z" fill="#161616"/>
<path d="M218.287 187.463C218.381 188.231 218.494 189 218.588 189.769C218.644 190.125 219.206 190.125 219.15 189.769C219.056 189 218.944 188.231 218.85 187.463C218.813 187.106 218.25 187.106 218.287 187.463Z" fill="#161616"/>
<path d="M227.306 187.556C227.306 188.475 227.306 189.375 227.306 190.294C227.306 190.65 227.869 190.65 227.869 190.294C227.869 189.375 227.869 188.475 227.869 187.556C227.869 187.2 227.306 187.2 227.306 187.556Z" fill="#161616"/>
<path d="M231.713 187.35C231.713 188.119 231.713 188.887 231.713 189.656C231.713 190.012 232.275 190.012 232.275 189.656C232.275 188.887 232.275 188.119 232.275 187.35C232.275 186.994 231.713 186.975 231.713 187.35Z" fill="#161616"/>
<path d="M214.8 190.688C214.913 191.363 214.913 192.056 214.781 192.731C214.725 193.088 215.25 193.238 215.325 192.881C215.475 192.094 215.475 191.325 215.344 190.538C215.269 190.181 214.744 190.331 214.8 190.688Z" fill="#161616"/>
<path d="M216.169 190.912C216.206 191.55 216.263 192.169 216.3 192.806C216.319 193.162 216.881 193.162 216.863 192.806C216.825 192.169 216.769 191.55 216.731 190.912C216.694 190.556 216.131 190.556 216.169 190.912Z" fill="#161616"/>
<path d="M221.531 190.706C221.494 191.475 221.531 192.225 221.663 192.994C221.719 193.35 222.263 193.2 222.206 192.844C222.094 192.131 222.056 191.437 222.094 190.706C222.113 190.35 221.55 190.35 221.531 190.706Z" fill="#161616"/>
<path d="M223.069 190.819C223.106 191.456 223.144 192.075 223.2 192.712C223.219 193.069 223.781 193.069 223.763 192.712C223.725 192.075 223.688 191.456 223.631 190.819C223.613 190.462 223.05 190.462 223.069 190.819Z" fill="#161616"/>
<path d="M224.288 190.912C224.325 191.362 224.363 191.831 224.419 192.281C224.456 192.637 225.019 192.637 224.981 192.281C224.944 191.831 224.906 191.362 224.85 190.912C224.831 190.556 224.269 190.556 224.288 190.912Z" fill="#161616"/>
<path d="M229.312 190.5C229.369 191.269 229.425 192.038 229.481 192.825C229.5 193.181 230.063 193.181 230.044 192.825C229.988 192.056 229.931 191.288 229.875 190.5C229.838 190.144 229.275 190.144 229.312 190.5Z" fill="#161616"/>
<path d="M232.838 190.612C232.875 191.25 232.913 191.869 232.969 192.506C232.988 192.863 233.55 192.863 233.531 192.506C233.494 191.869 233.456 191.25 233.4 190.612C233.381 190.256 232.819 190.237 232.838 190.612Z" fill="#161616"/>
<path d="M235.688 190.631C235.594 191.288 235.556 191.944 235.612 192.6C235.65 192.956 236.213 192.956 236.175 192.6C236.119 191.981 236.138 191.381 236.231 190.781C236.288 190.425 235.744 190.275 235.688 190.631Z" fill="#161616"/>
<path d="M211.219 193.313C211.369 194.363 211.463 195.431 211.5 196.5C211.519 196.856 212.081 196.856 212.063 196.5C212.025 195.375 211.931 194.269 211.763 193.163C211.725 192.806 211.181 192.956 211.219 193.313Z" fill="#161616"/>
<path d="M212.925 193.331C212.831 194.288 212.887 195.206 213.094 196.144C213.169 196.5 213.713 196.35 213.638 195.994C213.45 195.113 213.394 194.231 213.488 193.331C213.525 192.975 212.962 192.975 212.925 193.331Z" fill="#161616"/>
<path d="M217.294 193.237C217.388 194.137 217.425 195.056 217.425 195.975C217.425 196.331 217.988 196.331 217.988 195.975C217.988 195.056 217.95 194.156 217.856 193.237C217.819 192.881 217.256 192.881 217.294 193.237Z" fill="#161616"/>
<path d="M225.075 193.031C225.188 194.081 225.225 195.131 225.206 196.181C225.206 196.538 225.769 196.538 225.769 196.181C225.788 195.131 225.75 194.081 225.638 193.031C225.6 192.675 225.038 192.656 225.075 193.031Z" fill="#161616"/>
<path d="M226.575 193.556C226.519 194.4 226.594 195.225 226.781 196.05C226.856 196.406 227.4 196.256 227.325 195.9C227.156 195.131 227.081 194.344 227.138 193.556C227.156 193.181 226.594 193.181 226.575 193.556Z" fill="#161616"/>
<path d="M228.263 193.331C228.206 194.287 228.244 195.225 228.356 196.163C228.394 196.519 228.956 196.519 228.919 196.163C228.788 195.225 228.769 194.269 228.825 193.331C228.844 192.975 228.281 192.975 228.263 193.331Z" fill="#161616"/>
<path d="M233.475 193.444C233.512 194.25 233.569 195.056 233.606 195.862C233.625 196.219 234.187 196.219 234.169 195.862C234.131 195.056 234.075 194.25 234.037 193.444C234.019 193.087 233.456 193.087 233.475 193.444Z" fill="#161616"/>
<path d="M215.419 196.912C215.419 197.85 215.419 198.806 215.419 199.744C215.419 200.1 215.981 200.1 215.981 199.744C215.981 198.806 215.981 197.85 215.981 196.912C215.981 196.556 215.419 196.556 215.419 196.912Z" fill="#161616"/>
<path d="M219.656 196.8C219.75 197.775 219.769 198.769 219.713 199.744C219.694 200.1 220.256 200.1 220.275 199.744C220.331 198.769 220.312 197.775 220.219 196.8C220.181 196.444 219.619 196.444 219.656 196.8Z" fill="#161616"/>
<path d="M222.263 196.912C222.206 197.794 222.244 198.675 222.338 199.537C222.375 199.894 222.938 199.894 222.9 199.537C222.806 198.656 222.769 197.794 222.825 196.912C222.844 196.556 222.281 196.556 222.263 196.912Z" fill="#161616"/>
<path d="M230.006 196.912C230.044 197.831 230.1 198.731 230.138 199.65C230.156 200.006 230.719 200.006 230.7 199.65C230.663 198.731 230.606 197.831 230.569 196.912C230.55 196.556 229.988 196.556 230.006 196.912Z" fill="#161616"/>
<path d="M231.863 197.306C231.994 198.056 231.975 198.825 231.844 199.575C231.769 199.931 232.313 200.081 232.388 199.725C232.556 198.862 232.556 198.019 232.406 197.156C232.331 196.8 231.788 196.95 231.863 197.306Z" fill="#161616"/>
<path d="M82.4626 30.3C82.1063 32.4937 83.0813 34.5562 84.3751 36.2625C85.6876 37.9875 87.4688 39.3937 89.6626 39.7125C90.0188 39.7687 90.1688 39.225 89.8126 39.1687C87.9188 38.9062 86.3438 37.7812 85.1438 36.3375C83.8126 34.725 82.6501 32.625 83.0063 30.4687C83.0626 30.0937 82.5188 29.9437 82.4626 30.3Z" fill="#161616"/>
<path d="M82.95 30.3C83.4938 29.8875 84.1125 29.6062 84.7875 29.475C85.1438 29.4 84.9938 28.8562 84.6375 28.9312C83.8688 29.0812 83.175 29.4187 82.5562 29.8875C82.275 30.1312 82.6687 30.525 82.95 30.3Z" fill="#161616"/>
<path d="M84.8813 29.5125C86.5501 29.9625 88.0688 31.9125 89.0251 33.2624C90.0188 34.6687 90.7688 36.2249 91.2751 37.8562C91.3876 38.1937 91.9313 38.0624 91.8188 37.7062C91.2376 35.8312 90.3563 34.0499 89.1563 32.4937C88.1438 31.1625 86.7001 29.4187 85.0313 28.9687C84.6751 28.875 84.5251 29.4187 84.8813 29.5125Z" fill="#161616"/>
<path d="M89.7751 39.75C90.4876 39.3937 91.1251 38.8875 91.6314 38.25C91.8564 37.9687 91.4626 37.575 91.2376 37.8562C90.7689 38.4562 90.1876 38.925 89.5126 39.2625C89.1563 39.4312 89.4563 39.9 89.7751 39.75Z" fill="#161616"/>
<path d="M83.8312 29.55C83.775 31.7062 84.975 33.8625 86.25 35.5312C87.45 37.1062 89.1375 38.3062 91.2001 38.2687C91.5563 38.2687 91.5563 37.7062 91.2001 37.7062C89.1188 37.7437 87.5063 36.3937 86.3813 34.7625C85.35 33.2437 84.3563 31.4437 84.3938 29.55C84.3938 29.1937 83.8312 29.1937 83.8312 29.55Z" fill="#161616"/>
<path d="M83.2313 32.8687C83.5125 32.5312 83.85 32.2687 84.2438 32.0625C84.5625 31.9125 84.2813 31.425 83.9625 31.575C83.5313 31.7812 83.1376 32.0812 82.8376 32.4562C82.6126 32.7375 83.0063 33.15 83.2313 32.8687Z" fill="#161616"/>
<path d="M82.9313 31.5937C83.2876 31.3312 83.6438 31.1437 84.0751 31.0312C84.4313 30.9375 84.2813 30.3938 83.9251 30.4875C83.4751 30.6188 83.0438 30.825 82.6501 31.1062C82.3688 31.3125 82.6313 31.8 82.9313 31.5937Z" fill="#161616"/>
<path d="M84.9189 36.3375C85.3126 36.0188 85.7251 35.7 86.1189 35.3812C86.4001 35.1562 86.0064 34.7625 85.7251 34.9875C85.3314 35.3063 84.9189 35.625 84.5251 35.9437C84.2251 36.1687 84.6376 36.5625 84.9189 36.3375Z" fill="#161616"/>
<path d="M86.0438 37.575C86.3625 37.3312 86.6813 37.0875 87 36.8437C87.1125 36.75 87.1875 36.6 87.0938 36.45C87.0188 36.3375 86.8313 36.2625 86.7 36.3562C86.3813 36.6 86.0625 36.8437 85.7438 37.0875C85.6313 37.1812 85.5563 37.3312 85.65 37.4812C85.725 37.5937 85.9125 37.6687 86.0438 37.575Z" fill="#161616"/>
<path d="M88.0313 38.9813C88.3501 38.6625 88.6876 38.3625 89.0063 38.0438C89.2688 37.8 88.8751 37.3875 88.6126 37.65C88.2938 37.9688 87.9563 38.2688 87.6376 38.5875C87.3751 38.8313 87.7688 39.2438 88.0313 38.9813Z" fill="#161616"/>
<path d="M84.9751 30.7125C85.3313 31.0313 85.6688 31.3688 86.0251 31.6875C86.0063 31.575 85.9876 31.4625 85.9876 31.35C85.6126 31.95 85.4063 32.7188 85.9126 33.3188C86.0813 33.525 86.3438 33.6938 86.6251 33.75C86.7563 33.7688 86.8688 33.75 87.0001 33.75C87.0938 33.7313 87.1688 33.6938 87.2626 33.675C88.2938 33.5063 88.4813 33.9 87.8063 34.8375C87.4688 34.9688 87.6188 35.5125 87.9563 35.3812C88.6501 35.1187 89.1376 34.35 88.7251 33.6375C88.5376 33.3 88.1438 33.0563 87.7688 33.0375C87.6376 33.0188 87.5063 33.0563 87.3751 33.0563C86.9251 33.3 86.5313 33.1125 86.1938 32.5313C86.2126 32.2125 86.3063 31.9313 86.4938 31.6875C86.5501 31.5938 86.5313 31.425 86.4563 31.35C86.1001 31.0313 85.7626 30.6938 85.4063 30.375C85.1063 30.075 84.7126 30.4688 84.9751 30.7125Z" fill="#161616"/>
<path d="M88.2563 35.2312C88.575 35.6062 88.875 35.9625 89.1938 36.3375C89.4188 36.6187 89.8313 36.2062 89.5875 35.9437C89.2688 35.5687 88.9688 35.2125 88.65 34.8375C88.425 34.5562 88.0313 34.9687 88.2563 35.2312Z" fill="#161616"/>
<path d="M100.781 26.4937C99.1313 25.2 98.1188 21.525 99.5063 19.7812C101.138 17.775 104.381 16.9125 106.2 19.05C107.719 20.8312 107.813 23.625 106.669 25.6312C105.975 26.85 104.963 27.4312 103.556 27.45C102.338 27.4687 101.175 27 100.331 26.1C100.088 25.8375 99.6938 26.2312 99.9376 26.4937C101.306 27.9562 103.763 28.5 105.581 27.5625C107.475 26.5687 108.188 23.8687 107.963 21.9C107.738 19.9125 106.519 17.775 104.456 17.25C102.469 16.7437 99.5251 18.1687 98.6438 20.025C98.1001 21.1687 98.3063 22.5375 98.5876 23.7375C98.8688 24.9375 99.3563 26.0812 100.35 26.85C100.65 27.1125 101.063 26.7187 100.781 26.4937Z" fill="#161616"/>
<path d="M102.356 19.4438C102.356 19.425 102.338 19.3875 102.338 19.3688C102.3 19.4813 102.244 19.575 102.206 19.6875C102.038 19.6313 102.019 19.65 102.131 19.8C102.244 19.9875 102.319 20.175 102.394 20.3813C102.45 20.2688 102.525 20.1563 102.581 20.0438C101.85 20.2688 100.931 20.775 101.194 21.6938C101.269 21.975 101.456 22.2188 101.738 22.3125C101.963 22.4063 102.094 22.3125 102.319 22.2938C102.656 22.125 103.013 22.1813 103.35 22.4813C103.631 23.3063 103.406 23.7188 102.656 23.775C102.431 23.775 102.319 24.0188 102.413 24.2063C102.581 24.525 102.713 24.8438 102.825 25.1813C102.938 25.5188 103.481 25.3875 103.369 25.0313C103.256 24.6375 103.106 24.2813 102.9 23.925C102.825 24.075 102.731 24.2063 102.656 24.3563C103.556 24.3375 104.419 23.4938 104.044 22.5563C103.875 22.125 103.481 21.7875 103.031 21.6938C102.769 21.6375 102.544 21.75 102.3 21.75C101.831 21.75 101.7 21.6563 101.944 21.2063C102.169 20.7938 102.3 20.7375 102.731 20.6063C102.863 20.5688 102.975 20.4 102.919 20.2688C102.788 19.8938 102.656 19.3688 102.281 19.1813C102.188 19.1438 102.075 19.125 102 19.1813C101.981 19.2 101.944 19.2188 101.925 19.2375C101.813 19.3125 101.775 19.425 101.794 19.5563C101.794 19.575 101.813 19.6125 101.813 19.6313C101.888 19.9313 102.431 19.7813 102.356 19.4438Z" fill="#161616"/>
<path d="M104.119 17.85C106.969 17.1188 108.45 20.1938 108.506 22.5375C108.525 23.6063 108.431 24.8063 107.794 25.7063C107.1 26.6813 105.863 26.9813 104.831 27.4313C104.494 27.5813 104.794 28.0688 105.113 27.9188C106.35 27.375 107.7 27.0188 108.431 25.7625C109.125 24.5625 109.181 22.9688 109.013 21.6188C108.713 19.1438 106.744 16.5938 103.988 17.3063C103.631 17.4 103.781 17.9438 104.119 17.85Z" fill="#161616"/>
<path d="M107.25 25.4437C107.513 25.3875 107.775 25.3312 108.038 25.275C108.394 25.2 108.244 24.6562 107.888 24.7312C107.625 24.7875 107.363 24.8437 107.1 24.9C106.744 24.975 106.894 25.5187 107.25 25.4437Z" fill="#161616"/>
<path d="M107.925 23.2875C108.225 23.1937 108.525 23.1 108.806 22.9875C109.144 22.875 108.994 22.3312 108.656 22.4437C108.356 22.5375 108.056 22.6312 107.775 22.7437C107.438 22.8562 107.588 23.4 107.925 23.2875Z" fill="#161616"/>
<path d="M107.738 21.6187C107.925 21.5812 108.131 21.5437 108.319 21.5062C108.469 21.4875 108.544 21.3 108.506 21.1687C108.469 21.0187 108.319 20.9437 108.169 20.9812C107.981 21.0187 107.775 21.0562 107.588 21.0937C107.437 21.1125 107.362 21.3 107.4 21.4312C107.437 21.5812 107.587 21.6375 107.738 21.6187Z" fill="#161616"/>
<path d="M106.612 19.2562C106.969 19.3125 107.306 19.2937 107.644 19.1812C107.981 19.0687 107.831 18.525 107.494 18.6375C107.25 18.7125 107.006 18.75 106.763 18.7125C106.612 18.6937 106.462 18.75 106.425 18.9C106.369 19.0312 106.462 19.2375 106.612 19.2562Z" fill="#161616"/>
<path d="M103.5 54.7312C101.044 54.0187 99.45 51.6187 99.4125 49.1062C99.3562 46.2375 101.85 43.7812 104.7 45.0562C107.1 46.125 108.019 48.9375 108.094 51.3937C108.131 52.575 107.925 54 106.856 54.6937C105.75 55.425 104.306 55.1437 103.125 54.7687C102.788 54.6562 102.638 55.2 102.975 55.3125C104.888 55.9312 107.306 55.9687 108.263 53.8312C109.181 51.7875 108.6 48.8625 107.55 46.9875C106.5 45.0937 104.25 43.6312 102.019 44.2875C99.6937 44.9812 98.6437 47.5125 98.9062 49.7625C99.1875 52.2937 100.894 54.5812 103.369 55.2937C103.706 55.3875 103.856 54.8437 103.5 54.7312Z" fill="#161616"/>
<path d="M102.263 46.425C102.731 46.9312 103.069 47.4562 103.312 48.0937C103.425 47.9812 103.537 47.8687 103.65 47.7562C102.75 47.5687 102.281 48.3375 102.337 49.1625C102.356 49.4437 102.413 49.7812 102.694 49.9312C102.9 50.0437 103.2 49.9687 103.406 49.9687C103.631 49.95 103.837 49.9312 104.062 49.95C105.056 50.025 105.187 50.4562 104.475 51.2437C104.287 51.2625 104.1 51.4687 104.231 51.675C104.569 52.2 104.887 52.7437 105.15 53.3062C105.3 53.625 105.787 53.3437 105.637 53.025C105.356 52.4625 105.056 51.9187 104.719 51.3937C104.644 51.5437 104.55 51.675 104.475 51.825C105.262 51.7312 105.919 51 105.506 50.1937C105.319 49.8375 104.962 49.6125 104.606 49.5C104.325 49.4062 104.044 49.4062 103.762 49.4062C103.537 49.425 103.331 49.4437 103.106 49.4625C102.75 49.0312 102.881 48.6562 103.519 48.3375C103.706 48.375 103.95 48.2062 103.856 48C103.575 47.2687 103.2 46.65 102.656 46.0875C102.412 45.7687 102.019 46.1625 102.263 46.425Z" fill="#161616"/>
<path d="M100.313 45.1687C97.8939 47.25 97.1439 50.8312 98.9626 53.55C100.725 56.1937 104.269 56.9625 106.95 55.2375C107.25 55.05 106.969 54.5625 106.669 54.75C104.156 56.3625 100.838 55.5937 99.3001 53.025C97.8001 50.5125 98.5689 47.4187 100.725 45.5625C100.988 45.3375 100.594 44.9437 100.313 45.1687Z" fill="#161616"/>
<path opacity="0.14" d="M101.813 44.925C101.475 45.675 101.044 46.95 101.1 48.5625C101.119 49.05 101.25 51.7687 103.219 53.6062C104.569 54.8625 105.994 54.9375 105.938 55.3687C105.863 55.8375 104.1 56.2125 102.506 55.8187C100.763 55.3875 99.2063 54 98.5313 52.1812C98.3626 51.7125 97.6876 49.8375 98.6251 47.7937C99.5813 45.75 101.456 45.0375 101.813 44.925Z" fill="#3F3F3F"/>
<path opacity="0.15" d="M84.1313 29.4937C84.2063 30.2062 84.3938 31.3125 84.8813 32.5687C85.3688 33.7687 86.2126 35.925 88.4063 37.1625C88.9501 37.4625 89.9813 37.95 91.4813 38.025C91.3501 38.2875 91.0313 38.7937 90.4313 39.1875C90.0376 39.4312 89.6813 39.5437 89.4188 39.6C88.6501 39.375 87.4876 38.925 86.2876 38.0437C85.5188 37.4625 83.7376 36.0937 82.9688 33.6C82.5376 32.1937 82.5751 30.9187 82.7251 29.9625C83.1751 29.7937 83.6438 29.6437 84.1313 29.4937Z" fill="#3F3F3F"/>
<path opacity="0.14" d="M104.438 17.4375C105 17.7375 105.975 18.375 106.65 19.5562C107.606 21.1875 107.4 22.8 107.306 23.5875C107.212 24.3 107.081 25.35 106.294 26.3625C105.881 26.9062 105.413 27.2625 105.075 27.4687C105.488 27.45 106.537 27.3187 107.4 26.5125C108.075 25.875 108.281 25.1437 108.506 24.3375C108.862 23.0625 108.75 22.0312 108.712 21.675C108.562 20.5875 108.169 19.8187 108.056 19.6125C107.7 18.9375 107.231 18.075 106.237 17.6437C105.506 17.325 104.812 17.3812 104.438 17.4375Z" fill="#3F3F3F"/>
<path d="M120.319 170.606C119.775 174.769 119.231 178.931 118.687 183.113C108.244 185.4 103.069 186.975 103.181 187.856C103.331 188.925 111.15 188.963 126.675 187.988C127.35 182.4 128.006 176.813 128.681 171.244C125.887 171.038 123.112 170.813 120.319 170.606Z" fill="#161616"/>
<path d="M143.006 98.3625C143.194 100.181 143.381 103.2 143.044 106.913C142.538 112.463 141.113 116.494 140.625 117.938C136.631 129.638 134.7 144.994 133.8 152.269C133.163 157.425 132.45 165.131 132.619 174.731C131.569 175.313 128.081 177.094 123.506 176.363C119.269 175.688 116.625 173.306 115.725 172.425C115.256 158.006 116.475 146.456 117.75 138.375C119.1 129.713 121.031 120.938 123.244 112.088C124.556 106.8 125.869 101.531 127.2 96.2438C132.45 96.9375 137.738 97.65 143.006 98.3625Z" fill="#EC615B"/>
<path opacity="0.13" d="M142.819 104.006C142.2 106.463 141.206 110.138 139.856 114.525C135.394 128.888 131.381 136.35 128.362 144.338C125.662 151.463 122.662 161.925 121.8 175.875C122.794 176.194 124.2 176.513 125.887 176.494C128.981 176.456 131.306 175.313 132.45 174.638C132.581 165.413 133.181 157.669 133.819 151.763C134.325 147 134.831 142.35 136.05 136.181C137.512 128.756 138.244 125.044 139.762 120.713C140.794 117.825 142.031 114.881 142.612 110.325C142.894 107.7 142.875 105.506 142.819 104.006Z" fill="#3F3F3F"/>
<path opacity="0.19" d="M135.525 138.769C134.156 142.125 132.844 145.631 131.569 149.288C128.231 158.869 125.737 168 123.9 176.494C124.894 176.588 126.15 176.606 127.612 176.363C129.787 176.006 131.475 175.238 132.562 174.638C132.469 170.906 132.506 166.988 132.694 162.881C133.069 154.013 134.137 145.931 135.525 138.769Z" fill="#3F3F3F"/>
<path d="M154.687 169.744C155.644 172.875 156.6 175.988 157.556 179.119C150.075 184.406 146.569 187.5 147.056 188.363C147.675 189.469 154.631 187.05 167.925 181.106C166.012 175.781 164.1 170.438 162.169 165.113C159.694 166.65 157.181 168.188 154.687 169.744Z" fill="#161616"/>
<path d="M150.544 94.425C151.331 96.075 152.55 98.8501 153.506 102.45C154.931 107.831 154.95 112.106 154.987 113.625C155.212 126 158.644 141.094 160.256 148.219C161.4 153.3 163.369 160.763 166.8 169.744C166.013 170.644 163.331 173.494 158.775 174.394C154.556 175.219 151.256 173.869 150.131 173.344C144.787 159.938 141.994 148.669 140.419 140.644C138.731 132.038 137.569 123.131 136.612 114.056C136.05 108.638 135.487 103.219 134.925 97.8188C140.137 96.6751 145.35 95.55 150.544 94.425Z" fill="#EC615B"/>
<path opacity="0.17" d="M141.075 96.5813C143.606 107.175 146.119 117.769 148.613 128.363C152.213 143.644 155.756 158.944 159.244 174.244C160.088 174.075 161.119 173.775 162.206 173.25C164.4 172.2 165.844 170.756 166.65 169.781C165.356 166.35 163.781 161.813 162.206 156.431C159.15 146.025 157.706 137.775 157.144 134.288C156.113 127.95 155.494 124.144 155.288 118.706C155.156 115.031 155.325 113.213 154.8 109.425C154.575 107.813 153.919 103.781 152.194 98.7938C151.556 96.9563 150.938 95.4376 150.469 94.3501C147.356 95.1001 144.225 95.8501 141.075 96.5813Z" fill="#3F3F3F"/>
<path opacity="0.15" d="M154.556 114.9C154.5 128.906 155.606 144.525 158.756 161.288C159.544 165.469 160.406 169.5 161.362 173.4C161.925 173.231 162.562 173.006 163.219 172.65C164.887 171.788 166.012 170.644 166.687 169.8C164.756 164.381 162.9 158.569 161.25 152.363C157.594 138.713 155.587 126.056 154.556 114.9Z" fill="#3F3F3F"/>
<path d="M129.394 55.2563C126.788 57.3563 125.644 59.9625 124.969 61.5188C122.85 66.375 123.3 70.8188 123.563 73.1813C124.238 79.2375 126.319 80.2313 127.35 85.9313C127.894 88.9875 128.1 93.0188 126.919 98.0438C127.725 98.7563 133.931 104.063 142.163 102.469C147.019 101.531 150.131 98.6625 151.35 97.3875C151.781 85.2938 151.088 75.3188 150.263 67.9875C149.306 59.4563 148.313 55.8 145.181 53.6812C140.794 50.7187 133.706 51.7875 129.394 55.2563Z" fill="white" stroke="black" stroke-width="2" stroke-miterlimit="10"/>
<path opacity="0.14" d="M138.244 51.6938C139.425 54.0563 140.869 57.3563 142.069 61.4625C145.106 71.8688 144.487 80.4751 144.169 83.4751C143.306 91.9126 140.7 98.5126 138.6 102.769C139.912 102.806 141.619 102.694 143.55 102.15C147.469 101.044 150.019 98.7188 151.219 97.4438C151.387 90.9751 151.331 85.5376 151.219 81.4876C151.219 81.4876 151.069 75.5438 149.981 65.775C149.231 58.9875 148.706 56.775 146.887 54.8813C144.225 52.1438 140.362 51.7313 138.244 51.6938Z" fill="#3F3F3F"/>
<path opacity="0.17" d="M149.006 60.6C148.688 60.6188 149.081 65.4 148.631 74.325C148.05 85.875 146.719 90.6188 146.288 92.1375C145.013 96.4875 143.381 99.8625 142.2 102.038C143.213 101.963 144.562 101.756 146.025 101.175C148.8 100.069 150.525 98.2313 151.35 97.2188C151.463 93.4875 151.519 88.0125 151.219 81.3938C150.731 70.6688 149.456 60.5625 149.006 60.6Z" fill="#3F3F3F"/>
<path d="M125.55 68.475C124.144 69.8437 123.413 71.3062 123.056 72.1687C122.213 74.1937 122.194 75.9187 122.194 76.8375C122.194 79.3125 122.869 81.0937 123.6 83.0812C124.125 84.4687 124.969 86.3812 126.375 88.5C126.675 88.5937 127.125 88.7062 127.669 88.725C128.194 88.725 128.606 88.65 128.925 88.5562C128.738 87.375 128.569 86.2125 128.381 85.0312C128.7 85.1062 129.188 85.2 129.788 85.2937C132.619 85.725 134.925 85.425 136.294 85.2375C136.931 85.1437 137.831 85.0125 138.9 84.75C138.806 85.4625 138.713 86.1562 138.638 86.8687C139.669 87.45 140.119 87.225 140.269 87.1312C140.569 86.9437 140.606 86.6062 140.981 85.4437C141.15 84.9 141.319 84.4687 141.413 84.1875C141.825 84.0187 142.238 83.8687 142.669 83.7C142.556 84.0937 142.444 84.4875 142.35 84.9C142.669 84.975 143.194 85.0687 143.813 84.9562C144.169 84.9 144.45 84.7875 144.675 84.6937C144.919 83.8125 145.181 82.9312 145.425 82.0312C146.138 81.2625 146.813 80.9062 147.319 80.7375C147.881 80.5312 148.069 80.6062 148.519 80.3625C149.438 79.8375 149.756 78.8437 149.813 78.6187C149.888 78.375 150.131 77.4562 149.7 76.5562C149.456 76.05 149.288 76.125 148.781 75.3562C148.35 74.7187 148.369 74.4937 147.975 73.7812C147.769 73.4437 147.45 72.9375 146.944 72.375C147.3 71.325 147.619 70.8375 147.863 70.5937C147.919 70.5375 148.088 70.3687 148.088 70.1625C148.088 69.975 147.919 69.8062 147.656 69.6187C147.019 69.1687 146.625 68.9062 146.081 68.9625C145.388 69.0562 144.975 69.6 144.881 69.7125C144.6 69.2437 144.188 68.5875 143.588 67.9312C141.694 65.85 139.425 65.0625 138.431 64.7812C134.663 63.7312 131.438 65.1187 129.488 65.9812C128.419 66.4312 126.975 67.0687 125.55 68.475Z" fill="white"/>
<path d="M123.713 82.7812C122.588 79.7437 122.138 76.3875 123.075 73.2375C123.975 70.2562 125.981 67.8937 128.813 66.6C131.663 65.2875 135.113 64.3312 138.206 65.1187C140.906 65.8125 143.231 67.575 144.6 70.0125C144.769 70.3312 145.256 70.05 145.088 69.7312C142.781 65.6062 138.038 63.5812 133.463 64.5187C130.875 65.0437 128.063 65.9625 126.019 67.6687C124.163 69.225 122.906 71.4562 122.344 73.8C121.631 76.8562 122.081 80.025 123.169 82.9312C123.3 83.25 123.844 83.1187 123.713 82.7812Z" fill="black"/>
<path d="M139.838 75.5437C139.763 74.775 139.8 72.8437 140.831 72.6937C141.469 72.6 141.881 73.425 142.594 73.3687C142.95 73.3312 142.95 72.7687 142.594 72.8062C142.106 72.8625 141.769 72.3562 141.338 72.1687C140.925 72 140.531 72.075 140.194 72.3562C139.331 73.0687 139.2 74.5125 139.294 75.5437C139.313 75.9 139.875 75.9 139.838 75.5437Z" fill="black"/>
<path d="M142.181 72.9C143.25 72.45 143.944 73.6125 142.931 74.175C142.594 74.3625 142.181 74.475 141.806 74.6062C141.056 74.8687 140.288 75.1312 139.538 75.3937C139.2 75.5062 139.35 76.05 139.688 75.9375C140.663 75.6 141.656 75.2812 142.631 74.9062C143.138 74.7187 143.738 74.4562 143.963 73.9125C144.506 72.5812 142.913 71.9812 141.919 72.4125C141.581 72.5437 141.863 73.0312 142.181 72.9Z" fill="black"/>
<path d="M145.369 69.075C144.863 69.375 144.281 69.8437 144.431 70.5187C144.488 70.8 144.675 71.0063 144.938 71.1375C145.331 71.3438 145.725 71.4563 146.1 71.7375C146.381 71.9625 146.775 71.5688 146.494 71.3438C146.156 71.0813 145.8 70.8938 145.425 70.725C145.144 70.5937 144.9 70.4625 145.05 70.1062C145.163 69.8437 145.444 69.6937 145.669 69.5625C145.969 69.375 145.688 68.8875 145.369 69.075Z" fill="black"/>
<path d="M144.975 70.9687C144.825 71.925 145.463 73.0312 146.569 72.8062C147.019 72.7125 147.3 72.375 147.488 71.9812C147.694 71.5125 147.731 70.8562 148.2 70.575C148.5 70.3875 148.219 69.9 147.919 70.0875C147.431 70.3875 147.281 70.875 147.113 71.3812C147 71.7187 146.869 72.1312 146.494 72.2437C145.819 72.45 145.425 71.6812 145.519 71.1187C145.556 70.7625 145.013 70.5937 144.975 70.9687Z" fill="black"/>
<path d="M145.388 69.75C146.194 68.8687 147.281 69.7687 147.863 70.4062C148.106 70.6687 148.5 70.2749 148.256 70.0124C147.45 69.1312 146.006 68.2312 144.994 69.3562C144.75 69.6187 145.144 70.0125 145.388 69.75Z" fill="black"/>
<path d="M144.488 75.825C144.45 75.825 144.45 75.825 144.488 75.825C144.45 75.8062 144.45 75.8062 144.488 75.825C144.469 75.825 144.45 75.8062 144.45 75.7875C144.469 75.8062 144.469 75.8062 144.45 75.7875C144.431 75.7687 144.431 75.75 144.45 75.7687C144.45 75.7875 144.45 75.7875 144.45 75.75C144.45 75.7125 144.45 75.7125 144.45 75.75C144.45 75.7312 144.45 75.7125 144.45 75.6937C144.45 75.7312 144.45 75.7312 144.45 75.6937C144.431 75.7312 144.431 75.7312 144.45 75.6937C144.413 75.7125 144.488 75.6937 144.431 75.7125C144.469 75.6937 144.469 75.6937 144.431 75.7125C144.469 75.7125 144.469 75.7125 144.431 75.7125C144.45 75.7125 144.469 75.7125 144.488 75.7125C144.469 75.7125 144.45 75.7125 144.469 75.7125C144.488 75.7125 144.488 75.7125 144.506 75.7312C144.488 75.7125 144.488 75.7312 144.506 75.7312C144.525 75.75 144.544 75.75 144.506 75.7312C144.525 75.75 144.525 75.7687 144.506 75.75C144.506 75.7312 144.506 75.7312 144.506 75.7687C144.506 75.75 144.506 75.7312 144.506 75.7312C144.488 75.7687 144.506 75.7687 144.506 75.7312C144.488 75.75 144.488 75.7687 144.506 75.7312C144.488 75.75 144.488 75.75 144.469 75.7687C144.506 75.7312 144.431 75.7875 144.469 75.7687C144.45 75.7687 144.431 75.7875 144.413 75.7875C144.45 75.7875 144.45 75.7875 144.413 75.7875C144.431 75.8062 144.431 75.7875 144.413 75.7875C144.113 75.6 143.813 76.0875 144.131 76.275C144.431 76.4625 144.825 76.3312 144.994 76.0312C145.181 75.6937 144.975 75.3 144.619 75.2062C144.3 75.1125 143.944 75.2812 143.85 75.6187C143.775 75.9375 143.963 76.2937 144.3 76.3875C144.694 76.4625 144.844 75.9187 144.488 75.825Z" fill="black"/>
<path d="M147.094 74.2124C147.131 74.2312 147.169 74.2499 147.188 74.2874C147.169 74.2499 147.206 74.3437 147.188 74.3062C147.188 74.2687 147.188 74.3812 147.188 74.3249C147.188 74.2687 147.169 74.3999 147.188 74.3249C147.206 74.2687 147.15 74.3812 147.188 74.3249C147.206 74.2874 147.15 74.3624 147.169 74.3437C147.131 74.3812 147.094 74.3999 147.038 74.3812C147 74.3624 146.981 74.3437 146.963 74.3249C146.944 74.3062 146.944 74.3062 146.963 74.3249C146.963 74.3062 146.944 74.3062 146.944 74.2874C146.963 74.3437 146.944 74.2124 146.944 74.2687C146.944 74.3249 146.963 74.2124 146.944 74.2687C146.925 74.3249 146.963 74.2312 146.944 74.2499C146.925 74.2874 146.944 74.2499 146.963 74.2312C146.944 74.2499 146.944 74.2499 146.963 74.2312C146.981 74.2124 147 74.2124 147.019 74.2124C146.981 74.2312 147.075 74.2124 147.094 74.2124C146.944 74.1749 146.775 74.2499 146.756 74.3999C146.719 74.5499 146.794 74.7187 146.944 74.7375C147.188 74.7937 147.413 74.6437 147.488 74.3999C147.544 74.1562 147.45 73.8937 147.188 73.8187C146.944 73.7437 146.7 73.9312 146.644 74.1562C146.569 74.3999 146.7 74.6437 146.944 74.7375C147.075 74.775 147.263 74.6812 147.281 74.55C147.319 74.3999 147.244 74.2687 147.094 74.2124Z" fill="black"/>
<path d="M146.794 72.5063C147.413 73.2188 147.806 74.0625 147.975 75C148.05 75.3563 148.594 75.2063 148.519 74.85C148.331 73.8188 147.862 72.9 147.187 72.1125C146.944 71.8313 146.55 72.2438 146.794 72.5063Z" fill="black"/>
<path d="M148.163 75.3563C148.406 75.5813 148.706 75.75 149.044 75.825C149.4 75.9 149.55 75.3563 149.194 75.2813C148.95 75.225 148.744 75.1313 148.556 74.9625C148.294 74.7 147.9 75.0938 148.163 75.3563Z" fill="black"/>
<path d="M149.1 75.45C147.769 75.5812 146.625 76.35 146.156 77.6437C145.763 78.75 145.913 80.3812 147.225 80.775C148.369 81.1125 149.419 80.2875 149.831 79.2562C150.244 78.225 150.375 76.1812 149.25 75.525C148.931 75.3375 148.65 75.825 148.969 76.0125C149.738 76.4625 149.588 78.1687 149.363 78.8812C149.1 79.725 148.331 80.5312 147.375 80.2125C146.269 79.8375 146.4 78.3375 146.831 77.4937C147.281 76.6312 148.144 76.1437 149.081 76.0312C149.456 75.975 149.475 75.4125 149.1 75.45Z" fill="black"/>
<path d="M147.713 78.4875C147.713 78.45 147.713 78.4125 147.713 78.375C147.713 78.225 147.581 78.0938 147.431 78.0938C147.281 78.0938 147.15 78.225 147.15 78.375C147.15 78.4125 147.15 78.45 147.15 78.4875C147.15 78.6375 147.281 78.7687 147.431 78.7687C147.581 78.7687 147.713 78.6562 147.713 78.4875Z" fill="black"/>
<path d="M149.213 77.4562C149.175 77.4187 149.138 77.3812 149.119 77.3437C149.025 77.2312 148.819 77.2312 148.725 77.3437C148.612 77.4562 148.612 77.625 148.725 77.7375C148.763 77.775 148.8 77.8125 148.819 77.85C148.913 77.9625 149.119 77.9625 149.213 77.85C149.325 77.7375 149.306 77.5687 149.213 77.4562Z" fill="black"/>
<path d="M142.875 78.0938C143.231 78.4875 143.869 78.3938 144.169 77.9813C144.263 77.85 144.188 77.6625 144.075 77.5875C143.925 77.5125 143.775 77.5687 143.681 77.6812C143.588 77.8125 143.363 77.775 143.269 77.6625C143.044 77.4187 142.631 77.8313 142.875 78.0938Z" fill="black"/>
<path d="M143.494 78.1499C143.906 79.3499 145.294 79.9312 146.438 79.3874C146.756 79.2374 146.475 78.7499 146.156 78.8999C145.35 79.2749 144.338 78.8249 144.038 77.9999C143.906 77.6624 143.363 77.7937 143.494 78.1499Z" fill="black"/>
<path d="M147.15 80.325C146.513 80.8313 145.856 81.3375 145.219 81.8438C144.938 82.0688 145.331 82.4625 145.613 82.2375C146.25 81.7313 146.906 81.225 147.544 80.7188C147.844 80.5125 147.431 80.1188 147.15 80.325Z" fill="black"/>
<path d="M145.125 82.0875C144.787 82.95 144.525 83.8312 144.337 84.7312C144.262 85.0875 144.806 85.2375 144.881 84.8812C145.069 83.9812 145.331 83.1 145.669 82.2375C145.8 81.9 145.256 81.75 145.125 82.0875Z" fill="black"/>
<path d="M123.019 82.275C123.469 84.15 124.219 85.95 125.325 87.5438C125.644 88.0125 126.019 88.6688 126.563 88.8938C127.256 89.1938 128.213 88.95 128.925 88.8375C129.038 88.8188 129.15 88.6688 129.131 88.575C129.019 87.3938 128.831 86.2313 128.588 85.0688C128.513 84.7125 127.969 84.8625 128.044 85.2188C128.288 86.325 128.456 87.45 128.569 88.575C128.644 88.4813 128.7 88.3875 128.775 88.3125C127.969 88.4438 127.05 88.65 126.394 88.05C125.888 87.5813 125.456 86.775 125.119 86.175C124.388 84.9 123.881 83.55 123.544 82.125C123.469 81.7688 122.925 81.9188 123.019 82.275Z" fill="black"/>
<path d="M128.531 85.2937C130.313 85.6875 132.131 85.875 133.95 85.8375C135.488 85.8 137.513 85.7625 138.863 84.975C139.181 84.7875 138.9 84.3 138.581 84.4875C137.213 85.275 135.131 85.2562 133.594 85.275C131.944 85.2937 130.294 85.1062 128.663 84.75C128.325 84.675 128.175 85.2187 128.531 85.2937Z" fill="black"/>
<path d="M138.675 83.8687C138.525 84.7312 138.338 85.6312 138.319 86.5125C138.3 87.075 138.6 87.375 139.163 87.3937C139.631 87.4125 140.569 87.375 140.85 86.9625C141.075 86.6062 141.131 85.9875 141.244 85.5937C141.375 85.1437 141.525 84.675 141.656 84.225C141.769 83.8687 141.225 83.7375 141.113 84.075C140.831 84.9937 140.569 85.8937 140.306 86.8125C140.363 86.7562 140.438 86.6812 140.494 86.625C140.175 86.7187 139.8 86.85 139.463 86.8312C138.9 86.8125 138.863 86.5125 138.919 86.0437C138.994 85.3687 139.088 84.6937 139.219 84.0187C139.275 83.6625 138.731 83.5125 138.675 83.8687Z" fill="black"/>
<path d="M141.3 84.45C142.238 84.2062 143.063 83.7187 143.738 83.0062C143.981 82.7437 143.588 82.35 143.344 82.6125C142.744 83.25 142.013 83.6812 141.15 83.9062C140.813 84 140.944 84.5437 141.3 84.45Z" fill="black"/>
<path d="M142.219 83.6812C142.05 84.15 141.975 84.6187 141.994 85.1062C141.994 85.2562 142.125 85.3875 142.275 85.3875C142.894 85.3875 143.513 85.3125 144.131 85.2C144.488 85.125 144.338 84.6 143.981 84.6562C143.419 84.7687 142.856 84.8062 142.275 84.825C142.369 84.9187 142.463 85.0125 142.556 85.1062C142.538 84.6562 142.594 84.2437 142.744 83.8312C142.894 83.4937 142.35 83.3437 142.219 83.6812Z" fill="black"/>
<path d="M128.269 68.7937C130.706 67.8374 133.256 67.3124 135.863 67.1999C136.219 67.1812 136.219 66.6187 135.863 66.6375C133.2 66.7312 130.594 67.2749 128.119 68.2499C127.781 68.3812 127.931 68.9249 128.269 68.7937Z" fill="black"/>
<path d="M128.4 68.1187C128.381 68.0999 128.381 68.1 128.363 68.0812C128.381 68.1937 128.4 68.3062 128.4 68.4187C128.625 67.8937 129.788 67.7812 130.275 67.6875C130.913 67.5562 131.55 67.4437 132.188 67.35C133.613 67.125 135.056 66.975 136.481 66.8812C136.838 66.8625 136.838 66.3 136.481 66.3187C134.813 66.4312 133.163 66.6187 131.513 66.9C130.65 67.05 128.325 67.1812 127.913 68.1374C127.856 68.2499 127.856 68.3812 127.95 68.4749C127.969 68.4937 127.969 68.4937 127.988 68.5124C128.25 68.7562 128.663 68.3624 128.4 68.1187Z" fill="black"/>
<path opacity="0.12" d="M144.45 69.1499C144.375 71.1937 143.738 72.2624 143.138 72.8437C142.819 73.1624 142.688 73.1624 141.469 74.1562C139.744 75.5437 139.631 75.8437 139.575 76.0499C139.369 77.0437 140.438 77.4937 140.513 78.6562C140.606 79.9874 139.313 81.1125 138.619 81.6937C135.15 84.675 128.1 84.0562 126.938 83.9437C127.2 85.5187 127.462 87.0937 127.744 88.65C128.081 88.7437 128.55 88.8187 128.756 88.575C128.963 88.35 128.831 87.975 128.681 87.2062C128.475 86.1187 128.381 85.5562 128.531 85.3125C128.944 84.675 130.706 85.275 132.225 85.5375C133.669 85.7812 135.788 85.8375 138.544 84.9562C138.6 85.5937 138.638 86.2125 138.694 86.85C139.331 86.85 139.95 86.85 140.588 86.85C140.813 86.025 141.019 85.2 141.244 84.375C141.675 84.1312 142.106 83.8875 142.556 83.6437C142.463 84.1312 142.369 84.6187 142.275 85.0875C142.95 85.0687 143.625 85.0312 144.3 85.0125C144.319 84.4687 144.469 83.3437 145.238 82.2562C145.519 81.8625 146.025 81.1687 146.906 80.8125C147.469 80.5874 147.638 80.7187 148.219 80.4562C148.481 80.3437 149.194 79.95 149.663 79.1437C150.113 78.375 150.375 77.1374 149.813 76.3124C149.513 75.8812 149.325 76.05 148.8 75.5062C148.219 74.9062 148.35 74.5874 147.638 73.2562C147.15 72.3374 146.981 72.2999 146.981 71.9437C147.019 71.0437 148.163 70.7624 148.069 70.1249C147.975 69.3562 146.213 69.0562 146.119 69.0374C145.425 68.9624 144.844 69.0562 144.45 69.1499Z" fill="#3F3F3F"/>
<path opacity="0.14" d="M143.944 73.5C143.869 73.9125 143.681 74.6062 143.138 75.2437C142.838 75.6 142.463 76.0312 141.825 76.1062C141.131 76.2 140.588 75.7875 140.456 75.675C141.638 74.9437 142.781 74.2312 143.944 73.5Z" fill="#3F3F3F"/>
<path d="M140.756 83.6062C140.362 83.8312 140.062 84.3187 140.1 84.7312C140.194 85.6125 141.9 86.025 141.844 86.2125C141.787 86.3812 140.569 85.8562 139.275 86.325C139.069 86.4 138.394 86.6437 138.337 87.075C138.3 87.4125 138.675 87.5062 138.769 88.05C138.844 88.425 138.675 88.4625 138.656 89.1375C138.637 89.5875 138.637 89.8687 138.806 90.15C139.031 90.5062 139.294 90.4312 139.5 90.7687C139.744 91.1625 139.425 91.4062 139.612 91.8937C139.8 92.4 140.344 92.7187 140.775 92.8312C141.262 92.9625 141.525 92.7937 141.675 92.9812C141.9 93.2625 141.375 93.75 141.562 94.2187C141.731 94.6312 142.35 94.7437 142.575 94.7625C144.131 94.875 145.5 91.3125 145.575 91.1062C146.156 91.1062 146.85 91.05 147.6 90.8625C149.344 90.4125 150.45 89.4187 151.8 88.2187C152.494 87.6 153.356 86.8125 154.256 85.575C155.475 83.8875 156.019 82.3875 156.506 81.0562C156.919 79.8937 157.519 78.1312 157.706 75.7687C157.875 73.3312 157.5 71.5125 157.162 69.9187C156.319 65.9812 154.8 63.3187 154.444 62.7187C154.387 62.625 153.262 61.1625 151.012 58.2375C149.869 56.7562 148.837 55.4625 147.619 55.5187C147.487 55.5187 147.244 55.5375 146.962 55.7062C146.081 56.2125 146.006 57.675 146.062 59.025C146.269 63.675 147.9 67.05 147.9 67.05C149.231 69.7875 150.3 70.5 150.787 73.05C151.05 74.3812 151.05 75.6187 151.031 75.8625C151.031 76.8187 150.994 78.0937 150.487 79.6312C150.206 80.4375 149.587 82.2562 147.844 83.7187C146.794 84.6 146.044 85.2375 145.087 85.125C143.756 84.975 142.65 83.475 141.356 83.4562C141.206 83.4562 140.981 83.475 140.756 83.6062Z" fill="white"/>
<path d="M146.906 55.5375C151.631 58.4625 155.156 63.1688 156.6 68.55C158.213 74.5688 157.125 80.7938 153.525 85.875C151.744 88.3875 149.137 90.825 145.856 90.6938C145.5 90.675 145.5 91.2375 145.856 91.2563C148.65 91.3688 150.994 89.7375 152.775 87.7313C154.8 85.4438 156.375 82.6125 157.2 79.6687C158.888 73.6125 157.575 66.8813 154.087 61.6875C152.287 59.025 149.944 56.7563 147.206 55.0688C146.869 54.8625 146.587 55.35 146.906 55.5375Z" fill="black"/>
<path d="M150.319 79.3875C149.306 81.8063 147.712 84.3375 144.919 84.8063C144.562 84.8625 144.712 85.4063 145.069 85.35C148.05 84.8438 149.756 82.125 150.844 79.5375C150.994 79.2188 150.45 79.0688 150.319 79.3875Z" fill="black"/>
<path d="M145.031 84.7688C143.756 84.5438 141.544 82.2375 140.25 83.5125C139.781 83.9813 139.838 84.7688 140.119 85.3125C140.531 86.1188 141.431 86.4 142.238 86.6063C142.594 86.7 142.744 86.1563 142.388 86.0625C141.675 85.8938 140.813 85.6688 140.55 84.8813C140.4 84.6 140.456 84.3375 140.7 84.1313C140.813 83.7375 141.075 83.6063 141.488 83.775C141.788 83.8313 142.069 83.9625 142.331 84.0938C143.194 84.525 143.906 85.1438 144.881 85.3125C145.238 85.3875 145.388 84.8438 145.031 84.7688Z" fill="black"/>
<path d="M145.556 90.8062C144.938 91.7062 144.338 92.625 143.719 93.525C143.569 93.7312 143.438 93.9375 143.25 94.125C143.081 94.3313 142.856 94.4813 142.594 94.575C142.331 94.1812 142.088 93.7875 141.825 93.3937C141.938 93.0562 142.725 92.6062 142.987 92.3625C143.269 92.1187 142.856 91.725 142.594 91.9687C142.05 92.4562 141.056 93 141.019 93.825C141 94.4625 141.488 95.0625 142.106 95.1563C142.875 95.2688 143.494 94.7438 143.925 94.1812C144.694 93.2062 145.331 92.1187 146.044 91.0875C146.25 90.7875 145.763 90.5062 145.556 90.8062Z" fill="black"/>
<path d="M142.256 86.0438C141.169 86.3625 140.062 86.1 138.975 86.2875C138.412 86.3813 137.925 86.6813 137.981 87.3188C138.169 89.1188 140.644 88.8375 141.825 88.575C142.181 88.5 142.031 87.9563 141.675 88.0313C141.131 88.1625 140.569 88.275 140.006 88.2375C139.294 88.1813 137.756 87.2813 139.237 86.8125C139.744 86.6625 140.419 86.7938 140.925 86.775C141.431 86.775 141.919 86.7188 142.406 86.5688C142.762 86.475 142.612 85.9313 142.256 86.0438Z" fill="black"/>
<path d="M138.937 88.125C138.112 88.7063 138.038 90 138.825 90.6563C139.762 91.425 141.187 90.9375 142.144 90.4688C142.462 90.3 142.181 89.8125 141.862 89.9813C141.244 90.3 140.419 90.6188 139.706 90.45C138.9 90.2813 138.469 89.1375 139.237 88.6125C139.519 88.4063 139.237 87.9187 138.937 88.125Z" fill="black"/>
<path d="M139.275 90.8062C139.031 91.5375 139.35 92.4 139.987 92.85C140.794 93.4125 141.806 93.1313 142.537 92.5687C142.819 92.3437 142.537 91.8562 142.256 92.0812C141.731 92.475 141.019 92.8125 140.4 92.4375C139.894 92.1375 139.65 91.5 139.837 90.9562C139.931 90.6187 139.387 90.4687 139.275 90.8062Z" fill="black"/>
<path d="M147.206 54.7688C144.806 58.1813 145.631 62.55 147.169 66.1125C149.1 70.5938 152.362 75.0937 151.369 80.2312C151.294 80.5875 151.837 80.7375 151.912 80.3813C152.775 75.9 150.544 71.8125 148.631 67.9313C146.7 64.0125 144.881 59.0438 147.694 55.05C147.9 54.75 147.412 54.4688 147.206 54.7688Z" fill="black"/>
<path d="M150.844 74.0625C150.75 76.0688 150.506 78.0563 150.112 80.025C150.037 80.3813 150.581 80.5313 150.656 80.1751C151.05 78.15 151.312 76.125 151.406 74.0625C151.425 73.7063 150.862 73.7063 150.844 74.0625Z" fill="black"/>
<path opacity="0.12" d="M150.487 57.9563C151.425 59.775 152.55 62.4188 153.262 65.7563C154.2 70.1813 153.937 73.725 153.769 75.3188C153.375 78.9938 153.037 82.1625 150.656 85.2938C149.662 86.625 147.637 89.2875 144.281 90.1688C141.994 90.75 139.687 90.3563 139.406 91.2563C139.275 91.725 139.706 92.325 140.156 92.6063C140.756 92.9625 141.562 92.9063 142.256 92.4375C141.581 92.9063 141.262 93.5625 141.412 94.0313C141.544 94.4438 142.012 94.6688 142.331 94.7063C143.869 94.9125 145.406 91.3688 145.519 91.1063C146.119 91.125 147.019 91.0875 148.031 90.7688C150.131 90.1313 151.406 88.725 152.812 87.1688C153.394 86.5313 154.444 85.3313 155.419 83.5688C157.912 79.0125 157.706 74.4375 157.594 72.75C157.275 67.2 154.931 63.375 154.312 62.4375C153.037 60.3375 151.575 58.8938 150.487 57.9563Z" fill="#3F3F3F"/>
<path opacity="0.11" d="M157.706 73.9687C157.031 76.0687 155.981 78.5999 154.35 81.2624C151.519 85.8937 148.125 88.9312 145.706 90.75C146.325 90.7875 147.262 90.7687 148.312 90.5062C151.875 89.5687 153.769 86.4562 154.519 85.2187C155.494 83.6062 155.869 82.2562 156.525 79.9312C157.219 77.4937 157.537 75.4124 157.706 73.9687Z" fill="#3F3F3F"/>
<path d="M127.987 56.25C127.687 55.8937 125.231 57.4875 123.563 58.7437C121.538 60.2625 119.794 61.575 118.125 63.9562C115.913 67.1062 115.238 70.1625 115.013 71.4187C114.844 72.3937 114.319 75.8062 115.481 79.9687C116.456 83.475 118.106 85.5937 120.15 88.2187C121.463 89.925 122.475 90.8625 123.881 91.4812C125.175 92.0625 126.356 92.175 127.144 92.175C127.556 92.775 128.025 93.45 128.55 94.2C129 94.8375 129.262 95.1937 129.712 95.6062C130.144 96 130.819 96.5812 131.344 96.375C131.625 96.2812 131.775 95.9812 132.038 95.5125C132.3 95.025 132.244 94.9312 132.431 94.7437C132.825 94.3312 133.238 94.5937 133.763 94.275C134.288 93.9375 134.044 93.4875 134.7 92.5687C135.206 91.8562 135.488 91.9125 135.638 91.4062C135.788 90.8437 135.45 90.6562 135.563 89.925C135.675 89.1937 136.087 88.95 135.956 88.6875C135.806 88.4062 135.225 88.5187 134.4 88.5375C132.9 88.5562 131.606 88.1812 131.606 87.9937C131.606 87.7875 132.938 87.975 133.631 87.1312C134.025 86.6437 134.194 85.8187 133.856 85.425C133.463 84.9375 132.431 85.1812 131.138 85.5C129.394 85.9312 129.3 86.2875 128.569 86.3625C126.319 86.5687 124.294 83.3437 123.6 82.2375C123.225 81.6562 122.063 79.6875 121.65 76.875C121.238 74.0437 121.781 71.7 122.194 69.9562C122.306 69.45 122.269 69.6937 123.056 66.9937C124.444 62.1937 124.35 62.2125 124.688 61.3875C126.075 58.05 128.287 56.5875 127.987 56.25Z" fill="white"/>
<path d="M127.481 56.0625C121.819 58.5563 117.15 63.3 115.313 69.2813C113.306 75.75 114.938 82.4812 119.138 87.7125C121.163 90.225 123.881 92.3062 127.2 92.4937C127.556 92.5125 127.556 91.95 127.2 91.9312C124.238 91.7625 121.781 89.9437 119.906 87.75C117.881 85.3687 116.25 82.4437 115.519 79.4063C114.019 73.3125 115.875 66.7875 120.019 62.1375C122.175 59.7188 124.838 57.8438 127.8 56.5313C128.1 56.4 127.819 55.9313 127.481 56.0625Z" fill="black"/>
<path d="M122.137 80.25C123.3 83.1375 125.175 85.8937 128.362 86.6812C128.719 86.775 128.869 86.2312 128.512 86.1375C125.531 85.4062 123.769 82.8 122.681 80.1C122.55 79.7812 122.006 79.9125 122.137 80.25Z" fill="black"/>
<path d="M128.475 86.6438C129.6 86.5688 130.5 86.0063 131.55 85.6688C132.244 85.4438 133.425 85.2 133.556 86.1563C133.725 87.3188 132.244 87.5625 131.4 87.6563C131.044 87.6938 131.044 88.2563 131.4 88.2188C132.244 88.125 133.181 87.9938 133.763 87.3188C134.213 86.775 134.363 85.9313 133.875 85.3688C132.581 83.8688 129.919 85.9875 128.475 86.0813C128.119 86.1188 128.119 86.6813 128.475 86.6438Z" fill="black"/>
<path d="M126.994 92.3438C127.725 93.4313 128.4 94.5938 129.206 95.625C129.694 96.2625 130.35 96.8625 131.213 96.8062C131.85 96.75 132.45 96.2625 132.45 95.5875C132.469 94.7063 131.344 94.0313 130.781 93.525C130.519 93.2813 130.106 93.675 130.388 93.9188C130.706 94.2 131.494 94.7063 131.644 95.0813C131.663 95.4 131.663 95.7 131.681 96.0187C131.1 96.3 130.613 96.2625 130.238 95.9062C129.938 95.6812 129.731 95.4188 129.506 95.1C128.794 94.1063 128.156 93.075 127.481 92.0625C127.275 91.7438 126.788 92.025 126.994 92.3438Z" fill="black"/>
<path d="M131.306 88.1812C132.375 88.575 133.5 88.5187 134.606 88.7062C134.794 88.725 134.981 88.7625 135.169 88.8187C135.262 89.1 135.356 89.3812 135.431 89.6625C135.356 90 134.306 90.0937 134.081 90.0937C133.369 90.1125 132.675 89.8875 132 89.7C131.644 89.6062 131.512 90.1312 131.85 90.2437C132.937 90.5625 136.106 91.275 136.219 89.2875C136.256 88.5937 135.581 88.3312 135.019 88.2187C133.837 87.975 132.6 88.0687 131.456 87.6562C131.119 87.525 130.969 88.0687 131.306 88.1812Z" fill="black"/>
<path d="M134.813 90.5812C135.206 90.8812 135.338 91.425 135.094 91.8375C134.85 92.25 134.381 92.3625 133.931 92.3625C133.163 92.3437 132.394 91.9875 131.719 91.6312C131.4 91.4625 131.119 91.95 131.438 92.1187C132.469 92.6812 134.1 93.3937 135.206 92.5875C136.069 91.95 135.919 90.6937 135.113 90.0937C134.794 89.8687 134.513 90.3562 134.813 90.5812Z" fill="black"/>
<path d="M134.025 92.8875C134.213 93.525 133.781 94.1813 133.144 94.35C132.45 94.5375 131.756 94.1813 131.231 93.7688C130.95 93.5438 130.556 93.9375 130.837 94.1625C131.588 94.7625 132.581 95.1938 133.538 94.8C134.344 94.4625 134.85 93.5813 134.588 92.7375C134.475 92.3813 133.931 92.5313 134.025 92.8875Z" fill="black"/>
<path opacity="0.11" d="M124.312 58.2C123.225 59.7563 121.856 62.0063 120.712 64.9125C118.856 69.6375 118.594 73.6125 118.538 75.0563C118.369 79.2 118.275 81.6188 119.719 84.2063C121.556 87.5063 124.838 89.1375 128.944 91.1625C131.044 92.1938 132.844 92.8688 134.062 93.2625C134.062 93.375 134.063 94.1813 133.481 94.6125C132.844 95.0625 131.738 94.8938 131.044 94.0313C131.944 94.6125 132.356 95.4 132.131 95.8688C131.944 96.3 131.212 96.525 130.612 96.375C129.45 96.0563 129.562 94.425 127.837 92.85C127.444 92.4938 127.088 92.25 126.825 92.1C125.719 91.9875 123.825 91.6125 121.95 90.3375C121.613 90.1125 120.337 89.1938 118.594 86.5688C117.487 84.9 116.119 82.8188 115.312 79.6875C115.05 78.675 113.775 73.275 116.231 67.4438C116.475 66.8438 117.112 65.4563 118.237 63.8438C120.337 60.8813 122.756 59.1375 124.312 58.2Z" fill="#3F3F3F"/>
<path d="M125.513 27.9187C123.45 29.3812 122.794 31.4625 121.519 35.5687C119.906 40.7437 118.744 44.475 120.731 47.3812C122.7 50.2312 127.031 51.2437 131.513 50.5125C131.794 50.625 132.188 50.8312 132.469 51.2062C132.844 51.7125 132.788 52.2187 132.9 53.025C133.05 54.0937 133.163 54.9937 133.688 55.3687C134.55 56.0062 136.369 55.125 137.419 54.3187C139.05 53.0812 139.744 51.4312 140.025 50.7562C142.931 43.575 144.375 39.9937 143.588 36.6C143.363 35.6437 142.631 32.6625 140.025 30.1687C136.219 26.5687 129.563 25.05 125.513 27.9187Z" fill="white"/>
<path d="M122.663 32.2125C120.375 37.0125 121.2 44.1 125.137 47.8875C128.512 51.1125 134.212 50.8125 137.325 47.4C137.569 47.1375 137.175 46.725 136.931 47.0063C133.931 50.2875 128.456 50.4938 125.325 47.2875C121.763 43.65 120.994 37.0125 123.131 32.5125C123.3 32.175 122.813 31.8938 122.663 32.2125Z" fill="#161616"/>
<path d="M132.169 49.8187C132.15 51.7687 132.563 53.6437 133.369 55.425C133.519 55.7625 134.006 55.4625 133.856 55.1437C133.088 53.4562 132.713 51.675 132.731 49.8187C132.731 49.4625 132.169 49.4625 132.169 49.8187Z" fill="#161616"/>
<path d="M133.35 55.5563C135.225 56.6437 137.606 54.975 138.956 53.7188C139.219 53.475 138.825 53.0813 138.563 53.325C137.438 54.375 135.225 56.0063 133.65 55.0875C133.313 54.9 133.031 55.3875 133.35 55.5563Z" fill="#161616"/>
<path d="M125.738 41.925C128.625 43.7625 132.525 41.25 133.95 38.6625C134.119 38.3438 133.631 38.0625 133.463 38.3813C132.188 40.7063 128.644 43.1063 126.019 41.4375C125.719 41.25 125.438 41.7375 125.738 41.925Z" fill="#161616"/>
<path d="M132.788 38.175C133.275 38.4187 133.65 38.8125 133.8 39.3375C133.913 39.675 134.456 39.5437 134.344 39.1875C134.138 38.5312 133.688 37.9875 133.069 37.6875C132.75 37.5375 132.469 38.025 132.788 38.175Z" fill="#161616"/>
<path d="M127.556 31.4812C126.863 33.4312 126.019 35.325 125.006 37.125C124.838 37.4438 125.306 37.725 125.494 37.4063C126.525 35.55 127.388 33.6187 128.1 31.6125C128.213 31.2937 127.669 31.1437 127.556 31.4812Z" fill="#161616"/>
<path d="M125.081 37.6313C125.662 38.4375 126.581 38.9063 127.575 38.8313C127.931 38.8125 127.931 38.25 127.575 38.2688C126.787 38.325 126.037 37.9875 125.569 37.35C125.363 37.05 124.875 37.3313 125.081 37.6313Z" fill="#161616"/>
<path d="M125.025 34.6875C124.969 34.2563 125.025 33.825 125.194 33.4313C125.006 33.4313 124.837 33.4313 124.65 33.4313C124.8 33.9375 124.725 34.4438 124.444 34.8938C124.612 34.9125 124.781 34.9313 124.95 34.9688C124.875 34.6125 124.894 34.2563 125.006 33.9C125.119 33.5625 124.575 33.4125 124.462 33.75C124.312 34.2 124.294 34.65 124.406 35.1188C124.462 35.3625 124.8 35.3813 124.912 35.1938C125.269 34.6313 125.362 33.9375 125.175 33.3C125.1 33.0188 124.725 33.0563 124.631 33.3C124.425 33.8063 124.387 34.3313 124.462 34.8563C124.537 35.1938 125.062 35.0438 125.025 34.6875Z" fill="#161616"/>
<path d="M132.206 33.5062C132.019 33.0375 132.094 32.55 132.45 32.2125C132.3 32.175 132.131 32.1375 131.981 32.0812C132.113 32.625 132.038 33.15 131.756 33.6375C131.925 33.6562 132.094 33.675 132.263 33.7125C132.188 33.3562 132.225 33.0375 132.338 32.7C132.45 32.3625 131.906 32.2125 131.794 32.55C131.644 32.9812 131.625 33.4125 131.719 33.8625C131.775 34.1063 132.113 34.125 132.225 33.9375C132.581 33.3187 132.675 32.625 132.506 31.95C132.45 31.7437 132.188 31.6875 132.038 31.8187C131.55 32.3062 131.381 33.0375 131.644 33.675C131.812 33.9938 132.356 33.8437 132.206 33.5062Z" fill="#161616"/>
<path d="M124.069 31.7063C124.388 31.0125 125.269 30.7688 125.869 31.2188C126.169 31.425 126.45 30.9375 126.15 30.7313C125.306 30.1125 123.994 30.4688 123.581 31.425C123.431 31.7625 123.919 32.0438 124.069 31.7063Z" fill="#161616"/>
<path d="M122.756 36.225C122.719 36.2625 122.681 36.3 122.644 36.3375C122.531 36.45 122.531 36.6187 122.644 36.7312C122.756 36.8437 122.925 36.8437 123.038 36.7312C123.075 36.6937 123.113 36.6562 123.15 36.6187C123.263 36.5062 123.263 36.3375 123.15 36.225C123.038 36.1125 122.869 36.1125 122.756 36.225Z" fill="#161616"/>
<path d="M124.406 36.15C124.406 36.15 124.406 36.1313 124.406 36.15C124.406 36.1875 124.425 36.225 124.444 36.2813C124.444 36.2813 124.444 36.2813 124.444 36.2625C124.425 36.3188 124.425 36.3563 124.406 36.4125C124.275 36.5625 124.144 36.5625 124.013 36.4125C123.994 36.3563 123.994 36.3188 123.975 36.2625C123.975 36.2625 123.975 36.2625 123.975 36.2813C123.994 36.225 123.994 36.1875 124.013 36.1313C124.013 36.1313 124.013 36.1313 124.013 36.15C123.956 36.2813 123.975 36.45 124.106 36.5438C124.219 36.6188 124.425 36.5813 124.5 36.45C124.556 36.3188 124.556 36.1875 124.463 36.075C124.406 36.0188 124.313 35.9813 124.219 35.9813C124.125 35.9813 124.031 36.0188 123.975 36.075C123.862 36.1875 123.881 36.3188 123.938 36.45C123.994 36.5813 124.2 36.6188 124.331 36.5438C124.444 36.45 124.463 36.2813 124.406 36.15Z" fill="#161616"/>
<path d="M123.431 38.1188C123.45 38.1188 123.488 38.1188 123.506 38.1188C123.863 38.1188 123.863 37.5563 123.506 37.5563C123.488 37.5563 123.45 37.5563 123.431 37.5563C123.075 37.5563 123.075 38.1188 123.431 38.1188C123.45 38.1188 123.488 38.1188 123.506 38.1188C123.863 38.1188 123.863 37.5563 123.506 37.5563C123.488 37.5563 123.45 37.5563 123.431 37.5563C123.075 37.5563 123.075 38.1188 123.431 38.1188Z" fill="#161616"/>
<path d="M131.531 35.3438C131.531 35.3063 131.531 35.2688 131.513 35.2313C131.494 35.0813 131.4 34.95 131.231 34.95C131.1 34.95 130.931 35.0813 130.95 35.2313C130.95 35.2688 130.95 35.3063 130.969 35.3438C130.988 35.4938 131.081 35.625 131.25 35.625C131.381 35.625 131.55 35.5125 131.531 35.3438Z" fill="#161616"/>
<path d="M132.806 35.0437C132.844 35.0437 132.881 35.0437 132.919 35.0437C133.069 35.0437 133.2 34.9125 133.2 34.7625C133.2 34.6125 133.069 34.4813 132.919 34.4813C132.881 34.4813 132.844 34.4813 132.806 34.4813C132.656 34.4813 132.525 34.6125 132.525 34.7625C132.525 34.9125 132.638 35.0437 132.806 35.0437Z" fill="#161616"/>
<path d="M132.169 36.0562C132.169 36.0937 132.169 36.1312 132.169 36.1687C132.169 36.3187 132.3 36.45 132.45 36.45C132.6 36.45 132.731 36.3187 132.731 36.1687C132.731 36.1312 132.731 36.0937 132.731 36.0562C132.731 35.9062 132.6 35.775 132.45 35.775C132.3 35.7937 132.169 35.9062 132.169 36.0562Z" fill="#161616"/>
<path d="M131.006 30.525C131.869 30.1125 132.9 30.225 133.65 30.8438C133.931 31.0688 134.325 30.675 134.044 30.45C133.088 29.6625 131.831 29.5125 130.725 30.0563C130.388 30.2063 130.688 30.6938 131.006 30.525Z" fill="#161616"/>
<path d="M139.331 33.4688C139.556 33.2438 139.781 33.0375 140.025 32.8125C140.175 32.8313 140.325 32.85 140.475 32.8688C140.813 32.9438 141.075 33.1125 141.319 33.3188C141.863 33.7875 142.144 34.4625 142.2 35.175C142.313 36.3563 141.844 37.9313 140.419 37.8938C140.063 37.8938 140.063 38.4563 140.419 38.4563C142.781 38.5125 143.25 35.3813 142.35 33.7313C141.9 32.8875 141 32.2313 140.006 32.25C139.238 32.2688 138.45 32.775 138.769 33.6188C138.919 33.9375 139.463 33.8063 139.331 33.4688Z" fill="#161616"/>
<path d="M126.263 25.0688C125.888 25.1625 124.556 25.5 122.981 26.7563C119.588 29.4938 118.594 33.8063 118.275 35.2313C117.656 38.0438 118.313 38.1375 117.6 40.425C116.625 43.575 115.238 43.875 114.169 46.6313C113.813 47.5313 112.256 51.5438 114.094 54.8625C115.969 58.2375 120.413 59.2125 123.488 58.8938C127.031 58.5375 131.081 56.2125 132.038 52.5938C132.3 51.6188 132.281 50.7188 132.206 50.0625C131.325 50.1188 129.731 50.1188 127.931 49.4063C127.463 49.2188 125.7 48.4688 124.163 46.6313C122.85 45.075 122.381 43.5563 122.044 42.45C121.725 41.3625 121.013 38.8875 121.725 35.7938C122.381 32.9813 123.844 31.2 124.144 30.8438C125.963 28.7063 128.1 27.825 129.113 27.4875C130.013 28.65 130.894 29.5125 131.55 30.0938C132.975 31.35 134.494 32.6813 136.744 33.1125C137.588 33.2813 138.281 33.2813 138.731 33.2438C138.844 33.075 139.181 32.6438 139.781 32.475C140.775 32.1938 141.619 32.9438 141.769 33.075C142.35 33.5813 142.5 34.2188 142.613 34.6125C142.688 34.8938 142.913 35.85 142.463 36.8625C142.35 37.1063 142.181 37.4625 141.825 37.7625C141.15 38.3438 140.306 38.3063 140.063 38.2875C139.369 39.0375 138.413 40.275 137.681 41.9813C136.481 44.7938 136.631 47.2688 136.669 47.9438C136.8 49.6313 137.025 52.7438 139.519 54.825C142.65 57.45 146.831 56.3063 147.319 56.175C152.156 54.7875 153.731 49.8563 153.863 49.3875C155.194 44.9438 152.888 41.0438 151.763 39.15C150.206 36.5063 149.438 36.8063 145.969 32.9438C140.888 27.2813 140.85 24.7688 137.831 23.625C136.219 23.025 133.519 22.7063 129.188 24.975C128.55 24.8813 127.481 24.7875 126.263 25.0688Z" fill="#5222D0"/>
<path d="M132.544 50.4001C133.65 50.2688 134.813 49.5 135.694 48.8438C135.975 48.6375 135.694 48.15 135.413 48.3563C135 48.675 134.55 48.9375 134.081 49.1813C133.594 49.4438 133.088 49.7625 132.525 49.8375C132.188 49.8751 132.188 50.4376 132.544 50.4001Z" fill="#161616"/>
<path d="M132.712 50.6437C133.425 50.5312 134.062 50.1187 134.681 49.7625C135.281 49.4062 135.825 49.0125 136.312 48.5062C136.556 48.2437 136.162 47.85 135.919 48.1125C135.112 48.975 133.744 49.9125 132.562 50.1187C132.206 50.175 132.356 50.7187 132.712 50.6437Z" fill="#161616"/>
<path opacity="0.25" d="M144.338 31.425C145.444 33.2813 146.925 36.0938 148.106 39.7688C149.55 44.25 150.413 46.8563 148.988 48.9C147.581 50.925 144.375 51.7313 141.694 50.8313C139.013 49.9313 137.119 47.4375 136.95 44.5125C136.706 45.5813 136.444 47.4 136.856 49.5938C137.138 51.0375 137.494 52.875 139.05 54.4125C140.906 56.25 143.269 56.4375 144.131 56.5125C145.013 56.5875 147.338 56.6438 149.663 55.2C151.969 53.775 152.888 51.7313 153.263 50.9063C154.294 48.5813 154.144 46.5188 154.05 45.4688C153.806 42.5063 152.531 40.4438 151.95 39.5063C151.706 39.1125 151.144 38.25 148.444 35.475C146.775 33.7313 145.35 32.3438 144.338 31.425Z" fill="#3F3F3F"/>
<path opacity="0.15" d="M114.506 46.0688C114.281 46.8375 113.944 48.4875 114.6 50.2875C115.669 53.2313 119.006 55.35 122.419 54.8438C125.213 54.4313 127.556 52.3313 128.381 49.4813C129.694 49.65 131.006 49.8375 132.338 50.0063C132.375 50.6438 132.338 51.6188 131.981 52.725C131.344 54.75 130.069 55.9313 129.525 56.4188C127.031 58.65 124.031 58.8188 122.85 58.875C121.294 58.95 118.763 59.1 116.438 57.375C114.488 55.95 113.756 54.0188 113.55 53.3438C112.35 49.7063 114.206 46.575 114.506 46.0688Z" fill="#3F3F3F"/>
<path opacity="0.15" d="M137.85 38.2688C137.138 40.8188 136.181 44.25 133.988 46.2563C133.05 47.1188 130.819 48.675 126.169 48.3563C126.731 48.75 127.988 49.5 129.769 49.6688C131.55 49.8375 132.919 49.3313 133.538 49.05C134.231 51.1313 134.944 53.2125 135.638 55.275C136.631 54.7125 137.625 54.1688 138.619 53.6063C137.944 52.5563 136.669 50.25 136.594 47.1188C136.481 41.9813 139.688 38.5875 140.363 37.9125C140.625 37.875 141.544 37.6688 142.125 36.8625C142.894 35.775 142.575 34.2 141.694 33.3563C141.525 33.1875 140.775 32.475 140.025 32.6625C138.825 32.925 138.675 35.2688 137.85 38.2688Z" fill="#3F3F3F"/>
</svg>
