<svg width="250" height="255" viewBox="0 0 250 255" fill="none" xmlns="http://www.w3.org/2000/svg">
<g clip-path="url(#clip0)">
<path d="M125.437 240.553C125.437 240.553 131.133 239.181 136.995 237.767C136.995 237.767 143.813 236.187 149.343 235.065C158.241 233.235 197.322 237.102 249.709 245.667C249.751 248.619 249.751 251.571 249.792 254.523C235.282 254.481 220.772 254.398 206.261 254.356C179.32 249.783 152.378 245.168 125.437 240.553Z" fill="#999999"/>
<path d="M55.0059 254.315C55.089 253.941 55.0059 220.804 55.0059 220.804C55.0059 220.804 83.6105 220.222 84.8578 220.388C86.1051 220.555 222.684 254.315 222.684 254.315H55.0059Z" fill="#C6C6C6"/>
<path d="M0.249481 254.315C0.332634 253.733 0.249481 203.633 0.249481 203.633C0.249481 203.633 23.7403 202.718 24.7797 203.009C25.7775 203.342 137.993 254.315 137.993 254.315H0.249481Z" fill="#E8E8E8"/>
<path d="M8.56476 192.075C8.56476 192.199 8.60633 192.574 8.68949 193.156C9.31314 198.478 12.4314 221.22 12.4314 221.22H30.7667L35.4232 192.116" fill="#202124"/>
<path d="M21.994 194.195C29.4108 194.195 35.4232 193.339 35.4232 192.283C35.4232 191.226 29.4108 190.37 21.994 190.37C14.5772 190.37 8.56476 191.226 8.56476 192.283C8.56476 193.339 14.5772 194.195 21.994 194.195Z" fill="white" stroke="#202124" stroke-miterlimit="10"/>
<path d="M18.9173 157.982C16.7138 163.719 14.3855 170.372 17.5453 176.234C18.8758 178.729 21.4535 180.766 21.994 183.635C22.6177 186.794 20.5804 189.746 21.3288 192.948C21.4951 193.738 22.7008 193.405 22.5345 192.615C21.8693 189.622 23.6986 186.836 23.3245 183.884C22.9918 181.431 21.3704 179.519 19.9568 177.606C15.5496 171.536 17.7116 164.717 20.1646 158.314C20.4141 157.566 19.2084 157.233 18.9173 157.982Z" fill="#5492ED"/>
<path d="M9.64577 168.418C9.47946 172.617 9.85365 177.024 11.9741 180.807C12.8056 182.304 13.8866 183.718 15.4249 184.508C17.4622 185.506 20.331 185.173 21.6198 187.377C22.0356 188.083 23.075 187.46 22.7008 186.753C22.0356 185.589 21.0793 184.924 19.832 184.508C17.4206 183.676 15.3833 183.635 13.8034 181.348C11.1841 177.606 10.7683 172.866 10.9346 168.418C10.9346 167.586 9.68735 167.586 9.64577 168.418Z" fill="#5492ED"/>
<path d="M18.5431 175.569C21.3704 176.068 23.2413 174.488 24.3223 171.993C25.819 168.459 26.1932 164.468 28.771 161.474C29.3115 160.892 28.4384 159.978 27.8979 160.601C26.2764 162.431 25.4033 164.593 24.6965 166.879C23.7818 169.748 22.9503 175.07 18.8342 174.363C18.1274 174.197 17.7532 175.402 18.5431 175.569Z" fill="#5492ED"/>
<path d="M14.136 154.489C13.0966 158.148 13.3461 161.641 16.3812 164.302C16.9632 164.842 17.8779 163.969 17.2543 163.428C14.5518 161.059 14.4271 158.107 15.3418 154.864C15.5496 154.074 14.3855 153.741 14.136 154.489Z" fill="#5492ED"/>
<path d="M10.2694 173.698C9.7705 173.407 7.1096 171.868 6.11176 168.501C5.1555 165.175 6.52752 162.514 6.81856 161.973C7.60851 162.763 8.64793 164.01 9.43788 165.757C10.9762 169.208 10.5189 172.409 10.2694 173.698Z" fill="#5492ED"/>
<path d="M13.2214 181.639C12.6809 180.558 12.0988 178.978 11.8909 176.982C11.5167 173.033 13.0966 169.998 13.8034 168.833C14.0945 169.208 17.3374 173.448 15.7159 178.063C15.0923 179.768 14.0113 180.974 13.2214 181.639Z" fill="#5492ED"/>
<path d="M14.0945 157.566C13.4292 156.901 12.6809 155.986 12.2235 154.739C10.5605 150.498 13.2629 146.34 13.6371 145.8C14.3023 146.465 15.1755 147.546 15.6744 149.043C17.088 153.242 14.4687 157.067 14.0945 157.566Z" fill="#5492ED"/>
<path d="M16.6306 168.833C16.7138 167.919 17.088 165.84 18.6679 163.886C20.913 161.1 24.0312 160.56 24.8212 160.435C24.6965 161.308 24.4054 162.389 23.8649 163.47C21.8277 167.378 17.67 168.584 16.6306 168.833Z" fill="#5492ED"/>
<path d="M19.3331 160.144C18.8758 159.395 18.0442 157.691 18.1274 155.529C18.2937 151.662 21.1209 149.334 21.5782 148.96C22.0356 149.75 22.6592 151.039 22.784 152.743C23.0334 156.901 19.7904 159.728 19.3331 160.144Z" fill="#5492ED"/>
<path d="M22.2435 182.346C22.1603 181.722 21.994 179.934 22.9919 178.147C24.4886 175.486 27.3158 174.904 27.7316 174.82C27.7316 175.61 27.6484 176.899 26.9832 178.271C25.6112 181.098 22.9087 182.138 22.2435 182.346Z" fill="#5492ED"/>
<path d="M24.3223 170.289C25.1954 170.496 26.7753 170.746 28.5215 170.122C32.5545 168.792 33.7186 164.343 33.8018 163.969C33.2613 163.844 30.5172 163.345 27.8563 165.05C25.0291 166.879 24.4054 169.79 24.3223 170.289Z" fill="#5492ED"/>
<path d="M28.3968 161.765C27.69 161.059 26.7337 159.894 26.2348 158.19C24.946 153.783 27.9395 149.999 28.2721 149.583C28.771 150.789 29.3531 152.66 29.4778 154.988C29.6441 157.982 28.9373 160.393 28.3968 161.765Z" fill="#5492ED"/>
<path d="M90.3043 227.456C97.8297 234.774 101.197 238.89 100.491 239.805C99.7006 240.844 93.7136 237.892 82.5711 230.907C83.1948 228.912 83.8184 226.916 84.4421 224.92C84.6084 225.378 84.9825 226.167 85.7725 226.791C87.685 228.288 90.0965 227.539 90.3043 227.456Z" fill="black"/>
<path d="M90.2628 228.246C89.3481 228.038 88.5165 230.2 89.3481 230.242C89.8886 230.284 90.138 229.535 90.3043 229.161C90.4291 228.745 90.5538 228.288 90.8448 227.955C90.9696 227.831 91.3438 227.498 91.5101 227.747C91.7595 228.122 91.0527 228.454 90.8448 228.413C90.637 228.413 90.637 228.704 90.8448 228.745C91.9258 228.828 92.1753 227.041 91.0943 227.415C90.5538 227.623 90.2628 228.205 90.138 228.745C90.0965 228.87 89.6391 230.2 89.3481 229.868C89.2649 229.743 89.5144 229.203 89.556 229.119C89.6807 228.912 89.9302 228.537 90.1796 228.621C90.3875 228.621 90.4706 228.288 90.2628 228.246Z" fill="white"/>
<path d="M91.5101 230.866C91.9674 230.367 92.5495 230.076 93.2147 230.117C93.4226 230.117 93.4226 229.826 93.2147 229.785C92.4663 229.785 91.8011 230.076 91.3022 230.658C91.1775 230.782 91.3853 230.99 91.5101 230.866Z" fill="white"/>
<path d="M92.7574 231.572C93.1731 231.24 93.6305 231.032 94.171 230.99C94.3789 230.99 94.3789 230.658 94.171 230.658C93.5473 230.699 93.0068 230.907 92.5495 231.323C92.3832 231.489 92.6326 231.697 92.7574 231.572Z" fill="white"/>
<path d="M93.5889 232.737C94.0878 232.404 94.5867 232.196 95.1688 232.113C95.3767 232.071 95.2935 231.78 95.0856 231.822C94.462 231.905 93.9215 232.154 93.4226 232.487C93.2563 232.57 93.4226 232.861 93.5889 232.737Z" fill="white"/>
<path d="M94.6283 233.901C94.7115 233.859 95.9172 233.319 95.9588 233.443C96.0003 233.651 96.2914 233.568 96.2498 233.36C96.1667 232.737 94.753 233.485 94.462 233.651C94.2957 233.734 94.462 233.984 94.6283 233.901Z" fill="white"/>
<path d="M83.0285 230.658C86.8119 232.612 90.4291 234.774 93.9215 237.185C94.0878 237.31 94.2541 237.019 94.0878 236.936C90.5954 234.524 86.9367 232.321 83.1948 230.408C82.9869 230.284 82.8621 230.575 83.0285 230.658Z" fill="white"/>
<path d="M105.812 130.042C106.478 137.9 107.143 145.883 107.683 153.949C108.224 161.308 108.681 168.584 109.097 175.818C109.097 178.022 109.097 180.225 109.097 182.429C108.058 185.339 106.436 189.788 104.232 195.151C101.696 201.346 99.9917 204.797 96.5408 212.614C94.9193 216.314 92.5495 221.636 89.7639 228.163C89.2649 228.205 88.2255 228.246 87.103 227.706C85.6894 227.041 84.9826 225.918 84.7331 225.502C84.8162 223.631 84.941 220.721 85.0657 217.187C85.3567 207.957 85.4815 200.889 85.523 197.688C85.9388 169.041 85.5646 162.929 86.313 149.708C86.6456 143.596 87.3108 134.242 88.8492 122.642C94.5036 125.095 100.158 127.589 105.812 130.042Z" fill="#EC615B"/>
<path d="M105.563 130.666C107.642 147.505 108.806 164.426 109.055 181.39C109.055 181.597 109.388 181.597 109.388 181.39C109.139 164.426 107.974 147.505 105.896 130.666C105.854 130.458 105.521 130.458 105.563 130.666Z" fill="#202124"/>
<path d="M108.889 182.055C103.526 197.396 97.0813 212.364 89.6391 226.791C89.556 226.957 89.8054 227.124 89.8886 226.957C97.3724 212.489 103.817 197.521 109.222 182.138C109.263 181.972 108.972 181.888 108.889 182.055Z" fill="#202124"/>
<path d="M85.9388 157.816C86.0219 180.184 85.6478 202.594 84.8162 224.962C84.8162 225.17 85.1073 225.17 85.1488 224.962C86.0219 202.594 86.3961 180.184 86.2714 157.816C86.2714 157.608 85.9388 157.608 85.9388 157.816Z" fill="#202124"/>
<path d="M84.8578 226.001C85.7309 227.664 87.7266 228.454 89.5144 227.872C89.7222 227.831 89.6391 227.498 89.4312 227.581C87.7682 228.122 85.9388 227.373 85.1073 225.835C85.0241 225.669 84.7746 225.793 84.8578 226.001Z" fill="#202124"/>
<path d="M54.3406 209.994C62.6975 223.423 66.1899 230.658 64.8595 231.697C63.3627 232.861 55.671 226.084 41.7429 211.283C43.0318 209.495 44.2791 207.707 45.5679 205.961C45.859 206.585 46.2747 207.25 46.8568 207.874C49.5177 210.618 53.6754 210.077 54.3406 209.994Z" fill="black"/>
<path d="M54.008 210.909C53.4675 210.784 52.927 210.867 52.4696 211.2C52.0539 211.491 51.5965 212.031 51.6797 212.572C51.7628 213.071 52.2617 213.112 52.6359 212.863C53.218 212.489 53.6338 211.99 53.9664 211.408C54.0495 211.241 53.8001 211.075 53.7169 211.241C53.5506 211.574 53.3012 211.907 53.0517 212.156C52.8854 212.281 52.7607 212.447 52.5944 212.53C52.5112 212.572 52.4281 212.655 52.3449 212.697C52.0539 212.572 51.9707 212.364 52.137 212.073C52.4281 211.366 53.2596 211.075 53.9664 211.2C54.1327 211.241 54.2158 210.95 54.008 210.909Z" fill="white"/>
<path d="M54.3822 211.075C54.5069 210.701 54.7563 210.368 55.089 210.161C55.4632 209.911 56.2947 209.662 56.461 210.244C56.6273 210.867 55.8789 211.117 55.4216 211.117C55.0058 211.117 54.6316 211.075 54.2158 211.075C54.008 211.075 54.008 211.366 54.2158 211.408C54.9227 211.449 55.7958 211.616 56.3778 211.2C56.752 210.909 56.9599 210.368 56.6689 209.953C56.3363 209.495 55.671 209.578 55.2137 209.786C54.6732 210.036 54.299 210.493 54.0911 211.034C54.0495 211.158 54.3406 211.241 54.3822 211.075Z" fill="white"/>
<path d="M55.089 213.611C55.3384 213.403 55.5879 213.279 55.8789 213.154C56.0452 213.071 56.6273 212.863 56.752 213.029C56.8768 213.196 57.1262 213.029 57.0015 212.863C56.7936 212.572 56.461 212.655 56.17 212.738C55.7126 212.863 55.2553 213.071 54.8811 213.362C54.7979 213.487 54.9642 213.736 55.089 213.611Z" fill="white"/>
<path d="M55.7126 214.9C56.1284 214.484 56.6689 214.277 57.2925 214.318C57.5004 214.318 57.5004 214.027 57.2925 213.986C56.6273 213.944 55.9621 214.193 55.5048 214.692C55.3384 214.817 55.5879 215.025 55.7126 214.9Z" fill="white"/>
<path d="M56.5441 216.314C57.0015 215.94 57.5836 215.732 58.1656 215.69C58.3735 215.69 58.3735 215.358 58.1656 215.358C57.5004 215.399 56.8768 215.649 56.3363 216.064C56.17 216.231 56.4194 216.439 56.5441 216.314Z" fill="white"/>
<path d="M57.5004 217.894C57.9993 217.52 58.5814 217.27 59.205 217.228C59.4129 217.228 59.4129 216.896 59.205 216.896C58.4982 216.937 57.833 217.187 57.2925 217.644C57.1262 217.811 57.3757 218.018 57.5004 217.894Z" fill="white"/>
<path d="M58.3319 219.266C58.7061 218.975 59.0803 218.767 59.4961 218.601C59.6624 218.517 59.5792 218.226 59.4129 218.31C58.9556 218.476 58.5398 218.725 58.1656 219.016C57.9993 219.141 58.1656 219.39 58.3319 219.266Z" fill="white"/>
<path d="M42.4497 211.075C46.3163 215.067 50.1829 219.016 54.0496 223.008C54.1743 223.132 54.4238 222.924 54.2574 222.8C50.3908 218.808 46.5242 214.859 42.6576 210.867C42.4913 210.701 42.2834 210.909 42.4497 211.075Z" fill="white"/>
<path d="M73.2995 116.239C74.3389 132.121 75.3784 148.004 76.4593 163.886C72.0106 169.457 67.5204 175.319 63.0301 181.473C56.752 190.079 50.9729 198.477 45.6511 206.668C46.0253 207.333 46.8152 208.373 48.1457 209.121C51.0976 210.784 54.2574 209.537 54.7148 209.371C56.1284 207.957 58.6646 205.462 61.9907 202.427C70.5555 194.611 75.711 191.077 87.394 181.39C89.5144 179.643 92.9237 176.775 97.1645 173.116C97.8297 172.658 98.9523 171.785 99.7422 170.247C99.8254 170.039 100.241 169.249 100.449 168.085C100.699 166.671 100.449 165.965 100.283 163.512C100.283 163.512 100.283 163.512 100.2 161.017C100.075 157.192 99.9085 153.367 99.7838 149.542C99.3265 137.194 99.3265 137.734 99.3265 136.944C98.9523 129.128 98.7444 125.261 98.4118 124.222C97.4139 121.478 93.8799 115.241 76.7088 112.372C75.4615 113.661 74.3805 114.95 73.2995 116.239Z" fill="#EC615B"/>
<path d="M73.0916 116.946C74.3389 132.579 75.4199 148.211 76.293 163.886C76.293 164.094 76.6256 164.094 76.6256 163.886C75.7525 148.211 74.6716 132.579 73.4243 116.946C73.3827 116.738 73.0916 116.738 73.0916 116.946Z" fill="#202124"/>
<path d="M75.711 164.634C65.1089 178.022 55.0058 191.784 45.4432 205.878C45.3185 206.044 45.6095 206.211 45.6927 206.044C55.2969 191.95 65.3584 178.23 75.9188 164.884C76.0851 164.676 75.8357 164.468 75.711 164.634Z" fill="#202124"/>
<path d="M45.4848 206.71C47.1894 209.994 51.0145 210.202 54.3406 210.16C54.5485 210.16 54.5485 209.828 54.3406 209.828C51.1808 209.869 47.4389 209.745 45.7758 206.543C45.6511 206.377 45.4016 206.502 45.4848 206.71Z" fill="#202124"/>
<path d="M98.9523 135.78C99.368 146.507 99.7838 157.275 100.158 168.002C100.158 168.21 100.491 168.21 100.491 168.002C100.075 157.275 99.6591 146.507 99.2849 135.78C99.2849 135.572 98.9523 135.572 98.9523 135.78Z" fill="#202124"/>
<path d="M99.5343 170.081C96.4992 173.989 92.3416 177.066 88.5165 180.184C84.6915 183.302 80.8249 186.379 76.9998 189.455C69.225 195.733 61.5749 202.136 54.5485 209.204C54.4237 209.329 54.6316 209.578 54.7564 209.412C61.7828 202.303 69.4329 195.941 77.2077 189.663C81.0328 186.587 84.8994 183.51 88.7244 180.392C92.5495 177.273 96.7071 174.238 99.7422 170.289C99.8669 170.122 99.6591 169.914 99.5343 170.081Z" fill="#202124"/>
<path d="M156.581 129.696L156.641 129.711H156.702C159.974 129.711 162.458 130.243 164.073 130.767L164.073 130.768L164.086 130.772C164.443 130.876 165.054 131.057 165.568 131.265C165.667 131.305 165.759 131.344 165.842 131.383C165.471 131.453 164.994 131.5 164.519 131.54L162.742 131.688L164.337 132.485C164.431 132.533 164.549 132.608 164.727 132.721L164.733 132.725C164.903 132.833 165.11 132.964 165.351 133.096C166.439 133.749 167.483 134.394 168.631 135.259C168.623 135.256 168.615 135.253 168.607 135.251C168.265 135.131 167.975 135.046 167.752 135.007C167.643 134.988 167.52 134.975 167.401 134.986C167.307 134.995 167.06 135.035 166.917 135.273L166.907 135.29L166.899 135.307C166.768 135.568 166.88 135.81 166.925 135.895C166.984 136.008 167.07 136.115 167.157 136.21C167.335 136.405 167.602 136.641 167.943 136.914C168.375 137.258 168.95 137.681 169.668 138.179C168.314 138.058 167.083 137.804 165.998 137.465L165.646 138.399C166.205 138.648 166.755 138.896 167.306 139.146L167.307 139.146C167.377 139.178 167.448 139.21 167.519 139.242C166.35 139.385 164.878 139.391 163.268 138.995C161.238 138.477 159.801 137.522 158.947 136.911L158.947 136.911L158.936 136.904C157.207 135.738 156.082 134.452 155.4 133.529L155.332 133.438L155.232 133.384C154.13 132.799 153.793 131.478 154.27 130.618L154.271 130.618L154.277 130.606C154.655 129.881 155.612 129.454 156.581 129.696ZM166.32 131.245C166.328 131.239 166.333 131.236 166.333 131.236C166.334 131.236 166.33 131.239 166.32 131.245Z" fill="white" stroke="black"/>
<path d="M124.626 133.223L124.626 133.223L124.618 133.215C123.896 132.526 123.68 131.695 123.546 131.181C123.533 131.131 123.521 131.083 123.509 131.04C123.233 129.915 122.842 128.826 122.461 127.765L122.456 127.753C122.07 126.679 121.695 125.633 121.432 124.561C120.808 121.964 120.464 120.837 120.104 119.656C120.09 119.612 120.076 119.568 120.063 119.523C119.691 118.305 119.289 116.964 118.522 113.795C118.485 113.633 118.447 113.472 118.41 113.313C117.888 111.077 117.443 109.169 117.134 107.642C117.895 104.468 120.009 97.4416 126.315 91.6197C129.324 88.8716 132.366 87.2019 134.742 86.1509C134.707 90.359 134.707 94.6732 134.707 99.0218L134.707 99.0263L134.707 99.0289C134.749 106.894 134.957 114.592 135.29 122.123L135.305 122.464L135.627 122.574C142.303 124.868 148.939 127.121 155.574 129.374C155.611 129.939 155.559 130.897 155.086 131.908C154.78 132.553 154.384 133.044 154.069 133.349C150.072 133.836 146.685 134.162 144.229 134.367L144.226 134.367C141.197 134.637 140.431 134.657 139.711 134.667C139.677 134.667 139.644 134.668 139.61 134.668C138.893 134.678 138.125 134.688 135.377 134.907H135.377L135.376 134.907L135.375 134.907L135.374 134.907L135.365 134.908L135.325 134.911C135.29 134.913 135.238 134.917 135.169 134.921C135.031 134.929 134.829 134.939 134.573 134.948C134.061 134.967 133.335 134.981 132.484 134.963C130.776 134.927 128.584 134.762 126.6 134.256L126.597 134.255C126.117 134.135 125.315 133.912 124.626 133.223Z" fill="white" stroke="black"/>
<path d="M156.702 129.377C158.448 129.543 160.236 129.751 161.982 130.042C163.562 130.292 165.516 130.417 166.639 131.622C166.764 131.789 167.013 131.539 166.847 131.414C165.766 130.292 164.269 130.126 162.772 129.876C160.735 129.502 158.698 129.252 156.661 129.086C156.536 129.045 156.536 129.377 156.702 129.377Z" fill="#202124"/>
<path d="M162.731 132.246C164.144 132.454 165.475 132.246 166.722 131.581C166.888 131.498 166.764 131.207 166.556 131.331C165.392 131.913 164.103 132.121 162.814 131.955C162.606 131.913 162.523 132.204 162.731 132.246Z" fill="#202124"/>
<path d="M164.934 132.412C166.015 134.034 167.471 135.364 169.175 136.362C169.341 136.445 169.508 136.196 169.341 136.113C167.678 135.156 166.265 133.867 165.225 132.288C165.101 132.121 164.81 132.246 164.934 132.412Z" fill="#202124"/>
<path d="M164.851 132.246C166.764 133.784 168.801 135.156 170.963 136.279C171.129 136.362 171.296 136.113 171.129 136.029C168.967 134.907 166.93 133.618 165.059 132.08C164.934 131.872 164.685 132.121 164.851 132.246Z" fill="#202124"/>
<path d="M161.567 135.988C163.978 137.568 166.597 138.649 169.425 139.272C169.632 139.314 169.716 139.023 169.508 138.981C166.722 138.358 164.103 137.277 161.733 135.697C161.567 135.614 161.4 135.863 161.567 135.988Z" fill="#202124"/>
<path d="M165.807 138.108C167.595 138.732 169.425 138.981 171.337 138.857C171.545 138.857 171.545 138.524 171.337 138.524C169.466 138.649 167.637 138.399 165.891 137.776C165.724 137.734 165.641 138.025 165.807 138.108Z" fill="#202124"/>
<path d="M166.556 135.447C168.177 136.445 169.799 137.485 171.42 138.524C171.587 138.649 171.753 138.358 171.587 138.275C169.965 137.235 168.344 136.196 166.722 135.198C166.514 135.073 166.348 135.323 166.556 135.447Z" fill="#202124"/>
<path d="M164.976 135.822C167.055 136.944 169.175 137.984 171.379 138.898C171.545 138.981 171.628 138.69 171.462 138.607C169.3 137.692 167.179 136.695 165.142 135.572C164.934 135.447 164.81 135.697 164.976 135.822Z" fill="#202124"/>
<path d="M167.304 135.655C168.427 136.196 169.632 136.57 170.88 136.736C171.088 136.778 171.088 136.445 170.88 136.404C169.674 136.237 168.551 135.905 167.47 135.364C167.263 135.323 167.138 135.572 167.304 135.655Z" fill="#202124"/>
<path d="M88.4316 127.882L88.431 127.882C81.3462 124.688 77.3729 119.938 76.3516 118.672C75.5119 117.603 74.8555 116.684 74.4111 115.978C75.6621 109.841 77.8511 100.732 81.4584 91.2216C83.9117 84.8022 86.8102 78.7425 87.7656 76.745L87.8026 76.6678C87.8027 76.6675 87.8029 76.6672 87.803 76.6669C88.7348 74.7392 89.5905 73.0879 90.2977 71.7234C90.4892 71.3539 90.6698 71.0054 90.8381 70.6781C91.7824 69.7321 92.7754 68.6943 93.7702 67.4509C95.3028 65.5645 96.5053 63.7149 97.4462 62.0391C104.247 64.1685 109.654 66.8373 113.629 69.1088C115.984 70.4725 120.075 72.993 124.619 76.7523L124.619 76.7524C127.718 79.3144 130.033 81.6287 131.189 82.8261L131.189 82.8265C132.309 83.9834 133.226 85.0054 133.972 85.863C129.272 93.9735 125.105 100.26 121.993 104.684L121.992 104.685L121.705 105.096C118.609 109.524 117.035 111.775 115.189 114.144L115.188 114.145C114.463 115.081 113.788 115.93 113.15 116.734C110.915 119.549 109.124 121.804 107.165 125.264C105.874 127.533 104.985 129.51 104.397 130.848C102.961 130.919 101.143 130.938 99.0055 130.709L99.0044 130.709C93.9201 130.176 90.1488 128.659 88.4316 127.882Z" fill="white" stroke="black"/>
<path d="M64.4124 49.8255L64.4123 49.8254L64.4091 49.8322C64.3471 49.961 64.2105 50.0883 63.948 50.1956C63.6857 50.3028 63.3461 50.3692 62.9647 50.4034C62.3271 50.4606 61.6644 50.4225 61.1935 50.3954C61.1632 50.3936 61.1336 50.3919 61.1049 50.3903C60.3271 49.7091 60.0907 49.1078 60.032 48.7257C60.0144 48.6117 60.0052 48.4993 59.9954 48.3717L59.9938 48.3512C59.9848 48.2339 59.9745 48.0994 59.9544 47.9641C59.91 47.6666 59.8164 47.3486 59.576 47.0217C59.4226 46.7829 59.2558 46.6522 59.0703 46.5423C59.002 46.5018 58.9438 46.4701 58.8862 46.4387C58.7833 46.3826 58.6821 46.3275 58.5284 46.2252C57.7127 45.6683 57.2614 44.9617 57.0696 44.6183C56.9977 44.475 56.9327 44.3545 56.8745 44.2466C56.7028 43.9285 56.5908 43.7209 56.5403 43.3677L56.5383 43.3539L56.5356 43.3403C56.5024 43.1743 56.4041 42.371 56.8067 41.7L56.8068 41.7L56.8121 41.6908C56.9384 41.4697 57.092 41.3111 57.5215 40.8816C57.8205 40.5826 58.0474 40.3566 58.2286 40.2117L58.2892 40.1632L58.3323 40.0986C58.4551 39.9144 58.5884 39.7195 58.7239 39.5215L58.7249 39.5201C58.8593 39.3236 58.9959 39.124 59.1223 38.9344L59.2438 38.7522L59.1922 38.5393C59.0409 37.9154 58.8938 37.2648 58.8087 36.7336C58.9311 36.91 59.074 37.1252 59.2407 37.3872L59.2406 37.3872L59.2435 37.3916C60.3851 39.1448 61.1612 40.7771 61.8599 42.5034L61.8599 42.5034L61.8626 42.5098C62.5199 44.0709 62.6895 44.6642 62.8344 45.1838C62.8378 45.1958 62.8411 45.2079 62.8445 45.2199C62.9959 45.7631 63.1342 46.2597 63.6928 47.5426C63.803 47.8071 63.9022 48.0374 63.9901 48.2415C64.1615 48.6394 64.2899 48.9376 64.3737 49.1954C64.4927 49.5618 64.4713 49.7076 64.4124 49.8255Z" fill="white" stroke="black"/>
<path d="M97.7923 65.6711L97.7927 65.6733C98.1257 67.8793 98.5596 70.8834 97.4417 74.0377C96.0565 77.9155 92.9342 80.04 91.4911 80.9092C87.2969 82.6717 84.5797 83.7633 82.787 84.4834C82.1388 84.7438 81.6115 84.9556 81.179 85.1331C80.8257 85.2722 80.4981 85.3983 80.1785 85.5212C79.272 85.87 78.4304 86.1938 77.253 86.7205L77.2493 86.7222C76.8482 86.9056 76.5404 87.05 76.2858 87.1695C75.6009 87.491 75.3002 87.6321 74.5987 87.866C73.9654 88.0709 73.6 88.1436 73.1959 88.2241C73.1685 88.2295 73.1409 88.235 73.1131 88.2406C72.6576 88.3317 72.1497 88.4401 71.2337 88.7383C70.9726 88.8214 70.7589 88.8929 70.5696 88.9562C70.0742 89.122 69.7463 89.2317 69.1741 89.3465C69.1525 89.3503 69.1312 89.354 69.11 89.3578C68.4251 89.4789 67.9079 89.5704 67.2492 89.4317L67.2443 89.4307C66.5984 89.3015 66.1246 88.9973 65.8223 88.7503C65.6326 88.2334 65.4037 87.4679 65.1337 86.504C64.5516 84.346 64.4022 82.8334 64.1957 80.7429C64.1563 80.3441 64.1149 79.9243 64.0679 79.4749L64.0679 79.4745C63.9087 77.9628 63.8246 77.42 63.7001 76.6165C63.6935 76.5745 63.6869 76.5317 63.6802 76.4881C63.546 75.6209 63.3597 74.3901 62.9866 71.3639C62.9553 71.0519 62.8933 70.5227 62.8106 69.8158C62.6751 68.6589 62.484 67.0259 62.2801 65.089L62.28 65.0887C61.9102 61.5953 61.4186 56.8442 60.9257 50.9143C61.1998 50.5881 61.6194 50.1716 62.2081 49.8115C62.928 49.3801 63.6226 49.2606 64.135 49.2088C64.1417 49.2292 64.1485 49.2498 64.1554 49.2706C64.4348 50.1145 64.8104 51.2494 65.305 52.5918L65.305 52.5918L65.3069 52.5969C66.5016 55.7329 67.5317 57.8738 68.7714 60.4502C68.9214 60.7621 69.0746 61.0804 69.2315 61.4076C70.1864 63.4005 71.5974 66.3885 73.2158 70.0818L73.4084 70.5214L73.8555 70.3469C74.617 70.0497 75.356 69.7501 76.0941 69.451C77.038 69.0684 77.9802 68.6865 78.9656 68.3111L78.9657 68.3111L78.9697 68.3095C84.4732 66.1578 89.8937 64.0887 95.2723 62.1021L96.2584 62.0441L96.9335 62.0044C97.2357 62.9524 97.5773 64.2019 97.7923 65.6711Z" fill="white" stroke="black"/>
<path d="M63.9864 48.7186C62.4896 48.7602 61.2007 49.467 60.3276 50.6727C60.2029 50.839 60.4939 51.0053 60.5771 50.839C61.367 49.7164 62.6143 49.0928 63.9864 49.0512C64.1527 49.0512 64.1527 48.7186 63.9864 48.7186Z" fill="#202124"/>
<path d="M61.076 42.8979C60.5771 42.7316 59.995 42.7732 59.4961 42.9811C59.1635 43.1474 58.623 43.5216 58.623 43.9789C58.623 44.4778 59.2882 44.8936 59.6624 45.143C60.2029 45.4757 60.8265 45.6835 61.4918 45.7251C61.6996 45.7251 61.6996 45.4341 61.4918 45.3925C60.7434 45.3093 59.6624 45.0183 59.2051 44.3531C58.8724 43.8957 59.2051 43.48 59.6624 43.2305C60.0782 43.0226 60.5355 43.0226 60.9928 43.1474C61.2007 43.2721 61.2839 42.9395 61.076 42.8979Z" fill="#202124"/>
<path d="M61.076 45.642C61.2839 46.3488 61.6997 46.8892 62.2817 47.305C62.448 47.4297 62.6143 47.1387 62.448 47.0556C61.9491 46.6814 61.5749 46.1824 61.367 45.5588C61.2839 45.3509 60.9928 45.4341 61.076 45.642Z" fill="#202124"/>
<path d="M58.2904 35.913C57.9162 36.4535 58.0825 37.0772 58.2072 37.6592C58.4151 38.6571 58.7477 39.6549 59.0803 40.6112C59.1635 40.8191 59.4545 40.7359 59.3714 40.528C59.1219 39.8628 58.914 39.1976 58.7477 38.5324C58.5814 37.8671 58.0825 36.703 58.5398 36.0793C58.6646 35.913 58.4151 35.7467 58.2904 35.913Z" fill="#202124"/>
<path d="M58.2488 39.1976C57.7915 40.237 58.2488 41.2764 58.7477 42.2327C58.8309 42.399 59.1219 42.2327 58.9972 42.0664C58.5814 41.2348 58.0825 40.3201 58.4983 39.3639C58.623 39.1976 58.332 39.0313 58.2488 39.1976Z" fill="#202124"/>
<path d="M57.9162 39.6549C56.5442 39.4886 56.9599 41.7753 57.251 42.4821C57.3341 42.6484 57.5836 42.5237 57.5004 42.3158C57.2926 41.8585 56.8768 39.8628 57.9162 39.946C58.0825 39.9875 58.0825 39.6965 57.9162 39.6549Z" fill="#202124"/>
<path d="M56.7105 40.8191C55.6295 41.609 56.0037 42.9395 56.7936 43.8126C56.9184 43.9789 57.1678 43.7294 57.0015 43.6047C56.3779 42.9395 55.9621 41.7753 56.8768 41.1101C57.0431 40.9854 56.8768 40.6943 56.7105 40.8191Z" fill="#202124"/>
<path d="M55.9621 42.8979C55.5879 43.8541 56.2115 44.6857 56.8352 45.3509C56.9599 45.5172 57.2094 45.2678 57.0431 45.143C56.5026 44.561 55.8789 43.8541 56.2531 43.0226C56.3363 42.8147 56.0452 42.7316 55.9621 42.8979Z" fill="#202124"/>
<path d="M127.1 68.0518C127.266 67.345 127.432 66.3472 127.432 65.1415C127.432 63.1458 126.975 61.649 126.726 60.9422C126.143 59.2792 125.769 58.1566 124.688 57.2003C122.318 55.1215 118.992 55.953 118.66 56.0362C117.911 56.2441 115.458 56.8677 114.627 58.9881C114.086 60.4017 114.544 61.8153 114.71 62.2727C114.918 62.8963 115.209 63.7279 116.04 64.3515C116.955 65.0167 117.994 64.9336 119.034 64.892C119.782 64.8504 121.071 64.6425 122.526 63.8942C122.651 64.3931 123.316 66.4719 125.353 67.5113C125.936 67.8439 126.601 67.9687 127.1 68.0518Z" fill="#202124"/>
<path d="M116.299 66.9008L116.3 66.8993C116.563 66.2065 116.911 65.6589 117.19 65.307C118.106 65.2929 119.277 65.1912 120.732 64.8373L120.74 64.8352L120.748 64.8329C121.624 64.5878 122.36 64.3127 122.98 64.03C123.574 64.8784 124.319 65.8495 125.298 66.7907L125.298 66.7908L125.307 66.7988L125.313 66.8051C125.728 67.1855 126.153 67.5745 126.555 67.9163C126.26 69.4023 125.684 70.329 125.321 70.8378L125.319 70.8401C124.911 71.4182 124.445 71.8763 124.158 72.1585C124.119 72.1971 124.083 72.2325 124.051 72.2644C123.535 72.7401 123.057 73.0982 122.655 73.3797L122.51 73.4814L122.461 73.6519C122.377 73.9452 122.294 74.2485 122.211 74.5492L122.21 74.5502C122.127 74.8521 122.045 75.1513 121.962 75.4397L121.831 75.9001L122.285 76.0514C122.432 76.1006 122.587 76.1363 122.716 76.166L122.726 76.1682C122.736 76.1706 122.746 76.1729 122.755 76.1751C122.748 76.2971 122.725 76.4332 122.677 76.5794C122.585 76.8373 122.386 77.0365 122.078 77.2099C121.779 77.3786 121.429 77.4947 121.064 77.6163C121.043 77.6232 121.022 77.6301 121.002 77.6371L120.995 77.6391C120.466 77.8019 119.774 78.0148 118.822 77.869C118.575 77.8278 118.09 77.7419 117.634 77.5413C117.165 77.3349 116.834 77.0557 116.729 76.687L116.724 76.6701L116.718 76.6535C116.611 76.3593 116.665 75.9605 116.888 75.6816L116.895 75.6734L116.901 75.6649C117.193 75.2659 117.847 75.0642 118.565 75.3375L119.052 75.5232L119.217 75.0284C119.282 74.8328 119.336 74.6489 119.388 74.4742L119.389 74.4709C119.441 74.2932 119.491 74.1248 119.55 73.9474L119.711 73.4619L119.222 73.3114C118.722 73.1575 117.522 72.703 116.702 71.5104L116.702 71.5104L116.699 71.5069C115.4 69.6505 116.099 67.4207 116.299 66.9008Z" fill="white" stroke="black"/>
<path d="M122.979 66.4643C123.16 66.1182 123.174 65.7688 123.012 65.6838C122.849 65.5988 122.57 65.8104 122.39 66.1565C122.209 66.5025 122.195 66.852 122.358 66.937C122.52 67.022 122.799 66.8103 122.979 66.4643Z" fill="#202124"/>
<path d="M119.117 73.914C118.951 74.2051 118.743 74.4961 118.576 74.8287C118.493 74.995 118.743 75.1613 118.826 74.995C118.992 74.704 119.2 74.413 119.366 74.0804C119.491 73.914 119.242 73.7477 119.117 73.914Z" fill="#202124"/>
<path d="M116.996 64.684C114.211 63.4783 113.795 60.1522 115.708 57.9486C117.329 56.0777 120.198 55.4956 122.526 56.1608C126.975 57.4497 127.599 63.8525 126.975 67.636C126.933 67.8438 127.224 67.927 127.266 67.7191C128.097 62.6052 126.518 55.163 119.99 55.6203C117.662 55.7866 115.375 57.0339 114.46 59.3206C113.587 61.6074 114.585 63.9772 116.83 64.9335C117.038 65.0166 117.204 64.7672 116.996 64.684Z" fill="#202124"/>
<path d="M117.08 64.8919C119.2 65.0998 121.154 64.3514 123.067 63.5615C123.233 63.4783 123.108 63.2288 122.9 63.312C121.029 64.1019 119.158 64.8503 117.08 64.6009C116.872 64.5593 116.872 64.8503 117.08 64.8919Z" fill="#202124"/>
<path d="M122.817 63.312C123.607 65.2245 125.312 66.5134 126.85 67.8438C127.016 67.9686 127.224 67.7607 127.058 67.636C125.603 66.3471 123.898 65.0998 123.108 63.2288C123.067 63.0625 122.734 63.1041 122.817 63.312Z" fill="#202124"/>
<path d="M120.697 64.8503C119.491 65.6819 118.66 66.8876 118.244 68.3012C118.202 68.5091 118.493 68.5922 118.535 68.3843C118.909 67.0539 119.699 65.9313 120.822 65.1414C121.029 64.9751 120.863 64.7256 120.697 64.8503Z" fill="#202124"/>
<path d="M140.654 229.993C129.054 235.522 123.441 238.932 123.898 240.22C124.439 241.8 133.835 240.304 152.087 235.73C151.713 233.152 151.339 230.616 150.965 228.038C147.555 228.662 144.104 229.327 140.654 229.993Z" fill="black"/>
<path d="M139.406 231.822C138.991 231.572 138.616 231.281 138.284 230.907C137.993 230.533 137.369 229.618 138.076 229.369C139.282 228.953 139.282 231.323 139.323 231.947C139.323 232.154 139.656 232.154 139.656 231.947C139.573 231.198 139.614 230.159 139.157 229.494C138.866 229.078 138.325 228.87 137.868 229.078C136.496 229.701 138.575 231.697 139.24 232.071C139.406 232.196 139.573 231.947 139.406 231.822Z" fill="white"/>
<path d="M139.323 232.071C140.113 231.365 141.735 231.032 142.608 231.863C143.023 232.071 142.94 232.404 142.358 232.861C142.275 232.82 142.192 232.82 142.067 232.778C141.818 232.737 141.527 232.612 141.277 232.529C140.695 232.321 140.113 231.988 139.531 231.739C139.365 231.656 139.198 231.905 139.365 231.988C140.321 232.487 141.444 233.111 142.566 233.194C143.231 233.235 143.647 232.82 143.315 232.154C142.566 230.616 140.155 230.907 139.115 231.822C138.991 231.988 139.198 232.196 139.323 232.071Z" fill="white"/>
<path d="M135.457 232.321C136.745 232.113 137.993 232.82 138.533 234.025C138.616 234.192 138.866 234.067 138.783 233.859C138.159 232.529 136.787 231.78 135.332 232.03C135.207 232.03 135.29 232.321 135.457 232.321Z" fill="white"/>
<path d="M134.583 233.36C135.581 233.443 136.496 233.942 137.036 234.815C137.161 234.982 137.411 234.815 137.286 234.649C136.662 233.693 135.706 233.111 134.583 233.028C134.376 233.069 134.376 233.36 134.583 233.36Z" fill="white"/>
<path d="M132.796 234.483C133.502 234.566 134.084 234.982 134.417 235.605C134.5 235.772 134.791 235.605 134.667 235.439C134.292 234.774 133.627 234.275 132.837 234.192C132.671 234.15 132.588 234.441 132.796 234.483Z" fill="white"/>
<path d="M131.548 235.689C132.089 235.73 132.588 235.98 132.962 236.395C133.087 236.562 133.336 236.312 133.17 236.187C132.754 235.73 132.172 235.439 131.548 235.397C131.34 235.356 131.34 235.647 131.548 235.689Z" fill="white"/>
<path d="M140.529 237.726C143.98 236.977 147.389 236.063 150.798 234.982C151.006 234.94 150.923 234.608 150.715 234.691C147.347 235.772 143.938 236.645 140.446 237.435C140.238 237.476 140.321 237.767 140.529 237.726Z" fill="white"/>
<path d="M129.345 193.364C129.547 194.097 129.736 194.782 129.913 195.425C131.082 199.672 131.746 202.085 132.505 204.215C134.5 210.119 137.12 218.393 140.695 229.993M129.345 193.364L160.195 193.696C156.548 193.884 153.412 193.936 151.062 193.975C150.813 193.979 150.572 193.983 150.341 193.987C150.008 202.178 150.008 210.867 150.507 220.014C150.674 223.049 150.881 226.043 151.131 228.953M129.345 193.364C129.345 193.364 128.472 190.287 127.723 185.215L129.345 193.364ZM140.695 229.993C141.36 230.491 142.649 231.323 144.479 231.489C148.137 231.905 150.757 229.327 151.131 228.953M140.695 229.993L141.173 229.845C141.157 229.793 141.141 229.74 141.124 229.688M140.695 229.993L140.995 229.593C141.036 229.623 141.079 229.655 141.124 229.688M151.131 228.953L150.777 228.6C150.742 228.635 150.686 228.69 150.613 228.759M151.131 228.953L150.633 228.996C150.626 228.917 150.619 228.838 150.613 228.759M150.613 228.759C149.923 229.409 147.612 231.342 144.535 230.992L144.535 230.992L144.524 230.991C142.935 230.847 141.782 230.162 141.124 229.688M150.613 228.759L129.827 193.23C130.029 193.964 130.218 194.649 130.395 195.292C131.565 199.544 132.224 201.936 132.976 204.047L132.978 204.055L132.978 204.055C134.967 209.939 137.573 218.17 141.124 229.688M184.968 191.306C184.921 191.364 184.877 191.418 184.837 191.466L185.224 191.784L185.176 191.286C185.107 191.292 185.037 191.299 184.968 191.306ZM188.384 180.977C188.384 180.978 188.385 180.979 188.385 180.98L188.882 180.932L188.384 180.973C188.384 180.974 188.384 180.976 188.384 180.977ZM129.826 193.227L129.826 193.227L129.826 193.227L129.825 193.226L129.824 193.22L129.817 193.194C129.81 193.172 129.801 193.137 129.789 193.091C129.764 193 129.727 192.862 129.681 192.68C129.589 192.317 129.458 191.779 129.303 191.083C128.993 189.69 128.59 187.665 128.218 185.143C127.845 182.528 127.7 180.77 128.441 178.779C128.883 177.601 129.497 176.73 129.972 176.126C136.417 174.162 141.836 172.89 145.579 172.108L145.579 172.108C151.134 170.948 156.773 170.077 168.044 168.371C169.563 168.143 170.935 167.935 172.135 167.753C173.29 167.578 174.286 167.427 175.101 167.305L129.826 193.227Z" fill="white" stroke="black"/>
<path d="M215.658 239.805C215.741 241.343 215.824 242.84 215.949 244.378C214.41 249.825 214.036 252.735 214.868 253.109C215.949 253.608 219.15 249.658 224.472 241.218C223.183 239.555 221.894 237.892 220.647 236.229C218.942 237.435 217.279 238.64 215.658 239.805Z" fill="black"/>
<path d="M216.406 241.592C215.824 241.592 215.367 241.842 214.951 242.216C214.66 242.465 214.161 242.923 214.369 243.339C214.535 243.713 214.993 243.63 215.284 243.505C215.824 243.297 216.24 242.881 216.572 242.424C216.697 242.258 216.406 242.091 216.323 242.258C216.115 242.59 215.824 242.84 215.533 243.048C215.325 243.172 214.494 243.588 214.743 242.923C214.826 242.673 215.242 242.382 215.491 242.216C215.782 242.008 216.115 241.883 216.489 241.883C216.614 241.925 216.614 241.592 216.406 241.592Z" fill="white"/>
<path d="M216.739 242.008C216.78 241.676 216.947 241.426 217.196 241.177C217.446 240.969 217.944 240.678 218.277 240.719C219.025 240.844 218.485 241.592 218.111 241.8C217.82 241.967 217.487 242.05 217.155 242.05C216.947 242.05 216.947 242.341 217.155 242.382C217.737 242.424 218.319 242.174 218.734 241.717C218.984 241.426 219.192 240.969 218.859 240.636C218.485 240.262 217.903 240.47 217.487 240.636C216.988 240.886 216.531 241.301 216.448 241.883C216.406 242.091 216.697 242.174 216.739 242.008Z" fill="white"/>
<path d="M215.699 244.295C215.949 243.838 216.531 243.796 216.988 243.754C217.196 243.754 217.196 243.422 216.988 243.422C216.406 243.463 215.741 243.588 215.408 244.129C215.325 244.336 215.616 244.461 215.699 244.295Z" fill="white"/>
<path d="M215.491 245.251C215.907 244.835 216.489 244.711 217.03 244.919C217.196 245.002 217.279 244.711 217.113 244.627C216.489 244.378 215.741 244.544 215.284 245.043C215.159 245.21 215.367 245.417 215.491 245.251Z" fill="white"/>
<path d="M214.993 246.665C215.408 246.291 215.949 246.124 216.489 246.207C216.697 246.249 216.78 245.958 216.572 245.916C215.907 245.792 215.242 245.958 214.785 246.457C214.618 246.623 214.826 246.831 214.993 246.665Z" fill="white"/>
<path d="M214.826 247.995C215.159 247.579 215.741 247.455 216.198 247.704C216.365 247.787 216.531 247.538 216.365 247.455C215.782 247.122 215.034 247.247 214.577 247.787C214.452 247.912 214.701 248.12 214.826 247.995Z" fill="white"/>
<path d="M214.66 249.533C214.826 249.242 215.2 249.118 215.533 249.284C215.699 249.367 215.866 249.118 215.699 249.035C215.242 248.785 214.66 248.951 214.41 249.367C214.286 249.533 214.535 249.7 214.66 249.533Z" fill="white"/>
<path d="M223.183 240.969C220.564 244.544 218.111 248.203 215.741 251.987C215.616 252.153 215.907 252.319 215.99 252.153C218.36 248.411 220.855 244.752 223.433 241.135C223.599 240.927 223.308 240.802 223.183 240.969Z" fill="white"/>
<path d="M204.1 183.221L204.1 183.22C204.189 182.136 204.276 181.172 204.351 180.343C204.407 179.715 204.457 179.165 204.495 178.698C197.232 172.722 188.362 171.051 181.837 174.433C178.98 175.92 177.068 178.137 175.769 180.204C175.78 180.266 175.79 180.329 175.801 180.392C176.083 182.086 176.44 184.236 176.942 186.781L176.942 186.781C176.968 186.917 176.995 187.051 177.021 187.185C177.816 191.244 178.473 194.592 179.594 198.678L179.595 198.679C180.069 200.434 180.294 201.087 180.55 201.814C180.561 201.844 180.572 201.875 180.582 201.905C180.836 202.626 181.131 203.461 181.712 205.446C181.712 205.446 181.712 205.446 181.712 205.446L181.232 205.587C181.817 207.566 182.21 209.075 182.576 210.48C183.093 212.468 183.557 214.247 184.434 216.854C185.639 220.388 186.305 221.719 187.344 222.966L204.1 183.221ZM204.1 183.221C203.476 191.121 203.059 196.75 203.017 203.713V203.716V203.717C203.017 205.298 203.017 207.635 203.143 210.515L203.148 210.649L203.221 210.762C203.815 211.694 204.411 212.635 205.01 213.58C205.957 215.074 206.911 216.579 207.878 218.081L207.879 218.082C211.974 224.43 216.07 230.617 220.166 236.643L204.1 183.221Z" fill="white" stroke="black"/>
<path d="M175.703 184.217C178.073 195.318 180.983 206.294 184.517 217.062C184.558 217.27 184.891 217.187 184.808 216.979C181.315 206.211 178.364 195.234 175.994 184.134C175.952 183.926 175.661 184.009 175.703 184.217Z" fill="white"/>
<path d="M216.614 240.054C218.319 239.888 219.774 238.682 220.19 236.977C220.231 236.769 219.94 236.686 219.899 236.894C219.524 238.433 218.194 239.597 216.614 239.763C216.406 239.763 216.406 240.096 216.614 240.054Z" fill="#202124"/>
<path d="M182.646 111.125C182.396 112.996 182.105 114.909 181.856 116.779C181.482 117.944 180.941 119.607 180.401 121.644C179.195 126.009 178.53 129.419 176.825 140.229C174.788 153.201 174.455 156.527 174.247 158.98C173.956 162.264 173.79 165.008 173.707 166.921C174.247 167.794 175.079 168.916 176.243 170.122C177.199 171.078 178.364 172.118 180.359 173.365C181.856 174.321 184.933 176.068 189.257 177.481C190.338 177.855 194.204 179.061 199.443 179.519C201.605 179.726 203.434 179.726 204.848 179.685C205.43 178.105 206.303 175.777 207.342 172.991C209.006 168.542 209.879 166.339 210.752 164.26C212.872 159.229 213.288 159.188 215.99 153.117C217.82 149.043 219.067 145.841 220.023 143.43C221.603 139.397 223.017 135.531 224.223 131.872C222.975 130.541 221.229 128.878 219.109 127.007C217.695 125.76 214.909 123.349 211.167 120.937C209.38 119.773 204.058 116.447 196.366 113.994C192.957 112.83 188.259 111.624 182.646 111.125Z" fill="#EC615B"/>
<path d="M181.607 116.863C177.158 132.911 174.539 149.417 173.873 166.048C173.873 166.256 174.164 166.256 174.206 166.048C174.871 149.417 177.49 132.953 181.939 116.946C181.939 116.738 181.648 116.655 181.607 116.863Z" fill="white"/>
<path d="M206.201 196.715C206.123 196.805 206.052 196.88 205.99 196.939C205.972 196.77 205.972 196.551 205.986 196.303C206.019 195.734 206.122 195.123 206.167 194.85C206.169 194.84 206.17 194.831 206.172 194.822C206.37 193.753 206.763 192.26 207.694 190.607C208.211 190.155 208.806 189.691 209.39 189.383C210.011 189.055 210.507 188.963 210.861 189.09C210.969 189.136 211.038 189.186 211.099 189.254C211.169 189.332 211.243 189.45 211.339 189.653C211.432 189.85 211.531 190.098 211.664 190.43L211.678 190.464C211.816 190.809 211.985 191.228 212.206 191.735L212.211 191.746L212.217 191.758C212.638 192.6 213.433 194.064 215.01 196.927C215.361 197.59 215.923 198.568 216.594 199.725C216.131 200.293 215.479 200.939 214.584 201.558C214.112 201.883 213.661 202.142 213.249 202.352C212.384 200.796 211.211 198.974 209.535 197.219C208.939 196.58 208.343 196.028 207.751 195.52L207.329 195.158L207.014 195.616L206.993 195.646C206.763 195.981 206.477 196.397 206.201 196.715ZM205.792 197.088C205.792 197.088 205.795 197.086 205.801 197.084C205.795 197.088 205.792 197.089 205.792 197.088Z" fill="white" stroke="black"/>
<path d="M222.185 130.167C220.605 129.793 219.358 129.876 218.402 130.084C213.662 131.04 209.92 136.113 208.631 142.806C210.128 147.338 211.542 152.286 212.747 157.649C213.662 161.557 214.369 165.299 214.951 168.875C214.66 169.79 214.244 171.12 213.704 172.742C212.332 176.691 211.334 178.978 210.17 182.013C209.38 184.05 208.299 186.961 207.135 190.536C207.592 190.786 208.216 191.118 209.089 191.285C210.502 191.576 211.708 191.285 212.29 191.118C212.872 190.162 213.995 188.458 215.408 186.379C219.025 181.098 221.021 178.895 224.846 173.407C225.595 172.326 226.842 170.538 228.297 168.251C228.38 163.886 228.214 160.269 228.048 157.732C228.006 157.067 228.006 157.275 227.05 148.378C226.717 145.384 226.177 142.391 225.886 139.356C225.678 137.36 225.511 135.614 224.555 133.535C223.765 131.997 222.851 130.874 222.185 130.167Z" fill="#EC615B"/>
<path d="M208.423 142.64C211.209 151.122 213.371 159.77 214.868 168.542C214.909 168.75 215.2 168.667 215.159 168.459C213.662 159.687 211.5 150.997 208.714 142.557C208.673 142.349 208.382 142.432 208.423 142.64Z" fill="white"/>
<path d="M207.342 196.316C209.546 198.062 211.375 200.182 212.789 202.635C212.872 202.801 213.163 202.635 213.038 202.469C211.625 200.016 209.795 197.854 207.55 196.108C207.384 195.941 207.176 196.191 207.342 196.316Z" fill="#202124"/>
<path d="M210.918 197.771C212.165 199.018 213.08 200.515 213.662 202.178C213.745 202.386 214.036 202.303 213.953 202.095C213.329 200.39 212.415 198.852 211.126 197.563C211.001 197.396 210.793 197.604 210.918 197.771Z" fill="#202124"/>
<path d="M212.581 197.396C213.621 198.727 214.327 200.182 214.702 201.845C214.743 202.053 215.034 201.97 214.993 201.762C214.618 200.057 213.87 198.561 212.789 197.189C212.664 197.022 212.456 197.23 212.581 197.396Z" fill="#202124"/>
<path d="M214.119 197.812C215.034 198.935 215.491 200.265 215.491 201.679C215.491 201.887 215.824 201.887 215.824 201.679C215.824 200.141 215.325 198.768 214.369 197.563C214.203 197.438 213.995 197.646 214.119 197.812Z" fill="#202124"/>
<path d="M215.159 197.729C215.824 198.685 216.157 199.725 216.198 200.847C216.198 201.055 216.531 201.055 216.531 200.847C216.489 199.642 216.157 198.519 215.45 197.563C215.325 197.396 215.034 197.563 215.159 197.729Z" fill="#202124"/>
<path d="M162.107 127.756C161.65 128.379 160.985 129.211 160.153 130.209C159.613 130.916 159.405 131.123 159.114 131.539C158.532 132.371 157.451 134.242 157.825 134.574C158.157 134.865 159.529 133.909 159.904 133.66C160.86 132.953 161.525 132.204 161.899 131.664C161.567 132.121 161.109 132.87 160.818 133.826C160.402 135.156 160.527 136.32 160.61 136.986C160.901 137.069 161.359 137.11 161.899 136.986C162.398 136.861 162.731 136.653 163.604 135.946C164.061 135.572 164.685 135.032 165.35 134.408C165.225 134.99 165.101 135.738 165.101 136.612C165.101 137.152 165.142 137.651 165.225 138.108C165.641 137.984 166.597 137.609 167.429 136.695C168.344 135.655 168.551 134.491 168.635 134.075C168.718 133.909 168.801 133.743 168.926 133.576C168.427 132.703 167.637 131.498 166.348 130.333C164.726 128.92 163.147 128.171 162.107 127.756Z" fill="white"/>
<path d="M182.022 111.416C181.482 111.375 181.191 111.666 179.611 112.954C175.744 116.073 176.867 114.784 173.374 117.653C170.464 120.064 167.803 122.268 164.81 125.677C163.853 126.758 163.105 127.673 162.606 128.296C163.604 128.629 164.435 129.045 165.017 129.377C165.974 129.918 166.972 130.541 167.762 131.664C168.344 132.495 168.635 133.369 168.759 133.951C168.593 134.574 168.385 135.198 168.219 135.822C169.175 136.279 170.131 136.695 171.088 137.152C171.753 136.903 172.792 136.487 174.04 136.071C176.035 135.364 177.407 134.99 177.781 134.865C180.567 133.992 183.436 130.624 184.808 127.506C187.843 120.605 184.683 111.707 182.022 111.416Z" fill="#EC615B"/>
<path d="M162.731 128.546C163.812 128.712 164.976 129.543 165.849 130.126C166.972 130.915 167.886 131.872 168.344 133.202C168.427 133.368 168.718 133.327 168.635 133.119C168.177 131.872 167.387 130.915 166.348 130.126C165.35 129.377 164.02 128.421 162.772 128.213C162.606 128.213 162.523 128.546 162.731 128.546Z" fill="#202124"/>
<path d="M158.49 134.491C159.945 134.283 161.234 132.703 162.149 131.664C162.273 131.498 162.066 131.29 161.941 131.456C161.068 132.495 159.82 134.034 158.407 134.2C158.199 134.242 158.282 134.533 158.49 134.491Z" fill="#202124"/>
<path d="M161.899 131.581C160.86 133.078 160.361 134.824 160.361 136.653C160.361 136.861 160.694 136.861 160.694 136.653C160.652 134.865 161.151 133.244 162.19 131.747C162.273 131.581 161.982 131.414 161.899 131.581Z" fill="#202124"/>
<path d="M160.985 137.235C161.816 137.277 162.648 136.736 163.313 136.32C164.144 135.78 164.893 135.156 165.558 134.45C165.683 134.283 165.475 134.075 165.35 134.242C164.768 134.865 164.144 135.447 163.438 135.905C162.772 136.362 161.858 136.986 161.026 136.944C160.777 136.944 160.777 137.235 160.985 137.235Z" fill="#202124"/>
<path d="M161.109 136.819C162.107 135.614 163.23 134.533 164.435 133.535C164.602 133.41 164.352 133.202 164.228 133.327C163.022 134.325 161.899 135.406 160.901 136.612C160.777 136.736 160.985 136.986 161.109 136.819Z" fill="#202124"/>
<path d="M165.35 134.574C164.976 135.655 164.768 136.778 164.81 137.942C164.81 138.15 165.142 138.15 165.142 137.942C165.142 136.819 165.308 135.738 165.683 134.657C165.724 134.491 165.433 134.408 165.35 134.574Z" fill="#202124"/>
<path d="M196.533 110.044C196.283 110.003 195.41 109.919 194.578 109.296C193.497 108.423 193.331 107.092 193.29 106.926C193.04 104.93 194.62 103.475 194.828 103.267C196.408 101.853 198.445 102.061 199.193 102.145C201.854 102.436 203.476 104.223 203.933 104.722C203.975 104.307 204.183 103.142 205.18 102.269C205.43 102.061 206.511 101.022 207.426 101.355C208.216 101.646 208.091 102.602 209.089 103.059C209.629 103.309 210.211 103.267 210.502 103.226C211.209 103.142 211.417 102.893 212.124 102.727C212.789 102.56 213.329 102.643 213.953 102.727C214.951 102.893 217.82 103.683 220.273 106.385C221.229 107.425 222.684 109.005 223.058 111.582C223.349 113.453 222.934 114.95 222.643 115.865C222.352 116.78 221.437 119.856 218.693 121.602C215.45 123.681 211.583 122.6 211.126 122.475C204.224 120.397 200.15 110.501 196.533 110.044Z" fill="#5222D0"/>
<path d="M196.769 115.219L196.769 115.219L196.764 115.21C196.128 114.044 196.304 112.878 196.432 112.033C196.436 112.004 196.441 111.976 196.445 111.948C196.548 111.261 196.743 110.727 196.924 110.311C197.525 109.966 198.487 109.521 199.749 109.377L199.764 109.375L199.779 109.372C200.455 109.253 201.353 109.144 202.44 109.519L202.44 109.519L202.453 109.523C203.653 109.901 204.421 110.689 204.807 111.174C204.821 113.113 204.388 114.571 204.079 115.121L204.079 115.121L204.075 115.129C203.947 115.367 203.788 115.592 203.657 115.762C203.592 115.846 203.536 115.914 203.497 115.96C203.477 115.984 203.462 116.001 203.452 116.013L203.441 116.025L203.438 116.027L203.438 116.027L203.438 116.028L203.438 116.028L203.438 116.028L203.431 116.035L203.424 116.044C203.229 116.278 203.049 116.454 202.926 116.546L202.259 117.046L203.015 117.399C203.384 117.571 203.789 117.738 204.188 117.902C204.33 117.961 204.472 118.02 204.611 118.078C204.473 118.572 204.119 119.386 203.333 120.003L203.328 120.008L203.322 120.013C203.12 120.181 202.54 120.582 201.706 120.691L201.698 120.692L201.689 120.693C201.603 120.708 201.272 120.745 200.884 120.687C200.494 120.629 200.096 120.483 199.805 120.177L199.782 120.152L199.755 120.131C199.7 120.087 199.578 119.96 199.492 119.803C199.403 119.642 199.398 119.534 199.418 119.474C199.455 119.363 199.672 119.15 200.067 119.15H200.476L200.557 118.748C200.578 118.64 200.6 118.522 200.62 118.41L200.621 118.407C200.642 118.292 200.662 118.182 200.682 118.083L200.79 117.543L200.241 117.488C199.861 117.45 199.189 117.336 198.524 116.967L198.519 116.965C198.23 116.799 197.316 116.277 196.769 115.219Z" fill="white" stroke="black"/>
<path d="M200.607 112.289C200.791 112.289 200.94 111.991 200.94 111.624C200.94 111.257 200.791 110.959 200.607 110.959C200.423 110.959 200.274 111.257 200.274 111.624C200.274 111.991 200.423 112.289 200.607 112.289Z" fill="#202124"/>
<path d="M199.9 118.11C199.9 118.318 199.9 118.526 199.9 118.692C199.9 118.9 200.233 118.9 200.233 118.692C200.233 118.484 200.233 118.276 200.233 118.11C200.233 117.902 199.9 117.902 199.9 118.11Z" fill="#202124"/>
<path d="M198.736 110.959C198.279 111.749 197.988 112.58 197.821 113.453C197.78 113.661 198.071 113.744 198.112 113.537C198.279 112.663 198.57 111.873 198.986 111.125C199.11 110.959 198.861 110.792 198.736 110.959Z" fill="#202124"/>
</g>
<path opacity="0.34" d="M39.4184 0L21 58.3319L80.5377 95.2104L102.532 27.1495L39.4184 0Z" fill="#606060"/>
<path d="M42.4951 11.2673C43.5284 11.2673 44.366 10.4296 44.366 9.39631C44.366 8.36301 43.5284 7.52536 42.4951 7.52536C41.4618 7.52536 40.6241 8.36301 40.6241 9.39631C40.6241 10.4296 41.4618 11.2673 42.4951 11.2673Z" fill="white"/>
<path d="M32.3088 44.2791C33.2732 44.2791 34.0551 43.4972 34.0551 42.5328C34.0551 41.5684 33.2732 40.7866 32.3088 40.7866C31.3444 40.7866 30.5626 41.5684 30.5626 42.5328C30.5626 43.4972 31.3444 44.2791 32.3088 44.2791Z" fill="white" stroke="white" stroke-miterlimit="10"/>
<path d="M48.4406 10.2278L89.3519 24.7796" stroke="white" stroke-miterlimit="10"/>
<path d="M38.7948 17.5038L86.5663 34.8412" stroke="white" stroke-miterlimit="10"/>
<path d="M42.4951 26.1517L85.1527 40.7866" stroke="white" stroke-miterlimit="10"/>
<path d="M37.298 32.1803L82.5749 49.1019" stroke="white" stroke-miterlimit="10"/>
<path d="M39.0442 42.5328L85.1527 58.623" stroke="white" stroke-miterlimit="10"/>
<path d="M39.5847 48.2704L66.5679 58.623" stroke="white" stroke-miterlimit="10"/>
<path d="M33.0572 52.6775L76.5047 72.468" stroke="white" stroke-miterlimit="10"/>
<defs>
<clipPath id="clip0">
<rect width="250" height="239.772" fill="white" transform="translate(0 15)"/>
</clipPath>
</defs>
</svg>
