<svg width="480" height="379" viewBox="0 0 480 379" fill="none" xmlns="http://www.w3.org/2000/svg">
<path d="M198.446 330.026L183.409 299.285C174.286 280.586 157.966 266.493 138.047 260.227L130.207 257.786L79.1825 258.943L66.5867 262.781C51.1723 267.525 38.0606 277.768 29.957 291.609L2.97864 337.198C0.147423 342.068 -0.758567 347.831 0.663336 353.217C3.2303 362.956 12.1015 369.612 22.1177 369.361C50.5305 368.719 104.374 367.561 105.142 366.668C106.048 365.775 159.375 366.278 182.767 366.542C189.323 366.668 195.363 362.956 198.194 357.054C202.561 348.599 202.561 338.608 198.446 330.026ZM37.5447 336.821L58.4957 310.685L71.3431 343.993L37.5447 336.821ZM139.456 343.993L152.052 308.383L168.888 335.411L139.456 343.993Z" fill="black"/>
<path d="M149.875 217.18C149.875 218.589 149.736 219.986 149.46 221.357C149.183 222.741 148.78 224.075 148.239 225.371C147.698 226.667 147.031 227.901 146.251 229.071C145.471 230.241 144.577 231.323 143.583 232.305C142.589 233.299 141.507 234.192 140.324 234.972C139.154 235.752 137.921 236.407 136.625 236.948C135.316 237.489 133.97 237.892 132.598 238.168C131.214 238.433 129.817 238.571 128.408 238.571C126.999 238.571 125.602 238.433 124.218 238.168C122.834 237.892 121.5 237.489 120.191 236.948C118.895 236.407 117.649 235.752 116.479 234.972C115.309 234.192 114.227 233.299 113.233 232.305C112.239 231.323 111.345 230.241 110.565 229.071C109.772 227.901 109.118 226.667 108.577 225.371C108.036 224.075 107.633 222.741 107.356 221.357C107.079 219.986 106.941 218.589 106.941 217.18C106.941 215.783 107.079 214.386 107.356 213.015C107.633 211.631 108.036 210.297 108.577 209.001C109.118 207.705 109.772 206.471 110.565 205.301C111.345 204.131 112.239 203.049 113.233 202.055C114.227 201.061 115.309 200.18 116.479 199.4C117.649 198.619 118.895 197.965 120.191 197.424C121.5 196.883 122.834 196.48 124.218 196.204C125.602 195.927 126.999 195.788 128.408 195.788C129.817 195.788 131.214 195.927 132.598 196.204C133.97 196.48 135.316 196.883 136.625 197.424C137.921 197.965 139.154 198.619 140.324 199.4C141.507 200.18 142.589 201.061 143.583 202.055C144.577 203.049 145.471 204.131 146.251 205.301C147.031 206.471 147.698 207.705 148.239 209.001C148.78 210.297 149.183 211.631 149.46 213.015C149.736 214.386 149.875 215.783 149.875 217.18Z" fill="black"/>
<path d="M134.687 178.21C135.077 180.487 135.241 182.79 135.178 185.105C135.115 187.42 134.813 189.698 134.284 191.963C133.756 194.228 133.001 196.417 132.032 198.531C131.05 200.658 129.88 202.659 128.509 204.559C127.124 206.459 125.577 208.208 123.84 209.819C122.116 211.417 120.241 212.839 118.228 214.097C116.215 215.343 114.101 216.387 111.874 217.23C109.659 218.073 107.369 218.69 105.028 219.105C102.688 219.508 100.322 219.684 97.944 219.633C95.5657 219.596 93.2253 219.319 90.8974 218.828C88.5821 218.325 86.3423 217.62 84.1654 216.689C82.0011 215.758 79.95 214.638 77.9996 213.304C76.0618 211.983 74.275 210.485 72.6517 208.812C71.0159 207.151 69.5689 205.339 68.298 203.389C67.0396 201.438 65.9827 199.387 65.1396 197.235C64.2839 195.071 63.6673 192.856 63.2647 190.579C62.8746 188.301 62.711 185.999 62.7739 183.696C62.8369 181.381 63.1389 179.09 63.6673 176.825C64.1958 174.573 64.9508 172.371 65.9197 170.257C66.9012 168.13 68.0715 166.13 69.443 164.23C70.8272 162.33 72.3749 160.581 74.1114 158.97C75.8353 157.372 77.7102 155.95 79.7235 154.704C81.7368 153.446 83.8508 152.401 86.078 151.558C88.2927 150.715 90.5828 150.099 92.9233 149.696C95.2638 149.281 97.6294 149.105 100.008 149.155C102.386 149.193 104.726 149.47 107.054 149.96C109.37 150.464 111.609 151.181 113.786 152.099C115.951 153.031 118.002 154.163 119.939 155.484C121.89 156.806 123.664 158.303 125.3 159.977C126.936 161.638 128.383 163.449 129.654 165.4C130.912 167.35 131.969 169.401 132.812 171.566C133.668 173.717 134.284 175.932 134.687 178.21Z" fill="black"/>
<path d="M441.604 148.526C441.604 148.526 467.689 148.79 471.677 187.848C475.666 226.919 478.485 283.921 478.485 283.921L444.296 286.865L428.882 187.722L441.604 148.526Z" fill="#3F2952"/>
<path d="M244.324 293.912C236.107 289.936 232.383 280.209 235.717 271.753L264.759 198.997C269.264 187.471 275.946 182.349 285.975 184.262C295.475 186.187 302.937 195.537 301.263 205.012L268.232 284.814C264.382 294.29 253.46 298.392 244.324 293.912Z" fill="#DB7157"/>
<path d="M309.744 145.065C309.744 145.065 287.51 143.404 271.315 178.625C254.995 214.235 247.671 237.929 247.671 237.929L271.064 278.032L318.225 190.931L309.744 145.065Z" fill="#3F2952"/>
<path d="M197.163 155.056L179.936 161.461L230.583 275.855C234.308 288.401 243.305 299.927 254.743 293.522C264.243 288.149 267.981 276.358 262.96 266.632L197.163 155.056Z" fill="#DB7157"/>
<path d="M196.647 151.344L195.489 146.865C193.954 140.837 190.997 135.339 186.882 130.721L179.684 122.529C178.011 120.604 174.928 120.604 173.254 122.655C171.845 124.316 171.719 126.757 172.751 128.67L178.401 138.799L144.212 118.175C142.539 117.143 140.362 117.785 139.582 119.459L139.078 120.604C138.437 122.013 138.814 123.674 140.098 124.58L162.596 139.302L134.448 125.989C132.774 125.083 130.597 125.863 129.817 127.65L129.44 128.544C128.798 130.079 129.44 131.752 130.849 132.646L155.135 145.833L134.574 139.818C132.648 139.176 130.597 140.586 130.333 142.637V143.027C130.207 144.436 130.975 145.707 132.258 146.349L153.209 154.037L141.52 152.502C139.204 151.86 137.015 153.911 137.405 156.214C137.657 157.372 138.437 158.265 139.456 158.643L192.532 177.354L196.395 165.186C197.678 160.694 197.804 155.962 196.647 151.344Z" fill="#DB7157"/>
<path d="M181.358 156.982C181.232 156.982 181.094 156.982 180.968 156.856C174.802 147.381 177.885 138.799 178.011 138.661C178.137 138.409 178.275 138.409 178.527 138.409C178.791 138.535 178.791 138.661 178.791 138.925C178.791 139.051 175.834 147.242 181.735 156.466C181.874 156.604 181.874 156.856 181.61 156.982C181.484 156.982 181.484 156.982 181.358 156.982Z" fill="black"/>
<path d="M445.97 149.042L371.943 122.403L297.916 149.293C294.066 150.703 292.14 154.805 293.424 158.643C301.653 182.991 318.225 293.396 316.036 331.574H428.882C431.071 293.522 442.51 182.727 450.601 158.391C451.758 154.553 449.833 150.451 445.97 149.042Z" fill="#3F2952"/>
<path d="M309.744 145.065C309.744 145.065 322.466 166.205 370.66 166.205C418.853 166.205 433.638 144.688 433.638 144.688L371.943 122.529L309.744 145.065Z" fill="#DB7157"/>
<path d="M432.858 218.589C432.732 218.589 432.732 218.589 432.607 218.589C432.091 218.463 431.839 217.947 431.965 217.444L440.194 187.722C440.32 187.207 440.836 186.955 441.352 187.081C441.855 187.207 442.119 187.722 441.994 188.238L433.764 217.947C433.638 218.337 433.248 218.589 432.858 218.589Z" fill="black"/>
<path d="M308.977 209.114C308.587 209.114 308.197 208.862 308.071 208.472L302.421 190.025C302.295 189.522 302.547 189.006 303.063 188.88C303.579 188.754 304.094 189.006 304.22 189.522L309.87 207.956C309.996 208.472 309.744 208.988 309.228 209.114C309.103 208.988 309.103 209.114 308.977 209.114Z" fill="black"/>
<path d="M409.214 39.0143C411.404 62.8343 390.969 84.0999 366.419 86.2767C341.869 88.4536 320.289 70.9127 318.225 47.2059C316.036 23.386 334.294 2.38461 358.705 0.207722C383.255 -2.10759 407.163 15.1943 409.214 39.0143Z" fill="black"/>
<path d="M408.447 34.0187C408.447 34.0187 411.278 48.7537 416.538 56.4294C424.516 67.9556 432.607 82.0488 431.713 96.2678L312.701 110.235C312.701 110.235 309.87 87.4344 319.899 76.4115C329.928 65.5271 320.025 40.8011 320.025 40.8011L408.447 34.0187Z" fill="black"/>
<path d="M350.099 95.1101L351.256 139.176L390.201 133.413L383.381 66.8105L350.099 95.1101Z" fill="#DB7157"/>
<path d="M350.615 116.376C350.615 116.376 371.176 116.766 373.101 92.5558L350.224 102.547L350.615 116.376Z" fill="black" fill-opacity="0.3765"/>
<path d="M323.372 25.437C320.415 28.3815 318.741 32.2194 318.351 36.3215C317.068 48.3636 314.375 71.8061 319.773 84.0999C326.706 99.9798 340.976 109.203 362.304 103.189C362.304 103.189 388.012 96.6579 390.327 64.3694C393.926 11.5955 348.299 0.459383 323.372 25.437Z" fill="#DB7157"/>
<path d="M324.907 63.8661C324.781 65.4012 323.498 66.6847 321.824 66.5463C320.289 66.4205 318.993 65.137 319.131 63.476C319.257 61.9408 320.541 60.6574 322.214 60.7832C323.888 60.9216 325.033 62.1925 324.907 63.8661Z" fill="black"/>
<path d="M348.815 59.5123C348.689 61.0474 347.406 62.3309 345.732 62.1925C344.059 62.0667 342.901 60.7832 343.027 59.1222C343.165 57.5871 344.449 56.3036 346.11 56.4294C347.658 56.6936 348.815 57.9645 348.815 59.5123Z" fill="black"/>
<path d="M334.168 76.2857C334.03 76.2857 334.03 76.2857 333.904 76.2857L329.148 76.0341C328.896 76.0341 328.632 75.9082 328.506 75.644C328.38 75.3923 328.254 75.2665 328.38 75.0023L329.789 67.8298C329.928 67.3265 330.305 67.0623 330.821 67.1881C331.337 67.3265 331.589 67.704 331.463 68.2199L330.179 74.4989L333.904 74.7506C334.42 74.7506 334.81 75.1281 334.672 75.644C334.81 75.9082 334.546 76.1599 334.168 76.2857Z" fill="black"/>
<path d="M337.251 48.6153C337.503 50.5405 339.428 51.824 341.366 51.4339C344.31 50.7921 348.551 50.0246 352.804 50.4147C354.339 50.5405 355.748 49.5212 356.013 47.8477C356.139 46.3125 355.107 45.1549 353.697 44.6516C350.74 43.7581 346.11 42.3488 339.567 45.029C338.019 45.6708 336.987 47.0801 337.251 48.6153Z" fill="black"/>
<path d="M325.423 51.0564C325.549 52.9691 324.655 54.7685 323.372 55.0201C321.434 55.2844 318.49 56.0519 315.91 57.7129C314.891 58.3547 313.859 57.7129 313.469 56.4294C313.091 55.1459 313.595 53.6108 314.375 52.7174C316.036 50.9306 318.741 48.2378 323.372 48.4894C324.391 48.4894 325.171 49.5213 325.423 51.0564Z" fill="black"/>
<path d="M332.495 82.6905L347.909 77.695C347.909 77.695 350.224 83.974 342.511 86.4026C334.936 88.8437 332.495 82.6905 332.495 82.6905Z" fill="white"/>
<path d="M382.739 65.6529C382.739 65.6529 362.443 54.8943 370.144 30.3067C370.144 30.3067 397.26 35.8056 393.284 39.5302C389.295 43.2423 382.739 65.6529 382.739 65.6529Z" fill="black"/>
<path d="M376.322 36.9632C376.322 36.9632 353.446 40.5494 311.292 42.8521C311.292 42.8521 310.512 8.5252 351.13 1.35278C388.779 -5.30373 403.439 27.098 397.135 56.8195L381.066 62.5826L376.322 36.9632Z" fill="black"/>
<path d="M404.722 65.0112C404.722 65.9423 404.622 66.8735 404.445 67.792C404.257 68.698 403.992 69.5914 403.628 70.4597C403.275 71.3153 402.835 72.1332 402.319 72.9134C401.79 73.6936 401.199 74.4108 400.545 75.0651C399.878 75.732 399.161 76.3234 398.38 76.8394C397.6 77.3553 396.782 77.7957 395.914 78.148C395.046 78.5129 394.152 78.7772 393.234 78.9659C392.315 79.1421 391.397 79.2302 390.453 79.2302C389.522 79.2302 388.591 79.1421 387.672 78.9659C386.753 78.7772 385.86 78.5129 384.992 78.148C384.124 77.7957 383.306 77.3553 382.526 76.8394C381.745 76.3234 381.028 75.732 380.361 75.0651C379.707 74.4108 379.115 73.6936 378.587 72.9134C378.071 72.1332 377.631 71.3153 377.278 70.4597C376.913 69.5914 376.649 68.698 376.46 67.792C376.284 66.8735 376.184 65.9423 376.184 65.0112C376.184 64.08 376.284 63.1614 376.46 62.2429C376.649 61.3243 376.913 60.4309 377.278 59.5752C377.631 58.707 378.071 57.8891 378.587 57.1215C379.115 56.3413 379.707 55.6241 380.361 54.9572C381.028 54.3029 381.745 53.7114 382.526 53.1955C383.306 52.6796 384.124 52.2392 384.992 51.8743C385.86 51.522 386.753 51.2577 387.672 51.069C388.591 50.8928 389.522 50.7921 390.453 50.7921C391.397 50.7921 392.315 50.8928 393.234 51.069C394.152 51.2577 395.046 51.522 395.914 51.8743C396.782 52.2392 397.6 52.6796 398.38 53.1955C399.161 53.7114 399.878 54.3029 400.545 54.9572C401.199 55.6241 401.79 56.3413 402.319 57.1215C402.835 57.8891 403.275 58.707 403.628 59.5752C403.992 60.4309 404.257 61.3243 404.445 62.2429C404.622 63.1614 404.722 64.08 404.722 65.0112Z" fill="#DB7157"/>
<path d="M384.023 70.7742H383.897C383.52 70.6484 383.13 70.2709 383.255 69.8808C383.771 66.043 385.445 63.2243 387.886 61.4249C391.736 58.7447 396.367 59.5123 396.619 59.6381C397.009 59.764 397.399 60.1414 397.26 60.5315C397.135 60.9216 396.757 61.2991 396.367 61.1733C396.367 61.1733 392.126 60.4057 388.918 62.7084C386.728 64.2436 385.445 66.6847 384.929 70.1325C384.803 70.3968 384.413 70.6484 384.023 70.7742Z" fill="black"/>
<path d="M316.036 329.007L301.515 378.194H443.277L428.618 329.007H316.036Z" fill="#E8F44A"/>
<path d="M380.047 145.581C377.731 142.121 374.007 139.441 369.892 138.535C365.261 137.516 360.505 138.409 355.887 139.302C349.973 140.46 344.059 141.618 338.145 142.889C334.168 143.656 330.054 144.562 326.329 146.475C322.73 148.4 319.509 151.609 318.741 155.447C316.816 151.986 312.953 149.935 308.977 149.168C304.988 148.526 300.873 148.916 296.897 149.432C292.015 150.061 287.12 150.577 282.238 151.219C278.777 151.609 274.537 152.502 273.379 155.824C274.147 156.34 275.04 156.604 275.82 157.108C279.671 159.8 283.534 162.367 288.026 163.902C292.656 165.438 297.539 165.689 302.421 165.563C313.985 165.438 325.549 163.512 336.987 161.335C352.15 158.517 368.86 155.962 380.047 145.581Z" fill="white"/>
<path d="M269.264 152.88L312.45 158.014L325.171 155.962L385.445 134.307L399.45 221.156L339.176 243.441L325.549 245.618L283.269 239.98L269.264 152.88Z" fill="#3F2952"/>
<path d="M269.264 152.88L312.45 158.014L325.171 155.962L385.445 134.307L399.45 221.156L339.176 243.441L325.549 245.618L283.269 239.98L269.264 152.88Z" fill="#DB7157" fill-opacity="0.5569"/>
<path d="M312.437 158.039L325.121 156.013L339.176 243.403L326.493 245.442L312.437 158.039Z" fill="#E8F44A"/>
<path d="M478.485 283.921L372.975 237.162L359.612 250.613L441.088 320.815C457.031 334.518 481.706 321.96 479.907 301.084L478.485 283.921Z" fill="#DB7157"/>
<path d="M366.935 194.769L378.763 213.858L383.13 211.681C384.665 210.913 386.728 211.165 387.886 212.448C389.169 213.732 389.295 215.77 388.263 217.18L373.617 237.804L359.486 250.613C349.205 240.496 348.941 233.576 350.489 229.348C350.224 228.844 350.099 228.454 349.973 227.938L343.933 211.807C343.165 210.272 343.669 208.472 345.216 207.705C346.248 207.063 348.048 206.811 349.973 209.881L348.048 206.811C347.267 205.276 347.783 203.351 349.457 202.457C350.866 201.69 352.804 202.457 354.213 204.118L353.056 201.816C352.15 200.155 352.93 197.978 354.855 197.198C356.529 196.568 358.454 197.198 359.347 198.745L361.411 202.067L360.127 197.978C359.347 196.053 360.253 193.876 362.304 193.108C363.978 192.34 365.903 193.234 366.935 194.769Z" fill="#DB7157"/>
<path d="M367.325 213.342C367.187 213.342 367.061 213.216 366.935 213.09L359.989 201.174C359.863 200.922 359.989 200.658 360.127 200.658C360.379 200.532 360.643 200.658 360.643 200.784L367.577 212.7C367.703 212.952 367.577 213.216 367.451 213.216C367.451 213.342 367.325 213.342 367.325 213.342Z" fill="black"/>
<path d="M360.127 215.909C359.989 215.909 359.863 215.77 359.737 215.645L354.087 204.634C353.949 204.508 354.087 204.244 354.213 204.118C354.339 203.993 354.603 204.118 354.729 204.244L360.379 215.267C360.505 215.393 360.379 215.645 360.253 215.77C360.253 215.909 360.253 215.909 360.127 215.909Z" fill="black"/>
<path d="M354.087 218.463C353.949 218.463 353.823 218.337 353.697 218.212L349.205 208.862C349.067 208.598 349.205 208.472 349.331 208.346C349.457 208.22 349.709 208.346 349.847 208.472L354.339 217.821C354.465 218.086 354.339 218.212 354.213 218.337C354.213 218.463 354.087 218.463 354.087 218.463Z" fill="black"/>
<path d="M130.723 196.304C130.723 196.304 135.48 191.183 140.236 195.411C147.56 201.941 139.456 217.57 129.05 212.058L130.723 196.304Z" fill="#DB7157"/>
<path d="M131.742 207.189C131.742 207.189 131.617 207.189 131.742 207.189C131.491 207.063 131.365 206.937 131.491 206.811C133.68 199.765 137.141 200.016 137.279 200.016C137.405 200.016 137.531 200.155 137.531 200.406C137.531 200.532 137.405 200.658 137.141 200.658C137.141 200.658 134.184 200.406 132.133 206.937C132.007 207.189 131.881 207.189 131.742 207.189Z" fill="black"/>
<path d="M74.1743 206.559C74.1743 206.559 67.1026 202.961 64.0197 208.598C59.2633 217.18 72.2491 229.096 80.2143 220.514L74.1743 206.559Z" fill="#DB7157"/>
<path d="M75.9738 216.802C75.848 216.802 75.848 216.802 75.7096 216.676C71.469 211.165 68.7762 212.448 68.7762 212.448C68.6504 212.574 68.3861 212.448 68.3861 212.323C68.2603 212.184 68.3861 211.933 68.512 211.933C68.6504 211.807 71.6074 210.397 76.2255 216.412C76.3513 216.551 76.3513 216.802 76.2255 216.928C76.0996 216.802 76.0996 216.802 75.9738 216.802Z" fill="black"/>
<path d="M95.5029 232.04L93.0618 257.018H116.58L113.245 231.789L95.5029 232.04Z" fill="#DB7157"/>
<path d="M95.2512 234.607C96.0188 234.985 115.56 248.826 115.56 248.826L113.245 231.789L95.2512 234.607Z" fill="black" fill-opacity="0.3765"/>
<path d="M69.5437 189.522C69.5437 189.522 77.0055 241.78 108.866 236.268C143.319 230.254 128.534 179.267 128.534 179.267C128.534 179.267 124.293 155.824 94.7353 160.958C67.4926 165.689 69.5437 189.522 69.5437 189.522Z" fill="#DB7157"/>
<path d="M94.8611 201.048C95.1253 202.457 94.2193 203.741 92.81 203.993C91.3881 204.244 90.1046 203.351 89.853 201.941C89.5887 200.532 90.4947 199.249 91.904 198.997C93.3259 198.745 94.6094 199.639 94.8611 201.048Z" fill="black"/>
<path d="M119.927 196.694C120.178 198.104 119.285 199.374 117.863 199.639C116.454 199.89 115.17 198.997 114.906 197.588C114.654 196.178 115.56 194.895 116.97 194.643C118.379 194.379 119.663 195.285 119.927 196.694Z" fill="black"/>
<path d="M107.847 212.184L104.89 212.7C104.626 212.7 104.374 212.574 104.374 212.323L103.606 208.22C103.606 207.956 103.732 207.705 103.984 207.705C104.248 207.705 104.5 207.83 104.5 208.095L105.142 211.681L107.721 211.291C107.973 211.291 108.225 211.417 108.225 211.681C108.225 211.933 108.099 212.058 107.847 212.184Z" fill="black"/>
<path d="M108.866 187.081C108.866 187.081 108.615 190.025 112.981 189.383C116.328 188.88 120.569 189.006 122.62 189.132C123.777 189.132 124.935 188.49 125.325 187.597C125.577 186.829 125.451 186.061 124.683 185.671C123.261 184.778 118.379 182.991 114.264 183.62C109.005 184.388 108.866 187.081 108.866 187.081Z" fill="black"/>
<path d="M95.2512 189.522C95.2512 189.522 96.5347 192.202 92.0299 193.108C88.6953 193.75 84.7065 195.285 82.9071 196.053C81.8878 196.43 80.5918 196.304 79.95 195.537C79.4467 194.895 79.3083 194.127 79.8242 193.486C80.856 192.202 84.8449 188.88 88.947 188.113C94.2193 187.081 95.2512 189.522 95.2512 189.522Z" fill="black"/>
<path d="M113.623 216.16C113.623 216.16 114.139 220.64 108.099 221.672C102.185 222.691 101.027 218.337 101.027 218.337C107.331 213.984 113.623 216.16 113.623 216.16Z" fill="white" fill-opacity="0.4275"/>
<path d="M107.457 218.979C102.965 219.747 99.4918 218.589 99.3659 218.463C99.1017 218.337 98.9758 218.086 99.1017 217.947C99.2275 217.696 99.4918 217.57 99.6176 217.696C99.7434 217.696 107.205 220.388 114.529 215.141C114.78 215.003 115.045 215.003 115.17 215.267C115.296 215.519 115.296 215.77 115.045 215.909C112.465 217.696 109.772 218.589 107.457 218.979Z" fill="black"/>
<path d="M79.4467 258.817L106.173 253.18L130.333 257.534C130.333 257.534 125.451 267.135 105.142 267.009C84.8449 266.883 79.4467 258.817 79.4467 258.817Z" fill="#DB7157"/>
<path d="M66.2092 188.49C66.2092 188.49 87.2861 178.763 86.3801 159.033C86.3801 159.033 61.9687 158.517 66.2092 188.49Z" fill="black"/>
<path d="M80.9819 159.675C80.9819 159.675 90.6206 184.652 131.881 176.07C131.881 176.07 125.199 153.395 103.732 153.27C82.3912 153.144 80.9819 159.675 80.9819 159.675Z" fill="black"/>
<path d="M95.893 329.522L80.0885 331.574L78.805 328.113C78.2891 326.83 77.1314 325.936 75.8479 325.81C74.5519 325.672 73.4068 326.44 73.2684 327.723L71.2173 345.277L72.6266 358.854C83.1714 359.999 86.7702 357.055 87.9278 354.236C88.3053 354.11 88.5696 354.11 88.9471 353.984L100.134 350.008C101.291 349.756 101.933 348.599 101.417 347.454C101.165 346.56 100.259 345.402 97.8182 345.793L100.385 345.402C101.543 345.151 102.185 343.993 101.807 342.71C101.417 341.565 100.008 340.797 98.3341 340.797L100.134 340.407C101.417 340.155 102.059 338.746 101.417 337.337C100.901 336.053 99.4918 335.411 98.2083 335.537L95.3771 335.927L98.0824 334.77C99.4918 334.392 100.008 332.844 99.2275 331.435C98.7242 330.026 97.1765 329.397 95.893 329.522Z" fill="#DB7157"/>
<path d="M19.9408 367.952L87.9278 356.035C94.3452 354.878 100.901 356.161 106.299 359.621L106.941 359.231C112.465 356.035 118.895 355.003 125.061 356.161L192.796 369.097L19.9408 367.952Z" fill="white"/>
<path d="M13.5108 367.046H199.214V378.194H13.5108V367.046Z" fill="#3F2952"/>
<path d="M13.5108 367.046H199.214V378.194H13.5108V367.046Z" fill="#DB7157" fill-opacity="0.5569"/>
<path d="M100.901 367.046H112.088V378.194H100.901V367.046Z" fill="black" fill-opacity="0.3098"/>
<path d="M59.1374 311.076C59.0116 311.076 58.7474 310.95 58.7474 310.824L52.8333 291.861C52.7074 291.609 52.8333 291.345 53.0975 291.345C53.3492 291.219 53.6134 291.345 53.6134 291.609L59.5149 310.56C59.6534 310.824 59.5149 311.076 59.2633 311.076C59.1374 311.076 59.1374 311.076 59.1374 311.076Z" fill="black"/>
<path d="M152.178 308.773C151.8 308.634 151.674 308.383 151.8 308.257L156.292 293.66C156.418 293.396 156.682 293.27 156.808 293.396C157.06 293.522 157.198 293.786 157.06 293.912L152.568 308.509C152.568 308.634 152.316 308.773 152.178 308.773Z" fill="black"/>
<path d="M104.764 354.236C104.5 354.236 104.374 354.11 104.374 353.858C104.248 353.594 104.5 353.342 104.626 353.342L139.456 343.477C139.72 343.351 139.972 343.603 139.972 343.741C140.098 343.993 139.846 344.245 139.72 344.245L104.764 354.236Z" fill="black"/>
</svg>
