<svg width="290" height="254" viewBox="0 0 290 254" fill="none" xmlns="http://www.w3.org/2000/svg">
<path d="M182.323 238.297H86.6665C86.5603 238.297 86.4584 238.254 86.3832 238.179C86.3081 238.104 86.2659 238.002 86.2659 237.896C86.2659 237.79 86.3081 237.688 86.3832 237.613C86.4584 237.538 86.5603 237.495 86.6665 237.495H182.323C182.429 237.495 182.531 237.538 182.606 237.613C182.681 237.688 182.724 237.79 182.724 237.896C182.724 238.002 182.681 238.104 182.606 238.179C182.531 238.254 182.429 238.297 182.323 238.297V238.297Z" fill="#262424"/>
<path d="M195.388 238.297H188.228C188.122 238.297 188.02 238.254 187.945 238.179C187.87 238.104 187.828 238.002 187.828 237.896C187.828 237.79 187.87 237.688 187.945 237.613C188.02 237.538 188.122 237.495 188.228 237.495H195.388C195.494 237.495 195.596 237.538 195.671 237.613C195.746 237.688 195.788 237.79 195.788 237.896C195.788 238.002 195.746 238.104 195.671 238.179C195.596 238.254 195.494 238.297 195.388 238.297Z" fill="#262424"/>
<path d="M131.49 115.552C158.087 115.552 179.648 93.9912 179.648 67.3942C179.648 40.7972 158.087 19.2361 131.49 19.2361C104.893 19.2361 83.3315 40.7972 83.3315 67.3942C83.3315 93.9912 104.893 115.552 131.49 115.552Z" fill="white"/>
<path d="M131.49 115.953C120.255 115.953 109.369 112.058 100.684 104.931C91.9999 97.8039 86.0555 87.8863 83.8637 76.8679C81.6719 65.8494 83.3684 54.4119 88.6642 44.5041C93.9599 34.5963 102.527 26.8312 112.906 22.5319C123.286 18.2327 134.834 17.6653 145.585 20.9264C156.335 24.1874 165.623 31.0753 171.864 40.4162C178.106 49.7572 180.915 60.9733 179.814 72.1535C178.713 83.3338 173.769 93.7863 165.826 101.73C161.327 106.253 155.976 109.839 150.082 112.281C144.188 114.722 137.869 115.97 131.49 115.953V115.953ZM131.49 19.6366C105.156 19.6366 83.7375 41.0604 83.7375 67.3942C83.7375 93.728 105.161 115.152 131.495 115.152C157.829 115.152 179.253 93.728 179.253 67.3942C179.253 41.0604 157.823 19.6366 131.49 19.6366V19.6366Z" fill="#262424"/>
<path d="M131.49 31.3109V67.3942L100.231 49.3508C103.398 43.8634 107.955 39.307 113.442 36.1401C118.929 32.9732 125.154 31.3076 131.49 31.3109V31.3109Z" fill="#EC615B"/>
<path d="M111.345 32.9023C111.275 32.9024 111.206 32.8838 111.144 32.8485C111.083 32.8132 111.033 32.7623 110.997 32.7011L109.624 30.3195C109.57 30.2274 109.556 30.1181 109.584 30.0154C109.611 29.9127 109.678 29.8252 109.77 29.7721C109.862 29.719 109.972 29.7046 110.075 29.7322C110.177 29.7597 110.265 29.8269 110.318 29.9189L111.692 32.3006C111.727 32.3614 111.746 32.4305 111.746 32.5009C111.746 32.5713 111.728 32.6405 111.693 32.7015C111.657 32.7625 111.607 32.8132 111.546 32.8484C111.485 32.8837 111.416 32.9023 111.345 32.9023V32.9023Z" fill="#262424"/>
<path d="M96.5972 47.6506C96.5271 47.6503 96.4583 47.6316 96.3978 47.5962L94.0162 46.2188C93.9241 46.1656 93.8569 46.0781 93.8294 45.9755C93.8019 45.8728 93.8163 45.7634 93.8694 45.6714C93.9225 45.5793 94.01 45.5122 94.1127 45.4846C94.2153 45.4571 94.3247 45.4715 94.4167 45.5246L96.7984 46.8984C96.8773 46.9414 96.9394 47.0097 96.9748 47.0922C97.0102 47.1748 97.0169 47.2669 96.9937 47.3537C96.9705 47.4405 96.9187 47.5169 96.8468 47.5708C96.7749 47.6246 96.687 47.6528 96.5972 47.6506V47.6506Z" fill="#262424"/>
<path d="M94.2174 89.3146C94.1288 89.3152 94.0424 89.2864 93.9719 89.2328C93.9014 89.1791 93.8507 89.1036 93.8277 89.018C93.8047 88.9324 93.8107 88.8416 93.8448 88.7598C93.8789 88.6781 93.9392 88.6099 94.0162 88.566L96.3978 87.1922C96.4898 87.139 96.5992 87.1247 96.7019 87.1522C96.8045 87.1797 96.8921 87.2469 96.9452 87.339C96.9983 87.431 97.0127 87.5404 96.9851 87.6431C96.9576 87.7457 96.8904 87.8332 96.7984 87.8863L94.4167 89.2602C94.3562 89.2955 94.2875 89.3143 94.2174 89.3146V89.3146Z" fill="#262424"/>
<path d="M109.97 105.067C109.899 105.067 109.83 105.048 109.769 105.013C109.708 104.978 109.658 104.927 109.623 104.866C109.588 104.805 109.569 104.736 109.569 104.666C109.57 104.595 109.588 104.526 109.624 104.465L110.997 102.084C111.051 101.992 111.138 101.924 111.241 101.897C111.343 101.869 111.453 101.884 111.545 101.937C111.637 101.99 111.704 102.077 111.732 102.18C111.759 102.283 111.745 102.392 111.692 102.484L110.318 104.866C110.283 104.927 110.232 104.978 110.171 105.013C110.11 105.049 110.04 105.067 109.97 105.067Z" fill="#262424"/>
<path d="M153.009 105.067C152.939 105.067 152.87 105.049 152.808 105.013C152.747 104.978 152.697 104.927 152.661 104.866L151.288 102.484C151.234 102.392 151.22 102.283 151.248 102.18C151.275 102.077 151.342 101.99 151.434 101.937C151.526 101.884 151.636 101.869 151.738 101.897C151.841 101.924 151.929 101.992 151.982 102.084L153.356 104.465C153.391 104.526 153.41 104.595 153.41 104.666C153.41 104.736 153.392 104.805 153.356 104.866C153.321 104.927 153.271 104.978 153.21 105.013C153.149 105.048 153.08 105.067 153.009 105.067V105.067Z" fill="#262424"/>
<path d="M168.762 89.3146C168.692 89.3143 168.623 89.2955 168.562 89.2602L166.181 87.8863C166.089 87.8332 166.022 87.7457 165.994 87.6431C165.967 87.5404 165.981 87.431 166.034 87.339C166.087 87.2469 166.175 87.1797 166.277 87.1522C166.38 87.1247 166.489 87.139 166.581 87.1922L168.963 88.566C169.04 88.6099 169.1 88.6781 169.134 88.7598C169.169 88.8416 169.175 88.9324 169.152 89.018C169.129 89.1036 169.078 89.1791 169.007 89.2328C168.937 89.2864 168.85 89.3152 168.762 89.3146V89.3146Z" fill="#262424"/>
<path d="M166.388 47.6506C166.299 47.6512 166.213 47.6225 166.142 47.5688C166.072 47.5151 166.021 47.4396 165.998 47.354C165.975 47.2684 165.981 47.1777 166.015 47.0959C166.049 47.0141 166.109 46.9459 166.186 46.902L168.563 45.5264C168.608 45.5001 168.658 45.483 168.711 45.4761C168.763 45.4693 168.816 45.4728 168.867 45.4864C168.917 45.5 168.965 45.5235 169.007 45.5556C169.049 45.5876 169.084 45.6276 169.11 45.6732C169.136 45.7188 169.153 45.7691 169.16 45.8212C169.167 45.8734 169.163 45.9264 169.15 45.9773C169.136 46.0281 169.113 46.0757 169.081 46.1175C169.049 46.1592 169.009 46.1942 168.963 46.2205L166.581 47.5944C166.523 47.6295 166.456 47.6488 166.388 47.6506V47.6506Z" fill="#262424"/>
<path d="M151.634 32.9023C151.563 32.9023 151.494 32.8837 151.433 32.8484C151.372 32.8132 151.322 32.7625 151.287 32.7015C151.252 32.6405 151.233 32.5713 151.233 32.5009C151.234 32.4305 151.252 32.3614 151.288 32.3006L152.661 29.9189C152.715 29.8269 152.802 29.7597 152.905 29.7322C153.007 29.7046 153.117 29.719 153.209 29.7721C153.301 29.8252 153.368 29.9127 153.396 30.0154C153.423 30.1181 153.409 30.2274 153.356 30.3195L151.982 32.7011C151.947 32.7623 151.896 32.8132 151.835 32.8485C151.774 32.8838 151.704 32.9024 151.634 32.9023V32.9023Z" fill="#262424"/>
<path d="M131.49 31.7713C131.383 31.7713 131.281 31.7291 131.206 31.654C131.131 31.5789 131.089 31.477 131.089 31.3708V24.3564C131.089 24.2501 131.131 24.1483 131.206 24.0731C131.281 23.998 131.383 23.9558 131.49 23.9558C131.596 23.9558 131.698 23.998 131.773 24.0731C131.848 24.1483 131.89 24.2501 131.89 24.3564V31.3708C131.89 31.477 131.848 31.5789 131.773 31.654C131.698 31.7291 131.596 31.7713 131.49 31.7713Z" fill="#262424"/>
<path d="M174.527 67.7875H167.513C167.407 67.7875 167.305 67.7453 167.23 67.6702C167.155 67.5951 167.112 67.4932 167.112 67.3869C167.112 67.2807 167.155 67.1788 167.23 67.1037C167.305 67.0286 167.407 66.9864 167.513 66.9864H174.527C174.634 66.9864 174.735 67.0286 174.811 67.1037C174.886 67.1788 174.928 67.2807 174.928 67.3869C174.928 67.4932 174.886 67.5951 174.811 67.6702C174.735 67.7453 174.634 67.7875 174.527 67.7875V67.7875Z" fill="#262424"/>
<path d="M131.49 110.834C131.383 110.834 131.281 110.792 131.206 110.717C131.131 110.642 131.089 110.54 131.089 110.434V103.419C131.089 103.313 131.131 103.211 131.206 103.136C131.281 103.061 131.383 103.019 131.49 103.019C131.596 103.019 131.698 103.061 131.773 103.136C131.848 103.211 131.89 103.313 131.89 103.419V110.434C131.89 110.54 131.848 110.642 131.773 110.717C131.698 110.792 131.596 110.834 131.49 110.834Z" fill="#262424"/>
<path d="M95.4662 67.7875H88.45C88.3438 67.7875 88.2419 67.7453 88.1668 67.6702C88.0916 67.5951 88.0494 67.4932 88.0494 67.3869C88.0494 67.2807 88.0916 67.1788 88.1668 67.1037C88.2419 67.0286 88.3438 66.9864 88.45 66.9864H95.4644C95.5706 66.9861 95.6726 67.0281 95.7479 67.1031C95.8232 67.178 95.8656 67.2798 95.8659 67.386C95.8661 67.4923 95.8241 67.5942 95.7492 67.6695C95.6742 67.7448 95.5724 67.7873 95.4662 67.7875Z" fill="#262424"/>
<path d="M136.597 207.669L135.138 219.334H140.043L142.827 207.669H136.597Z" fill="white"/>
<path d="M140.043 219.735H135.138C135.081 219.735 135.025 219.723 134.973 219.699C134.922 219.676 134.875 219.642 134.838 219.599C134.8 219.556 134.772 219.506 134.756 219.452C134.739 219.397 134.734 219.34 134.741 219.284L136.191 207.616C136.203 207.52 136.25 207.43 136.323 207.366C136.396 207.301 136.491 207.265 136.588 207.265H142.825C142.886 207.265 142.946 207.278 143 207.305C143.055 207.331 143.103 207.37 143.14 207.418C143.178 207.465 143.204 207.521 143.217 207.58C143.23 207.639 143.229 207.701 143.215 207.76L140.431 219.427C140.41 219.514 140.36 219.592 140.29 219.648C140.22 219.704 140.133 219.734 140.043 219.735V219.735ZM135.591 218.934H139.726L142.317 208.07H136.951L135.591 218.934Z" fill="#262424"/>
<path d="M143.093 237.896H121.483V235.389C121.483 235.03 121.509 234.672 121.561 234.316C121.779 232.795 122.454 231.376 123.497 230.247C125.49 228.092 128.753 224.139 132.356 218.075H142.365C142.365 218.075 142.865 227.728 143.037 234.316C143.072 235.678 143.093 236.91 143.093 237.896Z" fill="#161616"/>
<path d="M143.093 237.896H121.483V235.389C121.483 235.03 121.509 234.672 121.561 234.316H143.035C143.072 235.678 143.093 236.91 143.093 237.896Z" fill="white"/>
<path d="M143.093 238.297H121.483C121.43 238.297 121.378 238.286 121.33 238.266C121.281 238.246 121.237 238.216 121.2 238.179C121.162 238.142 121.133 238.098 121.113 238.049C121.093 238.001 121.082 237.949 121.082 237.896V235.389C121.082 235.011 121.109 234.633 121.164 234.258C121.178 234.163 121.226 234.076 121.298 234.013C121.371 233.95 121.464 233.916 121.561 233.916H143.035C143.14 233.916 143.24 233.956 143.315 234.029C143.39 234.102 143.433 234.201 143.436 234.305C143.474 235.765 143.494 236.973 143.494 237.896C143.494 237.949 143.483 238.001 143.463 238.049C143.443 238.098 143.414 238.142 143.376 238.179C143.339 238.216 143.295 238.246 143.247 238.266C143.198 238.286 143.146 238.297 143.093 238.297ZM121.887 237.495H142.694C142.694 236.731 142.675 235.799 142.647 234.717H121.916C121.894 234.94 121.883 235.165 121.883 235.389V237.494L121.887 237.495Z" fill="#262424"/>
<path d="M162.733 136.649L162.733 136.649L146.086 202.654L136.665 202.472L141.404 126.048C141.901 121.874 142.64 117.657 144.587 114.508C145.555 112.943 146.817 111.649 148.495 110.755C150.175 109.861 152.3 109.352 155.016 109.4C157.167 109.439 158.77 110.529 159.983 112.302C161.208 114.093 162.014 116.558 162.527 119.249C163.552 124.624 163.375 130.718 163.202 133.618C163.141 134.641 162.984 135.656 162.733 136.649Z" fill="white" stroke="black"/>
<path d="M144.154 202.17C144.126 202.173 144.098 202.173 144.07 202.17C144.019 202.159 143.97 202.138 143.926 202.109C143.883 202.079 143.846 202.041 143.817 201.997C143.788 201.953 143.768 201.903 143.758 201.852C143.749 201.8 143.749 201.747 143.76 201.695L157.071 138.827C157.082 138.775 157.103 138.726 157.133 138.683C157.163 138.639 157.201 138.602 157.245 138.574C157.289 138.545 157.339 138.525 157.391 138.516C157.442 138.506 157.496 138.507 157.547 138.518C157.599 138.529 157.647 138.55 157.691 138.579C157.734 138.609 157.771 138.647 157.8 138.692C157.829 138.736 157.849 138.785 157.858 138.837C157.868 138.889 157.867 138.942 157.856 138.993L144.547 201.853C144.528 201.943 144.478 202.023 144.407 202.081C144.335 202.139 144.246 202.17 144.154 202.17Z" fill="#262424"/>
<path d="M159.201 139.976C159.152 139.976 159.103 139.966 159.058 139.949L157.325 139.283C156.57 138.992 155.913 138.494 155.43 137.845C154.946 137.197 154.655 136.425 154.592 135.618L153.881 126.331C153.873 126.225 153.907 126.12 153.977 126.04C154.046 125.959 154.144 125.909 154.25 125.901C154.356 125.893 154.461 125.927 154.542 125.996C154.622 126.065 154.672 126.164 154.681 126.27L155.389 135.559C155.441 136.214 155.677 136.84 156.07 137.367C156.463 137.894 156.997 138.298 157.61 138.535L159.346 139.2C159.434 139.233 159.508 139.296 159.554 139.378C159.601 139.46 159.617 139.556 159.599 139.649C159.582 139.741 159.533 139.825 159.46 139.885C159.387 139.945 159.295 139.977 159.201 139.976V139.976Z" fill="#262424"/>
<path d="M148.136 173.019C148.465 169.52 146.849 166.506 144.526 166.287C142.203 166.069 140.053 168.728 139.723 172.227C139.394 175.726 141.01 178.74 143.333 178.959C145.656 179.177 147.806 176.518 148.136 173.019Z" fill="white"/>
<path d="M134.832 199.361L147.9 200.463C148.07 200.477 148.235 200.526 148.385 200.607C148.535 200.688 148.667 200.799 148.772 200.933C148.877 201.067 148.954 201.221 148.997 201.386C149.041 201.55 149.05 201.722 149.024 201.891L147.755 210.172C147.707 210.482 147.544 210.763 147.298 210.957C147.052 211.152 146.741 211.246 146.428 211.222L134.375 210.277C134.058 210.252 133.763 210.107 133.55 209.871C133.337 209.635 133.222 209.326 133.23 209.008L133.485 200.568C133.49 200.398 133.528 200.232 133.599 200.078C133.67 199.924 133.772 199.787 133.898 199.674C134.024 199.561 134.172 199.475 134.333 199.421C134.493 199.367 134.663 199.346 134.832 199.361V199.361Z" fill="#EC615B"/>
<path d="M213.387 162.692C212.563 164.985 211.194 165.083 209.625 163.977C205.2 160.865 199.17 148.195 199.17 148.195V144.081C201.013 142.51 203.109 141.264 205.369 140.396C205.988 140.155 206.619 139.948 207.259 139.775C207.259 139.775 216.539 153.939 213.387 162.692Z" fill="black"/>
<path d="M214.042 162.4C213.215 164.693 211.194 165.088 209.627 163.982C211.856 163.861 213.045 161.052 212.099 156.533C211.116 151.839 207.189 143.911 205.371 140.402C205.969 140.17 206.928 139.742 207.591 139.564C207.589 139.562 216.672 155.103 214.042 162.4Z" fill="white"/>
<path d="M211.381 164.968C210.664 164.958 209.967 164.726 209.387 164.303C209.32 164.255 209.27 164.187 209.243 164.109C209.216 164.031 209.213 163.947 209.236 163.867C209.259 163.788 209.306 163.717 209.37 163.666C209.434 163.614 209.513 163.583 209.596 163.578C209.903 163.564 210.204 163.48 210.475 163.333C210.745 163.186 210.98 162.98 211.16 162.73C212.066 161.548 212.264 159.317 211.704 156.611C210.719 151.898 206.696 143.833 205.012 140.581C204.986 140.531 204.971 140.476 204.967 140.42C204.964 140.364 204.973 140.308 204.992 140.255C205.012 140.202 205.043 140.154 205.083 140.114C205.122 140.074 205.17 140.043 205.222 140.023C205.382 139.961 205.565 139.885 205.766 139.805C206.327 139.563 206.901 139.351 207.486 139.173C207.571 139.149 207.661 139.154 207.742 139.187C207.824 139.22 207.892 139.279 207.937 139.354C208.312 139.996 217.083 155.145 214.419 162.529C213.993 163.709 213.222 164.522 212.244 164.836C211.965 164.924 211.674 164.968 211.381 164.968V164.968ZM210.77 164.084C211.176 164.198 211.605 164.193 212.008 164.071C212.748 163.837 213.32 163.21 213.665 162.259C216.021 155.746 208.59 142.14 207.401 140.036C206.982 140.173 206.494 140.376 206.07 140.547L205.931 140.605C207.729 144.105 211.524 151.824 212.492 156.446C213.116 159.424 212.873 161.829 211.805 163.217C211.531 163.581 211.177 163.878 210.77 164.084V164.084Z" fill="#262424"/>
<path d="M194.746 145.74L201.209 143.255C201.209 143.255 203.397 143.902 202.552 147.182L196.785 150.414L194.746 145.74Z" fill="white"/>
<path d="M196.785 150.814C196.708 150.814 196.632 150.79 196.568 150.747C196.504 150.705 196.453 150.644 196.422 150.573L194.38 145.906C194.358 145.857 194.347 145.803 194.346 145.749C194.346 145.695 194.356 145.641 194.377 145.591C194.398 145.541 194.428 145.496 194.467 145.458C194.506 145.42 194.552 145.391 194.603 145.372L201.066 142.887C201.148 142.855 201.239 142.851 201.323 142.876C201.349 142.876 203.872 143.673 202.94 147.287C202.927 147.34 202.903 147.389 202.87 147.432C202.837 147.475 202.795 147.511 202.748 147.537L196.981 150.769C196.92 150.801 196.853 150.816 196.785 150.814V150.814ZM195.282 145.964L196.975 149.847L202.204 146.916C202.748 144.599 201.592 143.86 201.209 143.682L195.282 145.964Z" fill="#262424"/>
<path d="M188.872 147.046L189.2 145.959C189.285 145.675 189.439 145.417 189.646 145.206C189.854 144.995 190.11 144.838 190.392 144.748L194.597 143.405C194.867 143.318 195.153 143.295 195.433 143.339C195.713 143.382 195.978 143.49 196.209 143.655C197.854 144.833 201.273 148.186 199.471 154.914C199.383 155.244 199.204 155.543 198.955 155.777L196.684 157.912C196.469 158.116 196.209 158.263 195.925 158.343C195.64 158.423 195.341 158.432 195.052 158.369C192.807 157.889 187.586 155.851 188.806 147.313C188.822 147.222 188.843 147.133 188.872 147.046V147.046Z" fill="#EC615B"/>
<g filter="url(#filter0_d)">
<path d="M194.844 156.926C192.681 159.569 190.322 162.045 187.786 164.332C185.067 166.745 181.951 168.987 179.149 169.688C178.087 169.953 177.045 169.771 176.03 169.251C170.455 166.384 165.71 153.227 163.241 147.284C160.328 140.255 158.34 129.775 157.463 122.83C156.585 115.884 158.418 110.01 163.243 108.04C169.739 105.386 175.838 109.696 177.694 117.716C179.55 125.737 184.719 148.011 184.719 148.011L190.535 146.122C197.365 147.175 194.844 156.926 194.844 156.926Z" fill="white"/>
</g>
<path d="M161.264 141.979C161.177 141.979 161.093 141.95 161.023 141.898C160.954 141.847 160.904 141.774 160.879 141.69C159.302 136.344 157.876 129.311 157.073 122.878C156.118 115.284 158.371 109.596 163.1 107.668C163.148 107.648 163.201 107.638 163.253 107.638C163.306 107.639 163.358 107.649 163.407 107.67C163.455 107.69 163.499 107.72 163.536 107.757C163.573 107.795 163.603 107.839 163.623 107.888C163.642 107.937 163.653 107.989 163.652 108.042C163.652 108.095 163.641 108.147 163.621 108.195C163.6 108.244 163.571 108.288 163.533 108.325C163.496 108.362 163.451 108.391 163.402 108.411C159.022 110.2 156.952 115.565 157.869 122.779C158.675 129.17 160.091 136.155 161.657 141.464C161.675 141.524 161.678 141.588 161.667 141.65C161.656 141.713 161.63 141.771 161.591 141.821C161.553 141.872 161.503 141.912 161.446 141.939C161.389 141.967 161.327 141.98 161.264 141.979V141.979Z" fill="#262424"/>
<path d="M187.79 164.33C185.071 166.743 181.955 168.985 179.153 169.686C178.091 169.951 177.049 169.77 176.034 169.249C174.435 166.893 176.287 163.794 182.071 163.087C184.949 162.741 186.824 163.335 187.79 164.33Z" fill="white"/>
<path d="M183.925 155.371C183.84 155.371 183.757 155.344 183.688 155.293C183.619 155.243 183.568 155.172 183.543 155.09C179.374 141.897 172.389 119.707 172.389 119.308C172.385 119.204 172.423 119.102 172.493 119.025C172.563 118.948 172.66 118.901 172.765 118.895C172.869 118.888 172.971 118.923 173.05 118.991C173.129 119.059 173.179 119.155 173.188 119.259C173.386 120.178 180.378 142.401 184.177 154.434L192.515 151.019C192.613 150.979 192.723 150.979 192.821 151.02C192.919 151.061 192.997 151.139 193.038 151.238C193.078 151.336 193.078 151.446 193.037 151.544C192.996 151.642 192.917 151.72 192.819 151.761L184.076 155.34C184.028 155.36 183.977 155.371 183.925 155.371ZM173.188 119.262C173.189 119.277 173.189 119.291 173.188 119.306C173.189 119.291 173.189 119.277 173.188 119.262V119.262Z" fill="#262424"/>
<path d="M182.323 160.606C182.253 160.606 182.185 160.587 182.125 160.553C182.064 160.518 182.014 160.468 181.978 160.408C181.943 160.348 181.924 160.28 181.923 160.21C181.922 160.141 181.939 160.072 181.973 160.011C183.967 156.395 183.987 150.602 183.987 150.544C183.987 150.492 183.997 150.439 184.017 150.391C184.037 150.342 184.066 150.297 184.104 150.26C184.141 150.223 184.185 150.193 184.234 150.173C184.282 150.152 184.335 150.142 184.387 150.142C184.44 150.142 184.492 150.152 184.541 150.173C184.589 150.193 184.633 150.222 184.671 150.259C184.708 150.297 184.737 150.341 184.757 150.389C184.778 150.438 184.788 150.49 184.788 150.543C184.788 150.789 184.773 156.604 182.675 160.399C182.64 160.462 182.589 160.514 182.527 160.55C182.465 160.587 182.395 160.606 182.323 160.606V160.606Z" fill="#262424"/>
<path d="M208.63 71.021L225.752 81.9159L215.26 111.59L195.884 110.753L208.63 71.021Z" fill="black"/>
<path d="M198.057 70.586L208.63 71.021L195.884 110.753L187.324 104.123L198.057 70.586Z" fill="#EC615B"/>
<path d="M196.16 77.1908L193.058 75.8042C192.756 75.6688 192.428 75.598 192.096 75.5964C191.765 75.5949 191.436 75.6625 191.133 75.7951C190.829 75.9276 190.556 76.1221 190.331 76.3662C190.106 76.6103 189.935 76.8985 189.829 77.2125L184.875 91.8104C184.771 92.1171 184.73 92.4419 184.755 92.7649C184.781 93.0879 184.871 93.4024 185.022 93.6891C185.173 93.9758 185.381 94.2287 185.633 94.4323C185.885 94.636 186.176 94.7861 186.488 94.8735L189.957 95.845C190.325 95.9477 190.718 95.9085 191.058 95.7353C191.399 95.5621 191.662 95.2675 191.795 94.9098C191.868 94.7136 191.9 94.5045 191.888 94.2956C191.877 94.0866 191.823 93.8823 191.729 93.6952C191.635 93.5082 191.503 93.3425 191.343 93.2084C191.182 93.0744 190.995 92.9748 190.795 92.916L188.892 92.3614L193.14 79.3259L194.864 80.0998C195.067 80.191 195.287 80.2387 195.51 80.2396C195.732 80.2406 195.953 80.1948 196.157 80.1053C196.361 80.0158 196.543 79.8846 196.693 79.7201C196.844 79.5555 196.957 79.3614 197.028 79.1501C197.153 78.774 197.133 78.3649 196.972 78.0026C196.812 77.6404 196.522 77.3509 196.16 77.1908Z" fill="white"/>
<path d="M190.352 96.2999C190.18 96.2998 190.008 96.276 189.841 96.2292L186.372 95.2577C186.008 95.1557 185.668 94.9804 185.373 94.7426C185.079 94.5047 184.836 94.2094 184.66 93.8745C184.483 93.5396 184.377 93.1723 184.347 92.7949C184.318 92.4176 184.365 92.0382 184.487 91.6799L189.45 77.0838C189.574 76.7171 189.774 76.3804 190.036 76.0953C190.299 75.8102 190.617 75.583 190.972 75.4281C191.327 75.2732 191.711 75.1941 192.098 75.1958C192.485 75.1975 192.868 75.28 193.222 75.4381L196.323 76.8246C196.805 77.0409 197.182 77.4401 197.371 77.9343C197.559 78.4286 197.543 78.9774 197.327 79.46C197.111 79.9426 196.711 80.3195 196.217 80.5079C195.723 80.6962 195.174 80.6804 194.692 80.4641L193.376 79.8732L189.388 92.0895L190.893 92.5281C191.339 92.656 191.725 92.9413 191.977 93.3313C192.23 93.7213 192.333 94.1895 192.267 94.6495C192.201 95.1095 191.971 95.53 191.619 95.8334C191.267 96.1368 190.817 96.3025 190.352 96.2999V96.2999ZM192.085 75.9999C191.671 76.0016 191.268 76.1322 190.931 76.3735C190.595 76.6148 190.342 76.9549 190.207 77.3466L185.245 91.9427C185.158 92.1978 185.125 92.4679 185.146 92.7365C185.167 93.0051 185.243 93.2665 185.369 93.5048C185.494 93.7431 185.667 93.9533 185.877 94.1226C186.086 94.2918 186.328 94.4166 186.588 94.4892L190.057 95.4607C190.328 95.5349 190.617 95.5054 190.867 95.3781C191.117 95.2507 191.311 95.0346 191.411 94.772C191.465 94.6274 191.489 94.4732 191.48 94.319C191.472 94.1649 191.432 94.0141 191.363 93.8761C191.293 93.7382 191.196 93.616 191.078 93.5172C190.959 93.4184 190.821 93.3452 190.673 93.3021L188.77 92.7474C188.719 92.7324 188.671 92.7071 188.629 92.6731C188.587 92.6391 188.553 92.5971 188.528 92.5496C188.503 92.5021 188.488 92.45 188.483 92.3965C188.479 92.343 188.485 92.2891 188.502 92.2381L192.752 79.2062C192.77 79.153 192.798 79.104 192.836 79.0624C192.873 79.0208 192.919 78.9876 192.97 78.9648C193.022 78.9421 193.077 78.9304 193.133 78.9305C193.189 78.9305 193.245 78.9424 193.296 78.9652L195.02 79.7391C195.163 79.8101 195.32 79.8514 195.48 79.8605C195.64 79.8696 195.801 79.8463 195.951 79.7921C196.102 79.7378 196.241 79.6536 196.358 79.5446C196.476 79.4357 196.57 79.3041 196.636 79.1577C196.702 79.0114 196.737 78.8533 196.74 78.693C196.743 78.5327 196.714 78.3734 196.654 78.2246C196.594 78.0758 196.505 77.9406 196.392 77.8272C196.278 77.7137 196.143 77.6242 195.995 77.5641V77.5641L192.894 76.1776C192.64 76.061 192.366 75.9992 192.087 75.9963L192.085 75.9999Z" fill="#262424"/>
<path d="M188.892 78.6843C187.849 77.9176 184.565 79.6358 184.565 79.6358C184.565 79.6358 162.908 67.8926 160.559 67.425C158.21 66.9574 146.336 72.7121 140.222 76.125C134.109 79.5379 132.175 82.7352 133.144 84.738C136.844 92.3831 159.699 80.8701 159.699 80.8701L184.132 86.2714C184.132 86.2714 185.412 88.8089 186.434 90.6359C186.514 90.7795 186.635 90.8968 186.78 90.9735C186.926 91.0502 187.091 91.0831 187.255 91.0681C187.418 91.0532 187.575 90.991 187.704 90.8892C187.833 90.7874 187.93 90.6503 187.983 90.4945L190.293 83.7665C190.541 83.0487 190.608 82.2809 190.489 81.5308C190.37 80.7808 190.069 80.0715 189.611 79.4654C189.406 79.1747 189.165 78.9121 188.892 78.6843V78.6843Z" fill="white"/>
<path d="M187.17 91.4678C186.948 91.4687 186.729 91.4097 186.538 91.2971C186.347 91.1845 186.189 91.0225 186.082 90.828C185.219 89.2892 184.163 87.2193 183.858 86.6176L159.752 81.287C158.287 82.012 146.49 87.754 138.843 87.754C137.758 87.7768 136.676 87.6238 135.64 87.3009C134.294 86.8441 133.333 86.0321 132.786 84.9084C131.569 82.3963 134.279 78.9815 140.036 75.7716C144.567 73.2341 157.876 66.4716 160.647 67.0299C162.936 67.4903 182.321 77.9611 184.572 79.1845C185.446 78.7477 188.045 77.5641 189.131 78.3634C189.435 78.6117 189.704 78.9001 189.93 79.2208C190.428 79.8786 190.757 80.6492 190.886 81.4642C191.015 82.2793 190.941 83.1136 190.671 83.8934L188.36 90.625C188.283 90.8552 188.14 91.0577 187.949 91.2075C187.758 91.3573 187.528 91.4478 187.286 91.4678H187.17ZM159.698 80.4641C159.727 80.464 159.756 80.467 159.785 80.4732L184.217 85.8744C184.275 85.8873 184.33 85.913 184.377 85.9497C184.424 85.9864 184.462 86.0331 184.489 86.0865C184.502 86.1119 185.776 88.6421 186.782 90.4365C186.824 90.5126 186.888 90.5747 186.965 90.6152C187.043 90.6558 187.13 90.6731 187.217 90.665C187.304 90.657 187.387 90.6239 187.455 90.5699C187.523 90.5158 187.575 90.443 187.603 90.3604L189.912 83.6324C190.139 82.9771 190.201 82.2758 190.093 81.5907C189.985 80.9056 189.709 80.2578 189.29 79.7047C189.11 79.4448 188.896 79.2102 188.654 79.0069C188.076 78.5809 186.024 79.3259 184.752 79.9911C184.694 80.0219 184.629 80.038 184.563 80.038C184.498 80.038 184.433 80.0219 184.375 79.9911C176.9 75.9438 162.289 68.179 160.479 67.8147C158.436 67.4051 147.231 72.6668 140.416 76.4712C134.13 79.9784 132.724 82.9491 133.503 84.5586C133.96 85.5029 134.741 86.1518 135.894 86.5414C142.781 88.8723 159.351 80.591 159.518 80.5076C159.574 80.4794 159.635 80.4645 159.698 80.4641Z" fill="#262424"/>
<path d="M158.05 82.4977L152.333 67.8872C152.333 67.8872 139.425 73.9282 135.138 78.3C130.852 82.6717 131.151 87.7105 137.765 88.6475C144.378 89.5846 158.05 82.4977 158.05 82.4977Z" fill="#EC615B"/>
<path d="M154.777 82.8312C154.699 82.8297 154.623 82.8053 154.558 82.7612C154.494 82.7171 154.444 82.6551 154.414 82.5829L149.654 71.0681C149.634 71.0194 149.624 70.9673 149.624 70.9146C149.624 70.862 149.635 70.8098 149.655 70.7612C149.675 70.7125 149.705 70.6683 149.742 70.6311C149.779 70.5939 149.823 70.5644 149.872 70.5443C149.921 70.5242 149.973 70.5139 150.025 70.5139C150.078 70.514 150.13 70.5244 150.179 70.5446C150.228 70.5648 150.272 70.5944 150.309 70.6316C150.346 70.6689 150.376 70.7131 150.396 70.7618L155.15 82.2748C155.176 82.336 155.186 82.4028 155.18 82.4689C155.173 82.5351 155.151 82.5987 155.114 82.6539C155.077 82.7091 155.026 82.7542 154.968 82.7852C154.909 82.8161 154.843 82.832 154.777 82.8312Z" fill="#262424"/>
<path d="M131.09 84.7495C131.009 83.095 131.427 81.4544 132.291 80.0407C133.154 78.6269 134.422 77.5054 135.931 76.8216C139.146 75.3716 143.196 73.7132 145.865 73.2908C150.902 72.4952 161.774 74.0865 164.558 75.8102C167.342 77.5339 174.236 97.1542 179.67 121.681C179.67 121.681 168.136 132.021 137.512 127.249L137.776 102.055C137.776 102.055 132.739 96.6177 131.944 93.5709C131.527 91.9668 131.253 88.0736 131.09 84.7495Z" fill="#EC615B"/>
<path d="M138.707 76.1993C138.614 76.1997 138.524 76.1679 138.452 76.1094C138.38 76.0508 138.331 75.9691 138.313 75.8782C138.294 75.7873 138.308 75.6928 138.351 75.6109C138.395 75.5289 138.466 75.4647 138.551 75.429C141.843 74.0406 144.42 73.1924 146.213 72.9096C148.351 72.5725 151.706 72.6341 155.416 73.08C155.522 73.0928 155.618 73.1469 155.684 73.2305C155.749 73.3141 155.779 73.4204 155.766 73.5259C155.753 73.6314 155.699 73.7275 155.616 73.7931C155.532 73.8587 155.426 73.8884 155.32 73.8757C151.681 73.4371 148.406 73.3736 146.336 73.6944C144.607 73.9681 142.093 74.7964 138.861 76.1612C138.813 76.1841 138.76 76.197 138.707 76.1993V76.1993Z" fill="#262424"/>
<path d="M151.384 125.74C147.711 125.747 144.041 125.547 140.391 125.14C140.339 125.134 140.288 125.117 140.242 125.091C140.197 125.065 140.157 125.03 140.124 124.988C140.092 124.946 140.068 124.899 140.055 124.848C140.041 124.797 140.037 124.744 140.044 124.692C140.05 124.64 140.067 124.589 140.093 124.543C140.12 124.498 140.154 124.458 140.196 124.425C140.238 124.393 140.285 124.369 140.336 124.356C140.387 124.342 140.44 124.338 140.492 124.345C140.73 124.376 164.47 127.286 175.615 119.77C175.703 119.711 175.811 119.689 175.916 119.709C176.02 119.73 176.112 119.791 176.171 119.879C176.231 119.967 176.253 120.075 176.232 120.179C176.212 120.284 176.151 120.376 176.063 120.435C171.27 123.667 163.805 125.441 153.881 125.708C153.026 125.729 152.192 125.74 151.384 125.74Z" fill="#262424"/>
<path d="M144.318 71.4016C140.693 72.6958 139.053 75.7752 139.18 77.8795C139.307 79.9838 141.083 81.4447 142.515 81.4646C142.515 81.4646 143.178 77.2089 144.217 76.9116C145.256 76.6144 146.822 80.8756 146.822 80.8756C146.822 80.8756 151.739 79.4709 152.288 74.8182C152.669 71.6101 148.545 69.8936 144.318 71.4016Z" fill="white"/>
<path d="M142.515 81.8652C140.862 81.8435 138.925 80.2122 138.785 77.9049C138.644 75.5486 140.491 72.3459 144.19 71.0174C146.863 70.064 149.673 70.3087 151.344 71.6409C151.831 72.0111 152.212 72.5034 152.447 73.068C152.683 73.6326 152.766 74.2495 152.687 74.8563C152.112 79.7174 146.985 81.2381 146.932 81.2526C146.837 81.28 146.735 81.2713 146.646 81.2282C146.557 81.185 146.487 81.1104 146.45 81.0188C145.747 79.1048 144.717 77.3031 144.331 77.3031C143.912 77.4228 143.244 79.4002 142.917 81.5317C142.901 81.6263 142.852 81.7119 142.778 81.7731C142.704 81.8343 142.611 81.867 142.515 81.8652V81.8652ZM147.431 71.2458C146.416 71.252 145.41 71.431 144.456 71.775C141.125 72.964 139.459 75.7915 139.582 77.8505C139.689 79.6286 141.071 80.8031 142.183 81.0206C142.415 79.6866 143.033 76.8265 144.11 76.5201C145.243 76.1975 146.399 78.6353 147.063 80.3626C148.15 79.944 151.465 78.387 151.893 74.7656C151.957 74.2936 151.893 73.8132 151.708 73.3742C151.523 72.9353 151.224 72.5539 150.842 72.2698C149.984 71.5938 148.774 71.2458 147.431 71.2458V71.2458Z" fill="#262424"/>
<path d="M142.225 74.2817C142.225 74.2817 142.588 75.5505 144.295 75.864C145.118 75.7123 145.903 75.3962 146.601 74.9347C147.299 74.4732 147.898 73.8757 148.36 73.1779L146.45 65.134L145 65.7267L141.438 67.1767L142.098 73.0909L142.225 74.2817Z" fill="white"/>
<path d="M144.295 76.2645C144.27 76.2668 144.245 76.2668 144.221 76.2645C142.29 75.902 141.864 74.452 141.839 74.3977C141.833 74.3763 141.829 74.3545 141.826 74.3324L141.032 67.2202C141.023 67.1331 141.041 67.0452 141.086 66.9699C141.131 66.8946 141.199 66.8361 141.281 66.8033L146.303 64.7679C146.357 64.7456 146.415 64.7352 146.473 64.7376C146.531 64.7399 146.588 64.7549 146.64 64.7815C146.691 64.808 146.737 64.8455 146.773 64.8914C146.808 64.9372 146.834 64.9903 146.847 65.047L148.754 73.0909C148.766 73.1435 148.767 73.1981 148.758 73.2514C148.749 73.3047 148.729 73.3555 148.699 73.4008C148.207 74.1488 147.567 74.7887 146.819 75.2813C146.071 75.774 145.231 76.1092 144.349 76.2664L144.295 76.2645ZM142.618 74.1947C142.678 74.3596 143.042 75.1934 144.3 75.4634C145.763 75.164 147.058 74.3222 147.925 73.1072L146.167 65.6886L141.863 67.425L142.618 74.1947Z" fill="#262424"/>
<path d="M142.091 73.0818C146.441 71.8475 145.799 66.1291 145.799 66.1291C145.539 65.9777 145.269 65.8433 144.991 65.7267L141.429 67.1767L142.091 73.0818Z" fill="#262424"/>
<path d="M146.62 49.1768C146.01 52.0151 151.895 53.3129 153.907 53.5086C155.918 53.7044 159.377 57.6466 162.706 55.7561C166.036 53.8657 168.097 63.0061 178.763 59.7599C186.985 57.2641 190.059 45.4557 184.32 43.4837C178.582 41.5117 171.1 47.7304 165.873 45.8563C162.547 44.6673 159.264 40.6943 154.603 44.3809C151.121 47.1395 147.101 46.9438 146.62 49.1768Z" fill="#5222D0"/>
<path d="M137.342 62.2104C137.342 62.2104 135.348 60.1641 133.813 61.2589C132.278 62.3536 133.848 67.8655 137.855 66.3538L137.342 62.2104Z" fill="white"/>
<path d="M136.516 67.0136C135.222 67.0136 134.11 66.3067 133.404 64.9763C132.679 63.6079 132.537 61.6721 133.585 60.929C135.386 59.6494 137.542 61.8353 137.632 61.9295C137.693 61.9921 137.732 62.073 137.743 62.1597L138.257 66.3012C138.268 66.3906 138.249 66.481 138.202 66.558C138.156 66.6349 138.084 66.6939 138 66.7254C137.527 66.9104 137.024 67.0081 136.516 67.0136V67.0136ZM134.83 61.3386C134.549 61.3355 134.274 61.4218 134.045 61.5851C133.529 61.9476 133.445 63.3487 134.11 64.6011C134.458 65.2536 135.457 66.6529 137.416 66.0765L136.96 62.4008C136.662 62.1307 135.736 61.3386 134.83 61.3386V61.3386Z" fill="#262424"/>
<path d="M147.097 49.4414L147.974 48.8142C148.112 48.7151 148.273 48.6546 148.442 48.639C148.61 48.6234 148.78 48.6532 148.933 48.7254C149.375 48.9224 149.767 49.2175 150.079 49.5882C150.375 50.0107 150.514 50.5237 150.472 51.0382C150.466 51.1622 150.435 51.2837 150.381 51.3957C150.328 51.5077 150.253 51.6079 150.16 51.6907L149.254 52.519C149.15 52.6126 149.026 52.6819 148.892 52.7222C148.758 52.7626 148.617 52.7728 148.478 52.7522C148.34 52.7316 148.207 52.6807 148.091 52.6031C147.974 52.5255 147.876 52.4231 147.804 52.3033L146.849 50.7083C146.723 50.5046 146.679 50.2611 146.725 50.0263C146.771 49.7915 146.904 49.5827 147.097 49.4414V49.4414Z" fill="white"/>
<path d="M148.609 53.1624C148.541 53.1626 148.474 53.1577 148.407 53.1479C148.21 53.1186 148.021 53.0457 147.855 52.9344C147.689 52.8231 147.549 52.6763 147.447 52.5045L146.492 50.9095C146.318 50.6176 146.261 50.2713 146.33 49.9389C146.399 49.6065 146.59 49.312 146.865 49.1133L147.742 48.4862C147.938 48.3454 148.168 48.2596 148.408 48.2376C148.648 48.2156 148.889 48.2583 149.107 48.3611C149.606 48.5854 150.047 48.9201 150.398 49.3399C150.753 49.8363 150.922 50.4422 150.874 51.0509C150.866 51.2279 150.822 51.4015 150.746 51.5614C150.67 51.7214 150.562 51.8646 150.43 51.9825L149.524 52.8108C149.274 53.0387 148.947 53.1642 148.609 53.1624V53.1624ZM148.531 49.0354C148.415 49.0353 148.302 49.0714 148.208 49.1387L147.331 49.7658C147.221 49.8466 147.144 49.9654 147.116 50.0992C147.088 50.233 147.11 50.3725 147.179 50.4908L148.134 52.0858C148.175 52.1568 148.231 52.2176 148.299 52.2637C148.367 52.3098 148.444 52.3399 148.525 52.352C148.606 52.364 148.689 52.3576 148.767 52.3331C148.845 52.3087 148.917 52.2669 148.977 52.2109L149.883 51.3826C149.99 51.287 150.055 51.1527 150.064 51.0092C150.101 50.5913 149.991 50.1736 149.754 49.8274C149.481 49.5068 149.139 49.2516 148.754 49.0807C148.683 49.05 148.607 49.0346 148.531 49.0354V49.0354Z" fill="#262424"/>
<path d="M136.452 63.3233C137.268 66.7671 139.534 70.4918 143.713 69.6236C146.794 68.9856 149.533 64.6519 148.949 59.9158C148.366 55.1798 146.827 51.3101 141.234 52.6078C140.638 52.7555 140.053 52.9426 139.483 53.1679C136.34 54.4801 135.142 54.9985 136.059 61.4818C136.139 62.0528 136.3 62.6763 136.452 63.3233Z" fill="white"/>
<path d="M142.517 70.1438C138.964 70.1438 136.867 66.8015 136.063 63.4085L136.003 63.1602C135.863 62.5874 135.733 62.0455 135.66 61.5289C135.194 58.232 135.261 56.3959 135.892 55.1852C136.539 53.9473 137.705 53.4597 139.336 52.7836C139.927 52.5502 140.532 52.3565 141.148 52.2036C143.278 51.7088 145.015 51.9191 146.307 52.8235C148.42 54.3007 149.044 57.3548 149.352 59.8542C149.99 65.0234 146.938 69.3517 143.8 70.0042C143.378 70.0947 142.948 70.1415 142.517 70.1438V70.1438ZM143.26 52.7438C142.607 52.7517 141.957 52.8338 141.322 52.9884C140.749 53.1326 140.185 53.3142 139.635 53.5322C136.601 54.8009 135.579 55.2269 136.454 61.4184C136.521 61.8987 136.648 62.4225 136.782 62.9753L136.842 63.2254C137.204 64.7443 138.618 69.3463 142.504 69.3463C142.883 69.3444 143.26 69.3037 143.63 69.2248C146.419 68.6448 149.116 64.5594 148.549 59.9575C148.127 56.5391 147.266 54.4838 145.839 53.4851C145.078 52.9739 144.176 52.7146 143.26 52.7438Z" fill="#262424"/>
<path d="M147.514 59.7654C146.914 59.6496 146.357 59.3739 145.902 58.9674C145.446 58.5609 145.109 58.0388 144.926 57.4563C144.793 57.0648 144.657 56.5283 144.453 56.0588C142.531 58.9588 138.332 61.2734 136.478 62.1887C136.19 62.3374 135.862 62.3917 135.542 62.3439C135.221 62.2961 134.924 62.1486 134.692 61.9223C131.814 58.9751 133.367 52.0532 137.746 51.3953C142.075 47.0815 148.302 48.5297 149.877 52.5607C151.63 57.0358 149.013 60.0953 147.514 59.7654Z" fill="#5222D0"/>
<path d="M147.537 60.3744C147.537 60.3744 149.393 57.6103 151.929 57.9456C154.465 58.2809 154.077 64.119 148.029 64.4833L147.537 60.3744Z" fill="white"/>
<path d="M148.032 64.8875C147.926 64.8906 147.823 64.8514 147.746 64.7785C147.668 64.7056 147.623 64.605 147.62 64.4987C147.617 64.3925 147.656 64.2894 147.729 64.212C147.802 64.1347 147.903 64.0895 148.009 64.0864C151.353 63.8852 152.942 61.8914 153.006 60.1242C153.035 59.3177 152.698 58.4549 151.88 58.3462C149.616 58.0471 147.893 60.5756 147.875 60.6009C147.815 60.6891 147.723 60.7502 147.619 60.7706C147.515 60.7909 147.406 60.7691 147.318 60.7097C147.23 60.6503 147.169 60.5583 147.149 60.454C147.128 60.3496 147.15 60.2415 147.209 60.1532C147.291 60.0318 149.236 57.188 151.985 57.5505C153.125 57.7009 153.856 58.7467 153.798 60.1514C153.722 62.2702 151.891 64.6537 148.047 64.8839H148.023L148.032 64.8875Z" fill="#262424"/>
<path d="M162.317 79.7337C154.215 76.4422 144.685 101.012 144.685 101.012L122.279 113.74C122.279 113.74 116.643 111.552 115.518 111.42C114.392 111.288 110.414 116.723 110.08 117.519C109.747 118.315 110.544 119.442 112.268 118.315C112.268 118.315 110.943 120.171 112.268 121.43C113.593 122.69 115.648 123.424 118.233 121.363C118.233 121.363 122.541 122.955 123.868 122.813C125.195 122.672 126.513 119.108 126.513 119.108C126.513 119.108 151.163 113.144 153.292 111.884C155.422 110.624 160.517 98.0291 162.837 91.2032C165.157 84.3773 164.437 80.5964 162.317 79.7337Z" fill="white"/>
<path d="M123.707 123.228C122.326 123.228 119.21 122.141 118.305 121.814C115.3 124.084 113.067 122.739 111.993 121.718C111.175 120.943 111.181 119.939 111.429 119.132C110.704 119.313 110.258 119.043 110.064 118.884C109.85 118.702 109.699 118.456 109.634 118.183C109.569 117.909 109.593 117.622 109.702 117.363C109.919 116.841 113.997 110.838 115.554 111.019C116.622 111.144 121.157 112.879 122.235 113.296L144.348 100.733C145.053 98.9444 151.694 82.4941 158.628 79.5017C159.969 78.9235 161.256 78.8764 162.453 79.3621C165.108 80.4496 165.391 84.9156 163.212 91.3246C161.492 96.3833 155.995 110.735 153.492 112.221C151.438 113.462 129.364 118.831 126.821 119.444C126.458 120.374 125.287 123.069 123.91 123.216C123.846 123.226 123.779 123.228 123.707 123.228ZM118.235 120.961C118.282 120.961 118.33 120.969 118.374 120.986C119.549 121.419 122.82 122.523 123.83 122.422C124.573 122.347 125.632 120.359 126.145 118.978C126.167 118.916 126.205 118.861 126.254 118.818C126.303 118.774 126.362 118.743 126.425 118.728C134.933 116.669 151.458 112.52 153.095 111.547C154.942 110.45 159.879 98.6924 162.465 91.0799C164.852 84.0547 163.875 80.8085 162.164 80.1125C161.16 79.7047 160.113 79.75 158.96 80.2448C152.087 83.2119 145.127 100.983 145.056 101.163C145.021 101.25 144.957 101.321 144.875 101.366L122.476 114.088C122.424 114.117 122.367 114.135 122.308 114.139C122.248 114.143 122.189 114.135 122.134 114.113C120.58 113.51 116.353 111.922 115.471 111.817C115.271 111.817 114.441 112.36 112.766 114.43C111.577 115.893 110.591 117.35 110.452 117.671C110.408 117.771 110.396 117.882 110.419 117.989C110.441 118.096 110.498 118.193 110.579 118.266C110.863 118.501 111.413 118.392 112.051 117.976C112.129 117.925 112.222 117.903 112.315 117.914C112.408 117.925 112.494 117.968 112.558 118.035C112.623 118.102 112.661 118.19 112.668 118.283C112.675 118.376 112.649 118.469 112.594 118.545C112.549 118.608 111.49 120.134 112.544 121.137C113.651 122.188 115.494 123.027 117.981 121.048C118.053 120.99 118.143 120.96 118.235 120.961Z" fill="#262424"/>
<path d="M144.819 98.6254L159.266 105.85C159.266 105.85 164.966 92.3269 165.231 86.0303C165.496 79.7337 161.787 76.0869 156.083 79.9312C150.379 83.7756 144.819 98.6254 144.819 98.6254Z" fill="#EC615B"/>
<path d="M159.266 106.252C159.203 106.253 159.141 106.239 159.085 106.211L144.637 98.9843C144.549 98.9399 144.479 98.8642 144.443 98.7718C144.407 98.6794 144.407 98.5768 144.442 98.484C144.67 97.8732 150.12 83.4711 155.86 79.5996C159.123 77.4028 161.334 77.7998 162.621 78.5121C164.658 79.6503 165.784 82.4651 165.634 86.0394C165.369 92.336 159.87 105.444 159.636 105.999C159.607 106.073 159.556 106.137 159.49 106.182C159.424 106.227 159.346 106.252 159.266 106.252V106.252ZM145.321 98.4296L159.061 105.306C159.995 103.033 164.599 91.5766 164.832 86.0213C164.97 82.7588 163.997 80.2212 162.23 79.228C160.665 78.3544 158.619 78.7151 156.31 80.272C151.251 83.6777 146.189 96.2093 145.321 98.4296V98.4296Z" fill="#262424"/>
<path d="M158.956 102.341C158.897 102.341 158.838 102.327 158.784 102.301L147.195 96.7875C147.147 96.7649 147.105 96.7331 147.069 96.694C147.034 96.6549 147.007 96.6092 146.989 96.5596C146.953 96.4593 146.959 96.3489 147.005 96.2528C147.05 96.1567 147.132 96.0826 147.233 96.0469C147.333 96.0112 147.443 96.0168 147.539 96.0625L159.123 101.582C159.203 101.621 159.268 101.687 159.307 101.767C159.345 101.848 159.356 101.939 159.337 102.027C159.317 102.114 159.27 102.192 159.201 102.249C159.132 102.306 159.046 102.339 158.956 102.341Z" fill="#262424"/>
<path d="M192.237 22.2194C206.475 25.2155 207.722 39.2569 207.722 39.2569L196.134 45.2128C196.134 45.2128 195.297 35.7878 185.754 33.7941L192.237 22.2194Z" fill="white"/>
<path d="M196.134 45.6188C196.034 45.6192 195.938 45.5823 195.864 45.5152C195.79 45.4482 195.743 45.3558 195.734 45.2563C195.506 43.5611 194.971 41.9217 194.155 40.4187C192.343 37.0855 189.497 34.9812 185.671 34.1819C185.609 34.169 185.551 34.1417 185.502 34.1023C185.453 34.0628 185.414 34.0124 185.388 33.955C185.362 33.8976 185.35 33.8349 185.353 33.772C185.356 33.7091 185.373 33.6477 185.404 33.5929L191.888 22.0182C191.929 21.944 191.994 21.885 192.071 21.8498C192.149 21.8146 192.236 21.805 192.319 21.8225C199.825 23.4012 203.721 28.0484 205.672 31.6698C207.778 35.583 208.11 39.0757 208.122 39.2225C208.129 39.3018 208.112 39.3814 208.074 39.4511C208.036 39.5208 207.977 39.5775 207.907 39.614L196.319 45.5699C196.262 45.6009 196.199 45.6177 196.134 45.6188ZM186.365 33.5312C191.101 34.7003 193.602 37.7127 194.884 40.078C195.645 41.4956 196.178 43.025 196.461 44.6092L207.298 39.0394C206.925 36.5874 206.134 34.2177 204.958 32.0341C202.284 27.0842 198.07 23.9395 192.451 22.6816L186.365 33.5312Z" fill="#262424"/>
<path d="M197.697 39.6303C197.61 39.6311 197.525 39.6039 197.456 39.5526C197.386 39.5013 197.335 39.4288 197.309 39.3459C197.284 39.263 197.287 39.1742 197.316 39.0928C197.346 39.0114 197.401 38.9418 197.474 38.8944L202.864 35.3148C202.908 35.2856 202.957 35.2654 203.009 35.2553C203.061 35.2451 203.114 35.2453 203.166 35.2557C203.217 35.2661 203.266 35.2867 203.31 35.3161C203.354 35.3455 203.391 35.3832 203.421 35.4271C203.45 35.4711 203.47 35.5203 203.48 35.572C203.49 35.6237 203.49 35.677 203.48 35.7286C203.469 35.7803 203.449 35.8294 203.419 35.8732C203.39 35.9169 203.352 35.9544 203.308 35.9836L197.925 39.5632C197.857 39.6083 197.778 39.6317 197.697 39.6303V39.6303Z" fill="#262424"/>
<path d="M195.261 35.8186C195.18 35.8188 195.102 35.795 195.036 35.7502C194.969 35.7054 194.918 35.6417 194.888 35.5673C194.858 35.493 194.851 35.4114 194.868 35.3331C194.885 35.2547 194.925 35.1833 194.983 35.1281L199.64 30.6675C199.717 30.5939 199.82 30.554 199.926 30.5563C200.032 30.5587 200.133 30.6033 200.207 30.6802C200.28 30.7571 200.32 30.8601 200.318 30.9665C200.316 31.0729 200.271 31.1739 200.194 31.2475L195.538 35.7062C195.463 35.7781 195.364 35.8184 195.261 35.8186V35.8186Z" fill="#262424"/>
<path d="M191.4 33.2793C191.326 33.2793 191.253 33.2588 191.19 33.22C191.127 33.1812 191.076 33.1256 191.043 33.0595C191.009 32.9934 190.995 32.9193 191.001 32.8455C191.007 32.7717 191.033 32.701 191.077 32.6413L195 27.3017C195.063 27.2161 195.157 27.1591 195.262 27.1431C195.367 27.1271 195.474 27.1535 195.56 27.2165C195.645 27.2795 195.702 27.3739 195.718 27.4789C195.734 27.5839 195.708 27.691 195.645 27.7766L191.723 33.1162C191.685 33.1668 191.637 33.2079 191.581 33.2362C191.525 33.2646 191.463 33.2793 191.4 33.2793Z" fill="#262424"/>
<path d="M89.1025 135.011C74.5662 134.419 71.0065 120.772 71.0065 120.772L81.4465 112.979C81.4465 112.979 83.8336 122.126 93.5775 122.523L89.1025 135.011Z" fill="white"/>
<path d="M89.1025 135.412H89.0862C81.4229 135.098 76.8083 131.162 74.2871 127.915C71.5684 124.405 70.6621 121.015 70.6186 120.874C70.5985 120.797 70.602 120.715 70.6284 120.64C70.6549 120.565 70.7032 120.499 70.7673 120.451L81.2072 112.658C81.2598 112.618 81.3212 112.593 81.3861 112.583C81.4509 112.573 81.5172 112.579 81.5791 112.601C81.6411 112.622 81.6967 112.659 81.7412 112.707C81.7857 112.755 81.8177 112.814 81.8344 112.877C82.3395 114.509 83.138 116.034 84.1906 117.379C86.5215 120.366 89.6843 121.963 93.5902 122.123C93.6542 122.124 93.7168 122.142 93.7728 122.173C93.8288 122.204 93.8765 122.248 93.912 122.301C93.9475 122.354 93.9697 122.415 93.9768 122.479C93.9839 122.542 93.9756 122.607 93.9527 122.666L89.4777 135.156C89.4483 135.232 89.3968 135.297 89.3298 135.342C89.2628 135.388 89.1835 135.412 89.1025 135.412V135.412ZM71.4687 120.926C72.2419 123.284 73.4154 125.492 74.9378 127.451C78.3942 131.888 83.0651 134.294 88.8252 134.602L93.0175 122.887C88.1527 122.525 85.1875 119.964 83.5399 117.843C82.554 116.574 81.7752 115.157 81.2326 113.644L71.4687 120.926Z" fill="#262424"/>
<path d="M76.1758 123.975C76.0952 123.975 76.0164 123.951 75.9497 123.906C75.883 123.861 75.8315 123.796 75.8019 123.721C75.7723 123.646 75.7661 123.564 75.784 123.486C75.8018 123.407 75.843 123.336 75.9021 123.281L80.6255 118.857C80.663 118.816 80.7084 118.784 80.7589 118.762C80.8093 118.74 80.8638 118.729 80.9189 118.729C80.9739 118.729 81.0284 118.74 81.0789 118.762C81.1293 118.784 81.1747 118.816 81.2122 118.857C81.2497 118.897 81.2784 118.945 81.2966 118.997C81.3149 119.049 81.3222 119.104 81.3182 119.159C81.3141 119.214 81.2988 119.267 81.2732 119.316C81.2476 119.365 81.2122 119.408 81.1692 119.442L76.4458 123.866C76.3727 123.935 76.2763 123.974 76.1758 123.975V123.975Z" fill="#262424"/>
<path d="M80.0781 128.069C80.0038 128.069 79.9311 128.049 79.8679 128.01C79.8048 127.971 79.7537 127.915 79.7204 127.848C79.6872 127.782 79.673 127.708 79.6795 127.634C79.686 127.56 79.7129 127.489 79.7573 127.43L83.6106 122.259C83.6741 122.173 83.7688 122.117 83.874 122.101C83.9792 122.086 84.0863 122.113 84.1716 122.176C84.2569 122.24 84.3136 122.334 84.329 122.439C84.3445 122.545 84.3175 122.652 84.2541 122.737L80.4007 127.908C80.3633 127.958 80.3146 127.999 80.2586 128.027C80.2025 128.055 80.1407 128.07 80.0781 128.069Z" fill="#262424"/>
<path d="M85.1748 130.681C85.1059 130.682 85.0379 130.665 84.9774 130.632C84.9169 130.599 84.866 130.551 84.8295 130.493C84.7931 130.434 84.7723 130.367 84.7693 130.298C84.7663 130.229 84.7811 130.161 84.8123 130.099L87.7957 124.183C87.8195 124.136 87.8524 124.093 87.8926 124.059C87.9328 124.024 87.9795 123.997 88.03 123.98C88.0805 123.963 88.1338 123.957 88.1869 123.96C88.24 123.964 88.2918 123.978 88.3394 124.002C88.387 124.026 88.4295 124.059 88.4644 124.099C88.4992 124.139 88.5258 124.186 88.5427 124.237C88.5595 124.287 88.5662 124.34 88.5624 124.393C88.5587 124.447 88.5445 124.498 88.5207 124.546L85.5319 130.458C85.4989 130.525 85.448 130.581 85.385 130.62C85.3219 130.66 85.2491 130.681 85.1748 130.681V130.681Z" fill="#262424"/>
<path d="M188.629 218.807C188.533 218.807 188.44 218.769 188.372 218.701C188.304 218.633 188.266 218.54 188.266 218.444V215.985C188.266 215.889 188.304 215.796 188.372 215.728C188.44 215.66 188.533 215.622 188.629 215.622C188.725 215.622 188.817 215.66 188.885 215.728C188.953 215.796 188.991 215.889 188.991 215.985V218.444C188.991 218.54 188.953 218.633 188.885 218.701C188.817 218.769 188.725 218.807 188.629 218.807Z" fill="#262424"/>
<path d="M192.337 220.056H189.878C189.781 220.056 189.689 220.017 189.621 219.949C189.553 219.881 189.515 219.789 189.515 219.693C189.515 219.597 189.553 219.505 189.621 219.437C189.689 219.369 189.781 219.331 189.878 219.331H192.337C192.385 219.331 192.432 219.34 192.476 219.358C192.52 219.376 192.56 219.403 192.593 219.437C192.627 219.47 192.654 219.51 192.672 219.554C192.69 219.598 192.7 219.645 192.7 219.693C192.7 219.741 192.69 219.788 192.672 219.832C192.654 219.876 192.627 219.916 192.593 219.949C192.56 219.983 192.52 220.01 192.476 220.028C192.432 220.046 192.385 220.056 192.337 220.056Z" fill="#262424"/>
<path d="M188.629 223.766C188.533 223.766 188.44 223.728 188.372 223.66C188.304 223.592 188.266 223.499 188.266 223.403V220.944C188.266 220.848 188.304 220.755 188.372 220.687C188.44 220.619 188.533 220.581 188.629 220.581C188.725 220.581 188.817 220.619 188.885 220.687C188.953 220.755 188.991 220.848 188.991 220.944V223.403C188.991 223.499 188.953 223.592 188.885 223.66C188.817 223.728 188.725 223.766 188.629 223.766Z" fill="#262424"/>
<path d="M187.378 220.056H184.919C184.822 220.056 184.73 220.017 184.662 219.949C184.594 219.881 184.556 219.789 184.556 219.693C184.556 219.597 184.594 219.505 184.662 219.437C184.73 219.369 184.822 219.331 184.919 219.331H187.378C187.474 219.331 187.566 219.369 187.634 219.437C187.702 219.505 187.741 219.597 187.741 219.693C187.741 219.789 187.702 219.881 187.634 219.949C187.566 220.017 187.474 220.056 187.378 220.056Z" fill="#262424"/>
<path d="M77.2415 162.288C77.1454 162.288 77.0532 162.249 76.9852 162.181C76.9172 162.113 76.879 162.021 76.879 161.925V159.824C76.879 159.728 76.9172 159.636 76.9852 159.568C77.0532 159.5 77.1454 159.462 77.2415 159.462C77.3376 159.462 77.4298 159.5 77.4978 159.568C77.5658 159.636 77.604 159.728 77.604 159.824V161.923C77.6042 161.971 77.595 162.018 77.5769 162.063C77.5588 162.107 77.5321 162.147 77.4985 162.181C77.4648 162.215 77.4247 162.242 77.3806 162.26C77.3365 162.278 77.2893 162.288 77.2415 162.288V162.288Z" fill="#262424"/>
<path d="M80.4061 163.355H78.3C78.2038 163.355 78.1116 163.317 78.0436 163.249C77.9757 163.181 77.9375 163.089 77.9375 162.993C77.9375 162.897 77.9757 162.804 78.0436 162.736C78.1116 162.668 78.2038 162.63 78.3 162.63H80.3989C80.495 162.629 80.5876 162.666 80.6562 162.734C80.7249 162.801 80.764 162.893 80.765 162.989C80.766 163.085 80.7287 163.178 80.6614 163.246C80.5941 163.315 80.5023 163.354 80.4061 163.355Z" fill="#262424"/>
<path d="M77.2415 166.52C77.1454 166.52 77.0532 166.482 76.9852 166.414C76.9172 166.346 76.879 166.253 76.879 166.157V164.055C76.879 163.959 76.9172 163.866 76.9852 163.798C77.0532 163.731 77.1454 163.692 77.2415 163.692C77.3376 163.692 77.4299 163.731 77.4978 163.798C77.5658 163.866 77.604 163.959 77.604 164.055V166.154C77.6045 166.202 77.5955 166.249 77.5775 166.294C77.5595 166.338 77.5328 166.378 77.4991 166.412C77.4654 166.446 77.4253 166.473 77.3811 166.492C77.3369 166.51 77.2894 166.52 77.2415 166.52V166.52Z" fill="#262424"/>
<path d="M76.1757 163.355H74.0787C73.9825 163.355 73.8903 163.317 73.8224 163.249C73.7544 163.181 73.7162 163.089 73.7162 162.993C73.7162 162.897 73.7544 162.804 73.8224 162.736C73.8903 162.668 73.9825 162.63 74.0787 162.63H76.1776C76.2737 162.63 76.3658 162.669 76.4336 162.737C76.5014 162.805 76.5394 162.897 76.5391 162.994C76.5389 163.09 76.5005 163.182 76.4323 163.25C76.3642 163.317 76.2719 163.355 76.1757 163.355V163.355Z" fill="#262424"/>
<path d="M90.0106 209.228C90.8725 209.228 91.5712 208.529 91.5712 207.667C91.5712 206.805 90.8725 206.107 90.0106 206.107C89.1487 206.107 88.45 206.805 88.45 207.667C88.45 208.529 89.1487 209.228 90.0106 209.228Z" fill="#87BFC1"/>
<path d="M221.419 56.7385C222.439 56.7385 223.266 55.9116 223.266 54.8916C223.266 53.8715 222.439 53.0446 221.419 53.0446C220.399 53.0446 219.572 53.8715 219.572 54.8916C219.572 55.9116 220.399 56.7385 221.419 56.7385Z" fill="#DD9144"/>
<path d="M188.234 129.851C188.171 129.851 188.11 129.836 188.054 129.809C187.999 129.781 187.95 129.74 187.913 129.691C187.876 129.641 187.85 129.583 187.839 129.522C187.827 129.461 187.83 129.398 187.848 129.338C187.909 129.123 189.426 124.06 194.112 123.025C194.947 122.844 195.562 122.907 196.009 123.083C197.361 122.456 199.681 121.952 202.784 123.384C202.836 123.403 202.883 123.433 202.923 123.472C202.963 123.51 202.994 123.556 203.015 123.607C203.036 123.658 203.046 123.713 203.045 123.768C203.044 123.823 203.031 123.878 203.008 123.928C202.985 123.978 202.952 124.022 202.91 124.059C202.869 124.096 202.821 124.123 202.768 124.14C202.716 124.157 202.66 124.164 202.605 124.158C202.55 124.153 202.497 124.136 202.449 124.109C199.941 122.951 198.023 123.174 196.785 123.625C196.862 123.714 196.93 123.81 196.99 123.912C197.655 125.053 197.204 126.822 196.363 127.76C195.708 128.485 194.885 128.704 194.102 128.354C193.827 128.237 193.589 128.046 193.415 127.802C193.24 127.559 193.137 127.272 193.115 126.973C193.01 125.913 193.738 124.617 194.938 123.71C194.718 123.721 194.5 123.75 194.286 123.799C190.07 124.729 188.632 129.503 188.618 129.552C188.596 129.637 188.546 129.713 188.476 129.767C188.407 129.821 188.322 129.85 188.234 129.851V129.851ZM196 123.988C195.834 124.079 195.674 124.179 195.52 124.289C194.322 125.142 193.847 126.239 193.912 126.899C193.922 127.056 193.975 127.208 194.067 127.336C194.159 127.464 194.285 127.564 194.431 127.624C195.007 127.881 195.475 127.549 195.766 127.227C196.473 126.44 196.727 125.052 196.297 124.327C196.223 124.194 196.123 124.078 196.002 123.986L196 123.988Z" fill="#262424"/>
<path d="M125.865 145.363C125.744 145.362 125.623 145.355 125.503 145.341C125.149 145.308 124.811 145.177 124.527 144.962C124.244 144.747 124.026 144.457 123.899 144.125C123.593 143.345 123.732 142.399 124.261 141.547C120.254 141.959 117.997 144.949 117.976 144.98C117.913 145.066 117.818 145.123 117.713 145.139C117.608 145.155 117.501 145.128 117.416 145.065C117.33 145.002 117.273 144.908 117.257 144.803C117.241 144.698 117.267 144.591 117.33 144.505C117.437 144.36 119.982 140.969 124.642 140.713C124.747 140.713 124.85 140.71 124.95 140.703C125.962 139.74 128.394 138.292 133.351 139.379C133.455 139.402 133.545 139.465 133.603 139.555C133.66 139.645 133.679 139.753 133.657 139.857C133.634 139.961 133.571 140.051 133.481 140.109C133.391 140.166 133.283 140.185 133.179 140.162C129.387 139.33 127.239 140.052 126.11 140.802C127.276 141.042 127.816 141.654 128.053 142.071C128.25 142.415 128.346 142.807 128.332 143.203C128.317 143.599 128.193 143.983 127.972 144.311C127.738 144.651 127.423 144.925 127.054 145.109C126.686 145.293 126.277 145.38 125.865 145.363ZM125.267 141.513L125.238 141.545C124.615 142.27 124.379 143.177 124.637 143.833C124.709 144.031 124.837 144.204 125.006 144.33C125.175 144.457 125.378 144.531 125.588 144.545C126.324 144.632 126.94 144.386 127.281 143.869C127.42 143.664 127.499 143.425 127.508 143.177C127.518 142.93 127.459 142.685 127.337 142.47C127.009 141.901 126.27 141.556 125.267 141.513Z" fill="#262424"/>
<defs>
<filter id="filter0_d" x="153.251" y="107.257" width="46.0477" height="70.5518" filterUnits="userSpaceOnUse" color-interpolation-filters="sRGB">
<feFlood flood-opacity="0" result="BackgroundImageFix"/>
<feColorMatrix in="SourceAlpha" type="matrix" values="0 0 0 0 0 0 0 0 0 0 0 0 0 0 0 0 0 0 127 0" result="hardAlpha"/>
<feOffset dy="4"/>
<feGaussianBlur stdDeviation="2"/>
<feComposite in2="hardAlpha" operator="out"/>
<feColorMatrix type="matrix" values="0 0 0 0 0 0 0 0 0 0 0 0 0 0 0 0 0 0 0.25 0"/>
<feBlend mode="normal" in2="BackgroundImageFix" result="effect1_dropShadow"/>
<feBlend mode="normal" in="SourceGraphic" in2="effect1_dropShadow" result="shape"/>
</filter>
</defs>
</svg>
