<svg width="250" height="232" viewBox="0 0 250 232" fill="none" xmlns="http://www.w3.org/2000/svg">
<g clip-path="url(#clip0)">
<path d="M19.8913 66.5459C22.7237 59.7861 31.1864 61.946 36.4373 63.8817C41.3605 65.701 46.245 67.9901 51.5261 68.5247C56.1217 68.9946 60.2905 67.6625 64.4594 65.8562C69.3266 63.7696 74.3447 61.1829 79.7853 62.3426C80.1905 62.4288 80.3673 61.8081 79.9577 61.7218C75.1465 60.6958 70.663 62.4547 66.3088 64.3516C63.567 65.5458 60.8208 66.8175 57.8936 67.4987C54.5912 68.2062 51.1673 68.1116 47.9091 67.2228C40.4423 65.3733 24.0213 55.044 19.2748 66.3606C19.111 66.7442 19.7404 66.9124 19.8956 66.533L19.8913 66.5459Z" fill="#E8E8E8"/>
<path d="M57.5659 188.412C66.5674 177.095 84.2256 178.522 96.939 180.316C110.851 182.277 124.681 184.915 138.235 179.699C145.167 177.03 151.504 173.073 157.773 169.137C158.122 168.917 157.799 168.357 157.445 168.576C151.44 172.349 145.374 176.155 138.77 178.798C131.751 181.605 124.422 182.57 116.891 182.174C102.875 181.428 88.9721 176.905 74.8663 179.052C68.2574 180.057 61.3898 182.575 57.1089 187.955C56.8502 188.278 57.3029 188.739 57.5659 188.412Z" fill="#E8E8E8"/>
<path d="M145.775 185.161C151.47 181.036 158.105 178.194 165.205 177.944C172.103 177.707 178.768 179.751 185.178 182.053C191.425 184.299 197.599 186.886 204.117 188.261C210.449 189.625 217.008 189.539 223.302 188.007C229.596 186.476 235.462 183.54 240.46 179.419C240.783 179.156 240.322 178.699 240.003 178.962C229.29 187.718 215.184 190.498 201.819 187.058C189.546 183.889 177.858 176.711 164.83 177.311C157.751 177.638 151.121 180.479 145.43 184.601C145.098 184.842 145.43 185.403 145.758 185.161H145.775Z" fill="#E8E8E8"/>
<path d="M149.457 153.82C157.264 150.802 165.593 152.526 173.461 154.371C181.329 156.217 189.244 158.251 197.318 159.17C210.739 160.73 225.422 158.877 235.631 149.254C235.933 148.965 235.476 148.508 235.174 148.793C224.008 159.333 207.756 160.269 193.357 157.988C185.545 156.751 177.932 154.643 170.21 152.983C163.313 151.496 156.057 150.595 149.297 153.212C148.914 153.358 149.082 153.983 149.47 153.833L149.457 153.82Z" fill="#E8E8E8"/>
<path d="M98.504 91.0415C110.204 84.3938 124.047 86.6227 136.605 89.0196C149.164 91.4166 161.558 93.2661 173.957 89.0498C180.055 86.9554 185.708 83.7386 190.623 79.5654C190.942 79.2981 190.485 78.8412 190.166 79.1085C183.941 84.3818 176.537 88.0786 168.581 89.8862C160.002 91.8089 151.379 91.0415 142.826 89.5154C128.194 86.9288 112.006 82.6177 98.1806 90.4682C98.1063 90.511 98.0521 90.5817 98.0298 90.6646C98.0076 90.7474 98.0192 90.8357 98.0621 90.9101C98.105 90.9844 98.1756 91.0386 98.2585 91.0609C98.3414 91.0831 98.4297 91.0715 98.504 91.0286V91.0415Z" fill="#E8E8E8"/>
<path d="M133.312 71.8141C137.041 74.0774 141.434 73.3919 145.478 72.4435C150.479 71.2709 155.316 69.512 160.135 67.7013C169.809 64.0627 179.617 60.1267 190.132 60.3725C190.218 60.3725 190.3 60.3384 190.361 60.2778C190.421 60.2171 190.455 60.1349 190.455 60.0491C190.455 59.9634 190.421 59.8811 190.361 59.8205C190.3 59.7599 190.218 59.7258 190.132 59.7258C180.57 59.4844 171.542 62.6875 162.718 66.0157C158.251 67.7013 153.789 69.4214 149.202 70.7579C144.348 72.1805 138.33 74.0558 133.657 71.2191C133.299 71.0036 132.975 71.564 133.329 71.7796L133.312 71.8141Z" fill="#E8E8E8"/>
<path d="M88.9075 17.7186C105.13 21.8831 119.68 11.4546 134.329 6.4106C151.069 0.646671 168.279 4.64305 184.338 10.6656C184.73 10.8122 184.898 10.1871 184.51 10.0405C169.469 4.40163 152.979 0.237118 137.088 4.86723C121.366 9.43267 106.26 21.521 89.0756 17.1064C89.0346 17.0951 88.9917 17.092 88.9494 17.0972C88.9072 17.1025 88.8664 17.116 88.8294 17.137C88.7546 17.1794 88.6997 17.2498 88.6768 17.3327C88.654 17.4156 88.665 17.5042 88.7074 17.579C88.7499 17.6538 88.8203 17.7086 88.9032 17.7315L88.9075 17.7186Z" fill="#E8E8E8"/>
<path d="M67.4556 49.2757C67.6271 49.2757 67.7916 49.2076 67.9129 49.0863C68.0342 48.9651 68.1023 48.8006 68.1023 48.6291C68.1023 48.4576 68.0342 48.2931 67.9129 48.1718C67.7916 48.0506 67.6271 47.9824 67.4556 47.9824C67.2841 47.9824 67.1196 48.0506 66.9984 48.1718C66.8771 48.2931 66.809 48.4576 66.809 48.6291C66.809 48.8006 66.8771 48.9651 66.9984 49.0863C67.1196 49.2076 67.2841 49.2757 67.4556 49.2757Z" fill="#461EB8"/>
<path d="M179.479 135.76C179.889 134.73 180.704 134.377 181.915 134.696C182.178 134.903 182.445 135.097 182.717 135.291C183.024 135.493 183.384 135.601 183.751 135.601C184.588 135.545 184.834 134.872 185.433 134.437C186.985 133.303 187.157 134.752 188.451 135.04C189.313 135.239 191.468 133.251 191.938 134.295C192.111 134.67 192.667 134.342 192.494 133.967C192.063 133.023 191.093 133.148 190.278 133.562C189.464 133.976 189.011 134.54 187.989 133.993C187.7 133.833 187.532 133.428 187.226 133.269C187.068 133.165 186.889 133.095 186.702 133.064C186.515 133.033 186.324 133.041 186.14 133.088C185.515 133.234 185.303 133.825 184.847 134.157C183.286 135.239 183.066 134.355 181.799 133.885C180.449 133.385 179.604 134.39 178.932 135.446C178.708 135.799 179.268 136.123 179.492 135.773L179.479 135.76Z" fill="#461EB8"/>
<path d="M186.407 138.601C187.619 136.079 189.36 138.662 190.985 138.08C191.317 137.963 191.417 137.675 191.658 137.537C192.744 136.942 193.624 137.567 194.516 138.063C195.564 138.645 197.047 139.252 197.491 137.601C197.506 137.522 197.49 137.439 197.448 137.371C197.405 137.302 197.338 137.252 197.26 137.23C197.182 137.208 197.098 137.217 197.026 137.254C196.954 137.29 196.898 137.353 196.87 137.429C196.4 139.153 193.852 136.437 192.99 136.299C191.947 136.131 191.559 136.873 190.623 137.049C189.589 137.248 188.899 136.493 187.787 136.696C187.357 136.774 186.954 136.96 186.616 137.236C186.277 137.512 186.014 137.869 185.851 138.274C185.67 138.645 186.226 138.976 186.407 138.601Z" fill="#461EB8"/>
<path d="M14.6361 78.6601C14.9982 75.8967 17.6538 78.7118 18.7273 78.3152C19.9905 77.8539 19.5895 75.8363 21.4778 76.8839C22.0468 77.1986 22.34 77.8194 23.0944 77.5608C23.31 77.4875 23.4436 77.2374 23.6204 77.1296C23.7112 76.9711 23.7918 76.807 23.8618 76.6382C25.1034 75.7027 25.9699 75.8363 26.4485 77.0262C26.6813 77.3711 27.2417 77.0262 27.0089 76.7029C26.1122 75.388 25.2543 74.7198 23.767 75.4354C23.573 75.5302 23.56 75.9182 23.4048 76.0088L21.9261 76.4399C21.7316 76.2324 21.5195 76.042 21.2924 75.8708C20.8613 75.7415 20.7665 75.4914 20.2621 75.5992C19.6671 75.7242 19.5981 76.1985 19.2576 76.5778C19.2317 76.7749 19.1307 76.9545 18.9757 77.0789C18.8207 77.2034 18.6236 77.2633 18.4255 77.246C17.9973 77.634 17.6265 77.6082 17.3133 77.1685C16.908 77.0176 16.7528 76.7373 16.3174 76.6899C15.0241 76.5002 14.1403 77.5133 13.9894 78.6687C13.9377 79.0783 14.5844 79.0783 14.6361 78.6687V78.6601Z" fill="#461EB8"/>
<path d="M21.1847 81.5571C21.7192 79.8974 23.6204 82.1348 24.4826 81.9882C25.3449 81.8417 25.319 81.001 25.9096 80.6389C27.5349 79.643 27.8453 81.5744 29.1645 81.7813C30.0784 81.9236 30.945 81.2769 31.6218 80.7768C31.9538 80.5311 31.6218 79.9707 31.2942 80.2164C30.8317 80.4718 30.3195 80.6241 29.7926 80.6628C29.2657 80.7015 28.7367 80.6257 28.2419 80.4406C28.0048 80.3069 27.8582 79.9103 27.6297 79.7422C27.4289 79.5418 27.1678 79.4129 26.8866 79.3755C26.6054 79.3381 26.3196 79.3943 26.0734 79.5352C25.2888 79.9275 25.6165 80.2681 24.4611 80.4621C23.1031 80.6949 21.2838 79.1128 20.5811 81.3675C20.4561 81.7641 21.0769 81.9365 21.2062 81.5399L21.1847 81.5571Z" fill="#461EB8"/>
<path d="M72.6676 225.017C74.267 223.176 76.6036 226.785 78.5178 226.384C79.1601 226.25 79.2765 225.953 79.7421 225.586C80.9751 224.586 81.6433 224.772 82.9884 225.5C83.8506 225.966 84.743 226.436 85.6957 225.931C86.0147 225.767 86.226 225.31 86.5191 225.172C87.3253 224.784 87.7694 225.246 88.416 225.47C88.9377 225.647 89.067 225.811 89.6533 225.703C90.0844 225.625 89.8904 225 89.4809 225.078C88.5885 225.246 88.0151 224.056 87.1184 224.129C86.5235 224.177 86.5148 224.474 86.0622 224.715C85.1655 225.19 84.7344 225.578 83.7256 225.147C83.2945 224.974 82.9065 224.655 82.4883 224.453C82.0135 224.17 81.4714 224.021 80.919 224.021C80.4764 224.062 80.0617 224.255 79.7464 224.569C78.785 225.397 79.3153 226.22 76.9227 225.341C76.4679 225.09 76.0352 224.802 75.6293 224.478C74.5084 223.81 73.1634 223.457 72.2193 224.539C71.9477 224.853 72.4003 225.315 72.6762 224.996L72.6676 225.017Z" fill="#461EB8"/>
<path d="M83.0704 229.052C84.6612 227.104 85.5794 229.6 86.9159 229.703C87.847 229.777 88.5972 228.72 89.5327 228.777C90.9812 228.863 91.9598 230.316 93.4127 229.371C93.7575 229.147 93.4342 228.587 93.085 228.815C91.8779 229.6 90.4984 228.138 89.2826 228.087C88.3773 228.048 87.9333 228.677 87.0495 228.673C85.4673 228.673 84.0317 226.854 82.6134 228.595C82.3547 228.919 82.8074 229.376 83.0704 229.052Z" fill="#461EB8"/>
<path d="M15.0715 56.4752C17.5573 56.4752 19.5723 54.4602 19.5723 51.9745C19.5723 49.4888 17.5573 47.4737 15.0715 47.4737C12.5858 47.4737 10.5708 49.4888 10.5708 51.9745C10.5708 54.4602 12.5858 56.4752 15.0715 56.4752Z" stroke="#461EB8" stroke-miterlimit="10"/>
<path d="M127.237 166.757C128.19 166.757 128.962 165.985 128.962 165.033C128.962 164.08 128.19 163.308 127.237 163.308C126.285 163.308 125.513 164.08 125.513 165.033C125.513 165.985 126.285 166.757 127.237 166.757Z" stroke="#461EB8" stroke-width="0.5" stroke-miterlimit="10"/>
<path d="M29.6258 202.656C31.2234 202.656 32.5185 201.36 32.5185 199.763C32.5185 198.165 31.2234 196.87 29.6258 196.87C28.0282 196.87 26.733 198.165 26.733 199.763C26.733 201.36 28.0282 202.656 29.6258 202.656Z" stroke="#461EB8" stroke-miterlimit="10"/>
<path d="M227.69 4.26797C228.809 4.26797 229.716 3.3608 229.716 2.24176C229.716 1.12271 228.809 0.215546 227.69 0.215546C226.571 0.215546 225.664 1.12271 225.664 2.24176C225.664 3.3608 226.571 4.26797 227.69 4.26797Z" stroke="#461EB8" stroke-miterlimit="10"/>
<path d="M248.698 52.9488C249.298 52.9488 249.784 52.4624 249.784 51.8624C249.784 51.2624 249.298 50.776 248.698 50.776C248.098 50.776 247.612 51.2624 247.612 51.8624C247.612 52.4624 248.098 52.9488 248.698 52.9488Z" stroke="#461EB8" stroke-miterlimit="10"/>
<path d="M69.0851 52.2461C70.6161 52.2461 71.8572 51.005 71.8572 49.474C71.8572 47.9431 70.6161 46.702 69.0851 46.702C67.5542 46.702 66.3131 47.9431 66.3131 49.474C66.3131 51.005 67.5542 52.2461 69.0851 52.2461Z" fill="#EC615B"/>
<path d="M68.3867 14.8344C69.532 14.8344 70.4604 13.906 70.4604 12.7608C70.4604 11.6156 69.532 10.6872 68.3867 10.6872C67.2415 10.6872 66.3131 11.6156 66.3131 12.7608C66.3131 13.906 67.2415 14.8344 68.3867 14.8344Z" fill="#EC615B"/>
<path d="M182.29 207.437C184.409 207.437 186.127 205.719 186.127 203.6C186.127 201.481 184.409 199.763 182.29 199.763C180.171 199.763 178.453 201.481 178.453 203.6C178.453 205.719 180.171 207.437 182.29 207.437Z" fill="#EC615B"/>
<path d="M151.19 143.654C152.197 143.654 153.013 142.838 153.013 141.83C153.013 140.823 152.197 140.007 151.19 140.007C150.183 140.007 149.366 140.823 149.366 141.83C149.366 142.838 150.183 143.654 151.19 143.654Z" fill="#EC615B"/>
<path d="M49.2197 216.774C50.9816 216.774 52.4099 215.346 52.4099 213.584C52.4099 211.822 50.9816 210.394 49.2197 210.394C47.4578 210.394 46.0294 211.822 46.0294 213.584C46.0294 215.346 47.4578 216.774 49.2197 216.774Z" stroke="#EC615B" stroke-miterlimit="10"/>
<path d="M106.863 195.801C107.035 195.801 107.199 195.733 107.32 195.612C107.442 195.49 107.51 195.326 107.51 195.154C107.51 194.983 107.442 194.818 107.32 194.697C107.199 194.576 107.035 194.508 106.863 194.508C106.692 194.508 106.527 194.576 106.406 194.697C106.285 194.818 106.217 194.983 106.217 195.154C106.217 195.326 106.285 195.49 106.406 195.612C106.527 195.733 106.692 195.801 106.863 195.801Z" fill="#EC615B"/>
<path d="M201.173 171.098C201 170.353 204.221 171.236 204.69 171.098C205.458 170.87 205.79 170.271 206.652 170.064C207.876 169.775 209.139 170.215 210.299 170.547C211.086 170.838 211.943 170.884 212.756 170.68C214.05 170.439 214.8 170.31 216.054 170.68C216.618 170.882 217.217 170.964 217.813 170.922C218.244 170.892 218.244 170.245 217.813 170.275C216.158 170.396 214.921 169.275 213.257 169.62C212.231 169.835 211.532 170.128 210.472 169.913C210.04 169.827 209.609 169.65 209.178 169.551C208.395 169.348 207.581 169.292 206.777 169.387C205.669 169.564 205.053 170.297 203.927 170.193C203.225 170.133 202.496 169.719 201.772 169.762C200.879 169.822 200.332 170.409 200.526 171.249C200.616 171.655 201.242 171.482 201.151 171.077L201.173 171.098Z" fill="#EC615B"/>
<path d="M211.657 173.978C213.317 173.306 214.584 174.194 215.852 175.09C215.925 175.128 216.01 175.137 216.09 175.116C216.17 175.094 216.238 175.044 216.283 174.974C217.21 173.763 218.4 173.582 219.732 174.017C220.055 174.125 220.327 174.336 220.654 174.448C221.413 174.662 222.215 174.662 222.974 174.448C223.379 174.358 223.211 173.733 222.801 173.823C220.396 174.362 218.952 171.668 216.83 173.418C215.58 174.444 215.869 174.004 214.287 173.383C213.851 173.176 213.375 173.065 212.892 173.059C212.409 173.053 211.93 173.152 211.489 173.349C211.11 173.504 211.278 174.129 211.661 173.97L211.657 173.978Z" fill="#EC615B"/>
<path d="M23.698 29.8629C23.4834 31.6926 23.4329 33.538 23.5472 35.3767C23.7239 38.304 24.0041 42.8306 26.9615 46.9477C27.709 47.9932 28.5772 48.9468 29.5482 49.7887C31.7615 50.4422 34.0563 50.779 36.364 50.7889C41.4985 50.7889 45.3009 49.142 48.8662 47.5469C52.3653 45.9747 55.6496 43.9624 58.6394 41.5588C58.5449 40.4082 58.3473 39.2684 58.0488 38.1531C55.9234 30.1603 49.2154 25.6509 46.1761 23.8575C44.9109 25.429 43.4339 26.8174 41.7874 27.9832C40.1276 29.1602 36.7046 31.583 31.8072 31.7468C28.9875 31.8223 26.1956 31.1737 23.698 29.8629Z" fill="white"/>
<path d="M92.8522 24.2197C94.0896 25.2638 95.2295 26.4181 96.258 27.6685C98.071 29.7159 99.4705 32.0948 100.379 34.6741C101.307 37.539 101.529 40.5857 101.026 43.5549C105.695 44.1684 110.155 45.8677 114.048 48.5166C117.941 51.1654 121.159 54.69 123.444 58.8075C124.441 56.983 125.321 55.0967 126.078 53.16C129.915 43.3307 129.807 34.1093 129.031 27.7979C125.364 25.0501 121.194 23.0479 116.757 21.9046C105.514 19.0464 96.1329 22.7453 92.8522 24.2197Z" fill="white"/>
<path d="M114.942 205.096C115.373 206.152 116.046 207.605 116.912 209.295C118.124 211.661 119.982 215.283 122.685 218.585C127.548 224.513 133.407 227.272 135.86 228.406C139.048 229.867 142.415 230.899 145.874 231.475C148.407 229.915 150.789 228.124 152.992 226.125C157.474 222.044 161.166 217.171 163.882 211.752C162.031 211.665 160.207 211.267 158.489 210.575C154.652 209.019 152.479 206.406 150.914 204.483C146.491 199.043 144.922 192.99 144.301 189.395C138.508 189.487 132.821 190.962 127.713 193.695C122.605 196.429 118.223 200.344 114.934 205.113L114.942 205.096Z" fill="white"/>
<path opacity="0.14" d="M142.46 189.334C139.095 190.955 136.331 193.601 134.566 196.892C132.544 200.724 131.898 205.466 133.096 209.183C135.485 216.567 145.814 221.874 157.868 219.641C155.075 224.642 150.918 228.746 145.883 231.475C143.193 231.005 140.558 230.267 138.015 229.272C132.959 227.312 128.356 224.341 124.487 220.542C120.126 216.083 116.959 210.598 115.279 204.591C118.896 199.624 123.671 195.614 129.19 192.913C133.354 190.909 137.853 189.696 142.46 189.334Z" fill="#9E9E9E"/>
<path opacity="0.14" d="M46.0338 24.4094C44.5015 26.4786 43.3069 28.7776 42.4944 31.2209C39.7612 39.5025 42.3737 46.8874 43.4515 49.4999C38.9756 51.094 34.1037 51.1954 29.5654 49.7887C27.0574 47.1378 25.2617 43.8947 24.3457 40.3622C23.4298 36.8296 23.4235 33.1226 24.3275 29.587C26.0715 30.8255 28.078 31.6443 30.1906 31.9796C38.9895 33.3031 45.5941 24.9784 46.0338 24.4094Z" fill="#9E9E9E"/>
<path opacity="0.14" d="M93.4601 24.7542C95.7675 26.6074 97.6631 28.9215 99.0257 31.5485C100.105 33.6598 100.833 35.9327 101.181 38.2781C101.519 40.3253 101.593 42.4072 101.401 44.4732C103.743 44.9154 106.048 45.5307 108.299 46.314C112.269 47.6979 115.723 48.9007 118.848 51.9184C120.855 53.8716 122.422 56.2306 123.444 58.8377C122.898 54.6061 121.886 50.4479 120.426 46.439C116.965 37.1406 111.264 28.8395 103.828 22.2711L93.4601 24.7542Z" fill="#9E9E9E"/>
<path d="M23.3747 29.8629C22.5333 36.9932 24.3776 44.1814 28.548 50.0258C28.7895 50.3621 29.3499 50.0258 29.1085 49.7025C25.006 43.955 23.1965 36.8831 24.0343 29.8715C24.0818 29.4404 23.4351 29.4404 23.3877 29.8715L23.3747 29.8629Z" fill="black"/>
<path d="M24.099 29.8241C27.078 32.4754 31.4666 32.2469 35.1267 31.3761C39.4375 30.3221 43.323 27.9755 46.2623 24.6508C46.5382 24.3404 46.0812 23.8834 45.8053 24.1938C43.2491 27.0837 39.9538 29.2224 36.2735 30.3802C32.5918 31.5183 27.6513 32.1046 24.5517 29.3585C24.2413 29.0826 23.7843 29.5352 24.0947 29.8155L24.099 29.8241Z" fill="black"/>
<path d="M29.4792 50.0862C38.8343 53.5351 50.3147 48.2152 57.8246 42.7573C58.1609 42.5159 57.8246 41.9512 57.5013 42.1969C50.1121 47.5771 38.8601 52.8453 29.6516 49.474C29.2593 49.3317 29.0912 49.9569 29.4792 50.0991V50.0862Z" fill="black"/>
<path d="M46.0166 24.1377C49.3883 25.7439 52.2908 28.1896 54.4453 31.2403C56.5999 34.2909 57.9342 37.8441 58.3204 41.5588C58.3592 41.99 59.0059 41.99 58.9671 41.5588C58.5792 37.732 57.2146 34.069 55.0043 30.9211C52.7939 27.7732 49.8119 25.2459 46.3442 23.5816C45.9692 23.4005 45.6415 23.9567 46.0166 24.1377Z" fill="black"/>
<path d="M115.955 204.596C118.063 199.763 123.767 196.288 128.195 193.818C133.144 191.042 138.601 189.36 144.309 189.718C144.74 189.744 144.74 189.097 144.309 189.071C138.498 188.705 132.907 190.434 127.871 193.262C123.375 195.784 117.525 199.379 115.399 204.285C115.231 204.665 115.792 204.992 115.955 204.613V204.596Z" fill="black"/>
<path d="M144.43 189.951C145.814 199.724 152.798 211.804 163.89 212.058C163.976 212.058 164.058 212.024 164.119 211.963C164.18 211.903 164.214 211.82 164.214 211.735C164.214 211.649 164.18 211.567 164.119 211.506C164.058 211.445 163.976 211.411 163.89 211.411C153.104 211.161 146.396 199.25 145.055 189.765C144.995 189.356 144.374 189.528 144.43 189.938V189.951Z" fill="black"/>
<path d="M115.403 206.074C119.602 219.564 131.786 229.716 145.801 231.449C146.211 231.501 146.206 230.855 145.801 230.803C132.079 229.104 120.133 219.081 116.029 205.902C115.904 205.505 115.278 205.673 115.403 206.074Z" fill="black"/>
<path d="M146.051 231.755C153.388 227.204 159.374 220.772 163.386 213.127C163.58 212.756 163.024 212.429 162.83 212.8C158.872 220.348 152.965 226.7 145.723 231.195C145.374 231.415 145.698 231.975 146.051 231.755Z" fill="black"/>
<path d="M93.7747 25.901C96.4097 27.9349 98.4458 30.6434 99.6676 33.7397C100.889 36.836 101.252 40.205 100.716 43.4902C100.647 43.8955 101.272 44.0722 101.336 43.6627C101.904 40.2404 101.53 36.7284 100.256 33.502C98.9818 30.2756 96.8548 27.4561 94.1024 25.3448C93.7704 25.0905 93.4471 25.6509 93.7747 25.901Z" fill="black"/>
<path d="M96.2407 23.9351C107.45 21.4304 120.478 20.8312 129.311 29.5007C129.609 29.7939 130.066 29.3369 129.768 29.0438C120.771 20.2104 107.519 20.7708 96.0683 23.31C95.6631 23.4006 95.8355 24.0257 96.2407 23.9351Z" fill="black"/>
<path d="M102.802 45.2362C110.95 47.0728 120.154 50.2371 123.12 58.9153C123.139 58.9753 123.174 59.0286 123.222 59.0691C123.27 59.1096 123.329 59.1354 123.391 59.1436C123.453 59.1518 123.516 59.1419 123.573 59.1152C123.63 59.0885 123.678 59.0461 123.711 58.9929C128.975 49.9095 129.212 39.2309 129.285 29.0179C129.285 28.9322 129.251 28.8499 129.191 28.7893C129.13 28.7286 129.048 28.6946 128.962 28.6946C128.876 28.6946 128.794 28.7286 128.733 28.7893C128.673 28.8499 128.639 28.9322 128.639 29.0179C128.565 39.1188 128.358 49.6853 123.151 58.6653L123.741 58.7429C120.698 49.8275 111.368 46.5037 102.975 44.6111C102.569 44.5206 102.397 45.1457 102.802 45.2362Z" fill="black"/>
<path d="M134.252 213.097C136.35 211.83 138.273 210.293 139.972 208.527C140.261 208.226 139.804 207.769 139.515 208.07C137.85 209.798 135.966 211.301 133.911 212.541C133.553 212.756 133.881 213.317 134.234 213.097H134.252Z" fill="#EC615B"/>
<path d="M135.394 208.734C136.44 210.712 137.819 212.495 139.472 214.002C139.778 214.283 140.24 213.826 139.929 213.545C138.318 212.075 136.971 210.338 135.95 208.411C135.756 208.04 135.2 208.368 135.394 208.734Z" fill="#EC615B"/>
<path d="M109.247 34.6697C112.142 34.8789 114.837 36.224 116.744 38.4117C117.02 38.7221 117.477 38.2652 117.201 37.9548C115.171 35.6481 112.313 34.2353 109.247 34.0231C108.816 33.9886 108.838 34.6352 109.247 34.6697Z" fill="#EC615B"/>
<path d="M113.442 31.2553L112.58 37.8427C112.524 38.2738 113.175 38.2479 113.226 37.8427L114.089 31.2553C114.14 30.8458 113.494 30.8501 113.442 31.2553Z" fill="#EC615B"/>
<path d="M37.2866 40.313C39.5643 39.432 41.7733 38.3829 43.8955 37.1745C43.9323 37.153 43.9645 37.1244 43.9902 37.0905C44.016 37.0565 44.0348 37.0178 44.0456 36.9766C44.0564 36.9353 44.059 36.8924 44.0532 36.8501C44.0474 36.8079 44.0334 36.7672 44.0119 36.7304C43.9904 36.6936 43.9618 36.6614 43.9279 36.6357C43.8939 36.6099 43.8552 36.5911 43.814 36.5803C43.7727 36.5695 43.7298 36.5669 43.6875 36.5727C43.6453 36.5785 43.6046 36.5925 43.5678 36.614C41.4922 37.799 39.3306 38.8265 37.1012 39.6878C36.7175 39.8387 36.8813 40.4638 37.2693 40.313H37.2866Z" fill="#EC615B"/>
<path d="M39.2008 35.0664L43.4472 41.3045C43.68 41.6451 44.2404 41.3045 44.0076 40.9769L39.7569 34.7387C39.5241 34.3981 38.9637 34.7387 39.2008 35.0664Z" fill="#EC615B"/>
<path d="M60.0836 119.538C55.9322 125.392 52.4188 131.673 49.6033 138.274C43.8312 151.959 41.0828 166.729 41.5459 181.574C44.7159 185.588 48.8759 188.708 53.617 190.628C66.5502 195.754 78.5264 189.287 80.3457 188.265C80.7908 183.795 81.4772 179.353 82.4021 174.957C85.9156 158.062 90.7441 152.513 91.1191 141.498C91.2743 136.877 90.688 130.087 86.877 121.667L60.0836 119.538Z" fill="#461EB8"/>
<path d="M60.6397 93.5032C60.2163 92.1571 60.0239 90.749 60.0706 89.3387C60.1623 87.2049 60.7735 85.1257 61.8511 83.2816C64.83 78.2592 70.4172 77.1513 71.176 77.0133C74.912 76.3912 78.7434 77.2478 81.8588 79.4016C83.6869 78.3497 85.6863 77.6288 87.765 77.272C89.9421 76.9055 91.8735 76.5822 93.0332 77.7031C94.3524 78.9964 93.8954 81.3675 93.7402 82.1219C93.4384 83.6481 92.6323 85.5191 89.0713 88.7696C86.0535 91.5417 83.2384 94.0938 78.5264 95.7019C76.6338 96.3485 74.0859 96.5641 68.9946 97.0469C67.0416 97.2237 65.4896 97.3056 63.8212 96.4951C62.4977 95.8208 61.394 94.7829 60.6397 93.5032Z" fill="#EC615B"/>
<path d="M73.4998 95.9303C74.3376 96.8379 75.0311 97.8688 75.5561 98.9869C76.4701 100.961 76.3709 102.328 76.69 104.699C77.0744 107.926 77.834 111.098 78.9533 114.149C79.8758 116.529 80.3587 117.74 81.5399 118.831C83.9498 121.025 87.0969 121.055 88.1057 121.068C89.5154 121.068 91.3865 121.098 93.0678 119.857C94.6241 118.701 95.1371 117.111 95.7622 115.171C96.3873 113.231 97.0081 111.291 96.2925 108.885C95.7383 107.139 94.6495 105.612 93.1799 104.518C91.7441 103.413 90.0256 102.736 88.2221 102.565C86.1557 101.289 84.0547 99.931 81.9193 98.4911C80.626 97.6289 79.3657 96.7566 78.1385 95.8743L73.4998 95.9303Z" fill="black"/>
<path d="M61.5106 95.1802C61.6011 95.8614 61.7304 96.8659 61.8554 98.0773C62.2262 101.625 62.7996 107.083 62.3469 113.282C61.9958 117.954 61.1165 122.57 59.7258 127.043C63.232 128.843 67.2325 129.441 71.1117 128.745C74.9909 128.048 78.5337 126.096 81.195 123.189L80.6777 117.533C80.0022 116.459 79.4251 115.327 78.9532 114.149C77.3581 110.079 77.8323 107.54 76.9399 103.453C76.4173 101.093 75.5837 98.8127 74.4611 96.6719C70.0891 97.5499 65.5517 97.028 61.4933 95.1802H61.5106Z" fill="white"/>
<path d="M78.6256 95.5553C78.9114 96.685 79.304 97.785 79.7982 98.8403C80.7251 100.828 81.3373 102.138 82.6694 102.906C84.6439 104.048 86.9805 103.289 87.7048 103.022H89.33C89.0426 101.872 88.7049 100.698 88.3169 99.4999C87.5084 96.9272 86.5541 94.4026 85.4587 91.9383L78.6256 95.5553Z" fill="white"/>
<path opacity="0.17" d="M72.6849 97.8617C71.6269 99.7839 70.7605 101.805 70.0982 103.897C68.6799 108.424 68.8566 111.317 68.4169 113.89C67.8651 117.124 66.0415 121.65 60.1181 126.703C60.9038 123.701 61.4999 120.653 61.9029 117.576C62.2644 114.791 62.4688 111.987 62.515 109.178C62.5621 106.345 62.4498 103.511 62.1788 100.69L72.6849 97.8617Z" fill="#9E9E9E"/>
<path d="M61.4933 95.7148C61.627 96.577 61.8167 97.8057 62.015 99.3059C63.2221 108.523 62.6789 111.808 63.6963 112.17C64.7137 112.532 67.2659 109.877 73.8446 96.7882C69.6993 97.3699 65.4761 97.0029 61.4933 95.7148Z" fill="black"/>
<path d="M85.6527 93.7231C87.0723 96.7382 88.1998 99.8824 89.0196 103.113L89.4163 102.712C88.7305 102.59 88.0346 102.535 87.3383 102.548C87.2526 102.548 87.1703 102.582 87.1097 102.643C87.049 102.703 87.015 102.785 87.015 102.871C87.015 102.957 87.049 103.039 87.1097 103.1C87.1703 103.16 87.2526 103.195 87.3383 103.195C87.977 103.151 88.6186 103.199 89.2438 103.337C89.2986 103.35 89.3559 103.349 89.4103 103.334C89.4646 103.319 89.5141 103.29 89.554 103.25C89.5939 103.211 89.6228 103.161 89.638 103.107C89.6531 103.052 89.6539 102.995 89.6404 102.94C88.8055 99.6592 87.6578 96.4659 86.2131 93.4041C86.0364 93.0247 85.4759 93.3523 85.6527 93.7274V93.7231Z" fill="black"/>
<path d="M78.2161 95.7838C79.1516 98.0988 79.8931 101.246 81.9796 102.828C82.8201 103.447 83.8167 103.819 84.8572 103.902C85.8976 103.985 86.9406 103.776 87.8686 103.298C88.2437 103.117 87.916 102.556 87.5453 102.738C86.53 103.257 85.3645 103.403 84.2526 103.15C83.1407 102.897 82.1531 102.261 81.4623 101.354C80.2078 99.7112 79.6085 97.5125 78.8412 95.6113C78.686 95.232 78.0609 95.3958 78.2161 95.7838Z" fill="black"/>
<path d="M89.774 103.268C97.202 105.139 98.1763 114.076 93.4514 119.18C93.1668 119.482 93.6238 119.943 93.9084 119.637C98.9609 114.179 97.8444 104.634 89.9465 102.643C89.9054 102.631 89.8625 102.628 89.8203 102.634C89.778 102.639 89.7372 102.652 89.7002 102.673C89.6632 102.694 89.6306 102.722 89.6045 102.756C89.5783 102.79 89.559 102.828 89.5477 102.869C89.5364 102.91 89.5332 102.953 89.5385 102.995C89.5437 103.037 89.5572 103.078 89.5783 103.115C89.5993 103.152 89.6274 103.185 89.661 103.211C89.6946 103.237 89.733 103.256 89.774 103.268Z" fill="black"/>
<path d="M74.53 97.7798C78.6126 104.734 75.8233 114.791 82.6823 120.275C83.0013 120.534 83.4626 120.081 83.1392 119.818C76.401 114.416 79.1343 104.341 75.0861 97.4522C75.0401 97.3839 74.9698 97.3357 74.8894 97.3175C74.8091 97.2994 74.7249 97.3125 74.6539 97.3543C74.583 97.3961 74.5306 97.4634 74.5076 97.5425C74.4846 97.6216 74.4926 97.7064 74.53 97.7798Z" fill="black"/>
<path d="M61.1829 95.7838C62.8757 106.045 62.4088 116.546 59.812 126.617C59.8006 126.658 59.7975 126.701 59.8028 126.743C59.808 126.785 59.8215 126.826 59.8425 126.863C59.8636 126.9 59.8917 126.932 59.9253 126.959C59.9588 126.985 59.9973 127.004 60.0383 127.015C60.0793 127.027 60.1222 127.03 60.1645 127.025C60.2067 127.019 60.2475 127.006 60.2846 126.985C60.3216 126.964 60.3541 126.936 60.3803 126.902C60.4065 126.869 60.4258 126.83 60.4371 126.789C63.0582 116.606 63.5237 105.989 61.8037 95.6156C61.7347 95.2061 61.1139 95.3785 61.1829 95.7838Z" fill="black"/>
<path d="M59.9241 93.3566C60.8768 95.9433 63.4678 96.8745 66.0027 97.2366C69.7496 97.7349 73.5594 97.4411 77.1857 96.3744C84.2217 94.2821 90.14 89.4833 93.6411 83.0316C93.8437 82.6694 93.2876 82.3418 93.085 82.7082C90.8272 86.9325 87.4747 90.4718 83.3789 92.9551C79.2831 95.4384 74.5947 96.7742 69.8051 96.8227C66.6839 96.8572 61.8554 96.6848 60.5621 93.1971C60.4199 92.8134 59.7947 92.9772 59.9413 93.3695L59.9241 93.3566Z" fill="black"/>
<path d="M60.9501 93.417C60.028 90.2586 60.3741 86.8651 61.9151 83.958C63.456 81.0509 66.0701 78.8594 69.2015 77.8496C75.5043 75.7501 82.1348 78.5437 85.8854 83.8119C86.1268 84.1481 86.6873 83.8119 86.4459 83.4842C82.3848 77.785 75.1336 74.8621 68.4083 77.4487C65.2733 78.6233 62.6982 80.9394 61.1991 83.9328C59.7 86.9261 59.3878 90.3755 60.325 93.5894C60.4457 93.986 61.0708 93.8179 60.9501 93.417Z" fill="black"/>
<path d="M82.941 79.5654C84.6187 78.5484 86.4638 77.8375 88.3902 77.4659C89.6361 77.2331 91.6278 76.8667 92.7013 77.8238C94.1713 79.1171 93.7704 81.4709 92.9772 82.9626C92.7789 83.329 93.335 83.6567 93.5333 83.2859C94.624 81.2468 94.7921 77.6427 92.0934 76.7072C89.2179 75.7113 85.0275 77.5694 82.609 79.0093C82.5407 79.0554 82.4926 79.1257 82.4744 79.206C82.4562 79.2864 82.4694 79.3706 82.5112 79.4415C82.553 79.5125 82.6203 79.5648 82.6994 79.5878C82.7784 79.6109 82.8633 79.6029 82.9367 79.5654H82.941Z" fill="black"/>
<path d="M82.8332 95.1716C83.1542 95.6776 83.3576 96.2492 83.4281 96.8443L84.0317 96.6805C83.5943 96.0912 83.3059 95.4049 83.191 94.6801C83.122 94.249 82.5012 94.443 82.5659 94.8483C82.6931 95.6282 83.0033 96.3669 83.4712 97.0038C83.635 97.228 84.1179 97.1978 84.0748 96.84C83.9976 96.1312 83.7651 95.4482 83.3936 94.8396C83.1737 94.4861 82.6133 94.8095 82.8332 95.1673V95.1716Z" fill="black"/>
<path d="M74.9181 99.8233C73.0255 99.2542 71.5899 101.341 71.5382 103.035C71.5168 103.489 71.5935 103.943 71.763 104.365C71.9325 104.787 72.1908 105.167 72.5205 105.481C72.8501 105.794 73.2434 106.033 73.6734 106.18C74.1035 106.328 74.5603 106.382 75.0129 106.337C75.4225 106.29 75.444 105.643 75.0129 105.691C70.9648 106.122 71.8486 99.5732 74.7457 100.444C74.8252 100.459 74.9075 100.444 74.9763 100.401C75.045 100.358 75.0951 100.291 75.1168 100.213C75.1385 100.135 75.1301 100.051 75.0933 99.9793C75.0565 99.9072 74.994 99.8515 74.9181 99.8233Z" fill="black"/>
<path d="M82.6435 120.206C85.7173 121.577 91.4726 122.387 94.042 119.503C94.318 119.193 93.861 118.736 93.5808 119.046C91.2269 121.693 85.7604 120.892 82.9712 119.65C82.5961 119.482 82.2641 120.038 82.6435 120.206Z" fill="black"/>
<path d="M83.1436 97.8143C83.3236 97.5817 83.5655 97.4046 83.8415 97.3032C84.1175 97.2018 84.4165 97.1802 84.7042 97.2409C85.1095 97.3271 85.2819 96.7063 84.8767 96.6158C84.4788 96.5243 84.0633 96.5452 83.6766 96.6761C83.2898 96.8071 82.9471 97.0429 82.6866 97.3573C82.428 97.6763 82.8806 98.1376 83.1436 97.8143Z" fill="black"/>
<path d="M80.3543 117.447C80.205 118.506 80.1631 119.578 80.2293 120.646C80.2552 121.077 80.9019 121.077 80.876 120.646C80.8081 119.639 80.8413 118.628 80.9752 117.628C81.0312 117.223 80.4104 117.046 80.3543 117.456V117.447Z" fill="black"/>
<path d="M79.6128 125.569C80.8422 124.206 82.3568 123.13 84.0489 122.418C86.8986 121.236 89.6835 121.4 92.8737 122.043C98.8532 123.25 102.962 125.491 106.191 127.082C111.378 129.649 116.743 131.839 122.245 133.635C125.638 131.85 129.238 129.781 132.963 127.375C135.881 125.491 138.567 123.595 141.046 121.732C141.408 119.648 142.463 117.748 144.041 116.339C145.618 114.931 147.626 114.097 149.737 113.972C153.34 115.887 157.349 116.91 161.429 116.956C160.998 119.21 160.816 120.719 161.075 120.792C161.334 120.866 161.851 120.038 161.683 119.745C161.325 119.111 157.26 120.491 146.84 125.41C142.615 129.958 138.916 133.678 136.062 136.472C130.85 141.559 128.25 143.952 124.853 146.387C122.762 147.892 120.935 149.03 119.637 149.802C118.478 149.961 117.31 150.039 116.141 150.035C112.684 149.989 109.267 149.28 106.079 147.944C102.074 146.4 96.2579 144.615 87.3512 142.408L79.6128 125.569Z" fill="white"/>
<path opacity="0.24" d="M78.9532 124.202C80.3673 125.379 82.553 127.168 85.2776 129.264C100.435 140.929 108.286 146.818 115.886 145.422C117.645 145.098 120.948 142.253 127.548 136.567C140.05 125.789 143.499 120.827 151.289 118.723C154.528 117.871 157.899 117.631 161.226 118.016C161.817 119.387 161.657 120.193 161.433 120.654C160.23 123.241 154.583 121.305 148.995 124.133C147.931 124.668 147.426 125.099 143.525 128.94C136.291 136.023 134.183 138.338 131.751 140.619C128.017 144.113 123.936 147.217 119.572 149.884C116.555 149.715 113.369 149.396 110.01 148.875C101.892 147.609 93.9636 145.336 86.4071 142.111L78.9532 124.202Z" fill="#9E9E9E"/>
<path d="M81.8115 124.086C87.8686 119.59 95.3095 122.957 101.423 125.47L121.353 133.661C121.736 133.816 121.905 133.191 121.525 133.036C114.106 129.984 106.695 126.901 99.2585 123.883C93.6023 121.586 86.8943 119.508 81.4839 123.526C81.1562 123.771 81.4839 124.332 81.8115 124.082V124.086Z" fill="black"/>
<path d="M119.909 135.411C125.487 132.049 131.212 128.919 136.787 125.552C138.658 124.422 140.516 123.12 141.779 121.301C142.447 120.344 142.796 119.262 143.301 118.223C143.693 117.348 144.276 116.571 145.007 115.949C145.738 115.328 146.598 114.878 147.525 114.632C147.6 114.603 147.661 114.548 147.697 114.476C147.733 114.405 147.742 114.323 147.721 114.246C147.7 114.169 147.651 114.102 147.584 114.059C147.517 114.015 147.436 113.998 147.357 114.011C146.397 114.259 145.5 114.707 144.726 115.327C143.951 115.947 143.317 116.724 142.865 117.606C142.081 119.133 141.654 120.598 140.481 121.896C139.464 122.969 138.303 123.896 137.032 124.651C131.337 128.229 125.358 131.38 119.594 134.851C119.52 134.894 119.466 134.965 119.444 135.049C119.422 135.132 119.434 135.221 119.477 135.295C119.521 135.369 119.592 135.423 119.675 135.445C119.759 135.467 119.847 135.455 119.922 135.411H119.909Z" fill="black"/>
<path d="M86.3251 142.425C92.453 144.619 98.6893 146.497 105.009 148.051C108.036 148.799 111.081 149.465 114.145 150.052C116.378 150.483 118.594 150.836 120.689 149.737C123 148.521 125.103 146.659 127.117 145.016C129.501 143.068 131.799 141.016 134.014 138.899C138.489 134.653 142.701 130.139 146.913 125.629C147.193 125.323 146.736 124.866 146.452 125.172C138.744 133.433 130.932 142.042 121.534 148.452C118.546 150.483 115.61 149.72 112.308 149.047C109.385 148.449 106.478 147.783 103.587 147.047C97.8056 145.577 92.102 143.818 86.4803 141.813C86.088 141.675 85.9199 142.296 86.3122 142.438L86.3251 142.425Z" fill="black"/>
<path d="M151.811 115.072C153.461 115.876 155.215 116.449 157.023 116.774C157.719 116.895 158.421 116.977 159.127 117.02C160.2 117.085 160.347 116.818 160.98 117.917C161.567 118.943 161.476 119.465 161.148 120.568C161.134 120.648 161.149 120.73 161.192 120.799C161.235 120.868 161.302 120.918 161.38 120.939C161.458 120.961 161.541 120.953 161.613 120.916C161.685 120.879 161.741 120.817 161.769 120.741C162.153 119.447 162.632 117.102 161.088 116.43C160.661 116.357 160.226 116.343 159.795 116.386C158.921 116.359 158.05 116.276 157.187 116.136C155.433 115.823 153.73 115.272 152.125 114.498C151.75 114.321 151.423 114.878 151.802 115.054L151.811 115.072Z" fill="black"/>
<path d="M147.116 125.586C148.965 123 154.302 124.84 156.975 124.448C159.208 124.121 160.424 122.965 161.355 120.973C161.532 120.598 160.976 120.271 160.799 120.65C158.941 124.599 155.324 123.832 151.647 123.668C149.81 123.595 147.715 123.616 146.56 125.246C146.318 125.586 146.879 125.91 147.116 125.569V125.586Z" fill="black"/>
<path d="M0.396576 82.9971C0.659552 83.6782 13.0238 172.87 13.0238 172.87L91.0243 217.356C89.067 186.046 87.1112 154.734 85.1569 123.418L0.396576 82.9971Z" fill="white" stroke="black" stroke-miterlimit="10"/>
<path opacity="0.18" d="M35.4112 99.6896C33.5004 105.919 32.361 112.359 32.0184 118.865C29.3024 171.555 81.07 210.183 91.0243 217.356L12.9936 172.866C8.80607 142.913 4.60707 112.956 0.396576 82.9971L35.4112 99.6896Z" fill="#9E9E9E"/>
<path d="M146.53 10.6915C148.051 15.701 149.44 20.9778 150.634 26.5089C156.937 55.7165 155.76 82.1866 152.388 103.246L233.243 109.687L235.584 15.3647L146.53 10.6915Z" fill="white" stroke="black" stroke-miterlimit="10"/>
<path opacity="0.18" d="M193.456 59.7689C193.12 54.6739 193.375 49.5571 194.215 44.5206C195.611 36.1657 196.409 31.3804 200.44 28.0695C205.41 23.9869 213.804 23.3661 219.779 27.2633C226.677 31.777 224.991 43.2747 224.616 52.2461C224.039 65.9252 225.25 85.2388 233.238 109.7L213.89 105.699C213.632 104.803 213.364 103.91 213.084 103.013C208.376 87.8343 201.782 73.306 193.456 59.7689Z" fill="#9E9E9E"/>
<path d="M175.979 61.7261C175.608 62.196 175.082 62.8815 174.496 63.7394C174.065 64.3516 172.228 67.059 171.344 69.4387C170.435 71.8874 170.517 74.0817 170.792 77.0176C171.31 82.4033 172.174 87.7501 173.379 93.0246C171.171 94.7288 169.055 96.5477 167.037 98.4738C164.649 100.75 164.399 101.267 162.071 103.358C159.114 106.01 157.639 107.337 155.277 108.553C153.643 109.394 152.772 109.584 150.936 110.791C148.327 112.515 147.694 113.696 147.426 114.339C146.844 115.761 146.793 117.624 147.426 117.93C148.06 118.236 149.509 116.805 150.358 115.929C150.815 115.462 151.236 114.961 151.617 114.429C153.139 115.666 155.024 116.373 156.984 116.442C158.418 116.485 159.841 116.181 161.131 115.554C161.389 114.495 161.799 113.479 162.347 112.537C163.696 110.209 165.442 109.135 168.732 106.932C173.069 104.052 175.229 102.47 175.742 102.095C179.514 99.3231 180.734 98.0772 181.618 96.3183C182.299 94.9732 182.519 93.8394 182.82 92.2702C183.272 89.5437 183.369 86.7702 183.109 84.0188C182.652 79.449 180.423 71.37 175.979 61.7261Z" fill="white"/>
<path d="M150.444 123.431C150.979 122.799 151.453 122.118 151.858 121.396C152.871 119.74 152.897 119.202 153.824 117.999C154.307 117.378 154.936 116.563 155.298 116.705C155.781 116.887 155.531 118.624 155.449 119.158C155.811 117.701 157.299 117.055 158.252 117.481C159.058 117.844 159.545 119.021 159.157 120.172C160.118 119.74 160.429 119.947 160.532 120.038C161.041 120.495 160.334 122.047 159.873 122.814C159.455 123.554 158.874 124.19 158.174 124.672C157.411 125.181 156.669 125.366 152.177 125.414C149.983 125.435 149.159 125.414 149.052 125.056C148.944 124.698 149.556 124.44 150.444 123.431Z" fill="white"/>
<path opacity="0.2" d="M178.225 66.8994C178.354 68.6885 178.531 71.3442 178.695 74.5646C179.001 80.5484 179.156 83.5402 179.009 84.9629C178.802 86.9934 177.815 94.0765 172.689 99.4827C169.672 102.669 167.874 102.462 163.153 107.243C161.504 108.9 159.994 110.691 158.639 112.597C157.775 113.816 156.976 115.081 156.247 116.386C156.922 116.85 157.736 117.07 158.553 117.007C159.06 116.954 159.551 116.799 159.996 116.55C160.441 116.301 160.83 115.963 161.14 115.559C161.629 113.903 162.431 112.356 163.502 111.002C164.912 109.23 166.193 108.583 169.822 106.212C173.06 104.091 174.681 103.026 176.186 101.798C178.733 99.7025 180.842 97.9738 182.109 95.2233C183.342 92.5375 183.264 89.981 183.001 87.2909C182.264 79.7508 180.212 72.5039 178.225 66.8994Z" fill="#9E9E9E"/>
<path opacity="0.22" d="M151.272 125.401C152.255 125.18 153.183 124.762 154.001 124.172C157.212 121.823 157.402 117.4 158.251 117.473C158.536 117.499 158.877 118.029 159.157 120.163C159.885 119.87 160.342 119.827 160.532 120.029C160.94 120.469 160.117 122.05 158.062 124.772L151.272 125.401Z" fill="#9E9E9E"/>
<path d="M174.267 63.4937C166.606 71.6848 172.487 83.5058 173.073 93.0074C173.099 93.4385 173.745 93.4385 173.72 93.0074C173.146 83.7127 167.253 71.9564 174.724 63.9507C175.009 63.6489 174.552 63.1876 174.267 63.4937Z" fill="black"/>
<path d="M174.19 92.9945C170.409 93.7705 167.072 97.9522 164.468 100.552C160.963 104.048 157.475 107.126 153.001 109.325C150.095 110.752 146.448 113.007 146.827 116.792C147.258 121.202 150.88 115.822 151.867 114.636C152.134 114.317 151.677 113.86 151.41 114.179C150.828 114.873 148.625 118.46 147.56 117.249C146.814 116.386 147.952 114.158 148.422 113.442C149.019 112.606 149.771 111.893 150.638 111.342C153.298 109.558 156.303 108.532 158.868 106.553C161.312 104.669 163.464 102.449 165.645 100.276C167.973 97.9608 171.034 94.2921 174.353 93.6153C174.763 93.529 174.591 92.9082 174.181 92.9902L174.19 92.9945Z" fill="black"/>
<path d="M182.579 86.9503C182.747 90.5113 182.794 94.3093 180.626 97.34C178.63 100.125 175.453 101.931 172.676 103.845C168.145 106.971 162.33 109.721 160.825 115.485C160.814 115.526 160.811 115.569 160.816 115.612C160.821 115.654 160.835 115.695 160.856 115.732C160.877 115.769 160.905 115.801 160.938 115.827C160.972 115.854 161.01 115.873 161.051 115.884C161.093 115.895 161.135 115.899 161.178 115.893C161.22 115.888 161.261 115.875 161.298 115.854C161.335 115.833 161.367 115.804 161.393 115.771C161.42 115.737 161.439 115.699 161.45 115.658C162.472 111.7 165.412 109.657 168.611 107.467C171.525 105.453 174.517 103.518 177.354 101.392C179.359 99.8922 181.234 98.1678 182.238 95.8355C183.45 93.0591 183.364 89.9422 183.226 86.9848C183.226 86.5537 182.557 86.5537 182.579 86.9848V86.9503Z" fill="black"/>
<path d="M149.164 124.922C150.272 124.17 151.196 123.177 151.867 122.017C152.475 121.034 153.94 117.162 155.216 117.089C155.648 117.068 155.648 116.421 155.216 116.442C154.035 116.511 153.19 118.322 152.694 119.202C151.612 121.103 150.733 123.125 148.84 124.375C148.491 124.603 148.814 125.159 149.164 124.931V124.922Z" fill="black"/>
<path d="M155.022 116.861C155.557 117.723 154.471 119.822 154.139 120.555C153.734 121.451 153.264 122.315 152.733 123.142C152.509 123.495 153.069 123.819 153.294 123.47C154.081 122.237 154.735 120.925 155.247 119.555C155.583 118.632 156.165 117.464 155.579 116.537C155.359 116.184 154.798 116.507 155.022 116.861Z" fill="black"/>
<path d="M155.324 119.792C156.236 118.694 157.4 117.833 158.717 117.283L158.286 117.167C159.372 119.051 157.626 121.814 156.531 123.396C156.294 123.737 156.855 124.06 157.092 123.72C158.333 121.93 160.088 118.977 158.846 116.822C158.801 116.753 158.732 116.703 158.653 116.682C158.573 116.66 158.489 116.669 158.415 116.705C157.047 117.279 155.839 118.175 154.893 119.318C154.626 119.633 155.078 120.094 155.35 119.775L155.324 119.792Z" fill="black"/>
<path d="M157.941 117.387C157.149 119.569 156.104 121.651 154.828 123.59C154.596 123.935 155.156 124.263 155.385 123.914C156.695 121.927 157.769 119.795 158.583 117.559C158.726 117.167 158.105 116.999 157.963 117.387H157.941Z" fill="black"/>
<path d="M159.385 120.391C160.248 120.357 160.523 120.21 160.222 119.96C160.17 120.176 160.11 120.391 160.049 120.594C159.895 121.09 159.707 121.574 159.484 122.043C159.072 122.906 158.555 123.715 157.945 124.452C157.682 124.772 158.139 125.228 158.402 124.909C159.446 123.638 160.67 121.827 160.847 120.133C160.976 118.904 159.476 119.495 158.928 119.952C158.605 120.219 159.066 120.676 159.385 120.409V120.391Z" fill="black"/>
<path d="M148.965 125.358C151.699 126.388 155.268 125.474 158.062 125.103C158.467 125.052 158.493 124.401 158.062 124.457C155.329 124.819 151.798 125.75 149.138 124.733C148.746 124.586 148.577 125.211 148.965 125.358Z" fill="black"/>
<path d="M172.603 62.4461C173.237 64.1921 174.22 67.0245 175.19 70.5898C177.427 78.7119 176.88 80.5053 179.048 83.9067C180.945 86.8814 181.635 85.9286 186.558 91.4339C189.645 94.8828 191.3 96.8314 192.473 99.6249C193.131 101.227 193.583 102.906 193.818 104.621L220.047 107.35C217.293 95.2593 212.748 83.6478 206.562 72.9005C203.566 67.7076 200.194 62.7409 196.474 58.0402C193.197 57.1478 185.006 55.4535 177.022 59.506C175.442 60.3152 173.96 61.3016 172.603 62.4461Z" fill="#EC615B"/>
<path d="M193.65 62.7565C194.172 61.9046 194.804 61.1248 195.529 60.4372C196.564 59.4586 198.008 58.0963 200.155 57.8721C202.651 57.6134 204.557 59.0576 205.225 59.562C206.592 60.601 207.277 61.7779 208.148 63.3687C211.166 68.9128 212.093 71.2623 212.093 71.2623C214.002 76.1166 214.959 78.5481 216.404 83.1868C217.658 87.2177 219.141 92.4686 220.529 98.7412C220.173 99.8197 219.569 100.8 218.766 101.604C217.789 102.526 216.586 103.174 215.279 103.483C203.983 106.501 189.291 106.109 189.291 106.109C187.696 106.066 185.411 105.992 182.609 105.85C181.723 106.106 180.793 106.17 179.88 106.04C178.328 105.807 177.781 105.104 176.164 104.41C174.636 103.767 172.993 103.444 171.336 103.462C168.775 103.526 166.731 104.57 166.27 103.854C166.171 103.68 166.128 103.48 166.145 103.281C166.187 103.067 166.276 102.865 166.407 102.69C166.537 102.515 166.706 102.372 166.899 102.272C167.035 102.04 167.189 101.819 167.361 101.612C167.558 101.37 167.779 101.148 168.02 100.948C168.077 100.654 168.162 100.365 168.275 100.086C168.496 99.5612 168.807 99.0784 169.193 98.6593C170.025 97.8186 171.478 97.9135 173.211 98.0471C174.542 98.154 175.856 98.41 177.13 98.8102C177.203 97.9911 177.406 97.5168 177.742 97.3875C178.498 97.1001 179.923 98.5371 182.018 101.699C184.434 101.483 186.83 101.091 189.188 100.526C191.826 99.8883 194.413 99.0539 196.926 98.0299C199.746 96.8788 200.552 96.2666 203.082 95.4863C204.663 95.0002 206.281 94.6427 207.919 94.4172C206.592 91.0502 205.432 88.2437 204.561 86.1744C200.901 77.4918 197.892 71.258 197.077 69.581C195.685 66.7357 194.49 64.3818 193.65 62.7565Z" fill="white"/>
<path opacity="0.21" d="M202.013 57.7816C203.349 59.2514 204.581 60.8129 205.699 62.4548C212.032 71.7538 212.804 80.9149 213.308 87.9635C213.869 95.7752 212.688 97.4867 212.015 98.2497C210.506 99.9526 209.075 99.7155 200.918 101C195.909 101.793 187.054 103.367 182.562 103.384C181.102 103.382 179.644 103.299 178.195 103.134C177.104 102.996 176.5 102.832 175.979 102.785C173.398 102.551 170.797 102.778 168.296 103.458C170.774 103.019 173.323 103.224 175.698 104.052C177.111 104.552 178.435 105.272 179.622 106.186L182.954 105.704C188.442 105.997 193.089 105.988 196.624 105.893C205.535 105.66 208.911 104.872 210.42 104.471C213.257 103.731 216.01 102.698 218.633 101.388L220.391 98.5213C220.206 97.6807 219.913 96.3658 219.529 94.8009C217.7 87.0153 215.291 79.3777 212.321 71.9521C208.872 63.4248 208.838 65.8476 206.755 61.3511C206.39 60.5017 205.837 59.7458 205.139 59.1395C204.24 58.4113 203.159 57.9418 202.013 57.7816Z" fill="#9E9E9E"/>
<path d="M193.37 62.9204C198.599 73.0724 203.314 83.481 207.497 94.1068C207.648 94.4905 208.273 94.3223 208.122 93.9343C203.919 83.2547 199.183 72.7928 193.93 62.5884C193.736 62.2177 193.18 62.541 193.37 62.9117V62.9204Z" fill="black"/>
<path d="M209.769 94.8052C208.687 93.8309 207.333 94.1369 206.014 94.4473C203.427 95.0595 201.026 96.1718 198.582 97.1849C193.222 99.3636 187.569 100.736 181.807 101.259C181.398 101.298 181.376 101.944 181.807 101.906C186.451 101.497 191.03 100.539 195.448 99.0516C197.642 98.3015 199.759 97.3616 201.914 96.5037C203.639 95.8053 207.704 93.805 209.325 95.2621C209.635 95.5424 210.092 95.0854 209.782 94.8052H209.769Z" fill="black"/>
<path d="M205.216 59.9414C209.687 65.2139 212.153 71.8572 214.425 78.2937C216.694 84.7454 218.54 91.3381 219.952 98.0299C220.038 98.4351 220.663 98.267 220.577 97.8574C219.054 90.6296 217.021 83.5187 214.494 76.5779C212.287 70.5424 209.877 64.4422 205.673 59.4844C205.406 59.1697 204.949 59.6267 205.216 59.9414Z" fill="black"/>
<path d="M183.092 106.251C190.623 106.505 198.202 106.755 205.704 105.82C210.48 105.221 218.288 104.643 220.646 99.5905C220.818 99.2154 220.262 98.8834 220.085 99.2628C218.732 102.164 215.628 103.164 212.735 103.884C209.372 104.695 205.95 105.237 202.5 105.505C196.034 106.044 189.567 105.829 183.101 105.609C182.669 105.609 182.669 106.242 183.101 106.255L183.092 106.251Z" fill="black"/>
<path d="M182.519 105.54C179.501 106.661 177.177 104.022 174.409 103.328C171.823 102.682 168.861 103.328 166.266 103.531C165.835 103.565 165.835 104.212 166.266 104.177C170.038 103.88 173.353 103.315 176.858 105.091C178.764 106.053 180.557 106.954 182.691 106.165C183.079 106.018 182.911 105.393 182.519 105.54Z" fill="black"/>
<path d="M182.122 101.078C181.479 99.6974 180.441 98.5391 179.139 97.7496C178.708 97.4867 178.07 97.0814 177.535 97.2841C177.441 97.3168 177.354 97.3681 177.28 97.4349C177.206 97.5018 177.146 97.5829 177.103 97.6733C177.061 97.7638 177.038 97.8618 177.034 97.9615C177.03 98.0613 177.047 98.1608 177.082 98.2541C177.22 98.642 177.845 98.4739 177.707 98.0816C177.621 97.8402 178.427 98.0816 178.466 98.1161C178.663 98.2158 178.855 98.3266 179.04 98.448C179.423 98.6978 179.78 98.9867 180.104 99.3103C180.708 99.9113 181.2 100.615 181.557 101.388C181.738 101.763 182.294 101.436 182.118 101.065L182.122 101.078Z" fill="black"/>
<path d="M181.199 101.147C179.714 99.6147 177.832 98.5266 175.763 98.0042C173.694 97.4819 171.521 97.546 169.486 98.1894C169.09 98.3144 169.262 98.9395 169.659 98.8145C171.585 98.1951 173.646 98.1281 175.608 98.6211C177.57 99.1142 179.355 100.147 180.76 101.604C181.053 101.901 181.51 101.444 181.217 101.147H181.199Z" fill="black"/>
<path d="M166.249 103.712C167.162 102.229 170.021 102.419 171.534 102.216C171.943 102.168 171.965 101.522 171.534 101.569C169.723 101.789 166.792 101.595 165.692 103.384C165.473 103.742 166.033 104.065 166.249 103.712Z" fill="black"/>
<path d="M167.094 102.35C168.568 101.03 170.585 100.983 172.461 100.97C172.547 100.97 172.629 100.936 172.689 100.875C172.75 100.815 172.784 100.732 172.784 100.647C172.784 100.561 172.75 100.479 172.689 100.418C172.629 100.357 172.547 100.323 172.461 100.323C170.396 100.323 168.249 100.448 166.637 101.893C166.326 102.173 166.783 102.625 167.094 102.35Z" fill="black"/>
<path d="M168.279 100.957C168.684 99.6034 171.612 99.75 172.689 99.806C173.12 99.8276 173.12 99.1809 172.689 99.1593C171.241 99.0817 168.193 98.9998 167.654 100.785C167.533 101.186 168.158 101.354 168.279 100.957Z" fill="black"/>
<path d="M168.857 99.6637C168.981 99.353 169.217 99.1006 169.52 98.9575C169.822 98.8143 170.167 98.7909 170.486 98.8921C170.883 99.0214 171.055 98.3963 170.659 98.2713C170.175 98.1255 169.655 98.1709 169.204 98.3979C168.753 98.6249 168.407 99.0163 168.236 99.4913C168.089 99.8836 168.714 100.052 168.857 99.6637Z" fill="black"/>
<path d="M196.607 59.8293C197.901 59.0619 199.228 58.2471 200.75 58.1394C202.475 58.0143 203.742 58.8895 205.061 59.8422C205.398 60.088 205.721 59.5275 205.385 59.2818C204.057 58.3247 202.69 57.4151 200.987 57.4582C199.284 57.5013 197.715 58.4153 196.28 59.2689C195.926 59.4844 196.249 60.0449 196.607 59.8293Z" fill="black"/>
<path d="M162.847 40.4725C162.493 42.7978 162.459 45.1609 162.748 47.4953C163.071 50.3399 163.984 53.0858 165.429 55.557C167.129 58.3755 169.498 60.7302 172.327 62.4116C173.09 62.3312 173.847 62.1958 174.591 62.0064C176.184 61.601 177.708 60.9602 179.113 60.1052C179.871 60.7453 180.693 61.3058 181.566 61.7779C183.542 62.8306 185.731 63.4203 187.968 63.5024C189.898 61.19 191.42 58.5658 192.469 55.7424C193.426 53.1557 196.077 45.9821 192.676 39.5198C191.434 37.1573 189.869 35.8208 188.071 34.2861C184.472 31.2166 179.764 27.1987 173.845 28.3239C167.283 29.5698 163.688 36.2735 163.067 39.2525C163.02 39.3947 162.938 39.8646 162.847 40.4725Z" fill="white"/>
<path opacity="0.26" d="M173.612 31.7727C176.315 33.9595 178.327 36.8823 179.405 40.1881C180.483 43.4938 180.581 47.0409 179.686 50.4009C178.113 57.0443 173.608 60.9932 171.849 62.3814C173.082 62.1055 174.401 61.7563 175.793 61.308C176.983 60.9286 178.091 60.519 179.104 60.1052C179.863 60.7443 180.685 61.3048 181.557 61.7779C182.758 62.4217 184.044 62.8906 185.377 63.1703C188.317 59.8774 190.54 56.0089 191.904 51.8106C193.158 47.9048 194.288 44.374 192.719 40.8173C191.111 37.1745 187.571 35.5578 184.372 34.1007C180.99 32.573 177.323 31.7796 173.612 31.7727Z" fill="#9E9E9E"/>
<path d="M163.058 39.2611C165.528 35.4693 169.044 32.4745 173.181 30.6389C173.49 31.5623 173.879 32.4567 174.345 33.3118C177.246 38.6101 182.419 40.9467 184.941 41.8951C185.959 40.632 187.528 40.1017 188.787 40.5544C190.356 41.1191 190.761 42.9298 190.869 43.4213C191.099 44.5352 190.927 45.6948 190.382 46.6934C189.434 48.3488 187.425 49.28 185.26 49.1162C184.627 49.5473 181.751 51.6037 181.079 55.3845C180.385 59.2645 182.437 62.9419 185.26 64.9077C187.019 66.0912 189.099 66.7039 191.218 66.6622C193.338 66.6205 195.392 65.9266 197.103 64.6749C200.358 62.278 201.026 58.6394 201.164 57.7772C203.708 59.7215 206.885 60.0276 209.019 58.6394C211.502 57.0141 211.968 53.4661 211.265 51.0778C210.14 47.228 206.411 47.6289 200.237 41.3347C197.978 39.0369 196.948 37.8255 195.771 35.9545C192.969 31.4839 193.257 28.6256 188.873 26.3537C180.337 21.9305 170.81 26.1942 169.71 26.7029C164.867 29.0048 160.909 32.8256 158.437 37.5841C159.403 40.422 159.842 43.4129 159.73 46.4088C159.471 52.2892 157.143 54.0265 157.174 59.4154C157.174 61.6701 157.212 66.8951 160.89 70.0983C164.662 73.379 171.81 74.1334 175.871 69.9819C179.44 66.3304 178.57 60.9889 178.457 60.3552L172.625 62.4332C170.441 61.2326 168.509 59.6225 166.934 57.691C160.993 50.3319 162.705 41.0071 163.058 39.2611Z" fill="#461EB8"/>
<path d="M162.735 39.2611C161.653 48.0729 163.886 57.5358 171.689 62.6617C172.034 62.8902 172.362 62.3297 172.012 62.1012C164.408 57.109 162.33 47.8272 163.39 39.2525C163.442 38.8213 162.795 38.8472 162.744 39.2525L162.735 39.2611Z" fill="black"/>
<path d="M172.319 62.7349C175.59 62.3791 178.66 60.9828 181.079 58.7515C181.385 58.4712 180.928 58.0143 180.617 58.2945C178.327 60.4126 175.419 61.7421 172.319 62.0883C171.909 62.1357 171.887 62.7823 172.319 62.7349Z" fill="black"/>
<path d="M168.788 42.1193C168.868 45.7898 169.294 49.4445 170.059 53.035C170.075 53.0892 170.105 53.1384 170.146 53.1778C170.186 53.2172 170.236 53.2454 170.291 53.2597C170.346 53.274 170.403 53.274 170.458 53.2595C170.512 53.2451 170.562 53.2167 170.603 53.1773C171.264 52.4629 171.868 51.6975 172.409 50.8881C172.642 50.5432 172.081 50.2156 171.853 50.5604C171.335 51.3229 170.759 52.0436 170.128 52.716L170.667 52.8582C169.913 49.3245 169.495 45.7275 169.417 42.115C169.417 41.6839 168.758 41.6839 168.77 42.115L168.788 42.1193Z" fill="black"/>
<path d="M170.585 55.6648C171.893 55.7205 173.199 55.505 174.419 55.0316C175.64 54.5582 176.749 53.8373 177.677 52.9143C177.975 52.6211 177.518 52.1642 177.22 52.4573C176.355 53.3211 175.32 53.9951 174.179 54.436C173.039 54.8769 171.82 55.0752 170.598 55.0181C170.167 55.0181 170.167 55.6475 170.598 55.6648H170.585Z" fill="black"/>
<path d="M164.809 39.537C164.96 39.3197 165.163 39.143 165.398 39.0223C165.634 38.9016 165.896 38.8408 166.161 38.845C166.426 38.8493 166.685 38.9185 166.917 39.0467C167.149 39.1749 167.346 39.358 167.49 39.5801C167.723 39.9207 168.283 39.5801 168.051 39.2524C167.856 38.9452 167.591 38.6893 167.277 38.5065C166.963 38.3238 166.609 38.2195 166.246 38.2026C165.883 38.1856 165.521 38.2566 165.191 38.4093C164.862 38.5621 164.574 38.7921 164.352 39.08C164.102 39.4033 164.554 39.8646 164.809 39.537Z" fill="black"/>
<path d="M172.935 39.1749C173.478 38.6511 174.193 38.342 174.947 38.3048C175.701 38.2675 176.442 38.5046 177.035 38.9722C177.358 39.2309 177.819 38.7739 177.496 38.5153C176.779 37.9298 175.873 37.6271 174.949 37.6645C174.024 37.7018 173.145 38.0765 172.478 38.7179C172.181 39.0067 172.638 39.4637 172.935 39.1749Z" fill="black"/>
<path d="M185.17 42.1021C186.062 41.2744 187.106 40.6536 188.351 40.8088C190.158 41.0372 190.585 42.628 190.567 44.1283C190.537 46.8012 188.933 48.2368 186.347 48.4135C185.916 48.4394 185.916 49.086 186.347 49.0602C189.817 48.8231 191.749 46.3873 191.136 42.9083C190.524 39.4292 186.825 39.662 184.713 41.6149C184.407 41.8995 184.868 42.3564 185.17 42.0762V42.1021Z" fill="black"/>
<path d="M166.74 46.4606C167.052 46.4606 167.305 45.731 167.305 44.831C167.305 43.931 167.052 43.2014 166.74 43.2014C166.428 43.2014 166.175 43.931 166.175 44.831C166.175 45.731 166.428 46.4606 166.74 46.4606Z" fill="black"/>
<path d="M174.608 46.2148C174.92 46.2148 175.172 45.4852 175.172 44.5852C175.172 43.6853 174.92 42.9557 174.608 42.9557C174.296 42.9557 174.043 43.6853 174.043 44.5852C174.043 45.4852 174.296 46.2148 174.608 46.2148Z" fill="black"/>
<path d="M175.862 47.9738H175.802C175.716 47.9738 175.634 48.0078 175.573 48.0685C175.513 48.1291 175.479 48.2114 175.479 48.2971C175.479 48.3829 175.513 48.4651 175.573 48.5257C175.634 48.5864 175.716 48.6204 175.802 48.6204H175.862C175.948 48.6204 176.03 48.5864 176.091 48.5257C176.151 48.4651 176.186 48.3829 176.186 48.2971C176.186 48.2114 176.151 48.1291 176.091 48.0685C176.03 48.0078 175.948 47.9738 175.862 47.9738Z" fill="black"/>
<path d="M178.626 47.0253C178.711 47.0253 178.794 46.9913 178.854 46.9306C178.915 46.87 178.949 46.7877 178.949 46.702C178.949 46.6162 178.915 46.534 178.854 46.4734C178.794 46.4127 178.711 46.3787 178.626 46.3787C178.54 46.3787 178.458 46.4127 178.397 46.4734C178.336 46.534 178.302 46.6162 178.302 46.702C178.302 46.7877 178.336 46.87 178.397 46.9306C178.458 46.9913 178.54 47.0253 178.626 47.0253Z" fill="black"/>
<path d="M178.686 49.6551C178.772 49.6551 178.854 49.6211 178.915 49.5604C178.975 49.4998 179.009 49.4175 179.009 49.3318C179.009 49.246 178.975 49.1638 178.915 49.1032C178.854 49.0425 178.772 49.0085 178.686 49.0085C178.6 49.0085 178.518 49.0425 178.457 49.1032C178.397 49.1638 178.363 49.246 178.363 49.3318C178.363 49.4175 178.397 49.4998 178.457 49.5604C178.518 49.6211 178.6 49.6551 178.686 49.6551Z" fill="black"/>
<path d="M178.876 60.3337C180.63 61.7124 182.587 62.8104 184.678 63.5886C185.066 63.7351 185.235 63.11 184.847 62.9634C182.859 62.2255 180.999 61.1827 179.333 59.8724C179.009 59.6223 178.548 60.075 178.876 60.3337Z" fill="black"/>
</g>
<defs>
<clipPath id="clip0">
<rect width="250" height="231.807" fill="white"/>
</clipPath>
</defs>
</svg>
