<svg width="200" height="200" viewBox="0 0 200 200" fill="none" xmlns="http://www.w3.org/2000/svg">
<path d="M138.918 103.908C138.366 104.956 137.488 105.744 136.216 106.21C129.178 108.784 124.781 99.0932 121.147 90.5348C119.517 86.7008 117.658 82.9515 115.895 79.2084C113.727 74.593 111.692 69.9777 110.402 65.1746C108.052 56.4708 116.604 52.9094 119.863 55.3321C119.863 55.3321 127.888 65.1746 133.036 78.2756C137.252 88.9963 141.413 99.1658 138.918 103.908Z" fill="#EC615B"/>
<path d="M138.918 103.908C138.366 104.956 137.488 105.744 136.216 106.21C129.178 108.784 124.781 99.0931 121.147 90.5347C119.517 86.7007 117.658 82.9515 115.895 79.2083C117.797 79.1841 119.057 79.2568 119.057 79.2568C122.9 90.4256 127.406 101.301 138.918 103.908Z" fill="#404B7C"/>
<path d="M88.6393 58.6998C86.0228 55.2656 81.4135 54.0663 78.3729 56.695C74.0375 60.4485 66.7121 76.1363 66.1442 77.3611C66.1442 77.3611 61.8756 86.8467 63.8503 92.9755C64.8332 96.026 68.7069 96.9351 70.9986 94.6945C72.1172 93.6008 73.4232 92.2006 74.8297 90.5893C79.3844 85.3683 84.9931 77.9183 88.6697 71.4859C91.6557 66.2588 90.8864 61.6556 88.6393 58.6998Z" fill="#EC615B"/>
<path d="M88.6697 71.486C84.9931 77.9185 79.3844 85.3684 74.8297 90.5895C76.5801 82.4853 78.7061 73.8543 78.7485 73.6544C81.5346 61.0682 84.9931 57.8399 88.6394 58.6999C90.8864 61.6557 91.6557 66.2589 88.6697 71.486Z" fill="#404B7C"/>
<path d="M122.588 97.7305C122.285 94.7021 119.863 55.3323 119.863 55.3323C119.863 55.3323 104.872 47.7612 96.0893 48.9726C87.3068 50.184 78.3729 56.6951 78.3729 56.6951C75.3445 73.3516 81.2499 89.7052 80.19 98.1848C79.13 106.664 71.2561 125.744 71.2561 125.744C79.0641 131.569 87.085 134.053 94.6233 134.592C96.353 131.676 102.499 121.655 102.499 121.655L111.974 132.709C123.464 129.515 131.371 123.624 131.371 123.624C131.371 123.624 122.891 100.759 122.588 97.7305Z" fill="#EC615B"/>
<path d="M78.1602 57.9573C76.7232 67.1976 77.9185 76.2855 79.0216 83.9236" stroke="#404B7C" stroke-miterlimit="10" stroke-linecap="round" stroke-linejoin="round"/>
<path d="M122.312 93.9925C121.743 85.6541 120.541 66.299 120.064 58.5879" stroke="#404B7C" stroke-miterlimit="10" stroke-linecap="round" stroke-linejoin="round"/>
<path d="M81.7042 111.056L80.5433 115.144L92.1019 118.173L93.3133 114.034L81.7042 111.056Z" fill="#404B7C"/>
<path d="M119.89 109.938L121.296 113.949L109.942 117.672L108.483 113.614L119.89 109.938Z" fill="#404B7C"/>
<path d="M101.843 120.974L98.8149 117.832C98.8149 117.832 100.935 106.059 101.086 86.6768" stroke="#404B7C" stroke-miterlimit="10" stroke-linecap="round" stroke-linejoin="round"/>
<path d="M96.8464 47.0798C96.8464 47.0798 92.9852 47.8369 86.3226 51.471C86.3226 51.471 83.0165 55.7361 81.1995 62.0958L88.7706 63.61L85.3383 70.2726L101.086 85.9196L112.796 69.1622L108.556 61.3892L115.926 59.9759C115.926 59.9759 112.392 52.4805 110.474 50.5625C108.556 48.6445 99.8749 46.676 96.8464 47.0798Z" fill="black"/>
<path d="M96.695 49.086C94.4833 49.5284 89.9859 51.5243 87.7197 52.5692C88.9378 57.0641 94.2897 74.4472 100.884 82.7901C100.884 82.7901 106.053 61.6546 108.27 51.0674C105.355 50.2584 98.9981 48.6254 96.695 49.086Z" fill="white"/>
<path d="M103.428 72.2356C102.959 69.0926 101.605 60.7661 99.673 55.1304L97.4143 54.6509L95.8369 55.6351C95.8369 55.6351 94.6565 63.1464 94.8397 72.3034C96.6482 76.2598 98.6971 80.0231 100.884 82.7902C100.884 82.7902 102.006 78.203 103.428 72.2356Z" fill="black"/>
<path d="M94.1421 70.7468C96.1131 75.2616 98.4114 79.6614 100.884 82.79C100.884 82.79 102.119 77.7397 103.641 71.3399" stroke="#EC615B" stroke-miterlimit="10" stroke-linecap="round" stroke-linejoin="round"/>
<path d="M96.2408 59.5722C96.2408 59.5722 98.5499 59.345 99.9127 59.4207" stroke="#EC615B" stroke-miterlimit="10" stroke-linecap="round" stroke-linejoin="round"/>
<path d="M97.933 55.5342C97.933 55.5342 94.9551 56.9474 91.8761 59.9759C91.8761 59.9759 91.1695 49.1744 96.8731 48.1145C102.577 47.0545 104.141 58.4617 104.141 58.4617C104.141 58.4617 102.678 56.9474 97.933 55.5342Z" fill="white"/>
<path d="M100.9 49.811C103.362 52.7828 104.141 58.4615 104.141 58.4615C104.141 58.4615 102.678 56.9473 97.933 55.534C97.933 55.534 94.9551 56.9473 91.8761 59.9757C91.8761 59.9757 91.5124 54.4165 93.4128 50.8832" stroke="#EC615B" stroke-miterlimit="10" stroke-linecap="round" stroke-linejoin="round"/>
<path d="M99.9149 52.5836C99.8715 53.2437 98.3882 55.2203 96.2382 53.7903L95.0415 50.317L93.8515 46.8803L98.0649 43.1136L98.1015 43.0803L98.1382 43.277L98.4549 44.9403L99.5482 50.667L99.9149 52.5836Z" fill="#ECBDBB"/>
<path d="M99.5482 50.667C99.1682 51.9303 98.2849 53.467 96.2382 53.7903L95.0415 50.317L93.8515 46.8803L98.0648 43.1136L98.1015 43.0803L98.1382 43.277L98.4549 44.9403L99.5482 50.667Z" fill="black"/>
<path d="M88.7716 43.8089C88.7716 43.8089 87.106 42.3325 85.8946 43.5817C84.6832 44.831 86.8031 48.3515 90.0587 47.973L88.7716 43.8089Z" fill="#ECBDBB"/>
<path d="M86.7527 44.5659C86.7527 44.5659 87.8883 44.7426 89.0745 46.3073" stroke="black" stroke-miterlimit="10" stroke-linecap="round" stroke-linejoin="round"/>
<path d="M85.5497 40.3723C86.6565 43.1347 89.0745 46.1842 89.0745 46.1842L88.8885 41.5263L85.5497 40.3723Z" fill="black"/>
<path d="M92.3951 35.2275C87.6309 35.7706 87.8019 42.7986 89.3161 47.6946C90.8304 52.5906 95.6254 55.0134 99.1081 50.3697C102.591 45.7261 102.137 34.1171 92.3951 35.2275Z" fill="#ECBDBB"/>
<path d="M99.1081 50.3698C100.107 48.8383 100.735 47.147 100.875 45.2467L100.208 45.1064L100.051 41.9564C100.051 41.9564 96.6463 42.3444 97.2944 37.7654C97.2944 37.7654 94.0281 40.8783 89.334 41.2539C84.6399 41.6355 78.9198 37.8087 79.4892 36.1007C80.0282 34.4653 82.4571 35.7978 82.6508 35.9068C82.3722 35.6161 78.3439 30.7979 79.611 27.8442C81.5145 23.4069 91.1554 29.0556 96.4975 32.3869C97.3153 32.8956 98.1087 33.362 98.8658 33.7982C98.2844 32.7866 97.3879 31.1573 96.6066 29.4372C95.3225 26.5965 99.9379 26.8206 100.81 34.852C100.81 34.852 103.348 30.1156 105.389 30.9514C107.109 31.6479 104.711 34.4583 102.288 35.7424C104.729 37.1779 105.725 38.0198 106.13 39.8732C106.809 42.9743 99.1081 50.3698 99.1081 50.3698Z" fill="black"/>
<path d="M100.043 43.8773C100.043 43.8773 100.558 41.7512 102.924 41.9733C105.289 42.1953 104.62 47.4724 99.8365 47.1019L100.043 43.8773Z" fill="#ECBDBB"/>
<path d="M100.604 45.6175C100.604 45.6175 101.092 43.5408 103.027 43.1646" stroke="black" stroke-miterlimit="10" stroke-linecap="round" stroke-linejoin="round"/>
<path d="M102.412 45.2612C102.412 45.2612 102.301 44.4793 101.589 43.9189" stroke="black" stroke-miterlimit="10" stroke-linecap="round" stroke-linejoin="round"/>
<path d="M98.4881 42.4244C98.4881 42.4244 97.4097 40.6253 96.0455 41.4552C96.0455 41.4552 95.9727 41.0326 95.5998 41.0532C95.227 41.0738 95.2839 42.2408 95.2839 42.2408C95.2839 42.2408 96.9799 41.9623 98.4881 42.4244Z" fill="black"/>
<path d="M89.9921 42.9224C89.9921 42.9224 90.4798 41.0671 91.46 41.8043C91.46 41.8043 91.557 41.4632 91.8 41.4711C92.2204 41.4847 92.0883 42.5797 92.0883 42.5797C92.0883 42.5797 90.9144 42.3674 89.9921 42.9224Z" fill="black"/>
<path d="M92.063 46.6397C92.4952 46.5912 92.7969 46.1186 92.7369 45.5842C92.6768 45.0498 92.2778 44.656 91.8455 44.7045C91.4133 44.7531 91.1116 45.2257 91.1716 45.7601C91.2317 46.2945 91.6308 46.6883 92.063 46.6397Z" fill="black"/>
<path d="M91.7431 45.5577C91.8588 45.5577 91.9525 45.464 91.9525 45.3483C91.9525 45.2327 91.8588 45.1389 91.7431 45.1389C91.6275 45.1389 91.5337 45.2327 91.5337 45.3483C91.5337 45.464 91.6275 45.5577 91.7431 45.5577Z" fill="white"/>
<path d="M93.8144 47.491C93.8144 47.491 92.92 47.9378 93.1992 48.5873C93.5228 49.34 94.6074 48.9298 94.6074 48.9298" stroke="black" stroke-miterlimit="10" stroke-linecap="round" stroke-linejoin="round"/>
<path d="M96.6267 47.3601C97.8324 47.3601 98.8097 46.3828 98.8097 45.1771C98.8097 43.9715 97.8324 42.9941 96.6267 42.9941C95.4211 42.9941 94.4437 43.9715 94.4437 45.1771C94.4437 46.3828 95.4211 47.3601 96.6267 47.3601Z" stroke="black" stroke-miterlimit="10" stroke-linecap="round" stroke-linejoin="round"/>
<path d="M91.2523 47.8218C92.458 47.8218 93.4353 46.8445 93.4353 45.6388C93.4353 44.4332 92.458 43.4558 91.2523 43.4558C90.0467 43.4558 89.0693 44.4332 89.0693 45.6388C89.0693 46.8445 90.0467 47.8218 91.2523 47.8218Z" stroke="black" stroke-miterlimit="10" stroke-linecap="round" stroke-linejoin="round"/>
<path d="M93.8515 50.6906C93.8515 50.6906 95.6652 51.1593 97.2014 49.2683C97.2014 49.2683 97.12 52.4865 93.8515 50.6906Z" fill="white"/>
<path d="M95.6926 45.4434C95.6926 45.4434 95.8337 44.936 96.4055 44.8988C96.9773 44.8617 97.1555 45.2775 97.1555 45.2775" stroke="black" stroke-miterlimit="10" stroke-linecap="round" stroke-linejoin="round"/>
<path d="M63.0543 91.9733C63.0543 91.9733 64.678 95.7753 66.8958 96.409C69.1137 97.0426 70.6186 95.6961 70.6186 95.6961C70.6186 95.6961 73.7869 96.4254 75.1731 93.7043C76.5592 90.9832 76.5988 87.8941 77.6285 86.0723C78.6582 84.2506 76.4008 83.1417 74.6582 85.0822C72.9156 87.0228 71.2523 87.8149 71.2523 87.8149L63.0543 91.9733Z" fill="#ECBDBB"/>
<path d="M63.0178 91.8239C62.9934 91.7704 62.9713 91.7156 62.9514 91.6596C62.6119 90.7037 63.0868 89.6458 63.9895 89.1833L77.0775 82.3286L78.6282 85.0984L65.96 92.6622C64.9225 93.2944 63.5205 92.93 63.0178 91.8239Z" fill="#404B7C"/>
<path d="M87.4252 90.4933C94.1292 90.4933 99.5638 85.0587 99.5638 78.3547C99.5638 71.6507 94.1292 66.2161 87.4252 66.2161C80.7212 66.2161 75.2866 71.6507 75.2866 78.3547C75.2866 85.0587 80.7212 90.4933 87.4252 90.4933Z" fill="#F68D88"/>
<path d="M87.4252 87.2656C92.3465 87.2656 96.3361 83.2761 96.3361 78.3547C96.3361 73.4334 92.3465 69.4438 87.4252 69.4438C82.5038 69.4438 78.5143 73.4334 78.5143 78.3547C78.5143 83.2761 82.5038 87.2656 87.4252 87.2656Z" fill="#6B81BE"/>
<path d="M92.2659 77.6896C92.3113 78.0209 92.3219 78.3541 92.2992 78.6841C92.2487 79.4188 92.8032 80.0553 93.5378 80.1059C94.2725 80.1565 94.909 79.6019 94.9596 78.8673C94.9947 78.3576 94.9783 77.8416 94.9078 77.3275C94.8078 76.5979 94.1353 76.0876 93.4058 76.1876C92.6762 76.2876 92.1659 76.9601 92.2659 77.6896V77.6896Z" fill="#EC615B"/>
<path d="M85.0391 74.0928C86.102 73.4985 87.278 73.3443 88.3844 73.5653C89.4901 73.7878 90.5102 74.3871 91.2407 75.3037C91.6998 75.8795 92.5386 75.9741 93.1144 75.5151C93.6902 75.0561 93.7849 74.2172 93.3259 73.6414C92.192 72.2192 90.6118 71.2926 88.9096 70.9509C87.2082 70.6079 85.3686 70.8514 83.7364 71.766C83.0939 72.1257 82.8646 72.9382 83.2243 73.5807C83.584 74.2233 84.3965 74.4525 85.0391 74.0928L85.0391 74.0928Z" fill="#EC615B"/>
<path d="M62.0246 87.1499C62.0246 87.1499 60.1236 87.1103 60.1236 90.5163C60.1236 93.9222 62.1038 95.6252 63.6483 94.0806C63.6483 94.0806 64.3216 95.03 65.7077 94.6543C67.0939 94.2786 67.0939 93.0113 67.0939 93.0113C67.0939 93.0113 67.7671 94.2786 69.3513 93.843C70.9355 93.4074 70.8166 91.8628 70.8166 91.8628C70.8166 91.8628 71.6483 93.645 73.5097 92.9321C75.3711 92.2192 73.8265 89.1697 73.5097 87.3876C73.1929 85.6054 74.1434 83.8232 72.7572 82.4767C71.3711 81.1301 69.5889 82.4767 69.2721 83.6252C69.2721 83.6252 67.0543 82.3975 65.4701 85.2885C65.4701 85.2885 63.0939 84.5361 62.0246 87.1499Z" fill="#ECBDBB"/>
<path d="M64.674 94.701C64.9584 94.7608 65.3026 94.7641 65.7077 94.6543C67.0939 94.2786 67.0939 93.0113 67.0939 93.0113C67.0939 93.0113 67.7671 94.2786 69.3513 93.843C70.9354 93.4074 70.8166 91.8628 70.8166 91.8628C70.8166 91.8628 71.6483 93.645 73.5097 92.9321C75.3711 92.2192 73.8265 89.1697 73.5097 87.3876C73.4209 86.888 73.4317 86.3884 73.4626 85.8984" stroke="#404B7C" stroke-miterlimit="10" stroke-linecap="round" stroke-linejoin="round"/>
<path d="M62.4602 88.1003C62.4602 88.1003 62.1955 90.7093 63.2523 92.9716" stroke="#404B7C" stroke-miterlimit="10" stroke-linecap="round" stroke-linejoin="round"/>
<path d="M65.7078 87.0312C65.7078 87.0312 65.7078 89.4867 66.6583 91.7045" stroke="#404B7C" stroke-miterlimit="10" stroke-linecap="round" stroke-linejoin="round"/>
<path d="M69.4305 85.6846C69.4305 85.6846 69.4701 88.4568 70.1434 90.1598" stroke="#404B7C" stroke-miterlimit="10" stroke-linecap="round" stroke-linejoin="round"/>
<path d="M62.4307 169.526C62.4307 169.526 26.3242 172.716 9.36652 138.436C9.36651 138.436 45.9919 132.384 62.4307 169.526Z" fill="#F68D88"/>
<path d="M29.8311 147.692C25.4184 150.569 20.9417 150.943 17.1461 150.364C19.2289 152.82 21.4237 154.969 23.6809 156.842C26.4484 156.498 29.389 155.449 32.3264 153.272C37.3035 149.583 41.855 148.123 45.484 147.675C43.9836 146.57 42.4647 145.587 40.9415 144.715C37.3731 144.604 33.4805 145.312 29.8311 147.692Z" fill="#ECBDBB"/>
<path d="M42.0924 156.224C38.2068 159.971 33.7604 161.149 29.8542 161.245C33.0114 163.171 36.1921 164.661 39.2653 165.808C41.4267 164.878 43.5816 163.423 45.5939 161.234C48.2554 158.34 50.9165 156.365 53.3967 155.016C52.366 153.822 51.3089 152.712 50.2323 151.677C47.4095 152.433 44.5771 153.828 42.0924 156.224Z" fill="#ECBDBB"/>
<path d="M12.974 140.665L60.1653 167.851" stroke="#ECBDBB" stroke-miterlimit="10" stroke-linecap="round" stroke-linejoin="round"/>
<path d="M69.8477 158.747C69.8477 158.747 66.3719 122.459 35.2836 116.298C35.2836 116.298 30.6973 145.664 69.8477 158.747Z" fill="#EC615B"/>
<path d="M40.0472 121.994C40.3078 122.133 66.8783 155.87 66.8783 155.87" stroke="#6B81BE" stroke-miterlimit="10" stroke-linecap="round" stroke-linejoin="round"/>
<path d="M143.016 170.235C143.016 170.235 179.181 167.802 190.633 131.312C190.633 131.312 153.513 130.997 143.016 170.235Z" fill="#F68D88"/>
<path d="M171.847 143.622C176.651 145.782 181.132 145.459 184.792 144.3C183.114 147.048 181.278 149.511 179.338 151.711C176.55 151.799 173.483 151.217 170.244 149.521C164.757 146.646 160.034 145.907 156.379 146.026C157.691 144.702 159.039 143.496 160.41 142.399C163.918 141.737 167.873 141.835 171.847 143.622Z" fill="#ECBDBB"/>
<path d="M161.052 153.947C165.471 157.048 170.046 157.525 173.92 157.015C171.098 159.406 168.186 161.37 165.328 162.979C163.048 162.394 160.694 161.29 158.368 159.439C155.291 156.991 152.356 155.451 149.697 154.502C150.531 153.163 151.404 151.903 152.307 150.714C155.213 151.024 158.227 151.964 161.052 153.947Z" fill="#ECBDBB"/>
<path d="M187.414 134.072L144.995 168.23" stroke="#ECBDBB" stroke-miterlimit="10" stroke-linecap="round" stroke-linejoin="round"/>
<path d="M148.167 144.912C148.167 144.912 148.887 127.914 163.222 124.272C163.222 124.272 166.088 137.844 148.167 144.912Z" fill="#EC615B"/>
<path d="M40.0472 58.9388C41.7691 58.9388 43.165 57.5429 43.165 55.821C43.165 54.099 41.7691 52.7031 40.0472 52.7031C38.3252 52.7031 36.9293 54.099 36.9293 55.821C36.9293 57.5429 38.3252 58.9388 40.0472 58.9388Z" fill="#E9F3FF"/>
<path d="M20.7571 46.9263C21.5098 46.9263 22.1199 46.3161 22.1199 45.5635C22.1199 44.8108 21.5098 44.2007 20.7571 44.2007C20.0045 44.2007 19.3943 44.8108 19.3943 45.5635C19.3943 46.3161 20.0045 46.9263 20.7571 46.9263Z" fill="#E9F3FF"/>
<path d="M167.956 93.2643C169.086 93.2643 170.001 92.3484 170.001 91.2186C170.001 90.0888 169.086 89.1729 167.956 89.1729C166.826 89.1729 165.91 90.0888 165.91 91.2186C165.91 92.3484 166.826 93.2643 167.956 93.2643Z" fill="#E9F3FF"/>
<path d="M135.672 47.9216C137.512 47.9216 139.003 46.4302 139.003 44.5903C139.003 42.7505 137.512 41.259 135.672 41.259C133.832 41.259 132.341 42.7505 132.341 44.5903C132.341 46.4302 133.832 47.9216 135.672 47.9216Z" fill="#E9F3FF"/>
<path d="M155.095 56.2128C155.713 56.2128 156.215 55.7113 156.215 55.0926C156.215 54.4739 155.713 53.9724 155.095 53.9724C154.476 53.9724 153.974 54.4739 153.974 55.0926C153.974 55.7113 154.476 56.2128 155.095 56.2128Z" fill="#E9F3FF"/>
<path d="M128.861 22.2185C129.381 22.2185 129.803 21.7969 129.803 21.2769C129.803 20.7568 129.381 20.3352 128.861 20.3352C128.341 20.3352 127.92 20.7568 127.92 21.2769C127.92 21.7969 128.341 22.2185 128.861 22.2185Z" fill="#E9F3FF"/>
<path d="M47.1114 99.914C48.5749 99.914 49.7613 98.7276 49.7613 97.2642C49.7613 95.8007 48.5749 94.6143 47.1114 94.6143C45.6479 94.6143 44.4615 95.8007 44.4615 97.2642C44.4615 98.7276 45.6479 99.914 47.1114 99.914Z" fill="#E9F3FF"/>
<path d="M61.9161 36.9742C62.5538 36.9742 63.0707 36.4573 63.0707 35.8196C63.0707 35.182 62.5538 34.665 61.9161 34.665C61.2784 34.665 60.7615 35.182 60.7615 35.8196C60.7615 36.4573 61.2784 36.9742 61.9161 36.9742Z" fill="#E9F3FF"/>
<path d="M45.2645 18.1121V20.1282" stroke="#404B7C" stroke-miterlimit="10" stroke-linecap="round" stroke-linejoin="round"/>
<path d="M48.6337 21.4812H46.6175" stroke="#404B7C" stroke-miterlimit="10" stroke-linecap="round" stroke-linejoin="round"/>
<path d="M45.2645 24.8504V22.8342" stroke="#404B7C" stroke-miterlimit="10" stroke-linecap="round" stroke-linejoin="round"/>
<path d="M41.8954 21.4812H43.9116" stroke="#404B7C" stroke-miterlimit="10" stroke-linecap="round" stroke-linejoin="round"/>
<path d="M27.8788 88.4536V89.4958" stroke="#404B7C" stroke-miterlimit="10" stroke-linecap="round" stroke-linejoin="round"/>
<path d="M29.6204 90.1951H28.5782" stroke="#404B7C" stroke-miterlimit="10" stroke-linecap="round" stroke-linejoin="round"/>
<path d="M27.8788 91.9367V90.8945" stroke="#404B7C" stroke-miterlimit="10" stroke-linecap="round" stroke-linejoin="round"/>
<path d="M26.1373 90.1951H27.1795" stroke="#404B7C" stroke-miterlimit="10" stroke-linecap="round" stroke-linejoin="round"/>
<path d="M152.292 84.0723V86.0885" stroke="#404B7C" stroke-miterlimit="10" stroke-linecap="round" stroke-linejoin="round"/>
<path d="M155.661 87.4414H153.645" stroke="#404B7C" stroke-miterlimit="10" stroke-linecap="round" stroke-linejoin="round"/>
<path d="M152.292 90.8106V88.7944" stroke="#404B7C" stroke-miterlimit="10" stroke-linecap="round" stroke-linejoin="round"/>
<path d="M148.923 87.4414H150.939" stroke="#404B7C" stroke-miterlimit="10" stroke-linecap="round" stroke-linejoin="round"/>
<path d="M171.325 36.9741V38.9903" stroke="#404B7C" stroke-miterlimit="10" stroke-linecap="round" stroke-linejoin="round"/>
<path d="M174.694 40.3433H172.678" stroke="#404B7C" stroke-miterlimit="10" stroke-linecap="round" stroke-linejoin="round"/>
<path d="M171.325 43.7125V41.6963" stroke="#404B7C" stroke-miterlimit="10" stroke-linecap="round" stroke-linejoin="round"/>
<path d="M167.956 40.3433H169.972" stroke="#404B7C" stroke-miterlimit="10" stroke-linecap="round" stroke-linejoin="round"/>
<path d="M140.009 97.2642L126.229 147.584H74.726L60.9427 97.2642H140.009Z" fill="black"/>
<path d="M126.229 147.584L122.429 169.604H78.5261L74.726 147.584H126.229Z" fill="#F68D88"/>
<path d="M135.054 94.1609C135.054 94.1609 136.774 93.3515 138.16 96.4629C139.545 99.5744 138.429 101.936 136.39 101.153C136.39 101.153 136.161 102.294 134.742 102.515C133.323 102.735 132.807 101.577 132.807 101.577C132.807 101.577 132.708 103.009 131.083 103.255C129.459 103.502 128.939 102.043 128.939 102.043C128.939 102.043 128.613 104.01 126.645 103.691C124.401 103.327 125.094 100.807 124.658 99.0497C124.223 97.2927 122.63 96.0512 123.348 94.2573C124.067 92.4634 126.243 92.9686 126.999 93.8889C126.999 93.8889 128.526 91.8652 131.149 93.862C131.149 93.862 133.014 92.208 135.054 94.1609Z" fill="#ECBDBB"/>
<path d="M135.043 95.2065C135.043 95.2065 136.346 97.4823 136.3 99.9788L135.043 95.2065Z" fill="white"/>
<path d="M135.043 95.2065C135.043 95.2065 136.346 97.4823 136.3 99.9788" stroke="#272525" stroke-miterlimit="10"/>
<path d="M131.641 95.5505C131.641 95.5505 132.64 97.7937 132.673 100.206L131.641 95.5505Z" fill="white"/>
<path d="M131.641 95.5505C131.641 95.5505 132.64 97.7937 132.673 100.206" stroke="#272525" stroke-miterlimit="10"/>
<path d="M127.692 95.8347C127.692 95.8347 128.784 98.3834 128.861 100.213L127.692 95.8347Z" fill="white"/>
<path d="M127.692 95.8347C127.692 95.8347 128.784 98.3834 128.861 100.213" stroke="#272525" stroke-miterlimit="10"/>
<path d="M98.8365 110.024L78.5021 127.04C77.4286 127.939 75.83 127.797 74.9316 126.723L65.6203 115.596C64.722 114.522 64.864 112.924 65.9376 112.025L86.272 95.0093C87.3456 94.111 88.9441 94.253 89.8425 95.3265L99.1538 106.454C100.052 107.527 99.9101 109.126 98.8365 110.024Z" fill="white"/>
<path d="M87.8965 96.4355L84.6959 110.272C84.327 111.867 82.9449 113.023 81.31 113.105L67.1262 113.816" stroke="#404B7C" stroke-miterlimit="10" stroke-linecap="round" stroke-linejoin="round"/>
<path d="M79.6888 113.186L76.8541 125.441" stroke="#404B7C" stroke-miterlimit="10" stroke-linecap="round" stroke-linejoin="round"/>
<path d="M97.6244 108.061L85.1842 108.684" stroke="#404B7C" stroke-miterlimit="10" stroke-linecap="round" stroke-linejoin="round"/>
<path d="M133.346 116.544L128.004 129.125C127.366 130.628 125.631 131.331 124.129 130.693L100.497 120.658C98.995 120.02 98.2931 118.282 98.9311 116.78L106.113 99.8665C106.751 98.364 108.489 97.6622 109.991 98.3001L121.55 103.208C123.052 103.846 123.754 105.584 123.116 107.086L122.431 108.7L131.782 112.671C133.284 113.309 133.983 115.045 133.346 116.544Z" fill="#F68D88"/>
<path d="M130.519 133.596L72.1857 139.712C70.7935 139.858 69.5466 138.848 69.4006 137.456L67.8876 123.026C67.7416 121.634 68.7519 120.387 70.1441 120.241L128.477 114.124C129.87 113.978 131.116 114.989 131.262 116.381L132.775 130.811C132.921 132.203 131.911 133.45 130.519 133.596Z" fill="#EC615B"/>
<path d="M108.905 130.476L76.748 133.848C75.3557 133.994 74.1088 132.984 73.9628 131.592L73.5669 127.816C73.421 126.424 74.4312 125.177 75.8235 125.031L107.98 121.659C109.372 121.513 110.619 122.523 110.765 123.916L111.161 127.691C111.307 129.083 110.297 130.33 108.905 130.476Z" fill="white"/>
<path d="M124.84 128.806L117.896 129.534C116.503 129.68 115.256 128.67 115.111 127.277L114.715 123.502C114.569 122.109 115.579 120.862 116.971 120.716L123.915 119.988C125.307 119.842 126.554 120.853 126.7 122.245L127.096 126.021C127.242 127.413 126.232 128.66 124.84 128.806Z" fill="white"/>
<path d="M99.7201 154.219L87.6229 158.611C86.3071 159.089 84.8532 158.41 84.3754 157.094L77.1939 137.314C76.7162 135.999 77.3956 134.545 78.7114 134.067L90.8086 129.675C92.1244 129.197 93.5784 129.876 94.0561 131.192L101.238 150.972C101.715 152.287 101.036 153.741 99.7201 154.219Z" fill="white"/>
<path d="M79.9646 138.113L79.8031 137.668C79.5344 136.928 79.9165 136.11 80.6565 135.841L90.4549 132.284C91.192 132.016 92.014 132.4 92.2816 133.137L92.4431 133.582C92.7119 134.322 92.3297 135.14 91.5896 135.409L81.7913 138.966C81.0512 139.235 80.2333 138.853 79.9646 138.113Z" fill="#F68D88"/>
<path d="M85.8899 154.432L81.7571 143.05C81.4885 142.31 81.8706 141.492 82.6106 141.223L92.409 137.666C93.1461 137.398 93.9681 137.782 94.2357 138.519L98.3684 149.902C98.6371 150.642 98.255 151.46 97.5148 151.728L87.7166 155.286C86.9764 155.555 86.1586 155.172 85.8899 154.432Z" fill="#F68D88"/>
<path d="M112.289 158.697L100.647 153.209C99.3812 152.613 98.8386 151.102 99.4354 149.836L108.407 130.802C109.004 129.535 110.514 128.993 111.78 129.589L123.422 135.077C124.688 135.673 125.231 137.184 124.634 138.45L115.662 157.484C115.066 158.751 113.555 159.293 112.289 158.697Z" fill="white"/>
<path d="M109.71 133.507L109.911 133.079C110.247 132.367 111.096 132.062 111.809 132.398L121.238 136.842C121.947 137.176 122.254 138.03 121.92 138.74L121.718 139.168C121.382 139.88 120.533 140.185 119.821 139.849L110.391 135.405C109.679 135.069 109.374 134.22 109.71 133.507Z" fill="#F68D88"/>
<path d="M107.19 138.854L107.391 138.426C107.727 137.714 108.577 137.408 109.289 137.744L118.718 142.188C119.427 142.523 119.734 143.377 119.4 144.086L119.198 144.514C118.862 145.226 118.013 145.531 117.301 145.196L107.871 140.751C107.159 140.416 106.854 139.566 107.19 138.854Z" fill="#F68D88"/>
<path d="M104.67 144.2L104.871 143.772C105.207 143.06 106.057 142.755 106.769 143.09L116.198 147.535C116.907 147.869 117.214 148.723 116.88 149.432L116.678 149.86C116.342 150.573 115.493 150.878 114.781 150.542L105.351 146.098C104.639 145.762 104.334 144.913 104.67 144.2Z" fill="white"/>
<path d="M102.15 149.547L102.352 149.118C102.687 148.406 103.537 148.101 104.249 148.437L113.678 152.881C114.387 153.215 114.694 154.069 114.36 154.779L114.158 155.207C113.823 155.919 112.973 156.224 112.261 155.888L102.832 151.444C102.119 151.108 101.814 150.259 102.15 149.547Z" fill="white"/>
<path d="M130.823 164.061H70.1327L74.726 147.584H126.229L130.823 164.061Z" fill="#F68D88"/>
<path d="M76.3226 147.584H124.834" stroke="#ECBDBB" stroke-miterlimit="10" stroke-linecap="round" stroke-linejoin="round"/>
<path d="M79.6888 164.061H122.422" stroke="#ECBDBB" stroke-miterlimit="10" stroke-linecap="round" stroke-linejoin="round"/>
<path d="M60.9427 97.2642L47.5573 114.595L60.389 159.863L74.726 147.584L60.9427 97.2642Z" fill="#F68D88"/>
<path d="M140.013 97.2642L153.398 114.595L140.566 159.863L126.229 147.584L140.013 97.2642Z" fill="#F68D88"/>
<path d="M144.721 175.712H120.952" stroke="#404B7C" stroke-miterlimit="10" stroke-linecap="round" stroke-linejoin="round"/>
<path d="M111.239 175.712H55.2793" stroke="#404B7C" stroke-miterlimit="10" stroke-linecap="round" stroke-linejoin="round"/>
<path d="M129.778 181.888H80.6268" stroke="#404B7C" stroke-miterlimit="10" stroke-linecap="round" stroke-linejoin="round"/>
<path d="M72.9658 181.888H66.3568" stroke="#404B7C" stroke-miterlimit="10" stroke-linecap="round" stroke-linejoin="round"/>
</svg>
