<svg width="200" height="200" viewBox="0 0 200 200" fill="none" xmlns="http://www.w3.org/2000/svg">
<path d="M147.664 167.408C147.664 167.408 148.379 150.124 164.137 145.029C179.894 139.934 181.001 155.705 171.178 158.275C157.768 161.783 147.664 167.408 147.664 167.408Z" fill="#88C0C2"/>
<path d="M147.664 167.408C147.664 167.408 154.202 155.109 170.359 149.323" stroke="#262424" stroke-width="1.56824" stroke-miterlimit="10" stroke-linecap="round" stroke-linejoin="round"/>
<path d="M144.884 167.408C144.884 167.408 134.494 158.973 138.619 146.845C142.744 134.716 153.038 141.321 150.09 148.602C146.067 158.541 144.884 167.408 144.884 167.408Z" fill="#EC615B"/>
<path d="M144.884 167.408C144.884 167.408 140.278 157.667 144.159 144.971" stroke="#262424" stroke-width="1.56824" stroke-miterlimit="10" stroke-linecap="round" stroke-linejoin="round"/>
<path d="M185.723 137.011H44.0139C41.7701 137.011 39.9512 135.192 39.9512 132.948V36.468C39.9512 34.2242 41.7701 32.4053 44.0139 32.4053H185.723C187.967 32.4053 189.785 34.2242 189.785 36.468V132.948C189.785 135.192 187.967 137.011 185.723 137.011Z" fill="white" stroke="#262424" stroke-width="1.56824" stroke-miterlimit="10" stroke-linecap="round" stroke-linejoin="round"/>
<path d="M102.459 37.1199V132.296" stroke="#262424" stroke-width="1.56824" stroke-miterlimit="10" stroke-linecap="round" stroke-linejoin="round"/>
<path d="M183.012 56.8018H49.8413" stroke="#262424" stroke-width="1.56824" stroke-miterlimit="10" stroke-linecap="round" stroke-linejoin="round"/>
<path d="M93.3377 78.7152H52.19C50.8929 78.7152 49.8413 77.6636 49.8413 76.3664V68.9379C49.8413 67.6407 50.8929 66.5891 52.19 66.5891H93.3377C94.6349 66.5891 95.6865 67.6407 95.6865 68.9379V76.3664C95.6865 77.6636 94.6349 78.7152 93.3377 78.7152Z" stroke="#262424" stroke-width="1.56824" stroke-miterlimit="10" stroke-linecap="round" stroke-linejoin="round"/>
<path d="M93.7803 53.0492H67.3966C66.3438 53.0492 65.4904 52.1958 65.4904 51.143V42.8293C65.4904 41.7765 66.3438 40.9231 67.3966 40.9231H93.7803C94.833 40.9231 95.6865 41.7765 95.6865 42.8293V51.143C95.6865 52.1958 94.833 53.0492 93.7803 53.0492Z" fill="#88C0C2"/>
<path d="M138.295 53.0492H111.911C110.858 53.0492 110.005 52.1958 110.005 51.143V42.8293C110.005 41.7765 110.858 40.9231 111.911 40.9231H138.295C139.347 40.9231 140.201 41.7765 140.201 42.8293V51.143C140.201 52.1958 139.347 53.0492 138.295 53.0492Z" fill="#88C0C2"/>
<path d="M155.879 89.5465H111.911C110.858 89.5465 110.005 88.693 110.005 87.6403V62.4606C110.005 61.4079 110.858 60.5544 111.911 60.5544H155.879C156.932 60.5544 157.785 61.4079 157.785 62.4606V87.6403C157.785 88.693 156.932 89.5465 155.879 89.5465Z" fill="white" stroke="#262424" stroke-width="1.56824" stroke-miterlimit="10" stroke-linecap="round" stroke-linejoin="round"/>
<path d="M155.879 130.017H111.911C110.858 130.017 110.005 129.163 110.005 128.11V95.413C110.005 94.3603 110.858 93.5068 111.911 93.5068H155.879C156.932 93.5068 157.785 94.3603 157.785 95.413V128.11C157.785 129.163 156.932 130.017 155.879 130.017Z" fill="white" stroke="#262424" stroke-width="1.56824" stroke-miterlimit="10" stroke-linecap="round" stroke-linejoin="round"/>
<path d="M181.106 130.017H163.652C162.599 130.017 161.746 129.163 161.746 128.11V114.635C161.746 113.583 162.599 112.729 163.652 112.729H181.106C182.159 112.729 183.012 113.583 183.012 114.635V128.11C183.012 129.163 182.159 130.017 181.106 130.017Z" fill="#88C0C2"/>
<path d="M181.637 45.0728H167.042C166.282 45.0728 165.667 44.457 165.667 43.6975V42.2983C165.667 41.5388 166.282 40.9231 167.042 40.9231H181.637C182.396 40.9231 183.012 41.5388 183.012 42.2983V43.6975C183.012 44.457 182.396 45.0728 181.637 45.0728Z" fill="#EC615B"/>
<path d="M181.637 53.0493H167.042C166.282 53.0493 165.667 52.4336 165.667 51.6741V50.2749C165.667 49.5154 166.282 48.8997 167.042 48.8997H181.637C182.396 48.8997 183.012 49.5154 183.012 50.2749V51.6741C183.012 52.4336 182.396 53.0493 181.637 53.0493Z" fill="#EC615B"/>
<path d="M58.9328 53.0492H50.9491C50.3373 53.0492 49.8413 52.5532 49.8413 51.9413V42.0309C49.8413 41.4191 50.3373 40.9231 50.9491 40.9231H58.9328C59.5447 40.9231 60.0407 41.4191 60.0407 42.0309V51.9413C60.0407 52.5532 59.5447 53.0492 58.9328 53.0492Z" fill="#88C0C2"/>
<path d="M93.3377 97.6974H52.19C50.8929 97.6974 49.8413 96.6458 49.8413 95.3486V87.92C49.8413 86.6229 50.8929 85.5713 52.19 85.5713H93.3377C94.6349 85.5713 95.6865 86.6229 95.6865 87.92V95.3486C95.6865 96.6458 94.6349 97.6974 93.3377 97.6974Z" stroke="#262424" stroke-width="1.56824" stroke-miterlimit="10" stroke-linecap="round" stroke-linejoin="round"/>
<path d="M93.3377 116.679H52.19C50.8929 116.679 49.8413 115.628 49.8413 114.331V106.902C49.8413 105.605 50.8929 104.553 52.19 104.553H93.3377C94.6349 104.553 95.6865 105.605 95.6865 106.902V114.331C95.6865 115.628 94.6349 116.679 93.3377 116.679Z" stroke="#262424" stroke-width="1.56824" stroke-miterlimit="10" stroke-linecap="round" stroke-linejoin="round"/>
<path d="M124.609 64.6238C118.852 64.6238 114.182 69.2938 114.182 75.0505C114.182 80.8104 118.852 85.4771 124.609 85.4771C130.365 85.4771 135.035 80.8104 135.035 75.0505C135.035 69.2938 130.365 64.6238 124.609 64.6238ZM124.609 79.8871C121.939 79.8871 119.772 77.7205 119.772 75.0505C119.772 72.3804 121.939 70.2138 124.609 70.2138C127.279 70.2138 129.445 72.3804 129.445 75.0505C129.445 77.7205 127.279 79.8871 124.609 79.8871Z" fill="#88C0C2"/>
<path d="M135.035 75.0505H129.445C129.445 72.3805 127.279 70.2138 124.609 70.2138V64.6238C130.365 64.6238 135.035 69.2938 135.035 75.0505Z" fill="#EC615B"/>
<path d="M152.352 77.6572H141.4C140.706 77.6572 140.143 77.0946 140.143 76.4006V74.7532C140.143 74.0592 140.706 73.4966 141.4 73.4966H152.352C153.046 73.4966 153.608 74.0592 153.608 74.7532V76.4006C153.608 77.0946 153.046 77.6572 152.352 77.6572Z" fill="#88C0C2"/>
<path d="M147.045 69.8371H141.4C140.706 69.8371 140.143 69.2745 140.143 68.5805V66.9331C140.143 66.2391 140.706 65.6765 141.4 65.6765H147.045C147.739 65.6765 148.301 66.2391 148.301 66.9331V68.5805C148.301 69.2745 147.739 69.8371 147.045 69.8371Z" fill="#EC615B"/>
<path d="M152.352 85.4772H141.4C140.706 85.4772 140.143 84.9146 140.143 84.2206V82.5733C140.143 81.8793 140.706 81.3167 141.4 81.3167H152.352C153.046 81.3167 153.608 81.8793 153.608 82.5733V84.2206C153.608 84.9146 153.046 85.4772 152.352 85.4772Z" fill="#88C0C2"/>
<path d="M181.106 107.508H163.652C162.599 107.508 161.746 106.655 161.746 105.602V62.4606C161.746 61.4079 162.599 60.5544 163.652 60.5544H181.106C182.159 60.5544 183.012 61.4079 183.012 62.4606V105.602C183.012 106.655 182.159 107.508 181.106 107.508Z" fill="white" stroke="#262424" stroke-width="1.56824" stroke-miterlimit="10" stroke-linecap="round" stroke-linejoin="round"/>
<path d="M172.043 67.7568H180.756" stroke="#262424" stroke-width="1.56824" stroke-miterlimit="10" stroke-linecap="round" stroke-linejoin="round"/>
<path d="M172.043 78.5552H180.756" stroke="#262424" stroke-width="1.56824" stroke-miterlimit="10" stroke-linecap="round" stroke-linejoin="round"/>
<path d="M172.043 89.3533H180.756" stroke="#262424" stroke-width="1.56824" stroke-miterlimit="10" stroke-linecap="round" stroke-linejoin="round"/>
<path d="M172.043 100.151H180.756" stroke="#262424" stroke-width="1.56824" stroke-miterlimit="10" stroke-linecap="round" stroke-linejoin="round"/>
<path d="M168.331 69.8371H165.973C165.279 69.8371 164.716 69.2745 164.716 68.5805V66.9331C164.716 66.2391 165.279 65.6765 165.973 65.6765H168.331C169.025 65.6765 169.587 66.2391 169.587 66.9331V68.5805C169.587 69.2745 169.025 69.8371 168.331 69.8371Z" fill="#EC615B"/>
<path d="M168.331 80.6352H165.973C165.279 80.6352 164.716 80.0726 164.716 79.3786V77.7312C164.716 77.0372 165.279 76.4746 165.973 76.4746H168.331C169.025 76.4746 169.587 77.0372 169.587 77.7312V79.3786C169.587 80.0726 169.025 80.6352 168.331 80.6352Z" fill="#88C0C2"/>
<path d="M168.331 91.4335H165.973C165.279 91.4335 164.716 90.8709 164.716 90.1769V88.5295C164.716 87.8355 165.279 87.2729 165.973 87.2729H168.331C169.025 87.2729 169.587 87.8355 169.587 88.5295V90.1769C169.587 90.8709 169.025 91.4335 168.331 91.4335Z" fill="#88C0C2"/>
<path d="M168.331 102.232H165.973C165.279 102.232 164.716 101.669 164.716 100.975V99.3276C164.716 98.6336 165.279 98.071 165.973 98.071H168.331C169.025 98.071 169.587 98.6336 169.587 99.3276V100.975C169.587 101.669 169.025 102.232 168.331 102.232Z" fill="#88C0C2"/>
<path d="M117.797 103.044H115.438C114.744 103.044 114.182 102.481 114.182 101.787V100.14C114.182 99.4459 114.744 98.8833 115.438 98.8833H117.797C118.491 98.8833 119.053 99.4459 119.053 100.14V101.787C119.053 102.481 118.491 103.044 117.797 103.044Z" fill="#88C0C2"/>
<path d="M117.797 113.842H115.438C114.744 113.842 114.182 113.279 114.182 112.585V110.938C114.182 110.244 114.744 109.681 115.438 109.681H117.797C118.491 109.681 119.053 110.244 119.053 110.938V112.585C119.053 113.279 118.491 113.842 117.797 113.842Z" fill="#88C0C2"/>
<path d="M117.797 124.64H115.438C114.744 124.64 114.182 124.078 114.182 123.384V121.736C114.182 121.042 114.744 120.48 115.438 120.48H117.797C118.491 120.48 119.053 121.042 119.053 121.736V123.384C119.053 124.078 118.491 124.64 117.797 124.64Z" fill="#88C0C2"/>
<path d="M121.508 96.1619V127.211H152.954" stroke="#262424" stroke-width="1.56824" stroke-miterlimit="10" stroke-linecap="round" stroke-linejoin="round"/>
<path d="M129.445 100.14V123.384C129.445 124.078 128.883 124.64 128.189 124.64H126.541C125.847 124.64 125.285 124.078 125.285 123.384V100.14C125.285 99.4459 125.847 98.8833 126.541 98.8833H128.189C128.883 98.8833 129.445 99.4459 129.445 100.14Z" fill="#EC615B"/>
<path d="M137.115 105.735V123.384C137.115 124.078 136.553 124.64 135.859 124.64H134.212C133.518 124.64 132.955 124.078 132.955 123.384V105.735C132.955 105.041 133.518 104.479 134.212 104.479H135.859C136.553 104.479 137.115 105.041 137.115 105.735Z" fill="#EC615B"/>
<path d="M144.786 110.44V123.384C144.786 124.078 144.223 124.64 143.529 124.64H141.882C141.188 124.64 140.625 124.078 140.625 123.384V110.44C140.625 109.746 141.188 109.184 141.882 109.184H143.529C144.223 109.184 144.786 109.746 144.786 110.44Z" fill="#EC615B"/>
<path d="M151.697 103.044H141.882C141.188 103.044 140.625 102.481 140.625 101.787V100.14C140.625 99.4459 141.188 98.8833 141.882 98.8833H151.697C152.391 98.8833 152.954 99.4459 152.954 100.14V101.787C152.954 102.481 152.391 103.044 151.697 103.044Z" fill="#88C0C2"/>
<path d="M89.4813 74.8588H48.3336C47.0365 74.8588 45.9849 73.8072 45.9849 72.51V65.0814C45.9849 63.7842 47.0365 62.7327 48.3336 62.7327H89.4813C90.7785 62.7327 91.8301 63.7842 91.8301 65.0814V72.51C91.8301 73.8072 90.7785 74.8588 89.4813 74.8588Z" fill="#EC615B"/>
<path d="M18.5697 131.755L23.3059 137.146L28.1983 131.435L21.3156 128.174L18.5697 131.755Z" fill="white" stroke="#262424" stroke-width="1.56824" stroke-miterlimit="10" stroke-linecap="round" stroke-linejoin="round"/>
<path d="M23.1313 131.436L21.519 133.308C21.054 133.848 21.0396 134.642 21.4848 135.199L23.0318 137.132C23.2964 137.463 23.6898 137.664 24.1127 137.686H24.1127C24.5587 137.709 24.9911 137.529 25.2894 137.196L27.3832 134.864C27.7861 134.415 27.8764 133.766 27.6115 133.225L27.3751 132.741C27.2414 132.468 27.0269 132.242 26.7605 132.095L24.9683 131.106C24.355 130.768 23.5884 130.905 23.1313 131.436Z" fill="white" stroke="#262424" stroke-width="1.56824" stroke-miterlimit="10" stroke-linecap="round" stroke-linejoin="round"/>
<path d="M24.4379 130.101H24.4379C24.7126 129.728 25.2005 129.582 25.6347 129.742L27.4891 130.428C28.0619 130.639 28.5121 131.093 28.7191 131.668L28.9322 132.259C29.0636 132.624 28.9813 133.031 28.7188 133.316L28.6318 133.41C28.4412 133.617 28.1749 133.738 27.8936 133.745L27.5745 133.753C26.9676 133.769 26.3845 133.517 25.9796 133.064L24.4999 131.411C24.1715 131.044 24.1456 130.497 24.4379 130.101Z" fill="white" stroke="#262424" stroke-width="1.56824" stroke-miterlimit="10" stroke-linecap="round" stroke-linejoin="round"/>
<path d="M21.3156 128.174L25.9317 129.081C26.3612 129.166 26.7122 129.475 26.8508 129.89C26.9904 130.308 26.8927 130.769 26.5954 131.095L24.5136 133.376C24.2178 133.7 23.7221 133.741 23.3771 133.47C23.0734 133.231 22.9722 132.816 23.1319 132.464L23.6534 131.317L21.9278 131.481C21.6154 131.511 21.3125 131.364 21.143 131.1L20.1729 129.587L21.3156 128.174Z" fill="white" stroke="#262424" stroke-width="1.56824" stroke-miterlimit="10" stroke-linecap="round" stroke-linejoin="round"/>
<path d="M34.5082 94.6982C37.806 100.976 21.9902 115.256 21.9902 115.256C21.9902 115.256 23.1061 123.164 23.9818 128.356L18.2432 132.454C18.2432 132.454 12.7631 122.996 11.5702 116.488C11.2786 114.893 11.0145 113.321 10.811 111.875C10.811 111.875 11.6695 110.247 13.1778 107.892C15.6905 103.967 21.7721 95.775 26.9287 91.9934C26.9287 91.9934 31.211 88.4218 34.5082 94.6982Z" fill="#EC615B"/>
<path d="M19.1221 131.242C19.4338 131.242 19.6864 130.99 19.6864 130.678C19.6864 130.366 19.4338 130.114 19.1221 130.114C18.8103 130.114 18.5577 130.366 18.5577 130.678C18.5577 130.99 18.8103 131.242 19.1221 131.242Z" fill="white" stroke="#262424" stroke-width="1.56824" stroke-miterlimit="10" stroke-linecap="round" stroke-linejoin="round"/>
<path d="M14.6114 113.02C14.105 114.788 12.8947 116.093 11.5702 116.488C11.2786 114.893 11.0145 113.321 10.811 111.875C10.811 111.875 11.6695 110.247 13.1778 107.892C14.5928 108.729 15.2302 110.86 14.6114 113.02Z" fill="white"/>
<path d="M15.4292 113.932L21.352 115.206" stroke="#262424" stroke-width="1.56824" stroke-miterlimit="10" stroke-linecap="round" stroke-linejoin="round"/>
<path d="M18.0618 129.469L21.9887 128.419" stroke="#262424" stroke-width="1.56824" stroke-miterlimit="10" stroke-linecap="round" stroke-linejoin="round"/>
<path d="M28.5107 155.977L20.4753 156.731L21.8926 153.265L28.62 152.184L28.5107 155.977Z" fill="white" stroke="#262424" stroke-width="1.56824" stroke-miterlimit="10" stroke-linecap="round" stroke-linejoin="round"/>
<path d="M16.1697 165.731C16.478 165.29 16.9957 164.266 17.3388 163.859C19.9933 160.717 22.4707 158.599 23.6094 157.665L22.4502 151.76C18.4609 152.087 14.7504 152.644 12.608 153.002C11.4141 153.201 10.7067 153.338 10.7067 153.338L12.5232 167.408L13.8901 167.232C14.7784 167.117 15.5775 166.577 16.1697 165.731Z" fill="black"/>
<path d="M18.5416 158.261C19.6994 158.112 20.5558 157.355 20.4546 156.571C20.3534 155.787 19.3328 155.273 18.1751 155.422C17.0174 155.572 16.1609 156.328 16.2622 157.112C16.3634 157.896 17.3839 158.411 18.5416 158.261Z" fill="white"/>
<path d="M13.8892 167.232L12.5226 167.408L10.7061 153.339C10.7061 153.339 11.4136 153.201 12.6075 153.002L14.1656 165.07C14.1656 165.07 15.7219 164.933 16.9783 164.385C16.6925 164.849 16.3813 165.428 16.1695 165.731C15.5768 166.578 14.7778 167.117 13.8892 167.232Z" fill="white"/>
<path d="M13.8892 167.232L12.5226 167.408L10.7061 153.339C10.7061 153.339 11.4136 153.201 12.6075 153.002L14.1656 165.07C14.1656 165.07 15.7219 164.933 16.9783 164.385C16.6924 164.849 16.3813 165.428 16.1695 165.731C15.5768 166.578 14.7778 167.117 13.8892 167.232Z" stroke="#262424" stroke-width="1.56824" stroke-miterlimit="10" stroke-linecap="round" stroke-linejoin="round"/>
<path d="M54.8926 157.29L52.4998 157.266L27.7599 157.008L26.9447 150.694L44.389 146.795C55.016 143.85 59.1233 147.938 59.7748 151.396C59.9485 152.325 59.8747 153.211 59.6075 153.901C58.3563 157.148 54.8926 157.29 54.8926 157.29Z" fill="white"/>
<path d="M54.8926 157.29L52.4998 157.266C52.4754 157.155 52.4572 157.039 52.4422 156.924C52.0683 154.028 54.1125 151.378 57.0051 151.004C57.9804 150.878 58.9307 151.028 59.7748 151.396C59.9485 152.325 59.8747 153.211 59.6075 153.901C58.3563 157.148 54.8926 157.29 54.8926 157.29Z" fill="white"/>
<path d="M53.3015 151.415L30.2083 153.869" stroke="#262424" stroke-width="1.56824" stroke-miterlimit="10" stroke-linecap="round" stroke-linejoin="round"/>
<path d="M49.9963 145.811L53.3015 151.415" stroke="#262424" stroke-width="1.56824" stroke-miterlimit="10" stroke-linecap="round" stroke-linejoin="round"/>
<path d="M29.1157 151.282L29.7597 156.27" stroke="#262424" stroke-width="1.56824" stroke-miterlimit="10" stroke-linecap="round" stroke-linejoin="round"/>
<path d="M59.8699 151.369C59.8699 151.535 59.8632 151.705 59.8432 151.875C59.8432 151.879 59.8432 151.882 59.8432 151.882C59.8299 152.055 59.8032 152.225 59.7699 152.399C59.0965 155.162 56.6865 157.135 53.8732 157.279C53.7632 157.285 53.6532 157.289 53.5432 157.289H53.3099C53.1465 157.289 52.9832 157.282 52.8232 157.269C52.7132 157.262 52.6032 157.252 52.4932 157.235C51.3499 157.089 50.2632 156.635 49.3499 155.919L30.3565 140.989C28.1532 139.172 26.9799 136.395 27.2099 133.549L27.7999 119.265L45.1632 118.719L44.4565 132.925L58.1699 147.429C59.2665 148.462 59.8699 149.892 59.8699 151.369Z" fill="white"/>
<path d="M35.6085 134.498L32.6146 135.549L29.6206 134.498V128.467H35.6085V134.498Z" stroke="#262424" stroke-width="1.56824" stroke-miterlimit="10" stroke-linecap="round" stroke-linejoin="round"/>
<path d="M59.8432 151.875C59.8432 151.879 59.8432 151.882 59.8432 151.882C59.8298 152.055 59.8032 152.225 59.7698 152.399C59.0965 155.162 56.6865 157.135 53.8732 157.279L52.8232 157.269L52.4998 157.265C52.4965 157.255 52.4965 157.245 52.4932 157.235C52.4732 157.135 52.4565 157.029 52.4432 156.925C52.0699 154.029 54.1132 151.379 57.0065 151.005C57.9798 150.879 58.9298 151.029 59.7732 151.395C59.8032 151.559 59.8265 151.719 59.8432 151.875Z" fill="white"/>
<path d="M59.7747 151.396C59.9484 152.325 59.8747 153.211 59.6075 153.901C58.3563 157.148 54.8925 157.29 54.8925 157.29L52.4998 157.266" stroke="#262424" stroke-width="1.56824" stroke-miterlimit="10" stroke-linecap="round" stroke-linejoin="round"/>
<path d="M42.23 140.127L53.0876 151.3L44.773 152.321" stroke="#262424" stroke-width="1.56824" stroke-miterlimit="10" stroke-linecap="round" stroke-linejoin="round"/>
<path d="M53.8957 118.285L54.4557 123.879L54.5196 124.517L55.1231 124.299L69.3406 119.165L69.3512 119.161L69.3616 119.157C70.916 118.515 72.6902 118.71 74.0676 119.675C74.0695 119.676 74.0714 119.677 74.0733 119.679C75.7831 120.879 76.5497 123.027 75.9871 125.038C75.9864 125.041 75.9858 125.043 75.9852 125.045C75.3216 127.405 73.7178 129.388 71.5494 130.53L51.6853 140.995C49.2781 142.185 46.4421 142.125 44.0874 140.835C44.0846 140.833 44.0818 140.832 44.079 140.83C41.4892 139.408 39.861 136.706 39.813 133.751C39.813 133.751 39.813 133.751 39.813 133.751L39.6622 122.073L53.8957 118.285Z" fill="white" stroke="black"/>
<path d="M47.1947 134.498L44.2007 135.548L41.2068 134.498V128.467H47.1947V134.498Z" stroke="#262424" stroke-width="1.56824" stroke-miterlimit="10" stroke-linecap="round" stroke-linejoin="round"/>
<path d="M39.1572 121.69L39.3131 133.759C39.3636 136.893 41.0909 139.759 43.8383 141.268L43.8383 141.268C45.069 141.944 46.4241 142.303 47.7879 142.343C47.7879 142.343 49.0227 142.373 49.8415 142.158C50.6602 141.943 51.6489 141.565 51.6489 141.565" stroke="#262424" stroke-width="1.56824" stroke-miterlimit="10" stroke-linecap="round" stroke-linejoin="round"/>
<path d="M48.9137 122.828L49.1556 131.8L70.6233 124.917" stroke="#262424" stroke-width="1.56824" stroke-miterlimit="10" stroke-linecap="round" stroke-linejoin="round"/>
<path d="M49.1556 131.8L50.5074 130.019C51.3708 128.881 51.841 127.494 51.8469 126.066L51.8604 122.828" stroke="#262424" stroke-width="1.56824" stroke-miterlimit="10" stroke-linecap="round" stroke-linejoin="round"/>
<path d="M71.9736 150.088L71.6927 158.154L68.4361 156.305L68.2261 149.494L71.9736 150.088Z" fill="white" stroke="#262424" stroke-width="1.56824" stroke-miterlimit="10" stroke-linecap="round" stroke-linejoin="round"/>
<path d="M80.0668 163.577C79.669 163.215 78.7195 162.57 78.3606 162.178C75.5834 159.143 73.8006 156.415 73.0199 155.166L67.0154 155.559C66.8286 159.558 66.9061 163.309 66.9868 165.48C67.031 166.689 67.0769 167.408 67.0769 167.408H81.2636V166.03C81.2636 165.134 80.8305 164.273 80.0668 163.577Z" fill="black"/>
<path d="M71.5312 162.381C72.3218 162.381 72.9626 161.435 72.9626 160.268C72.9626 159.1 72.3218 158.154 71.5312 158.154C70.7407 158.154 70.0999 159.1 70.0999 160.268C70.0999 161.435 70.7407 162.381 71.5312 162.381Z" fill="white"/>
<path d="M81.2636 166.03V167.408H67.0773C67.0773 167.408 67.0313 166.689 66.9863 165.479H79.1548C79.1548 165.479 79.2186 163.919 78.836 162.602C79.2594 162.945 79.7936 163.328 80.0665 163.577C80.8308 164.273 81.2636 165.134 81.2636 166.03Z" fill="white"/>
<path d="M81.2636 166.03V167.408H67.0773C67.0773 167.408 67.0313 166.689 66.9863 165.479H79.1548C79.1548 165.479 79.2186 163.919 78.836 162.602C79.2594 162.945 79.7936 163.328 80.0665 163.577C80.8308 164.273 81.2636 165.134 81.2636 166.03Z" stroke="#262424" stroke-width="1.56824" stroke-miterlimit="10" stroke-linecap="round" stroke-linejoin="round"/>
<path d="M76.6535 124.091L76.3235 126.461L72.9001 150.965H66.5335L64.9001 133.165C63.3401 122.248 67.9201 118.698 71.4335 118.495C72.3768 118.441 73.2468 118.628 73.8968 118.982C76.9568 120.638 76.6535 124.091 76.6535 124.091Z" fill="white"/>
<path d="M76.6535 124.091L76.3235 126.461C76.2101 126.471 76.0935 126.475 75.9768 126.475C73.0568 126.475 70.6901 124.108 70.6901 121.191C70.6901 120.208 70.9601 119.285 71.4335 118.495C72.3768 118.441 73.2468 118.628 73.8968 118.982C76.9568 120.638 76.6535 124.091 76.6535 124.091Z" fill="white"/>
<path d="M71.4335 118.495C72.3768 118.441 73.2468 118.628 73.8968 118.982C76.9568 120.638 76.6535 124.091 76.6535 124.091L76.3235 126.461" stroke="#262424" stroke-width="1.56824" stroke-miterlimit="10" stroke-linecap="round" stroke-linejoin="round"/>
<path d="M70.6233 124.917L70.0999 148.135" stroke="#262424" stroke-width="1.56824" stroke-miterlimit="10" stroke-linecap="round" stroke-linejoin="round"/>
<path d="M64.7045 126.815L70.6233 124.917" stroke="#262424" stroke-width="1.56824" stroke-miterlimit="10" stroke-linecap="round" stroke-linejoin="round"/>
<path d="M67.3948 148.887H72.4245" stroke="#262424" stroke-width="1.56824" stroke-miterlimit="10" stroke-linecap="round" stroke-linejoin="round"/>
<path d="M35.6846 89.5013L35.5231 85.2717L38.4175 85.4837L38.9936 88.8541L35.6846 89.5013Z" fill="white" stroke="#262424" stroke-width="1.56824" stroke-miterlimit="10" stroke-linecap="round" stroke-linejoin="round"/>
<path d="M36.7699 84.5663C36.7699 84.5663 38.5227 86.2653 40.5406 85.8706C42.5584 85.4759 42.441 76.8876 38.7127 76.8889C34.9844 76.8902 33.4923 81.4256 36.7699 84.5663Z" fill="white" stroke="#262424" stroke-width="1.56824" stroke-miterlimit="10" stroke-linecap="round" stroke-linejoin="round"/>
<path d="M40.6104 81.5068C40.6104 81.5068 39.9097 79.9216 38.8271 80.5595C37.7445 81.1974 38.1775 83.048 39.1192 83.4142L38.4175 85.4837L35.5526 86.0441C35.5526 86.0441 32.6365 83.4039 31.9816 81.5079C31.3267 79.6119 33.1776 79.0901 33.1776 79.0901C33.1776 79.0901 33.1918 77.3473 34.503 76.789C35.8142 76.2307 39.7303 76.2814 39.7303 76.2814C39.7303 76.2814 40.2339 74.9756 40.852 74.868C41.4702 74.7604 41.7082 76.0454 41.7082 76.0454C41.7082 76.0454 42.3105 74.8357 42.8734 75.0585C43.4364 75.2813 43.4353 79.7691 40.7531 79.4681C40.7531 79.4681 41.4413 81.1712 40.6104 81.5068Z" fill="#262424"/>
<path d="M33.2572 90.1627C33.2572 90.1627 33.651 87.9551 36.7291 87.353C39.8073 86.7509 41.3914 89.1309 41.3914 89.1309L33.3626 90.7014L33.2572 90.1627Z" fill="white" stroke="#262424" stroke-width="1.56824" stroke-miterlimit="10" stroke-linecap="round" stroke-linejoin="round"/>
<path d="M55.5877 122.13C54.3877 122.83 53.1383 123.436 51.8604 123.955L51.0606 119.867C51.0102 119.609 50.8598 119.396 50.6584 119.259C50.4562 119.124 50.2018 119.065 49.9443 119.116C49.4282 119.216 49.0912 119.716 49.1922 120.232L50.0526 124.631C38.4878 128.586 25.4096 126.329 25.4096 126.329C24.2386 104.542 28.0092 91.5172 28.0092 91.5172C33.5195 89.0257 49.2145 87.3694 49.2145 87.3694C52.1499 100.928 55.5877 122.13 55.5877 122.13Z" fill="#EC615B"/>
<path d="M27.7991 92.3213C27.4106 93.8939 26.5628 97.7366 25.9373 103.516L25.4466 109.332" stroke="#262424" stroke-width="1.56824" stroke-miterlimit="10" stroke-linecap="round" stroke-linejoin="round"/>
<path d="M36.0894 91.5706C36.0894 91.5706 33.5552 105.347 36.3916 123.116" stroke="#262424" stroke-width="1.56824" stroke-miterlimit="10" stroke-linecap="round" stroke-linejoin="round"/>
<path d="M52.0986 121.816C52.8329 121.56 53.5785 121.286 54.3347 120.991" stroke="#262424" stroke-width="1.56824" stroke-miterlimit="10" stroke-linecap="round" stroke-linejoin="round"/>
<path d="M26.7127 124.234C26.7127 124.234 35.6013 126.662 48.9137 122.828" stroke="#262424" stroke-width="1.56824" stroke-miterlimit="10" stroke-linecap="round" stroke-linejoin="round"/>
<path d="M72.8735 79.2951L71.1912 76.5634C70.6708 75.7983 70.3593 74.9104 70.2877 73.9879L70.1349 72.0217C70.1131 71.7422 70.3375 71.5051 70.6177 71.5113C70.7992 71.5154 70.9624 71.6228 71.0379 71.7878L72.0507 74.0006L72.1567 71.2154L72.667 67.9701C72.7167 67.6539 73.0046 67.4316 73.3231 67.4635C73.624 67.4936 73.8561 67.7419 73.866 68.0441L73.9755 71.4001C73.9809 71.5673 74.1083 71.7052 74.2745 71.7237C74.4532 71.7437 74.616 71.6198 74.6444 71.4423L75.099 68.601C75.1743 68.1305 75.7102 67.8948 76.1078 68.1573L77.9724 69.3881C78.3749 69.6537 78.6118 70.1081 78.5993 70.5901L78.4848 73.7942C78.4651 74.3462 78.3566 74.8915 78.1637 75.4091L76.1341 80.9376L72.8735 79.2951Z" fill="white" stroke="#262424" stroke-width="1.56824" stroke-miterlimit="10" stroke-linecap="round" stroke-linejoin="round"/>
<path d="M45.1078 92.9325C45.3732 90.8375 46.5689 88.2887 49.0674 87.3896C53.169 87.156 63.1378 86.8898 63.1378 86.8898C63.1378 86.8898 68.6845 81.6304 71.9971 78.1853L76.8567 80.2225C76.8567 80.2225 74.3632 85.8963 71.7913 91.5279C71.1606 92.9072 70.5208 94.2549 69.9023 95.4729C69.9023 95.4729 68.3712 96.2622 65.9523 97.2606C61.9218 98.9251 55.4248 101.17 49.4429 101.308C49.4429 101.308 44.2743 99.5138 45.1078 92.9325Z" fill="#EC615B"/>
<path d="M49.4429 101.308C49.4429 101.308 44.2743 99.514 45.1078 92.9326C45.3276 91.1974 46.1856 89.1509 47.8934 87.9883" stroke="#262424" stroke-width="1.56824" stroke-miterlimit="10" stroke-linecap="round" stroke-linejoin="round"/>
<path d="M75.2307 81.6424C75.5224 81.6424 75.7588 81.4059 75.7588 81.1143C75.7588 80.8226 75.5224 80.5862 75.2307 80.5862C74.939 80.5862 74.7026 80.8226 74.7026 81.1143C74.7026 81.4059 74.939 81.6424 75.2307 81.6424Z" fill="white" stroke="#262424" stroke-width="1.56824" stroke-miterlimit="10" stroke-linecap="round" stroke-linejoin="round"/>
<path d="M67.6003 92.5584C68.9358 91.4738 70.5638 91.1208 71.7912 91.5277C71.1606 92.9071 70.5207 94.2547 69.9022 95.4728C69.9022 95.4728 68.3712 96.262 65.9522 97.2604C65.3154 95.8599 65.9681 93.8839 67.6003 92.5584Z" fill="white"/>
<path d="M67.4614 91.4211L63.6008 87.2698" stroke="#262424" stroke-width="1.56824" stroke-miterlimit="10" stroke-linecap="round" stroke-linejoin="round"/>
<path d="M75.3963 82.6097L70.9912 80.5813" stroke="#262424" stroke-width="1.56824" stroke-miterlimit="10" stroke-linecap="round" stroke-linejoin="round"/>
<path d="M117.198 161C116.006 161 114.929 161.484 114.15 162.263C113.368 163.042 112.887 164.121 112.887 165.311C112.887 164.121 112.406 163.042 111.624 162.263C110.845 161.484 109.768 161 108.576 161C109.768 161 110.845 160.516 111.624 159.737C112.406 158.958 112.887 157.878 112.887 156.689C112.887 157.878 113.368 158.958 114.15 159.737C114.929 160.516 116.006 161 117.198 161Z" fill="#EC615B"/>
<path d="M17.8675 144.042C17.4106 144.042 16.9975 144.228 16.6987 144.527C16.399 144.825 16.2144 145.239 16.2144 145.695C16.2144 145.239 16.0299 144.825 15.7301 144.527C15.4313 144.228 15.0183 144.042 14.5613 144.042C15.0183 144.042 15.4313 143.857 15.7301 143.558C16.0299 143.259 16.2144 142.845 16.2144 142.389C16.2144 142.845 16.399 143.259 16.6987 143.558C16.9975 143.857 17.4106 144.042 17.8675 144.042Z" fill="#EC615B"/>
<path d="M31.5017 53.8443C30.5698 53.8443 29.7275 54.2226 29.1182 54.8319C28.5068 55.4413 28.1305 56.2855 28.1305 57.2155C28.1305 56.2855 27.7542 55.4413 27.1429 54.8319C26.5335 54.2226 25.6913 53.8443 24.7593 53.8443C25.6913 53.8443 26.5335 53.466 27.1429 52.8566C27.7542 52.2473 28.1305 51.4031 28.1305 50.4731C28.1305 51.4031 28.5068 52.2473 29.1182 52.8566C29.7275 53.466 30.5698 53.8443 31.5017 53.8443Z" fill="#88C0C2"/>
<path d="M99.2567 146.738C98.6609 146.738 98.1223 146.98 97.7328 147.37C97.3419 147.759 97.1013 148.299 97.1013 148.893C97.1013 148.299 96.8607 147.759 96.4699 147.37C96.0803 146.98 95.5418 146.738 94.946 146.738C95.5418 146.738 96.0803 146.496 96.4699 146.107C96.8607 145.717 97.1013 145.177 97.1013 144.583C97.1013 145.177 97.3419 145.717 97.7328 146.107C98.1223 146.496 98.6609 146.738 99.2567 146.738Z" fill="#88C0C2"/>
<path d="M17.1064 86.522C16.6428 86.522 16.2237 86.7103 15.9205 87.0134C15.6164 87.3166 15.4291 87.7367 15.4291 88.1993C15.4291 87.7367 15.2419 87.3166 14.9377 87.0134C14.6346 86.7103 14.2155 86.522 13.7518 86.522C14.2155 86.522 14.6346 86.3338 14.9377 86.0306C15.2419 85.7275 15.4291 85.3074 15.4291 84.8447C15.4291 85.3074 15.6164 85.7275 15.9205 86.0306C16.2237 86.3338 16.6428 86.522 17.1064 86.522Z" fill="#EC615B"/>
<path d="M126.629 146.738C127.035 146.738 127.365 146.409 127.365 146.002C127.365 145.596 127.035 145.267 126.629 145.267C126.223 145.267 125.893 145.596 125.893 146.002C125.893 146.409 126.223 146.738 126.629 146.738Z" fill="#88C0C2"/>
<path d="M185.136 159.421C185.719 159.421 186.192 158.948 186.192 158.366C186.192 157.783 185.719 157.31 185.136 157.31C184.553 157.31 184.081 157.783 184.081 158.366C184.081 158.948 184.553 159.421 185.136 159.421Z" fill="#EC615B"/>
</svg>
