<svg width="200" height="200" viewBox="0 0 200 200" fill="none" xmlns="http://www.w3.org/2000/svg">
<path d="M30.6708 165.135C30.6708 165.135 1.18581 147.371 7.36489 111.581C7.36489 111.581 38.8502 127.439 30.6708 165.135Z" fill="#EC615B"/>
<path d="M17.8835 130.137C12.8876 129.874 9.24388 127.655 6.65643 125.086C6.87949 128.136 7.36002 131.014 8.04324 133.714C10.3592 134.999 13.202 135.841 16.6742 135.815C22.5572 135.771 26.8663 137.198 29.9011 138.886C29.3688 137.198 28.7538 135.594 28.0729 134.073C25.3978 131.99 22.0151 130.354 17.8835 130.137Z" fill="#ECBDBB"/>
<path d="M22.514 143.546C17.4355 144.245 13.3651 142.66 10.3146 140.547C11.6589 143.792 13.265 146.715 14.9802 149.316C17.1591 149.812 19.6269 149.902 22.3955 149.349C26.0573 148.619 29.2044 148.593 31.8622 148.947C31.7399 147.454 31.5504 146.01 31.3037 144.614C28.7149 143.614 25.7614 143.098 22.514 143.546Z" fill="#ECBDBB"/>
<path d="M8.88464 115.31L29.8704 162.582" stroke="#ECBDBB" stroke-miterlimit="10" stroke-linecap="round" stroke-linejoin="round"/>
<path d="M28.6751 165.74C28.6751 165.74 21.9716 145.74 3.64345 146.333C3.64345 146.333 4.89775 163.484 28.6751 165.74Z" fill="#9AB3DA"/>
<path d="M7.07309 148.92C7.23821 148.965 26.6253 164.506 26.6253 164.506" stroke="white" stroke-miterlimit="10" stroke-linecap="round" stroke-linejoin="round"/>
<path d="M156.484 167.974C156.484 167.974 190.212 161.093 196.357 125.297C196.357 125.297 161.381 129.713 156.484 167.974Z" fill="#EC615B"/>
<path d="M180.238 139.267C185.035 140.69 189.21 139.817 192.508 138.261C191.278 141.061 189.863 143.612 188.316 145.929C185.704 146.365 182.743 146.208 179.48 145.022C173.95 143.013 169.411 142.918 165.987 143.493C167.053 142.081 168.169 140.774 169.32 139.569C172.537 138.5 176.272 138.09 180.238 139.267Z" fill="#ECBDBB"/>
<path d="M171.391 150.355C175.943 152.713 180.309 152.58 183.89 151.609C181.539 154.217 179.047 156.435 176.561 158.313C174.342 158.052 171.986 157.311 169.562 155.865C166.355 153.952 163.397 152.875 160.775 152.319C161.389 150.953 162.05 149.656 162.75 148.423C165.524 148.346 168.48 148.848 171.391 150.355Z" fill="#ECBDBB"/>
<path d="M193.677 128.303L158.092 165.835" stroke="#ECBDBB" stroke-miterlimit="10" stroke-linecap="round" stroke-linejoin="round"/>
<path d="M158.727 147.271C158.727 147.271 156.41 131.282 169.148 125.362C169.148 125.362 174.208 137.524 158.727 147.271Z" fill="#9AB3DA"/>
<path d="M18.2788 20.6868V22.4496" stroke="white" stroke-miterlimit="10" stroke-linecap="round" stroke-linejoin="round"/>
<path d="M18.2788 24.3313V26.0942" stroke="white" stroke-miterlimit="10" stroke-linecap="round" stroke-linejoin="round"/>
<path d="M20.9825 23.3906H19.2196" stroke="white" stroke-miterlimit="10" stroke-linecap="round" stroke-linejoin="round"/>
<path d="M17.3379 23.3906H15.575" stroke="white" stroke-miterlimit="10" stroke-linecap="round" stroke-linejoin="round"/>
<path d="M57.5502 39.2454V40.7209" stroke="white" stroke-miterlimit="10" stroke-linecap="round" stroke-linejoin="round"/>
<path d="M57.5502 42.2959V43.7714" stroke="white" stroke-miterlimit="10" stroke-linecap="round" stroke-linejoin="round"/>
<path d="M59.8132 41.5083H58.3376" stroke="white" stroke-miterlimit="10" stroke-linecap="round" stroke-linejoin="round"/>
<path d="M56.7627 41.5083H55.2872" stroke="white" stroke-miterlimit="10" stroke-linecap="round" stroke-linejoin="round"/>
<path d="M139.77 52.3699V53.8454" stroke="white" stroke-miterlimit="10" stroke-linecap="round" stroke-linejoin="round"/>
<path d="M139.77 55.4204V56.8959" stroke="white" stroke-miterlimit="10" stroke-linecap="round" stroke-linejoin="round"/>
<path d="M142.033 54.6328H140.558" stroke="white" stroke-miterlimit="10" stroke-linecap="round" stroke-linejoin="round"/>
<path d="M138.983 54.6328H137.507" stroke="white" stroke-miterlimit="10" stroke-linecap="round" stroke-linejoin="round"/>
<path d="M181.971 19.3645V21.2111" stroke="white" stroke-miterlimit="10" stroke-linecap="round" stroke-linejoin="round"/>
<path d="M181.971 23.1824V25.029" stroke="white" stroke-miterlimit="10" stroke-linecap="round" stroke-linejoin="round"/>
<path d="M184.803 22.1968H182.956" stroke="white" stroke-miterlimit="10" stroke-linecap="round" stroke-linejoin="round"/>
<path d="M180.985 22.1968H179.138" stroke="white" stroke-miterlimit="10" stroke-linecap="round" stroke-linejoin="round"/>
<path d="M10.3146 59.3758C11.1228 59.3758 11.778 58.7206 11.778 57.9124C11.778 57.1042 11.1228 56.449 10.3146 56.449C9.50635 56.449 8.85117 57.1042 8.85117 57.9124C8.85117 58.7206 9.50635 59.3758 10.3146 59.3758Z" stroke="white" stroke-miterlimit="10" stroke-linecap="round" stroke-linejoin="round"/>
<path d="M184.803 60.8392C185.611 60.8392 186.266 60.184 186.266 59.3758C186.266 58.5675 185.611 57.9124 184.803 57.9124C183.995 57.9124 183.339 58.5675 183.339 59.3758C183.339 60.184 183.995 60.8392 184.803 60.8392Z" stroke="white" stroke-miterlimit="10" stroke-linecap="round" stroke-linejoin="round"/>
<path d="M21.7929 128.409L15.4127 166.348C15.2697 167.199 15.9252 167.974 16.7875 167.974H16.7875C17.4068 167.974 17.9519 167.565 18.1256 166.971L29.3968 128.409H21.7929Z" fill="#9AB3DA"/>
<path d="M19.1465 163.478L29.3968 128.409" stroke="#E9F3FF" stroke-miterlimit="10" stroke-linecap="round" stroke-linejoin="round"/>
<path d="M21.7929 128.409L16.0825 162.365" stroke="#E9F3FF" stroke-miterlimit="10" stroke-linecap="round" stroke-linejoin="round"/>
<path d="M35.4513 128.409L29.0711 166.348C28.9281 167.199 29.5836 167.974 30.4459 167.974H30.4459C31.0652 167.974 31.6103 167.565 31.784 166.971L43.0552 128.409H35.4513Z" fill="black"/>
<path d="M66.7299 128.409L73.11 166.348C73.253 167.199 72.5975 167.974 71.7352 167.974C71.1159 167.974 70.5709 167.565 70.3971 166.971L59.1259 128.409H66.7299Z" fill="black"/>
<path d="M53.0715 128.409L59.4516 166.348C59.5946 167.199 58.9391 167.974 58.0768 167.974C57.4575 167.974 56.9125 167.565 56.7387 166.971L45.4675 128.409H53.0715Z" fill="#9AB3DA"/>
<path d="M57.9909 126.033H18.3077V78.4346H43.9342C45.8793 78.4346 47.4562 80.0114 47.4562 81.9566V116.553C47.4562 120.424 50.0367 123.82 53.7663 124.858L57.9909 126.033Z" fill="black"/>
<path d="M22.0928 82.1869C22.0099 78.0772 16.3111 76.9616 14.7694 80.772C11.8071 88.0937 13.08 101.34 13.08 111.142C13.08 125.399 15.9315 132.37 33.0404 132.37C33.0404 132.37 48.4067 132.37 54.7434 132.37C61.08 132.37 60.4463 124.449 55.0602 124.449C49.6741 124.449 33.0404 124.449 29.08 124.449C25.1196 124.449 22.5849 121.122 22.5849 113.043C22.5849 107.434 22.2796 91.4426 22.0928 82.1869Z" fill="white"/>
<path d="M67.257 132.37H46.7017C44.5144 132.37 42.7413 130.597 42.7413 128.409V128.409C42.7413 126.222 44.5144 124.449 46.7017 124.449H67.257C69.4442 124.449 71.2174 126.222 71.2174 128.409V128.409C71.2174 130.597 69.4442 132.37 67.257 132.37Z" fill="black"/>
<path d="M42.9924 54.9963C43.0651 55.266 39.6977 55.3918 39.6977 55.3918L38.5274 51.1721L42.4538 51.3328C42.4538 51.3328 42.6859 53.0141 42.8491 54.1033C42.917 54.5651 42.9708 54.9178 42.9924 54.9963Z" fill="#ECBDBB"/>
<path d="M42.8491 54.1033C40.0357 53.4237 38.5274 51.1721 38.5274 51.1721L42.4538 51.3328C42.4538 51.3328 42.6858 53.0141 42.8491 54.1033Z" fill="black"/>
<path d="M69.8433 156.025C69.8433 156.025 73.7323 156.525 73.7333 156.409C73.734 156.324 74.4476 153.166 74.831 151.473C74.9718 150.848 75.0689 150.423 75.0689 150.423L70.3246 149.916L70.0682 153.176L69.8433 156.025Z" fill="#ECBDBB"/>
<path d="M70.3246 149.916L70.0682 153.176C72.5153 152.846 74.06 152.009 74.831 151.473C74.9718 150.848 75.0689 150.423 75.0689 150.423L70.3246 149.916Z" fill="black"/>
<path d="M74.995 154.388C74.995 154.388 80.6103 159.391 81.3963 159.442C82.1822 159.494 85.7756 159.937 85.7756 159.937L87.6488 165.525C87.6488 165.525 74.2394 166.879 67.1691 165.984C66.9294 162.174 67.5305 157.668 69.1473 154.563C70.9368 155.02 72.8773 154.989 74.995 154.388Z" fill="black"/>
<path d="M79.7323 161.517C79.8064 161.51 79.8753 161.466 79.9093 161.394C79.9598 161.286 79.9137 161.158 79.8061 161.107C75.1118 158.9 72.5916 155.414 72.5667 155.379C72.4979 155.281 72.3632 155.259 72.2669 155.329C72.1697 155.397 72.1472 155.532 72.2164 155.628C72.2418 155.665 74.8278 159.242 79.6227 161.497C79.6582 161.513 79.6959 161.52 79.7323 161.517Z" fill="#9AB3DA"/>
<path d="M82.5768 159.07C79.7922 160.827 79.1231 165.455 79.1231 165.455C74.1197 165.912 66.6968 165.476 66.6968 165.476L66.8075 167.974H89.4227C90.4141 158.307 82.5768 159.07 82.5768 159.07Z" fill="#EC615B"/>
<path d="M71.1697 163.578C72.4237 163.474 73.338 162.164 73.2119 160.653C73.0858 159.142 71.9671 158.001 70.7131 158.106C69.4592 158.211 68.5448 159.52 68.6709 161.032C68.797 162.543 69.9157 163.683 71.1697 163.578Z" fill="#EEEEEE"/>
<path d="M81.9856 118.372L81.3656 122.158L77.3256 146.825L69.0889 148.252L69.4089 124.648H49.5723C44.0923 124.648 39.6623 120.182 39.7023 114.702L39.7856 104.052L56.9794 106.588L76.2723 112.545L78.9923 113.442C81.0689 114.125 82.3356 116.215 81.9856 118.372Z" fill="black"/>
<path d="M46.9138 106.587L47.6267 118.548H67.6737C69.7089 118.548 71.3225 120.264 71.197 122.296L69.8816 143.577" stroke="white" stroke-miterlimit="10" stroke-linecap="round" stroke-linejoin="round"/>
<path d="M47.2902 112.902L47.966 112.552C49.2415 111.893 50.0425 110.577 50.0425 109.141V106.587" stroke="white" stroke-miterlimit="10" stroke-linecap="round" stroke-linejoin="round"/>
<path d="M67.4906 143.695L79.3186 145.004L77.5369 152.412L66.9931 150.958L67.4906 143.695Z" fill="white"/>
<path d="M81.9856 118.372L81.3656 122.158C81.3456 122.168 81.3256 122.175 81.3056 122.182C79.2923 122.855 76.8556 120.995 75.8623 118.032C75.1556 115.925 75.3689 113.825 76.2723 112.545L78.9923 113.442C81.0689 114.125 82.3356 116.215 81.9856 118.372Z" fill="white"/>
<path d="M69.3789 156.088C69.3789 156.088 73.1928 155.177 73.1523 155.068C73.1232 154.989 72.6713 151.783 72.4298 150.063C72.34 149.429 72.2803 148.998 72.2803 148.998L67.6642 150.204L68.5796 153.344L69.3789 156.088Z" fill="#ECBDBB"/>
<path d="M67.6642 150.204L68.5796 153.344C70.751 152.168 71.8987 150.837 72.4298 150.063C72.34 149.429 72.2803 148.998 72.2803 148.998L67.6642 150.204Z" fill="black"/>
<path d="M73.8766 154.388C73.8766 154.388 79.4919 159.391 80.2779 159.442C81.0638 159.494 84.6572 159.937 84.6572 159.937L86.5304 165.525C86.5304 165.525 73.121 166.879 66.0507 165.984C65.811 162.174 66.4121 157.668 68.0289 154.563C69.8184 155.02 71.7589 154.989 73.8766 154.388Z" fill="black"/>
<path d="M78.6139 161.517C78.688 161.51 78.7569 161.466 78.7909 161.394C78.8414 161.286 78.7953 161.158 78.6877 161.107C73.9934 158.9 71.4731 155.414 71.4483 155.379C71.3795 155.281 71.2448 155.259 71.1485 155.329C71.0513 155.397 71.0288 155.532 71.098 155.628C71.1234 155.665 73.7094 159.242 78.5043 161.497C78.5398 161.513 78.5775 161.52 78.6139 161.517Z" fill="#9AB3DA"/>
<path d="M81.4583 159.07C78.6738 160.827 78.0047 165.455 78.0047 165.455C73.0013 165.912 65.5784 165.476 65.5784 165.476L65.6891 167.974H88.3043C89.2958 158.307 81.4583 159.07 81.4583 159.07Z" fill="#EC615B"/>
<path d="M70.0513 163.578C71.3053 163.474 72.2196 162.164 72.0935 160.653C71.9674 159.142 70.8487 158.001 69.5947 158.106C68.3408 158.211 67.4264 159.52 67.5525 161.032C67.6786 162.543 68.7973 163.683 70.0513 163.578Z" fill="#EEEEEE"/>
<path d="M25.4364 104.053L25.3545 114.702C25.3124 120.182 29.7431 124.647 35.2234 124.647H55.0602L65.0404 148.251L73.278 146.825L69.1856 120.627C68.6103 116.944 66.0205 113.894 62.4798 112.729L43.8127 106.588L25.4364 104.053Z" fill="white"/>
<path d="M32.5651 106.588L33.278 118.548H53.3572C55.5868 118.548 57.5728 119.957 58.3088 122.062L65.8325 143.578" stroke="#9AB3DA" stroke-miterlimit="10" stroke-linecap="round" stroke-linejoin="round"/>
<path d="M32.9415 112.902L33.6173 112.553C34.8928 111.893 35.6939 110.577 35.6939 109.141V106.588" stroke="#9AB3DA" stroke-miterlimit="10" stroke-linecap="round" stroke-linejoin="round"/>
<path d="M62.6245 145.756L73.9513 143.063L75.4562 150.429L65.2384 152.568L62.6245 145.756Z" fill="#9AB3DA"/>
<path d="M66.1281 124.726C67.9826 123.696 68.2543 120.644 66.7349 117.91C65.2156 115.176 62.4805 113.795 60.626 114.826C58.7715 115.856 58.4998 118.908 60.0191 121.642C61.5385 124.376 64.2735 125.757 66.1281 124.726Z" fill="#9AB3DA"/>
<path d="M53.6345 61.4392C48.0899 62.1771 57.7522 89.5118 58.228 92.9607C58.7038 96.4095 61.037 97.9937 66.1278 97.9937C71.2186 97.9937 74.2483 90.7066 67.6641 86.5086C67.6641 86.5086 63.5833 72.4712 60.3044 67.4535C56.0249 60.9046 53.6345 61.4392 53.6345 61.4392Z" fill="#EC615B"/>
<path d="M60.2158 91.4391C60.2158 91.4391 60.7108 86.2708 66.5383 86.5084" stroke="#ECBDBB" stroke-miterlimit="10" stroke-linecap="round" stroke-linejoin="round"/>
<path d="M63.9388 97.8764C62.5454 97.8764 63.1691 94.261 64.0602 92.2412C64.9513 90.2214 66.5256 91.4392 66.5256 91.4392C66.5256 91.4392 67.8919 90.5778 68.6939 90.9045C69.4958 91.2313 69.7929 91.8253 69.7929 91.8253C69.7929 91.8253 70.5289 91.3123 71.3639 91.5837C72.1988 91.855 72.3473 92.9561 72.3473 92.9561C72.3473 92.9561 73.3275 92.6273 73.7731 93.1026C74.2186 93.5778 74.0404 97.1849 72.585 97.8764C71.1295 98.5679 63.9388 97.8764 63.9388 97.8764Z" fill="#ECBDBB"/>
<path d="M66.4958 92.3699L65.3671 97.053" stroke="black" stroke-miterlimit="10" stroke-linecap="round" stroke-linejoin="round"/>
<path d="M69.5553 92.8352L68.4451 97.053" stroke="black" stroke-miterlimit="10" stroke-linecap="round" stroke-linejoin="round"/>
<path d="M72.1097 93.5779L71.2039 96.8452" stroke="black" stroke-miterlimit="10" stroke-linecap="round" stroke-linejoin="round"/>
<path d="M36.01 55.8998L37.1852 60.3299L46.2234 60.0663L46.6891 55.545C46.6891 55.545 41.9851 52.7655 36.01 55.8998Z" fill="white"/>
<path d="M44.4773 57.9887C36.8868 57.8137 32.1136 60.1125 29.618 61.8408C28.2625 62.7795 27.3425 64.2203 27.0281 65.839C25.8406 71.9534 22.7141 90.1022 23.5287 108.026C23.5287 108.026 45.112 114.716 62.0736 107.914C62.0736 107.914 62.7071 85.7811 58.4681 66.9776C57.8025 64.0253 55.7854 61.5676 53.032 60.3115C50.5604 59.1838 47.3869 58.0558 44.4773 57.9887Z" fill="#EC615B"/>
<path d="M62.0736 107.914C62.0736 107.914 62.7071 85.781 58.4681 66.9775" stroke="#ECBDBB" stroke-miterlimit="10" stroke-linecap="round" stroke-linejoin="round"/>
<path d="M41.4213 58.0544C41.4213 58.0544 43.592 61.1893 44.4041 66.7491C44.4687 67.1911 44.876 67.501 45.3195 67.4471L46.2779 67.3307C46.7397 67.2745 47.0654 66.8492 46.9956 66.3893C46.7505 64.773 46.0589 61.1146 44.4773 57.9885" stroke="#ECBDBB" stroke-miterlimit="10" stroke-linecap="round" stroke-linejoin="round"/>
<path d="M25.2597 105.721C25.2597 105.721 45.5836 110.935 60.3044 105.994" stroke="#ECBDBB" stroke-miterlimit="10" stroke-linecap="round" stroke-linejoin="round"/>
<path d="M65.8073 56.345L53.3006 58.4502L53.5901 60.1699L66.0968 58.0647L65.8073 56.345Z" fill="white"/>
<path d="M65.8073 56.345L68.1635 56.8326L66.0968 58.0647L65.8073 56.345Z" fill="black"/>
<path d="M55.3888 71.2971L58.0915 67.0125C58.0915 67.0125 56.3277 58.5291 56.6143 58.0143C56.901 57.4995 62.838 56.1026 63.7697 56.1775C64.7014 56.2523 65.1011 57.1228 64.7086 57.6922C64.7086 57.6922 65.8732 58.3683 65.4328 59.3867C65.4328 59.3867 66.5044 60.2135 65.7274 61.4407C65.7274 61.4407 66.727 62.4519 65.3374 63.5928C63.9478 64.7337 62.837 65.4223 62.837 65.4223C62.837 65.4223 63.283 68.5473 63.0668 69.1006C62.8506 69.654 61.2827 70.2065 61.2827 70.2065L59.5919 74.4696L55.3888 71.2971Z" fill="#ECBDBB"/>
<path d="M59.0754 58.3896L63.6543 57.6768" stroke="black" stroke-miterlimit="10" stroke-linecap="round" stroke-linejoin="round"/>
<path d="M60.1295 60.33L64.684 59.4985" stroke="black" stroke-miterlimit="10" stroke-linecap="round" stroke-linejoin="round"/>
<path d="M61.3648 62.4489L65.0008 61.439" stroke="black" stroke-miterlimit="10" stroke-linecap="round" stroke-linejoin="round"/>
<path d="M55.9868 68.8628L52.9886 72.7262C52.9886 72.7262 52.5339 77.2307 58.228 77.756L61.2962 73.6113C61.2962 73.6113 60.9202 69.4343 55.9868 68.8628Z" fill="white"/>
<path d="M29.0917 62.2379C19.3775 69.4786 39.8335 87.7322 45.5156 91.4056C51.1977 95.0791 58.8489 82.3647 58.8151 78.5038C58.7812 74.643 54.7902 71.4898 52.5137 72.2704C50.2373 73.0509 47.6029 76.982 47.6029 76.982C47.6029 76.982 41.9588 68.4305 37.6061 64.1664C33.2535 59.9024 29.0917 62.2379 29.0917 62.2379Z" fill="#EC615B"/>
<path d="M27.0327 70.3217C29.649 78.5353 41.4201 88.7579 45.5156 91.4056C51.1977 95.0791 58.8489 82.3647 58.8151 78.5038C58.7812 74.643 54.7902 71.4898 52.5138 72.2704C50.2373 73.0509 47.603 76.982 47.603 76.982C47.603 76.982 41.9588 68.4305 37.6061 64.1664C35.0028 61.616 32.4677 61.4266 30.8505 61.6862" stroke="#ECBDBB" stroke-miterlimit="10" stroke-linecap="round" stroke-linejoin="round"/>
<path d="M47.6029 76.9819C47.6029 76.9819 45.7591 80.2964 45.9546 83.8843" stroke="#ECBDBB" stroke-miterlimit="10" stroke-linecap="round" stroke-linejoin="round"/>
<path d="M37.2402 48.922C37.2402 48.922 32.9313 49.6302 31.168 46.0568C29.4048 42.4835 35.5625 38.6904 35.5625 38.6904C35.5625 38.6904 36.9976 34.3529 37.6798 33.2734C38.3619 32.1939 39.5545 36.0523 39.5545 36.0523C39.5545 36.0523 41.204 32.7173 43.3073 31.1494C44.3039 30.4065 44.7633 34.8031 44.2871 37.1804C44.2871 37.1804 47.5739 34.763 49.1947 35.3941C50.8156 36.0252 48.4878 40.8452 46.6745 42.6032C46.6745 42.6032 47.6397 43.9129 47.6469 44.3299C47.6541 44.7469 43.8176 45.7639 43.8176 45.7639L37.2402 48.922Z" fill="black"/>
<path d="M36.3966 46.2269C36.3966 46.2269 37.6095 51.113 38.3337 51.6407C39.0579 52.1684 43.5502 53.1015 44.8339 52.565C46.1175 52.0286 45.7935 45.4867 44.168 41.9207C42.5425 38.3547 34.7901 40.305 36.3966 46.2269Z" fill="#ECBDBB"/>
<path d="M36.3529 46.6829C36.3529 46.6829 36.3586 45.9257 37.1138 45.0932C37.869 44.2606 37.8573 43.2159 37.8573 43.2159C37.8573 43.2159 42.5929 45.2721 46.4792 42.7902C46.4792 42.7902 44.5071 38.8158 39.2344 39.6261C33.9617 40.4364 35.2858 45.0245 36.3529 46.6829Z" fill="black"/>
<path d="M37.0988 47.4896C37.0988 47.4896 35.4407 44.2148 33.4213 45.626C31.4018 47.0372 35.0916 51.5533 37.7592 49.9975L37.0988 47.4896Z" fill="#ECBDBB"/>
<path d="M34.0299 46.5791C34.0299 46.5791 35.5594 47.1096 36.8393 49.1334" stroke="black" stroke-miterlimit="10" stroke-linecap="round" stroke-linejoin="round"/>
<path d="M34.9462 48.9197C34.9462 48.9197 34.9747 48.1178 35.4812 47.5171" stroke="black" stroke-miterlimit="10" stroke-linecap="round" stroke-linejoin="round"/>
<path d="M41.9902 46.7114C41.9902 46.7114 42.5449 48.047 43.101 48.7319C43.101 48.7319 43.0054 49.3529 41.9498 49.4524" stroke="black" stroke-miterlimit="10" stroke-linecap="round" stroke-linejoin="round"/>
<path d="M43.5074 50.627C42.3592 52.0923 40.6873 50.7193 40.6873 50.7193L43.5074 50.627Z" fill="white"/>
<path d="M40.4359 48.1437C40.7257 48.0889 40.8998 47.7224 40.8246 47.3253C40.7495 46.9281 40.4536 46.6506 40.1637 46.7054C39.8739 46.7602 39.6999 47.1267 39.775 47.5238C39.8502 47.921 40.1461 48.1985 40.4359 48.1437Z" fill="black"/>
<path d="M40.4952 47.4222C40.5952 47.4033 40.6552 47.2769 40.6293 47.14C40.6034 47.003 40.5013 46.9073 40.4014 46.9262C40.3014 46.9451 40.2414 47.0715 40.2673 47.2085C40.2932 47.3454 40.3953 47.4411 40.4952 47.4222Z" fill="white"/>
<path d="M38.7396 45.9883C38.7396 45.9883 39.7996 45.526 40.897 45.5801C40.897 45.5801 40.9448 45.0878 40.6443 44.883C40.3439 44.6781 38.9034 45.152 38.7396 45.9883Z" fill="black"/>
<path d="M43.7158 47.5763C44.0056 47.5215 44.1796 47.155 44.1045 46.7579C44.0293 46.3607 43.7335 46.0832 43.4436 46.138C43.1538 46.1928 42.9797 46.5593 43.0549 46.9565C43.13 47.3536 43.4259 47.6312 43.7158 47.5763Z" fill="black"/>
<path d="M43.7589 46.7892C43.8528 46.7714 43.9092 46.6527 43.8848 46.5241C43.8605 46.3954 43.7646 46.3055 43.6707 46.3233C43.5769 46.3411 43.5205 46.4598 43.5448 46.5884C43.5692 46.7171 43.665 46.807 43.7589 46.7892Z" fill="white"/>
<path d="M44.6224 44.8753C44.6224 44.8753 43.4667 44.8322 42.4649 45.2835C42.4649 45.2835 42.2406 44.8427 42.4455 44.5423C42.6504 44.2418 44.1643 44.1566 44.6224 44.8753Z" fill="black"/>
<path d="M131.713 78.4514L129.738 75.2871C129.738 75.2871 131.837 70.891 131.837 70.4158C131.837 69.9405 132.312 64.7555 132.312 63.5064C132.312 62.2574 130.728 63.2475 130.293 65.3465C129.857 67.4455 129.5 68.2376 129.5 68.2376L127.916 63.3267L123.555 72.9148L128.471 80.7141L131.713 78.4514Z" fill="#ECBDBB"/>
<path d="M130.276 56.2754L127.24 70.157L129.148 70.5744L132.184 56.6929L130.276 56.2754Z" fill="white"/>
<path d="M130.276 56.2754L131.767 54.0295L132.184 56.6929L130.276 56.2754Z" fill="black"/>
<path d="M126.327 62.6998C126.169 63.5877 126.173 64.2708 126.173 64.2708C126.173 64.2708 124.785 64.0036 124.765 66.7337C124.765 66.7337 123.586 66.6096 123.855 69.0501C123.855 69.0501 122.965 69.1535 122.932 70.7047C122.89 72.6602 124.124 74.593 124.992 74.3448C125.861 74.0966 125.599 72.3775 125.599 72.3775C125.599 72.3775 127.019 73.3389 127.019 70.5882C127.019 70.5882 128.053 70.5599 127.64 67.9953C127.64 67.9953 128.863 68.5458 128.722 66.3579C128.65 65.2503 128.373 63.8598 128.118 62.7567C127.891 61.7757 126.503 61.7083 126.327 62.6998Z" fill="#ECBDBB"/>
<path d="M126.195 64.6377C126.195 64.6377 126.565 66.3605 127.238 67.5684" stroke="black" stroke-miterlimit="10" stroke-linecap="round" stroke-linejoin="round"/>
<path d="M124.902 67.1328C124.902 67.1328 125.666 69.212 126.195 70.0635" stroke="black" stroke-miterlimit="10" stroke-linecap="round" stroke-linejoin="round"/>
<path d="M124.05 69.4297C124.05 69.4297 124.862 71.1921 125.417 72.103" stroke="black" stroke-miterlimit="10" stroke-linecap="round" stroke-linejoin="round"/>
<path d="M154.663 81.4534C150.628 86.804 142.708 95.7581 138.773 94.8466C135.881 94.1778 130.452 86.1458 127.775 81.9298C126.804 80.4041 126.195 79.3762 126.195 79.3762C127.466 77.4085 130.721 76.0119 130.721 76.0119L133.134 77.7152L139.875 82.4771C143.219 76.6376 149.905 67.1287 152.632 65.832C152.632 65.832 158.7 76.1035 154.663 81.4534Z" fill="#EC615B"/>
<path d="M139.77 83.1729C139.77 83.1729 139.814 88.6675 139.77 90.8304" stroke="#ECBDBB" stroke-miterlimit="10" stroke-linecap="round" stroke-linejoin="round"/>
<path d="M133.134 77.7153L127.775 81.9298C126.804 80.4041 126.195 79.3762 126.195 79.3762C127.466 77.4086 130.721 76.012 130.721 76.012L133.134 77.7153Z" fill="#9AB3DA"/>
<path d="M155.185 43.6795C155.185 43.6795 155.214 43.624 155.274 43.5279C155.701 42.849 157.723 40.1438 162.583 40.6575C168.13 41.2438 170.296 48.0095 168.582 50.806C166.868 53.6025 170.07 54.8655 173.408 56.2637C176.746 57.662 179.407 62.2176 176.249 66.3221C173.092 70.4266 156.99 71.3738 155.952 66.5025C154.915 61.6312 158.207 57.7071 157.802 53.783L155.185 43.6795Z" fill="black"/>
<path d="M158.428 54.4612L158.944 57.1026L159.467 59.78L162.263 59.4192L161.78 54.3025L161.632 52.7437L158.428 54.4612Z" fill="#ECBDBB"/>
<path d="M158.428 54.4612L158.944 57.1026C160.614 56.8861 161.405 55.5149 161.78 54.3025L161.632 52.7437L158.428 54.4612Z" fill="black"/>
<path d="M181.058 128.409L187.438 166.348C187.581 167.199 186.926 167.974 186.064 167.974C185.444 167.974 184.899 167.565 184.725 166.971L173.454 128.409H181.058Z" fill="#9AB3DA"/>
<path d="M183.705 163.478L173.454 128.409" stroke="#E9F3FF" stroke-miterlimit="10" stroke-linecap="round" stroke-linejoin="round"/>
<path d="M181.058 128.409L186.769 162.365" stroke="#E9F3FF" stroke-miterlimit="10" stroke-linecap="round" stroke-linejoin="round"/>
<path d="M167.4 128.409L173.78 166.348C173.923 167.199 173.267 167.974 172.405 167.974C171.786 167.974 171.241 167.565 171.067 166.971L159.796 128.409H167.4Z" fill="black"/>
<path d="M136.121 128.409L129.741 166.348C129.598 167.199 130.254 167.974 131.116 167.974C131.735 167.974 132.28 167.565 132.454 166.971L143.725 128.409H136.121Z" fill="black"/>
<path d="M149.78 128.409L143.399 166.348C143.256 167.199 143.912 167.974 144.774 167.974H144.774C145.394 167.974 145.939 167.565 146.112 166.971L157.384 128.409H149.78Z" fill="#9AB3DA"/>
<path d="M144.86 126.033H184.543V78.4346H158.917C156.972 78.4346 155.395 80.0114 155.395 81.9566V116.553C155.395 120.424 152.814 123.82 149.085 124.858L144.86 126.033Z" fill="black"/>
<path d="M180.758 82.1869C180.841 78.0772 186.54 76.9616 188.082 80.772C191.044 88.0937 189.771 101.34 189.771 111.142C189.771 125.399 186.92 132.37 169.811 132.37C169.811 132.37 154.444 132.37 148.108 132.37C141.771 132.37 142.405 124.449 147.791 124.449C153.177 124.449 169.811 124.449 173.771 124.449C177.731 124.449 180.266 121.122 180.266 113.043C180.266 107.434 180.571 91.4426 180.758 82.1869Z" fill="white"/>
<path d="M135.594 132.37H156.149C158.337 132.37 160.11 130.597 160.11 128.409V128.409C160.11 126.222 158.337 124.449 156.149 124.449H135.594C133.407 124.449 131.634 126.222 131.634 128.409V128.409C131.634 130.597 133.407 132.37 135.594 132.37Z" fill="black"/>
<path d="M134.68 149.162H127.52C127.52 149.162 127.52 157.241 120.859 161.597C116.595 164.386 117.905 167.973 117.905 167.973H128.154L132.558 163.063L132.748 167.973H135.922C136.215 160.33 134.68 149.162 134.68 149.162Z" fill="black"/>
<path d="M149.074 123.554C147.707 124.097 145.781 124.381 143.907 124.494L136.603 124.514L141.249 154.62H122.576C122.576 154.62 120.935 122.951 120.335 118.377C119.732 113.811 122.802 110.981 128.332 110.441C130.522 110.227 136.807 109.954 140.114 109.704L145.365 100.493L159.274 105.007C159.274 105.007 159.88 120.251 149.074 123.554Z" fill="white"/>
<path d="M140.502 109.859C140.502 109.859 145.417 110.335 147.415 111.879" stroke="#9AB3DA" stroke-miterlimit="10" stroke-linecap="round" stroke-linejoin="round"/>
<path d="M154.933 115.701L131.623 117.404L136.3 150.972" stroke="#9AB3DA" stroke-miterlimit="10" stroke-linecap="round" stroke-linejoin="round"/>
<path d="M124.689 151.677H139.59" stroke="#9AB3DA" stroke-miterlimit="10" stroke-linecap="round" stroke-linejoin="round"/>
<path d="M155.976 104.099L154.275 109.946C154.026 110.8 154.245 111.723 154.85 112.375L155.474 113.046" stroke="#9AB3DA" stroke-miterlimit="10" stroke-linecap="round" stroke-linejoin="round"/>
<path d="M157.897 149.162H151.085C151.085 149.162 150.768 158.904 147.52 161.598C144.273 164.291 145.302 167.974 145.302 167.974H154.283L155.599 163.063L155.742 167.974H158.829C159.049 160.33 157.897 149.162 157.897 149.162Z" fill="black"/>
<path d="M165.462 123.554C164.095 124.097 162.17 124.381 160.295 124.494L155.87 124.514L160.516 154.62H141.843C141.843 154.62 140.202 122.951 139.602 118.377C138.999 113.811 142.069 110.981 147.599 110.441C149.789 110.227 153.195 109.954 156.502 109.704L158.079 105.007H175.662C175.662 105.007 176.269 120.251 165.462 123.554Z" fill="#9AB3DA"/>
<path d="M165.938 104.394C165.938 104.394 164.199 109.741 168.179 111.107" stroke="#DEEBFF" stroke-miterlimit="10" stroke-linecap="round" stroke-linejoin="round"/>
<path d="M156.89 109.86C156.89 109.86 161.805 110.335 163.803 111.879" stroke="#DEEBFF" stroke-miterlimit="10" stroke-linecap="round" stroke-linejoin="round"/>
<path d="M169.484 104.394L167.286 115.701L150.89 117.404L155.567 150.973" stroke="#DEEBFF" stroke-miterlimit="10" stroke-linecap="round" stroke-linejoin="round"/>
<path d="M143.956 151.677H158.857" stroke="#DEEBFF" stroke-miterlimit="10" stroke-linecap="round" stroke-linejoin="round"/>
<path d="M168.398 59.3758C168.398 59.3758 161.902 56.6244 155.182 59.9171L156.445 63.7961L167.495 63.3901L168.398 59.3758Z" fill="#EC615B"/>
<path d="M176.335 105.687C176.314 93.1267 175.795 68.036 175.795 68.036C175.795 68.036 169.931 61.992 162.173 62.1724C154.415 62.3528 149.905 68.5773 149.905 68.5773C149.905 68.5773 145.935 74.8018 146.026 77.8689C146.116 80.936 148.281 89.4157 148.281 89.4157C148.281 89.4157 147.379 93.2045 145.665 96.7227C145.136 97.8083 143.919 99.1775 142.448 100.594H142.448C142.448 100.594 157.107 108.48 176.335 105.687Z" fill="#EC615B"/>
<path d="M166.755 62.7636C165.335 62.3691 163.795 62.1347 162.173 62.1724C160.432 62.2129 158.854 62.558 157.454 63.0688" stroke="#ECBDBB" stroke-miterlimit="10" stroke-linecap="round" stroke-linejoin="round"/>
<path d="M149.905 68.5774C149.905 68.5774 145.935 74.8019 146.026 77.869C146.097 80.3144 147.488 86.2003 148.049 88.4861" stroke="#ECBDBB" stroke-miterlimit="10" stroke-linecap="round" stroke-linejoin="round"/>
<path d="M186.441 92.3939C186.248 94.8114 184.537 96.0045 181.792 96.1589C180.15 96.2512 178.511 95.9173 177 95.2667C175.34 94.5515 173.811 93.8172 173.811 93.8172L176.25 88.1234L173.267 83.8506C173.267 83.8506 171.124 80.0806 169.541 77.4806C167.014 73.3306 172.427 64.6072 175.794 68.0372C181.397 73.7406 186.737 88.6039 186.441 92.3939Z" fill="#EC615B"/>
<path d="M175.652 94.6712C174.596 94.1943 173.811 93.8173 173.811 93.8173L176.25 88.1234L173.267 83.8506C173.267 83.8506 171.124 80.0806 169.541 77.4806C167.693 74.4459 170.091 68.9658 172.83 67.5806" stroke="#ECBDBB" stroke-miterlimit="10" stroke-linecap="round" stroke-linejoin="round"/>
<path d="M178.781 86.9202C178.781 86.9202 180.48 87.554 182.45 88.6316" stroke="#ECBDBB" stroke-miterlimit="10" stroke-linecap="round" stroke-linejoin="round"/>
<path d="M171.205 92.0291C171.205 92.0291 172.226 92.7832 173.81 93.8188C177.689 91.8451 177.833 88.0166 177.732 86.5516L175.232 85.8335C171.024 87.4573 171.205 92.0291 171.205 92.0291Z" fill="#9AB3DA"/>
<path d="M166.45 94.3762H153.314C152.616 94.3762 152.049 93.8098 152.049 93.1112V72.7119C152.049 72.0133 152.616 71.447 153.314 71.447H166.45C167.149 71.447 167.715 72.0133 167.715 72.7119V93.1112C167.715 93.8098 167.149 94.3762 166.45 94.3762Z" fill="#9AB3DA"/>
<path d="M162.955 74.0855H156.809C156.494 74.0855 156.239 73.8301 156.239 73.515V72.0175C156.239 71.7024 156.494 71.447 156.809 71.447H162.955C163.27 71.447 163.526 71.7024 163.526 72.0175V73.515C163.526 73.8301 163.27 74.0855 162.955 74.0855Z" fill="white"/>
<path d="M157.803 73.1524C158.016 73.1524 158.189 72.9795 158.189 72.7663C158.189 72.553 158.016 72.3801 157.803 72.3801C157.59 72.3801 157.417 72.553 157.417 72.7663C157.417 72.9795 157.59 73.1524 157.803 73.1524Z" fill="black"/>
<path d="M161.961 73.1524C162.175 73.1524 162.347 72.9795 162.347 72.7663C162.347 72.553 162.175 72.3801 161.961 72.3801C161.748 72.3801 161.575 72.553 161.575 72.7663C161.575 72.9795 161.748 73.1524 161.961 73.1524Z" fill="black"/>
<path d="M174.478 86.5075L172.229 85.8859C172.229 85.8859 171.839 80.2344 171.427 79.8133C171.014 79.3923 164.919 79.6097 164.04 79.9275C163.161 80.2452 163.005 81.1903 163.534 81.6362C163.534 81.6362 162.589 82.5952 163.282 83.4616C163.282 83.4616 162.466 84.5416 163.539 85.5206C163.539 85.5206 162.841 86.7595 164.482 87.4938C166.124 88.2281 167.377 88.5995 167.377 88.5995C167.377 88.5995 168.079 90.9942 168.434 91.471C168.788 91.9478 171.271 90.6364 171.271 90.6364L172.57 91.2926C173.609 90.6319 175.653 88.3801 174.478 86.5075Z" fill="#ECBDBB"/>
<path d="M168.908 81.0837L164.547 81.3434" stroke="black" stroke-miterlimit="10" stroke-linecap="round" stroke-linejoin="round"/>
<path d="M168.646 82.9736L164.034 83.3721" stroke="black" stroke-miterlimit="10" stroke-linecap="round" stroke-linejoin="round"/>
<path d="M168.013 85.3434L164.239 85.3276" stroke="black" stroke-miterlimit="10" stroke-linecap="round" stroke-linejoin="round"/>
<path d="M159.887 44.6534C162.995 46.3444 164.636 55.8727 159.096 56.3382C153.556 56.8037 153.556 41.2085 159.887 44.6534Z" fill="#ECBDBB"/>
<path d="M163.425 52.3348C163.425 52.3348 162.355 49.6347 161.005 47.9588C161.005 47.9588 157.699 50.0537 154.86 49.0295C152.02 48.0053 150.437 42.5586 152.858 41.4879C155.279 40.4172 156.582 42.8379 156.582 42.8379C156.582 42.8379 167.01 39.812 163.425 52.3348Z" fill="black"/>
<path d="M162.262 51.4968C162.262 51.4968 163.146 48.0054 165.939 48.7037C168.732 49.402 166.172 54.709 162.168 52.94L162.262 51.4968Z" fill="#ECBDBB"/>
<path d="M163.341 52.3195C163.416 52.3195 163.486 52.2746 163.515 52.2011C163.523 52.1811 164.312 50.2126 165.969 49.9615C166.071 49.9462 166.14 49.8513 166.125 49.7496C166.11 49.6476 166.014 49.5781 165.913 49.5934C164.041 49.8769 163.203 51.9763 163.168 52.0656C163.131 52.1615 163.178 52.2693 163.274 52.3066C163.296 52.3153 163.319 52.3195 163.341 52.3195Z" fill="black"/>
<path d="M164.849 51.9805C164.95 51.9805 165.032 51.9009 165.035 51.7998C165.036 51.7745 165.047 51.1691 164.593 50.4446C164.538 50.3575 164.423 50.3308 164.336 50.3859C164.249 50.4404 164.222 50.5554 164.277 50.6425C164.668 51.2655 164.663 51.7852 164.663 51.7903C164.661 51.8929 164.742 51.978 164.845 51.9803C164.846 51.9805 164.848 51.9805 164.849 51.9805Z" fill="black"/>
<path d="M160.731 50.044C160.731 50.044 160.069 48.8447 159.159 49.3548C159.159 49.3548 159.121 49.0773 158.877 49.0821C158.634 49.0869 158.644 49.8499 158.644 49.8499C158.644 49.8499 159.757 49.7074 160.731 50.044Z" fill="black"/>
<path d="M155.524 50.8644C155.524 50.8644 155.543 49.6116 156.28 49.9255C156.28 49.9255 156.288 49.6941 156.443 49.661C156.712 49.6037 156.8 50.3188 156.8 50.3188C156.8 50.3188 156.022 50.368 155.524 50.8644Z" fill="black"/>
<path d="M159.527 52.185C159.811 52.1633 160.019 51.8618 159.992 51.5116C159.965 51.1614 159.714 50.8951 159.43 50.9168C159.147 50.9385 158.939 51.2399 158.966 51.5901C158.993 51.9403 159.244 52.2067 159.527 52.185Z" fill="black"/>
<path d="M159.349 51.4713C159.424 51.4713 159.485 51.4101 159.485 51.3345C159.485 51.259 159.424 51.1978 159.349 51.1978C159.273 51.1978 159.212 51.259 159.212 51.3345C159.212 51.4101 159.273 51.4713 159.349 51.4713Z" fill="white"/>
<path d="M156.506 52.4162C156.79 52.3945 156.997 52.093 156.971 51.7428C156.944 51.3926 156.692 51.1263 156.409 51.148C156.126 51.1697 155.918 51.4711 155.945 51.8213C155.972 52.1715 156.223 52.4379 156.506 52.4162Z" fill="black"/>
<path d="M156.327 51.7025C156.403 51.7025 156.464 51.6413 156.464 51.5657C156.464 51.4902 156.403 51.429 156.327 51.429C156.252 51.429 156.191 51.4902 156.191 51.5657C156.191 51.6413 156.252 51.7025 156.327 51.7025Z" fill="white"/>
<path d="M157.791 53.8491C157.943 53.8491 158.086 53.8209 158.188 53.7869C158.286 53.7546 158.338 53.6495 158.306 53.552C158.274 53.4547 158.169 53.4012 158.071 53.4332C158.066 53.4351 157.544 53.6007 157.386 53.273C157.352 53.2023 157.367 53.1757 157.373 53.1656C157.43 53.0648 157.707 52.9897 157.884 52.9741C157.985 52.9653 158.061 52.877 158.054 52.7759L157.969 51.5349C157.961 51.4322 157.872 51.3569 157.77 51.3618C157.667 51.3689 157.59 51.4578 157.597 51.5604L157.671 52.6291C157.47 52.6687 157.174 52.7626 157.049 52.9812C156.995 53.0755 156.952 53.2308 157.051 53.4352C157.206 53.756 157.514 53.8491 157.791 53.8491Z" fill="black"/>
<path d="M157.857 54.9897C157.857 54.9897 159.268 55.8097 160.053 54.0818L157.857 54.9897Z" fill="white"/>
<path d="M95.9315 105.122L95.9315 165.161L103.06 165.161L103.06 105.122L95.9315 105.122Z" fill="black"/>
<path d="M135.772 105.122H63.2193V112.251H135.772V105.122Z" fill="white"/>
<path d="M135.772 105.122V112.251H124.05" stroke="#9AB3DA" stroke-miterlimit="10" stroke-linecap="round" stroke-linejoin="round"/>
<path d="M123.733 165.161H75.2582V167.974H123.733V165.161Z" fill="white"/>
<path d="M143.773 97.9934H55.2186V105.122H143.773V97.9934Z" fill="black"/>
<path d="M49.5305 104.05L49.5318 104.05L49.533 104.049L49.5305 104.05Z" fill="white"/>
<path d="M59.2608 100.189C60.878 99.4436 62.6232 98.692 64.4123 97.9934H61.7518C59.9613 98.7522 58.2581 99.5394 56.7231 100.285C56.2011 100.539 55.6985 100.787 55.2186 101.029V102.149C56.4255 101.537 57.7904 100.867 59.2608 100.189Z" fill="white"/>
<path d="M85.0899 99.6936C80.9113 101.3 76.752 103.114 73.1783 105.122H75.2803C77.2134 104.113 79.2907 103.153 81.429 102.247C85.1852 100.655 89.1239 99.2311 92.7933 97.9934H89.722C88.1949 98.5308 86.6417 99.0972 85.0899 99.6936Z" fill="white"/>
<path d="M56.9794 105.122H59.2665C61.875 103.88 65.6905 102.169 70.306 100.408C72.4254 99.5996 74.7141 98.7813 77.1297 97.9934H74.0066C72.3027 98.5882 70.6737 99.1905 69.1417 99.7847C63.6282 101.923 59.3327 103.952 56.9794 105.122Z" fill="white"/>
<path d="M143.773 102.395V101.252C141.338 99.9456 138.726 98.8727 136.073 97.9934H132.62C136.466 99.0466 140.328 100.485 143.773 102.395Z" fill="white"/>
<path d="M139.644 104.908C139.733 104.981 139.812 105.051 139.894 105.122H141.326C141.259 105.048 141.192 104.974 141.118 104.897C140.424 104.19 139.378 103.38 137.98 102.529C135.423 100.975 131.678 99.2919 126.828 97.9934H122.338C127.561 98.991 131.76 100.476 134.856 101.975C136.98 103.002 138.587 104.037 139.644 104.908Z" fill="white"/>
<path d="M95.2841 102.934C100.096 101.371 104.899 100.316 111.139 100.315C117.351 100.314 123.422 101.901 128.536 103.601C130.072 104.112 131.519 104.632 132.862 105.122H135.772C135.76 105.118 135.749 105.114 135.737 105.109C132.775 104.034 129.015 102.587 124.803 101.408C120.592 100.228 115.926 99.3155 111.139 99.3152C104.786 99.314 99.846 100.398 94.9749 101.983C92.1546 102.901 89.3552 103.983 86.3056 105.122H89.1544C91.2653 104.33 93.2762 103.587 95.2841 102.934Z" fill="white"/>
<path d="M20.4007 42.1821C20.9658 42.1821 21.4239 41.724 21.4239 41.1589C21.4239 40.5938 20.9658 40.1357 20.4007 40.1357C19.8356 40.1357 19.3775 40.5938 19.3775 41.1589C19.3775 41.724 19.8356 42.1821 20.4007 42.1821Z" fill="#E9F3FF"/>
<path d="M147.798 32.3573C148.778 32.3573 149.572 31.5631 149.572 30.5835C149.572 29.6038 148.778 28.8096 147.798 28.8096C146.818 28.8096 146.024 29.6038 146.024 30.5835C146.024 31.5631 146.818 32.3573 147.798 32.3573Z" fill="#E9F3FF"/>
<path d="M93.7989 57.3691L109.303 61.0499L96.8104 68.6344L81.3067 64.9537L93.7989 57.3691Z" fill="#9AB3DA"/>
<path d="M109.303 61.0498L113.764 78.0035L101.272 85.5881L96.8104 68.6344L109.303 61.0498Z" fill="white"/>
<path d="M81.3067 64.9536L85.7682 81.9073L101.272 85.588L96.8104 68.6343L81.3067 64.9536Z" fill="black"/>
<path d="M110.506 97.9936H87.6938C87.3439 97.9936 87.0602 97.7099 87.0602 97.36V93.0035C87.0602 92.6536 87.3439 92.3699 87.6938 92.3699H110.506C110.856 92.3699 111.139 92.6536 111.139 93.0035V97.36C111.139 97.7099 110.856 97.9936 110.506 97.9936Z" fill="#EC615B"/>
<path d="M91.179 95.9836C91.6219 95.9836 91.981 95.6245 91.981 95.1816C91.981 94.7387 91.6219 94.3796 91.179 94.3796C90.7361 94.3796 90.377 94.7387 90.377 95.1816C90.377 95.6245 90.7361 95.9836 91.179 95.9836Z" fill="black"/>
<path d="M94.4661 95.9836C94.909 95.9836 95.2681 95.6245 95.2681 95.1816C95.2681 94.7387 94.909 94.3796 94.4661 94.3796C94.0232 94.3796 93.6641 94.7387 93.6641 95.1816C93.6641 95.6245 94.0232 95.9836 94.4661 95.9836Z" fill="black"/>
<path d="M107.189 95.9836H99.2285C98.8786 95.9836 98.5948 95.6999 98.5948 95.3499V95.0133C98.5948 94.6633 98.8786 94.3796 99.2285 94.3796H107.189C107.539 94.3796 107.823 94.6633 107.823 95.0133V95.3499C107.823 95.6999 107.539 95.9836 107.189 95.9836Z" fill="black"/>
<path d="M68.1592 46.1123L87.5651 91.142" stroke="#9AB3DA" stroke-miterlimit="10" stroke-linecap="round" stroke-linejoin="round"/>
<path d="M130.04 46.1123L110.634 91.142" stroke="#9AB3DA" stroke-miterlimit="10" stroke-linecap="round" stroke-linejoin="round"/>
<path d="M90.7929 46.1124H76.7136C76.1067 46.1124 75.6146 45.6203 75.6146 45.0134V36.9935C75.6146 36.3866 76.1067 35.8945 76.7136 35.8945H90.7929C91.3998 35.8945 91.8919 36.3866 91.8919 36.9935V45.0134C91.8919 45.6203 91.3998 46.1124 90.7929 46.1124Z" fill="#9AB3DA"/>
<path d="M79.8672 40.3116C80.6334 40.3116 81.2545 39.6905 81.2545 38.9244C81.2545 38.1582 80.6334 37.5371 79.8672 37.5371C79.1011 37.5371 78.48 38.1582 78.48 38.9244C78.48 39.6905 79.1011 40.3116 79.8672 40.3116Z" fill="white"/>
<path d="M82.662 44.47H77.0724V43.8624C77.0724 42.3189 78.3237 41.0676 79.8672 41.0676H79.8672C81.4108 41.0676 82.662 42.3189 82.662 43.8624V44.47V44.47Z" fill="white"/>
<path d="M89.7509 39.985H84.1667C83.7894 39.985 83.4836 39.6791 83.4836 39.3018C83.4836 38.9245 83.7894 38.6187 84.1667 38.6187H89.7509C90.1282 38.6187 90.4341 38.9245 90.4341 39.3018C90.4341 39.6791 90.1282 39.985 89.7509 39.985Z" fill="white"/>
<path d="M89.7509 42.4342H85.8895C85.5122 42.4342 85.2064 42.1283 85.2064 41.751C85.2064 41.3737 85.5122 41.0679 85.8895 41.0679H89.7509C90.1282 41.0679 90.4341 41.3737 90.4341 41.751C90.4341 42.1283 90.1282 42.4342 89.7509 42.4342Z" fill="white"/>
<path d="M118.318 52.9866H104.238C103.631 52.9866 103.139 52.4946 103.139 51.8876V43.8678C103.139 43.2608 103.631 42.7688 104.238 42.7688H118.318C118.925 42.7688 119.417 43.2608 119.417 43.8678V51.8876C119.417 52.4946 118.925 52.9866 118.318 52.9866Z" fill="#9AB3DA"/>
<path d="M107.392 47.1859C108.158 47.1859 108.779 46.5648 108.779 45.7986C108.779 45.0325 108.158 44.4114 107.392 44.4114C106.626 44.4114 106.005 45.0325 106.005 45.7986C106.005 46.5648 106.626 47.1859 107.392 47.1859Z" fill="white"/>
<path d="M110.187 51.3442H104.597V50.7367C104.597 49.1932 105.848 47.9419 107.392 47.9419C108.935 47.9419 110.187 49.1932 110.187 50.7367V51.3442V51.3442Z" fill="white"/>
<path d="M117.276 46.8593H111.691C111.314 46.8593 111.008 46.5534 111.008 46.1761C111.008 45.7988 111.314 45.4929 111.691 45.4929H117.276C117.653 45.4929 117.959 45.7988 117.959 46.1761C117.959 46.5534 117.653 46.8593 117.276 46.8593Z" fill="white"/>
<path d="M117.276 49.3085H113.414C113.037 49.3085 112.731 49.0026 112.731 48.6253C112.731 48.248 113.037 47.9421 113.414 47.9421H117.276C117.653 47.9421 117.959 48.248 117.959 48.6253C117.959 49.0026 117.653 49.3085 117.276 49.3085Z" fill="white"/>
<path d="M147.491 167.776H184.893" stroke="white" stroke-miterlimit="10" stroke-linecap="round" stroke-linejoin="round"/>
<path d="M21.2272 167.776H138.515" stroke="white" stroke-miterlimit="10" stroke-linecap="round" stroke-linejoin="round"/>
<path d="M58.3927 174.206H39.702" stroke="white" stroke-miterlimit="10" stroke-linecap="round" stroke-linejoin="round"/>
<path d="M171.794 174.206H64.4785" stroke="white" stroke-miterlimit="10" stroke-linecap="round" stroke-linejoin="round"/>
<path d="M119.683 180.636H132.351" stroke="white" stroke-miterlimit="10" stroke-linecap="round" stroke-linejoin="round"/>
<path d="M58.5387 180.636H115.503" stroke="white" stroke-miterlimit="10" stroke-linecap="round" stroke-linejoin="round"/>
</svg>
