<svg width="450" height="450" viewBox="0 0 450 450" fill="none" xmlns="http://www.w3.org/2000/svg">
<path d="M60.3 384.75V390.3L113.4 400.725L153 390.675L151.575 383.325L60.3 384.75Z" fill="#E2E2E2"/>
<path d="M113.4 400.725L113.25 392.025" stroke="#202124" stroke-miterlimit="10"/>
<path d="M116.175 398.025L150.6 389.325" stroke="#202124" stroke-miterlimit="10"/>
<path d="M118.35 395.25L134.25 391.575" stroke="#202124" stroke-miterlimit="10"/>
<path d="M129.6 390.975H129.825" stroke="#202124" stroke-miterlimit="10"/>
<path d="M129.6 390.975L147.45 386.925" stroke="#202124" stroke-miterlimit="10"/>
<path d="M110.1 393.825C124.35 390.75 138.675 387.675 152.925 384.6C152.775 381.15 152.625 377.7 152.4 374.25C138.15 376.8 123.975 379.35 109.725 381.825C109.95 385.875 110.025 389.85 110.1 393.825Z" fill="white" stroke="#202124" stroke-width="0.75" stroke-miterlimit="10"/>
<path d="M110.775 374.25C111 377.1 111.15 380.025 111.375 382.875C124.425 380.4 137.55 377.925 150.6 375.45C150.525 373.575 150.375 371.625 150.3 369.75C137.1 371.25 123.975 372.75 110.775 374.25Z" fill="white" stroke="#202124" stroke-width="0.75" stroke-miterlimit="10"/>
<path d="M114.6 390.525L150 383.325" stroke="#202124" stroke-width="0.75" stroke-miterlimit="10"/>
<path d="M111.9 388.65L136.35 384.075" stroke="#202124" stroke-width="0.75" stroke-miterlimit="10"/>
<path d="M125.925 384.075L149.025 379.65" stroke="#202124" stroke-width="0.75" stroke-miterlimit="10"/>
<path d="M115.65 380.325L147.3 374.175" stroke="#202124" stroke-width="0.75" stroke-miterlimit="10"/>
<path d="M128.7 376.35L148.5 372.6" stroke="#202124" stroke-width="0.75" stroke-miterlimit="10"/>
<path d="M63.7499 374.175C63.5249 378.075 63.3749 381.975 63.1499 385.875C79.3499 389.025 95.6249 392.175 111.825 395.25C111.6 390.9 111.45 386.55 111.225 382.125C95.4749 379.5 79.5749 376.875 63.7499 374.175Z" fill="#B1CEFC"/>
<path d="M60.525 366.075C60.45 368.7 60.375 371.325 60.3 373.95C77.85 377.1 95.475 380.25 113.025 383.4C112.95 381.3 112.875 379.2 112.8 377.025C125.7 374.55 138.6 372 151.5 369.525C135.225 366.975 118.95 364.425 102.6 361.8C88.65 363.225 74.55 364.65 60.525 366.075Z" fill="#EB506E"/>
<path d="M89.7749 343.2C90.7499 351.3 91.7249 359.4 92.6999 367.5C96.5999 367.5 100.5 367.5 104.4 367.5C105.3 359.625 106.2 351.75 107.1 343.875C101.325 343.65 95.5499 343.425 89.7749 343.2Z" fill="#202124" stroke="#202124" stroke-miterlimit="10"/>
<path d="M108.825 341.25H88.2749V344.4H108.825V341.25Z" fill="white" stroke="#202124" stroke-miterlimit="10"/>
<path d="M103.95 337.5H93.075V341.625H103.95V337.5Z" fill="white" stroke="#202124" stroke-miterlimit="10"/>
<path d="M292.575 405.525C293.25 407.475 347.775 433.35 347.775 433.35L390.6 409.875L339.975 387.9L292.575 405.525Z" fill="#CCCCCC"/>
<path d="M299.175 392.025C300.525 393.525 344.175 416.4 344.175 416.4L388.2 395.325L344.175 374.4L299.175 392.025Z" fill="#DDDDDD"/>
<path d="M281.1 395.4L316.275 412.575L352.575 393.375L321.075 376.35L281.1 395.4Z" fill="#CCCCCC"/>
<path d="M321.075 404.775L335.1 397.575" stroke="#202124" stroke-miterlimit="10"/>
<path d="M309.375 403.875L335.325 391.5" stroke="#202124" stroke-miterlimit="10"/>
<path d="M304.425 401.175L332.4 387.975" stroke="#202124" stroke-miterlimit="10"/>
<path d="M294.225 399.075L326.325 384.825" stroke="#202124" stroke-miterlimit="10"/>
<path d="M354.3 406.8L374.4 397.575" stroke="#202124" stroke-miterlimit="10"/>
<path d="M341.625 408.375L373.5 391.95" stroke="#202124" stroke-miterlimit="10"/>
<path d="M339.975 403.875L366.45 389.85" stroke="#202124" stroke-miterlimit="10"/>
<path d="M350.25 389.85L361.5 384.825" stroke="#202124" stroke-miterlimit="10"/>
<path d="M354.3 424.05L372.825 412.575" stroke="#202124" stroke-miterlimit="10"/>
<path d="M337.8 424.95L366.675 411" stroke="#202124" stroke-miterlimit="10"/>
<path d="M331.35 421.575L339.975 416.475" stroke="#202124" stroke-miterlimit="10"/>
<path d="M380.85 328.875L386.1 373.35H410.55L416.475 328.875H380.85Z" fill="#202124"/>
<path d="M398.625 332.85C408.483 332.85 416.475 330.936 416.475 328.575C416.475 326.214 408.483 324.3 398.625 324.3C388.767 324.3 380.775 326.214 380.775 328.575C380.775 330.936 388.767 332.85 398.625 332.85Z" fill="white" stroke="#202124" stroke-miterlimit="10"/>
<path d="M390.975 287.4C386.85 293.025 385.95 300.45 388.425 306.975C389.7 310.275 391.65 312.825 394.275 315.15C398.7 319.125 401.175 323.55 400.425 329.625C400.275 331.05 402.525 331.05 402.675 329.625C403.05 326.25 402.675 322.95 401.175 319.875C399.3 316.05 395.775 314.025 393.225 310.725C388.125 304.35 388.275 295.05 393.075 288.525C393.825 287.4 391.875 286.275 390.975 287.4Z" fill="#5492ED"/>
<path d="M401.775 322.05C401.175 318.675 400.8 315.525 402.525 312.45C403.65 310.425 405.225 308.7 406.275 306.6C408.15 302.85 408.45 298.725 407.625 294.675C407.325 293.25 405.15 293.85 405.45 295.275C406.125 298.725 405.9 302.25 404.325 305.475C403.275 307.575 401.7 309.3 400.575 311.325C398.55 314.925 398.925 318.75 399.6 322.65C399.9 324.075 402.075 323.475 401.775 322.05Z" fill="#5492ED"/>
<path d="M379.275 294.675C378 301.35 383.7 306.975 389.175 309.675C390.45 310.35 391.575 308.4 390.3 307.725C385.875 305.475 380.325 300.825 381.375 295.275C381.675 293.85 379.5 293.25 379.275 294.675Z" fill="#5492ED"/>
<path d="M401.325 290.625C396.825 295.95 397.875 303.525 403.725 307.35C404.925 308.175 406.05 306.225 404.85 305.4C400.2 302.4 399.3 296.475 402.9 292.275C403.8 291.075 402.225 289.5 401.325 290.625Z" fill="#5492ED"/>
<path d="M401.925 324.6C406.575 322.575 409.875 318.525 411.075 313.65C411.45 312.225 409.275 311.625 408.9 313.05C407.85 317.4 404.925 320.85 400.8 322.65C399.525 323.25 400.65 325.2 401.925 324.6Z" fill="#5492ED"/>
<path d="M381.15 302.175C379.875 301.35 378.075 299.775 376.8 297.3C373.575 291.225 376.5 284.85 376.95 283.95C378 284.925 379.05 286.125 380.025 287.775C383.4 293.85 381.675 300.45 381.15 302.175Z" fill="#5492ED"/>
<path d="M398.475 319.95C397.95 320.175 394.95 321.675 391.575 320.325C388.5 319.125 386.4 315.975 386.25 312.45C387.825 312.675 390.375 313.275 393.15 315C395.85 316.65 397.5 318.675 398.475 319.95Z" fill="#5492ED"/>
<path d="M391.425 310.35C391.05 309.6 389.7 306.525 390.675 302.7C391.8 298.575 394.95 296.625 395.625 296.175C396 297.45 396.45 299.55 396 302.175C395.25 306.75 392.4 309.525 391.425 310.35Z" fill="#5492ED"/>
<path d="M386.7 278.4C385.95 278.55 385.875 280.95 385.8 285.825C385.725 289.8 386.025 291.675 387.075 293.325C387.6 294.15 388.2 294.825 388.65 295.2C389.625 293.25 391.125 289.65 390.45 285.45C389.85 281.775 387.75 278.175 386.7 278.4Z" fill="#5492ED"/>
<path d="M400.5 295.35C399.675 294.225 398.85 292.65 398.325 290.625C396.675 284.025 400.575 278.475 401.4 277.35C402.225 278.625 403.125 280.425 403.575 282.675C404.775 289.05 401.325 294.15 400.5 295.35Z" fill="#5492ED"/>
<path d="M407.025 297.6C406.725 296.7 405.6 293.25 407.1 289.35C408.9 284.775 412.875 283.05 413.625 282.75C413.85 284.025 414 285.75 413.625 287.7C412.575 293.4 408.3 296.7 407.025 297.6Z" fill="#5492ED"/>
<path d="M413.85 303.075C413.025 302.775 411.3 302.4 409.425 302.925C405.225 304.05 403.8 308.4 403.65 308.85C403.95 309 406.725 310.65 409.8 309.3C412.2 308.325 413.775 305.85 413.85 303.075Z" fill="#5492ED"/>
<path d="M406.5 320.025C406.725 319.65 408 317.175 410.925 316.35C413.625 315.6 415.875 316.725 416.25 316.95C415.95 317.7 415.35 318.75 414.225 319.65C411 322.125 406.725 320.175 406.5 320.025Z" fill="#5492ED"/>
<path d="M236.025 387.225C239.175 388.5 242.4 389.85 245.55 391.125C259.2 408.6 275.025 430.2 271.95 433.05C268.875 435.975 247.275 418.35 230.55 403.875C230.4 402.375 230.325 400.5 230.7 398.475C231.525 392.925 234.375 389.1 236.025 387.225Z" fill="#EB506E"/>
<path d="M292.113 341.224C292.194 343.368 292.007 346.493 290.757 349.85L290.755 349.854C288.922 354.877 285.545 358.554 282.17 361.071C278.788 363.594 275.441 364.928 273.723 365.285L273.722 365.286C268.407 366.408 262.575 367.455 256.371 368.128L256.367 368.128C242.98 369.699 230.865 369.549 220.543 368.652L219.385 368.551L220.109 369.461C222.584 372.574 225.079 375.688 227.572 378.8C229.98 381.805 232.386 384.808 234.776 387.812C234.325 388.334 233.698 389.082 233.124 390.038C231.293 392.939 230.673 395.766 230.009 398.794L229.987 398.893L229.987 398.893L229.985 398.902C229.786 399.898 229.527 401.305 229.314 402.968C216.194 396.561 205.469 390.386 197.212 385.299C189.726 380.657 183.66 376.539 179.764 373.842C179.456 373.618 178.976 373.279 178.345 372.832C175.559 370.862 169.807 366.794 162.608 361.181L162.606 361.18C153.304 353.978 148.607 350.249 143.537 344.954C138.911 340.105 135.86 336.011 133.332 331.698C129.243 324.634 128.593 320.432 128.449 318.488L128.449 318.488L128.448 318.482C128.443 318.425 128.438 318.366 128.433 318.308C128.208 315.691 127.91 312.233 129.743 308.707C131.764 304.883 135.083 303.067 137.774 301.722L137.774 301.722L137.781 301.718C139.435 300.856 144.9 298.328 155.833 298.7L155.834 298.7C162.726 298.922 167.692 300.25 174.117 301.968L174.171 301.983C174.171 301.983 174.171 301.983 174.171 301.983C178.35 303.102 187.319 305.793 198.309 311.026C203.095 313.344 209.073 316.483 215.647 320.89L215.653 320.894L215.659 320.898C216.877 321.663 218.097 322.44 219.324 323.221C221.274 324.463 223.238 325.714 225.225 326.935C225.393 327.785 225.716 329.013 226.441 330.248C227.621 332.369 229.119 333.546 230.707 334.68C233.797 336.941 235.628 338.162 239.345 339.831L239.345 339.831L239.353 339.835C241.466 340.74 245.779 342.556 252.055 343.766C260.438 345.427 267.086 345.2 271.599 344.974C279.844 344.599 284.968 343.256 286.157 342.939C288.491 342.537 290.528 341.845 292.113 341.224Z" fill="white" stroke="black"/>
<path d="M189.525 330.525C204.6 349.35 219.75 368.25 234.825 387.075C235.05 387.375 235.425 386.925 235.2 386.7C220.125 367.875 204.975 348.975 189.9 330.15C189.675 329.85 189.3 330.225 189.525 330.525Z" fill="white"/>
<path d="M235.275 387.825C232.125 391.875 230.4 396.525 230.025 401.625C230.025 402 230.55 402 230.625 401.625C231 396.6 232.8 392.025 235.8 388.05C235.95 387.825 235.5 387.525 235.275 387.825Z" fill="#202124"/>
<path d="M235.05 401.025C234.9 399.9 234.9 398.85 235.125 397.8C235.2 397.275 235.95 393.825 237.075 395.25C237.525 395.85 237.225 397.35 237 397.95C236.625 399.075 235.875 399.9 234.825 400.5C234.525 400.65 234.825 401.1 235.05 401.025C236.325 400.275 237.225 399.15 237.6 397.725C237.825 396.75 237.975 395.025 237.15 394.2C236.175 393.225 235.425 394.8 235.125 395.55C234.45 397.275 234.225 399.15 234.45 400.95C234.525 401.325 235.125 401.325 235.05 401.025Z" fill="white"/>
<path d="M234.675 400.5C233.25 401.7 228.975 406.95 232.2 408.45C233.55 409.125 234.675 407.625 235.125 406.5C235.875 404.775 235.875 402.9 235.35 401.1C235.275 400.725 234.675 400.875 234.825 401.25C235.2 402.45 235.275 403.65 235.05 404.925C234.9 405.525 234.75 406.2 234.45 406.65C234.375 406.875 234.225 407.1 234 407.25C233.475 408.075 232.725 407.85 231.675 406.5C231.525 405.45 232.35 404.025 232.95 403.2C233.55 402.3 234.225 401.55 235.05 400.875C235.35 400.725 234.9 400.275 234.675 400.5Z" fill="white"/>
<path d="M236.4 409.275C236.85 406.35 238.425 403.8 240.825 402.075C241.125 401.85 240.825 401.4 240.525 401.625C237.975 403.425 236.325 406.05 235.8 409.125C235.8 409.5 236.4 409.65 236.4 409.275Z" fill="white"/>
<path d="M238.275 410.7C239.025 408.375 240.375 406.425 242.1 404.775C242.4 404.55 241.95 404.1 241.725 404.4C239.85 406.125 238.575 408.225 237.75 410.625C237.675 410.85 238.2 411 238.275 410.7Z" fill="white"/>
<path d="M240.3 412.65C240.9 410.55 242.175 408.75 244.05 407.475C244.35 407.25 244.05 406.8 243.75 407.025C241.8 408.3 240.375 410.25 239.775 412.5C239.7 412.875 240.225 412.95 240.3 412.65Z" fill="white"/>
<path d="M242.475 414.45C243.375 412.5 244.65 410.775 246.3 409.35C246.6 409.125 246.15 408.75 245.925 408.975C244.275 410.4 242.925 412.2 242.025 414.15C241.8 414.525 242.325 414.825 242.475 414.45Z" fill="white"/>
<path d="M244.125 416.625C245.325 415.275 246.525 413.925 247.65 412.575C247.875 412.275 247.5 411.9 247.275 412.2C246.075 413.55 244.875 414.9 243.75 416.25C243.45 416.55 243.825 416.925 244.125 416.625Z" fill="white"/>
<path d="M243.45 391.65C250.2 400.95 256.65 410.55 262.725 420.3C262.95 420.6 263.4 420.3 263.175 420C257.1 410.25 250.65 400.65 243.9 391.35C243.75 391.05 243.225 391.35 243.45 391.65Z" fill="white"/>
<path d="M209.475 226.125C212.4 243.75 214.2 258 215.325 267.825C216.3 276.075 216.525 279.6 217.65 287.55C219.45 300 221.625 310.875 223.725 319.875C224.625 323.7 225.375 326.775 225.975 328.95C226.575 330 227.175 331.05 227.775 332.1C229.725 333.825 232.65 336.3 236.775 338.55C246 343.65 254.775 344.325 261.6 344.85C269.25 345.375 275.1 344.7 277.35 344.325C286.875 342.975 294.375 340.05 299.25 337.725C300.3 332.625 301.35 327.45 302.4 322.275C308.7 292.05 315.525 262.5 322.65 233.475C320.025 231.675 316.35 229.35 311.85 226.875C306.15 223.725 295.5 218.1 280.425 215.025C276.375 214.2 264.075 211.95 248.25 213.525C242.775 214.05 233.925 215.025 223.125 219.225C217.425 221.55 212.775 224.025 209.475 226.125Z" fill="#EC615B"/>
<path d="M213.45 240.675C214.2 270.45 218.325 300.075 225.675 328.95C225.75 329.325 226.275 329.175 226.2 328.8C218.85 299.925 214.8 270.375 213.975 240.675C213.975 240.375 213.45 240.375 213.45 240.675Z" fill="#EC615B"/>
<path d="M226.875 331.275C229.95 336 235.05 338.325 240.15 340.275C246.45 342.675 253.125 344.25 259.8 344.85C273.3 346.125 286.95 343.725 299.25 337.95C299.55 337.8 299.325 337.275 298.95 337.5C287.55 342.9 274.875 345.3 262.275 344.55C255.975 344.175 249.75 342.975 243.825 341.025C237.825 339.075 230.925 336.525 227.325 330.975C227.175 330.675 226.725 330.975 226.875 331.275Z" fill="#EC615B"/>
<path d="M320.85 238.5C313.35 270.375 306.225 302.25 299.55 334.275C299.475 334.65 300 334.8 300.075 334.425C306.75 302.4 313.875 270.45 321.375 238.65C321.45 238.275 320.925 238.125 320.85 238.5Z" fill="#EC615B"/>
<path d="M232.875 384.825C228.975 388.125 223.575 392.775 217.275 398.475C197.475 416.325 186.75 426 188.325 428.625C189.675 430.95 200.625 428.925 242.7 410.025C244.2 404.85 245.625 399.675 247.125 394.5C242.325 391.275 237.6 388.05 232.875 384.825Z" fill="#EB506E"/>
<path d="M278.7 341.85C288.3 334.05 295.575 328.875 297.75 327.375L233.294 384.35M278.7 341.85C271.575 347.7 266.851 351.975 257.401 360.524L257.4 360.525M278.7 341.85L279.015 342.238C279.016 342.238 279.016 342.238 279.016 342.237C279.017 342.237 279.017 342.237 279.017 342.236L278.7 341.85ZM257.4 360.525C248.625 368.475 244.65 372.375 241.95 375.15C238.365 378.806 235.438 381.934 233.294 384.35M257.4 360.525L257.736 360.896C257.736 360.896 257.736 360.896 257.736 360.895L257.4 360.525ZM233.294 384.35C233.151 384.512 233.011 384.67 232.875 384.825C233.044 384.835 233.255 384.847 233.504 384.868C233.638 384.716 233.775 384.561 233.916 384.404C233.685 384.38 233.476 384.363 233.294 384.35ZM246.995 394.701C246.839 394.75 246.682 394.799 246.526 394.848L246.669 395.307C246.671 395.313 246.673 395.319 246.675 395.325C246.834 395.275 246.993 395.225 247.152 395.175C247.111 395.043 247.059 394.884 246.995 394.701ZM311.788 369.972C311.787 369.972 311.787 369.973 311.786 369.973L312 370.425L311.789 369.972C311.788 369.972 311.788 369.972 311.788 369.972ZM351.225 343.425L350.836 343.111C350.836 343.111 350.836 343.111 350.835 343.112L351.225 343.425ZM332.8 309.04L332.7 308.55L332.798 309.04L332.8 309.04Z" fill="white" stroke="black"/>
<path d="M233.175 384.075C260.1 357.825 287.775 330.3 321.675 313.125C330.375 308.7 340.95 305.475 350.1 310.425C360.3 315.975 360.3 328.65 355.05 337.65C345.9 353.4 327.15 363.15 311.175 370.575C290.25 380.25 268.5 388.35 246.525 395.175C246.15 395.25 246.3 395.85 246.675 395.7C267.9 389.1 288.825 381.3 309.075 372.15C325.875 364.575 345.825 354.525 355.5 337.95C359.325 331.35 360.825 322.725 356.7 315.9C352.8 309.375 344.7 306.825 337.425 307.425C327.9 308.175 319.05 313.575 311.025 318.375C302.325 323.625 294 329.4 285.9 335.625C267 350.25 249.825 366.975 232.725 383.625C232.5 383.925 232.95 384.3 233.175 384.075Z" fill="white"/>
<path d="M229.95 391.425C229.425 386.85 223.5 386.175 220.875 389.475C219.975 390.525 219.6 392.1 220.8 393.15C222.375 394.5 225.225 393.375 226.8 392.55C227.025 392.4 227.925 391.725 228.15 391.95C228.375 392.1 227.925 393.9 227.85 394.35C227.7 395.625 227.4 397.05 227.925 398.325C228.375 399.45 229.5 400.35 230.775 399.975C234.75 398.85 233.775 391.65 229.65 391.5C229.275 391.5 229.275 392.025 229.65 392.1C232.8 392.25 233.25 395.85 232.05 398.1C230.925 400.125 228.225 398.85 228.225 396.675C228.225 394.875 228.6 393.075 228.825 391.275C228.825 391.05 228.6 390.9 228.375 391.05C227.4 391.8 226.35 392.4 225.225 392.775C224.775 392.925 224.25 393.075 223.8 393.15C222.525 393.675 221.925 393.15 222.075 391.5C221.1 390.3 221.25 389.4 222.6 388.95C223.425 388.5 224.25 388.2 225.225 388.125C227.325 388.05 229.2 389.4 229.425 391.65C229.425 391.725 230.025 391.725 229.95 391.425Z" fill="white"/>
<path d="M217.8 396.225C219.975 396.75 221.7 398.175 222.75 400.2C222.9 400.5 223.425 400.275 223.2 399.9C222.15 397.8 220.2 396.3 217.95 395.7C217.575 395.55 217.425 396.15 217.8 396.225Z" fill="white"/>
<path d="M214.275 399.3C216.375 399.9 218.1 401.4 219 403.425C219.15 403.725 219.675 403.575 219.525 403.275C218.625 401.025 216.75 399.45 214.425 398.775C214.05 398.7 213.9 399.225 214.275 399.3Z" fill="white"/>
<path d="M210.45 402.975C213 402.675 215.325 404.475 215.7 406.95C215.775 407.325 216.3 407.175 216.225 406.8C215.775 404.025 213.15 402.075 210.45 402.375C210.075 402.45 210.075 402.975 210.45 402.975Z" fill="white"/>
<path d="M206.775 407.025C208.8 407.55 211.575 408.375 211.425 411C211.425 411.375 211.95 411.375 212.025 411C212.175 408.15 209.175 407.1 206.925 406.5C206.625 406.425 206.475 406.95 206.775 407.025Z" fill="white"/>
<path d="M202.95 409.5C204.6 410.1 206.1 410.85 207.525 411.9C207.825 412.125 208.125 411.6 207.825 411.45C206.325 410.4 204.75 409.65 203.1 409.05C202.725 408.825 202.575 409.35 202.95 409.5Z" fill="white"/>
<path d="M207.75 423C219 418.65 230.025 413.85 240.9 408.6C241.2 408.45 240.975 407.925 240.6 408.15C229.8 413.325 218.775 418.125 207.6 422.475C207.3 422.55 207.45 423.15 207.75 423Z" fill="white"/>
<path d="M228.825 290.475C229.5 292.65 230.4 295.425 231.225 298.65C231.45 299.625 232.2 302.4 233.1 306.3C234 310.2 235.125 316.05 236.175 323.475C236.85 324.675 237.375 325.2 237.6 325.125C237.9 325.05 237.9 324 237.6 322.05C237.075 317.625 236.4 314.1 235.875 311.7C234.9 307.35 234.6 307.35 234 303.675C233.4 300.225 233.325 298.275 232.35 294.6C231.9 292.875 231.45 291.525 231.15 290.625C230.325 290.55 229.575 290.475 228.825 290.475Z" fill="white"/>
<path d="M231.225 305.1C230.325 305.4 229.125 305.85 228 306.675C224.775 309.075 224.025 312.75 223.875 313.8C224.475 314.7 225.375 315.825 226.8 316.95C228.3 318.15 229.8 318.825 230.85 319.2C231.825 318.525 232.875 317.85 233.85 317.025C235.125 316.05 236.325 315.075 237.45 314.1C237.3 313.05 237 311.4 236.025 309.675C234.45 307.05 232.275 305.7 231.225 305.1Z" fill="#F7CD5B"/>
<path d="M209.475 226.125C208.65 227.325 207.675 228.9 206.475 230.85C203.55 235.425 201.45 238.95 201 239.625C199.5 242.175 196.425 247.2 192.9 253.875C189.15 260.925 186.75 266.175 184.2 271.875C184.2 271.875 181.5 277.8 178.275 287.1C176.475 292.2 176.1 293.85 176.475 295.95C177.45 301.8 183.075 305.4 184.575 306.375C186.525 307.65 188.025 308.175 192.825 309.6C202.5 312.525 207.3 314.025 211.65 314.85C215.775 315.675 220.8 316.5 226.725 317.025C225.675 316.05 224.625 315.15 223.65 314.175C224.475 312.3 225.375 310.5 226.2 308.625C224.1 305.55 221.925 302.55 219.825 299.475C216.45 294.6 213 289.8 209.625 285C210.675 282.6 212.325 278.85 214.575 274.275C219.15 264.75 220.95 261.975 223.725 255.45C227.475 246.45 229.425 241.95 228.375 238.425C225.825 229.65 212.475 226.725 209.475 226.125Z" fill="#EC615B"/>
<path d="M210.375 286.05C215.025 293.7 220.2 300.975 225.9 307.875C226.125 308.175 226.5 307.725 226.275 307.5C220.575 300.675 215.475 293.4 210.825 285.75C210.675 285.45 210.15 285.75 210.375 286.05Z" fill="#202124"/>
<path d="M224.1 313.95C225.075 310.125 227.55 305.85 231.825 305.325C232.2 305.25 232.2 304.725 231.825 304.725C227.25 305.25 224.625 309.675 223.5 313.8C223.425 314.1 224.025 314.25 224.1 313.95Z" fill="#202124"/>
<path d="M232.875 306C235.125 308.325 236.55 311.1 237.15 314.25C237.225 314.625 237.75 314.475 237.675 314.1C237.075 310.875 235.575 307.95 233.25 305.625C233.025 305.325 232.65 305.775 232.875 306Z" fill="#202124"/>
<path d="M232.875 309.3C234.15 310.875 234.975 312.75 235.2 314.85C235.275 315.225 235.8 315.225 235.8 314.85C235.5 312.675 234.675 310.65 233.25 308.925C233.025 308.625 232.65 309 232.875 309.3Z" fill="#202124"/>
<path d="M223.95 314.175C225.525 316.725 227.85 318.525 230.7 319.5C231.075 319.65 231.225 319.05 230.85 318.975C228.15 318.075 225.975 316.275 224.4 313.95C224.25 313.575 223.725 313.875 223.95 314.175Z" fill="#202124"/>
<path d="M227.775 314.475C229.5 315.375 230.925 316.65 231.975 318.3C232.2 318.6 232.65 318.3 232.425 318C231.3 316.275 229.875 314.925 228.075 314.025C227.775 313.8 227.475 314.325 227.775 314.475Z" fill="#202124"/>
<path d="M229.425 312.225C231.525 313.2 232.95 315 233.475 317.175C233.55 317.55 234.075 317.4 234 317.025C233.475 314.7 231.9 312.75 229.65 311.7C229.425 311.55 229.125 312 229.425 312.225Z" fill="#202124"/>
<path d="M228.525 290.55C230.175 295.725 231.6 300.975 232.8 306.3C232.875 306.675 233.4 306.525 233.325 306.15C232.125 300.825 230.7 295.575 229.05 290.4C228.975 290.025 228.45 290.175 228.525 290.55Z" fill="#202124"/>
<path d="M229.5 290.625C231.6 289.575 232.725 298.425 232.875 299.25C233.4 301.95 233.925 304.65 234.45 307.275C234.525 307.65 235.05 307.5 234.975 307.125C234 302.25 233.475 297.075 232.125 292.275C231.675 290.775 231 289.275 229.275 290.1C228.825 290.325 229.125 290.775 229.5 290.625Z" fill="#202124"/>
<path d="M234.825 317.175C235.35 318.9 235.725 320.7 236.025 322.5C236.1 322.875 236.625 322.725 236.55 322.35C236.25 320.55 235.875 318.75 235.35 317.025C235.275 316.65 234.675 316.8 234.825 317.175Z" fill="#202124"/>
<path d="M236.1 317.175C236.475 318.6 236.775 320.1 236.925 321.6C236.925 321.975 237.525 321.975 237.525 321.6C237.375 320.025 237.15 318.525 236.7 317.025C236.55 316.65 235.95 316.8 236.1 317.175Z" fill="#202124"/>
<path d="M235.95 323.55C236.4 324.15 236.775 324.75 237.225 325.35C237.45 325.65 237.9 325.35 237.675 325.05C237.225 324.45 236.85 323.85 236.4 323.25C236.175 322.95 235.725 323.25 235.95 323.55Z" fill="#202124"/>
<path d="M237.3 321.975C237.3 323.025 237.3 324 237.3 325.05C237.3 325.425 237.9 325.425 237.9 325.05C237.9 324 237.9 323.025 237.9 321.975C237.825 321.6 237.3 321.6 237.3 321.975Z" fill="#202124"/>
<path d="M203.625 272.475C203.775 274.425 204 277.575 204.45 281.4C205.8 293.475 207.675 300.675 211.575 319.5C212.25 322.725 213.225 327.75 214.425 333.9C218.55 335.325 224.175 336.975 231.15 338.175C237.825 339.3 242.925 339.525 248.4 339.75C253.35 339.9 259.875 339.975 267.525 339.45C266.175 333 265.125 327.675 264.45 324.075C261.525 308.7 259.65 295.8 256.875 276.6C256.35 272.775 255.9 269.625 255.6 267.525C248.85 266.925 243 266.925 238.5 267.075C227.025 267.375 218.55 268.95 216.825 269.325C211.425 270.3 206.925 271.5 203.625 272.475Z" fill="#EFEFEF"/>
<path d="M268.987 303.033L268.987 303.033L268.989 303.043C269.281 304.245 268.885 305.676 267.996 307.05C267.113 308.415 265.787 309.651 264.36 310.436C262.734 311.317 261.049 311.418 257.496 311.63C257.383 311.637 257.268 311.643 257.152 311.65C257.052 311.654 256.952 311.657 256.85 311.661C254.646 311.736 251.882 311.831 248.444 310.989L248.442 310.989C246.351 310.484 244.691 309.84 243.529 309.268C242.579 308.244 241.7 307.292 240.894 306.412L240.892 306.41C239.628 305.045 238.981 304.332 238.439 303.734C238.177 303.445 237.94 303.183 237.669 302.887L237.669 302.887L237.666 302.885C236.939 302.102 236.301 301.323 235.704 300.596C235.674 300.56 235.645 300.524 235.616 300.488C237.765 299.856 239.584 299.407 240.853 299.139L240.853 299.139C244.422 298.384 247.351 298.201 251.52 297.939C251.857 297.918 252.202 297.896 252.557 297.874L252.557 297.874C254.878 297.724 256.741 297.65 258 297.65H259.07L258.384 296.829C256.667 294.777 255.937 293.585 255.648 292.904C255.504 292.566 255.483 292.385 255.484 292.305C255.484 292.305 255.484 292.304 255.484 292.304C255.486 292.303 255.488 292.303 255.49 292.303C255.557 292.29 255.665 292.286 255.819 292.304C256.128 292.34 256.533 292.454 256.994 292.623C257.908 292.957 258.934 293.47 259.642 293.842L259.642 293.843L259.651 293.847C261.996 295.019 263.682 296.412 264.71 297.366L264.71 297.366L264.713 297.369C266.397 298.907 267.346 300.295 267.634 300.727L267.634 300.727L267.638 300.733C267.724 300.858 267.805 300.976 267.882 301.087C268.18 301.518 268.41 301.851 268.589 302.145C268.81 302.507 268.929 302.772 268.987 303.033ZM255.437 292.318C255.436 292.319 255.436 292.319 255.436 292.319L255.437 292.318Z" fill="white" stroke="black"/>
<path d="M322.725 233.925C319.875 234.75 316.65 236.175 313.5 238.425C300.45 247.8 299.325 264.45 299.1 267.75C300.15 271.725 301.2 275.775 302.1 280.05C303.375 285.525 304.425 290.85 305.4 296.025C301.65 296.625 297.9 297.225 294 297.75C285 298.95 276.375 299.85 268.05 300.45C267.375 300.975 266.625 301.65 265.95 302.475C263.4 305.925 263.85 309.975 264 311.175C265.425 312.3 267.6 313.875 270.45 315.525C271.5 316.125 275.1 318.225 283.725 321.45C293.025 324.9 300 326.55 302.1 327.075C305.925 327.975 308.925 328.65 313.125 329.1C316.425 329.4 320.025 329.775 324.675 329.1C328.2 328.65 332.1 328.05 336.075 325.275C337.8 324.075 339.075 322.8 339.825 321.9C339.825 319.65 339.825 316.575 339.675 312.825C339.45 305.775 339.225 296.775 337.875 285.675C337.275 280.575 336.225 272.25 333.6 261.75C331.725 254.25 331.5 255.45 328.125 244.5C327.75 243.15 326.85 240.375 324.825 237.15C324.15 235.725 323.325 234.6 322.725 233.925Z" fill="#EC615B"/>
<path d="M264.45 311.55C268.875 315.75 275.025 318.075 280.575 320.4C287.25 323.1 294.075 325.35 301.05 327.075C313.275 330 326.85 331.875 337.875 324.525C338.175 324.3 337.875 323.85 337.575 324.075C326.25 331.65 312.225 329.4 299.85 326.25C294.15 324.825 288.6 323.025 283.125 320.925C276.9 318.525 269.625 315.9 264.75 311.25C264.6 310.95 264.225 311.325 264.45 311.55Z" fill="white"/>
<path d="M264.45 310.65C263.775 306.825 265.2 303 268.275 300.6C268.575 300.375 268.275 299.925 267.975 300.15C264.675 302.7 263.1 306.75 263.85 310.8C264 311.175 264.525 311.025 264.45 310.65Z" fill="#EC615B"/>
<path d="M269.325 300.375C283.125 299.1 296.925 297.675 310.65 296.1C311.025 296.025 311.025 295.5 310.65 295.5C296.85 297.075 283.125 298.5 269.325 299.775C269.025 299.85 269.025 300.375 269.325 300.375Z" fill="white"/>
<path d="M298.875 267.75C301.35 277.05 303.45 286.5 305.175 295.95C305.25 296.325 305.775 296.175 305.7 295.8C303.975 286.35 301.8 276.9 299.4 267.6C299.325 267.3 298.8 267.45 298.875 267.75Z" fill="white"/>
<path d="M268.275 300.375C265.2 296.175 260.925 293.175 255.9 291.675C255.525 291.6 255.375 292.125 255.75 292.2C260.625 293.625 264.75 296.55 267.75 300.6C268.05 300.9 268.5 300.675 268.275 300.375Z" fill="#EC615B"/>
<path d="M255 293.475C255.6 294.6 256.425 295.65 257.325 296.55C257.55 296.775 258 296.4 257.7 296.175C256.8 295.275 256.05 294.3 255.45 293.175C255.3 292.875 254.775 293.175 255 293.475Z" fill="#EC615B"/>
<path d="M235.275 300.975C238.5 302.55 241.95 303.375 245.55 303.3C245.925 303.3 245.925 302.7 245.55 302.7C242.025 302.7 238.725 301.95 235.575 300.45C235.275 300.3 234.975 300.825 235.275 300.975Z" fill="#EC615B"/>
<path d="M237.15 303.525C239.25 304.875 241.5 305.85 243.9 306.45C244.275 306.525 244.425 306 244.05 305.925C241.65 305.325 239.475 304.425 237.375 303.075C237.15 302.85 236.85 303.3 237.15 303.525Z" fill="#EC615B"/>
<path d="M239.55 306.45C241.575 308.025 243.975 309 246.525 309.375C246.9 309.45 247.05 308.85 246.675 308.85C244.125 308.475 241.875 307.5 239.85 306C239.55 305.7 239.25 306.225 239.55 306.45Z" fill="#EC615B"/>
<path d="M255.975 268.35C256.5 276.525 257.475 284.625 259.05 292.725C259.125 293.1 259.65 292.95 259.575 292.575C258.075 284.55 257.025 276.525 256.575 268.35C256.5 268.05 255.9 268.05 255.975 268.35Z" fill="#EC615B"/>
<path d="M261.825 311.7C263.625 321.3 265.425 330.975 267.225 340.575C267.3 340.95 267.825 340.8 267.75 340.425C265.95 330.825 264.15 321.15 262.35 311.55C262.35 311.175 261.825 311.325 261.825 311.7Z" fill="#EC615B"/>
<path d="M202.95 273.075C205.725 293.325 209.625 313.425 214.575 333.3C214.65 333.675 215.175 333.525 215.1 333.15C210.15 313.275 206.325 293.175 203.475 272.925C203.475 272.55 202.95 272.7 202.95 273.075Z" fill="#EC615B"/>
<path d="M214.425 334.125C231.45 340.2 249.675 340.5 267.525 339.675C267.9 339.675 267.9 339.075 267.525 339.075C249.675 339.9 231.525 339.6 214.575 333.525C214.2 333.45 214.05 334.05 214.425 334.125Z" fill="#EC615B"/>
<path d="M203.7 272.775C220.575 267.975 238.125 266.325 255.6 267.825C255.975 267.825 255.975 267.3 255.6 267.225C238.05 265.725 220.5 267.45 203.55 272.25C203.25 272.325 203.4 272.85 203.7 272.775Z" fill="#EC615B"/>
<path d="M240.949 205.303L240.95 205.289V205.275C240.95 204.157 241.196 203.223 241.459 202.528C241.829 202.279 242.225 202.007 242.652 201.712C242.706 201.675 242.76 201.637 242.815 201.599C243.359 201.224 243.956 200.814 244.627 200.366L244.638 200.359L244.649 200.351C245.837 199.467 246.719 198.738 247.461 198.126C247.732 197.902 247.985 197.693 248.226 197.499C249.129 196.771 249.901 196.216 251.015 195.676C251.138 195.619 251.256 195.563 251.369 195.509C252.459 194.992 253.156 194.661 254.204 194.599L254.204 194.599L254.217 194.598C256.716 194.39 258.819 195.622 262.453 197.97C263.857 198.882 265.052 199.722 265.858 200.366C266.049 201.74 266.05 202.911 266.05 203.77C265.976 207.205 264.951 209.68 264.678 210.226L264.669 210.245L264.661 210.264C264.229 211.343 263.727 212.132 263.368 212.634L263.111 212.994L263.437 213.293C264.376 214.157 265.334 215.021 266.289 215.883L266.29 215.884C267.174 216.681 268.056 217.476 268.923 218.272C268.918 218.294 268.913 218.316 268.908 218.338C268.854 218.589 268.797 218.853 268.701 219.142L268.693 219.166L268.687 219.192C268.549 219.814 268.047 221.473 266.745 223.282C266.158 224.088 265.002 225.604 262.98 226.904C261.08 228.12 259.797 228.909 258.12 228.777C257.435 228.708 256.57 228.465 255.805 228.018C255.04 227.571 254.41 226.941 254.123 226.111L254.123 226.111L254.119 226.103C253.769 225.148 253.966 224.185 254.341 223.348C254.676 222.599 255.13 222.003 255.391 221.661C255.422 221.62 255.45 221.583 255.475 221.55L255.475 221.55L255.479 221.544C256.024 220.796 256.71 220.313 257.198 220.034L257.69 219.753L257.35 219.3C257.13 219.007 256.909 218.694 256.684 218.374L256.681 218.371C256.458 218.054 256.229 217.731 256 217.425L255.824 217.191L255.534 217.229C254.426 217.377 252.479 217.591 250.25 217.016L250.25 217.016L250.237 217.013C249.302 216.797 245.993 215.933 243.475 212.699C243.457 212.675 243.438 212.649 243.417 212.621C242.742 211.697 240.742 208.962 240.949 205.303Z" fill="white" stroke="black"/>
<path d="M266.325 200.925C265.8 200.325 264.975 199.425 263.85 198.45C261.975 196.875 258.9 194.25 255.15 194.175C252.675 194.1 250.875 195.3 247.125 197.625C244.2 199.425 242.025 201.3 240.6 202.725C240.525 203.55 240.45 204.45 240.45 205.275C239.4 204.9 237.9 204.3 236.325 203.325C234.9 202.425 232.125 200.775 230.175 197.625C229.35 196.35 226.575 191.55 228 185.7C228.9 181.95 231.075 179.625 231.675 179.025C234 176.7 236.475 175.875 238.2 175.275C239.25 174.9 242.925 173.85 247.575 174.6C252.525 175.425 255.9 177.825 257.475 179.1C257.625 178.2 257.925 177 258.375 175.575C259.275 172.65 259.725 171.225 260.85 169.725C261.375 168.975 263.25 166.425 266.7 165.675C267.75 165.45 270.075 164.85 272.1 166.125C274.05 167.325 275.4 169.95 276.3 171.75C276.75 172.65 277.2 173.625 278.325 174.225C279.3 174.75 280.35 174.675 280.725 174.675C282.3 174.525 283.275 173.625 283.95 173.175C286.875 171.225 290.85 171.975 294.075 172.65C295.05 172.875 297 173.325 299.175 174.375C304.35 176.925 307.05 180.825 308.25 182.625C308.775 183.45 311.475 187.5 312.525 193.5C312.975 196.125 313.5 199.275 312.45 203.325C311.85 205.575 310.425 209.4 306.9 212.55C303.225 215.925 299.25 216.75 295.875 217.425C289.875 218.7 285.075 217.875 281.85 217.35C277.95 216.675 271.575 215.1 264.525 210.75C264.975 207.45 265.65 204.15 266.325 200.925Z" fill="#5222D0"/>
<path d="M255.3 202.425C255.839 202.425 256.275 201.821 256.275 201.075C256.275 200.33 255.839 199.725 255.3 199.725C254.762 199.725 254.325 200.33 254.325 201.075C254.325 201.821 254.762 202.425 255.3 202.425Z" fill="#202124"/>
<path d="M262.125 181.575C262.65 181.95 263.175 182.325 263.7 182.7C267 185.475 268.575 189 269.4 191.55C269.475 191.325 270.825 187.65 268.425 184.5C266.1 181.425 262.425 181.5 262.125 181.575Z" fill="#EB506E"/>
<path d="M248.55 200.625C247.575 203.1 246.3 207.45 248.625 209.55C248.925 209.775 249.3 209.4 249 209.175C246.825 207.225 248.1 203.1 249 200.775C249.225 200.475 248.7 200.325 248.55 200.625Z" fill="#202124"/>
<path d="M255.45 217.95C256.125 218.925 256.8 219.9 257.475 220.875C257.7 221.175 258.15 220.875 257.925 220.575C257.25 219.6 256.575 218.625 255.9 217.65C255.75 217.425 255.3 217.65 255.45 217.95Z" fill="#202124"/>
<path opacity="0.58" d="M19.2 30.075C19.35 97.6499 19.5 165.15 19.65 232.725C43.8 243.675 75.375 255.3 113.475 262.65C165.225 272.55 209.775 270.825 241.35 267.075C244.725 191.775 248.175 116.55 251.55 41.25C174.075 37.5 96.675 33.825 19.2 30.075Z" fill="#E8E8E8"/>
<path d="M53.925 123.525C53.775 121.65 53.625 118.8 53.475 115.425C53.025 106.425 53.1 105.225 53.175 104.4C53.475 102 54.075 97.1999 57.375 92.3999C59.55 89.2499 61.95 87.4499 63.675 86.0999C69.525 81.7499 75.225 80.6249 76.725 80.3999C79.65 79.8749 83.475 79.1999 87.75 80.9249C89.475 81.5999 92.325 82.7249 93.9 85.6499C95.625 89.0249 94.5 92.5499 94.125 93.7499C93.6 95.4749 92.475 97.6499 89.175 100.5C85.35 103.8 83.1 104.175 77.775 106.95C74.025 108.975 67.2 112.65 61.65 119.4C59.625 121.875 58.275 124.125 57.45 125.625C56.325 124.875 55.125 124.2 53.925 123.525Z" fill="black"/>
<path d="M76.1316 108.893C79.7441 107.015 82.3879 105.343 83.8571 104.415C83.9209 104.374 83.9826 104.335 84.042 104.298L84.042 104.298L84.0481 104.294C85.6427 103.254 87.423 101.963 89.385 100.483C89.7866 101.643 90.2492 103.224 90.5571 105.009C91.0051 107.697 91.5036 111.244 89.9173 115.073C89.884 115.145 89.8493 115.22 89.8132 115.298C89.2729 116.471 88.3999 118.365 86.4728 119.827L86.4728 119.827L86.4672 119.831C84.2442 121.568 81.888 121.959 80.0978 122.256C80.048 122.264 79.9987 122.272 79.9498 122.281C77.8252 122.573 76.0718 122.499 74.912 122.354L74.5538 122.309L74.3986 122.635C73.6623 124.181 72.6293 125.953 71.3 127.725C70.935 128.212 70.5693 128.649 70.1969 129.085C68.283 128.374 66.3687 127.647 64.4525 126.92L64.4517 126.92C62.5705 126.206 60.6873 125.491 58.8037 124.791C59.5389 122.231 60.6353 120.332 61.5304 119.093L61.5304 119.093L61.5358 119.085C64.0188 115.507 67.1582 113.603 69.7823 112.029C70.8538 111.386 71.3229 111.183 72.0402 110.873L72.0952 110.85C72.8645 110.517 73.9072 110.062 76.1316 108.893ZM76.1316 108.893C76.1313 108.893 76.131 108.893 76.1307 108.894L75.9 108.45L76.1326 108.893C76.1323 108.893 76.132 108.893 76.1316 108.893Z" fill="white" stroke="black"/>
<path d="M74.5501 122.775C73.8001 123.9 73.2751 125.175 72.9751 126.45C72.9001 126.825 73.4251 126.975 73.5001 126.6C73.8001 125.325 74.3251 124.2 75.0001 123.075C75.2251 122.7 74.7751 122.475 74.5501 122.775Z" fill="#202124"/>
<path d="M54.15 119.025C53.175 111 52.2001 102.225 56.1751 94.7999C59.7001 88.2749 66.6751 83.5499 73.6501 81.4499C80.3251 79.4999 93.5251 79.1249 94.5001 88.7249C95.4751 98.2499 85.7251 102.225 79.0501 106.2C78.7501 106.35 79.0501 106.875 79.3501 106.65C86.5501 102.375 95.8501 98.6249 95.1001 88.6499C94.5751 81.2999 85.4251 79.1249 79.4251 79.6499C71.1751 80.3999 63.0001 84.6749 57.8251 91.1999C51.525 99.0749 52.4251 109.575 53.5501 118.95C53.6251 119.4 54.15 119.4 54.15 119.025Z" fill="#202124"/>
<path d="M78.375 106.5C70.425 110.475 62.4 114.75 58.125 122.925C57.975 123.225 58.425 123.525 58.575 123.225C62.775 115.125 70.8 110.925 78.6001 107.025C78.9751 106.8 78.675 106.275 78.375 106.5Z" fill="#202124"/>
<path d="M72.8021 249.791L72.8012 249.791C55.6968 245.329 40.9571 239.759 28.729 234.183C25.6053 213.461 23.7419 195.789 22.4729 181.98C20.5072 160.211 20.1683 146.366 20.0131 140.028C20.0085 139.842 20.0042 139.663 19.9999 139.49C19.9262 134.106 19.925 129.592 19.925 126.377C20.6053 125.364 21.3459 124.349 22.0961 123.326C30.3479 122.522 40.3561 122.315 51.6852 123.796L51.6885 123.796C60.7289 124.917 71.6391 127.233 83.4468 131.717C92.9186 135.343 100.558 139.482 106.221 142.973C107.928 149.085 109.847 157.32 111.179 167.242C112.301 175.615 112.525 181.895 112.675 187.289L112.675 187.292C113.12 200.625 112.465 210.511 111.724 221.691L111.701 222.039C111.701 222.039 111.701 222.04 111.701 222.041C111.034 231.152 110.075 242.893 108.318 256.617C97.6595 255.267 85.7021 253.182 72.8021 249.791Z" fill="white" stroke="black"/>
<path d="M152.428 162.131C151.652 160.317 151.247 158.337 151.023 157.068C150.954 155.696 151.1 153.585 151.685 151.172C151.898 150.357 152.051 149.962 152.599 148.92C152.804 148.531 153.061 148.056 153.395 147.44C153.517 147.217 153.648 146.974 153.791 146.711C154.326 145.723 155.016 144.441 155.917 142.733L155.917 142.733L155.919 142.73C156.971 140.7 157.907 138.91 159.773 137.332L159.773 137.332L159.783 137.323C161.144 136.105 161.968 135.98 162.586 136.092C163.089 136.183 163.501 136.492 163.805 136.77C163.401 137.713 162.995 138.667 162.588 139.682C162.053 140.915 161.553 142.151 161.068 143.353C160.873 143.837 160.68 144.315 160.487 144.786L160.258 145.346L160.852 145.465C162.019 145.699 163.703 145.85 165.6 145.85C166.476 145.85 169.986 145.692 174.923 143.869L174.923 143.869L174.927 143.868C177.597 142.857 181.65 141.088 185.966 137.707C186.083 138.513 186.133 139.558 186.027 140.727C185.887 142.128 185.475 143.257 184.053 146.101C183.241 147.724 182.135 149.79 180.807 152.154C180.682 152.262 180.553 152.375 180.42 152.491C179.355 153.42 178.023 154.581 176.408 155.744L176.408 155.744L176.4 155.75C174.33 157.302 172.181 158.638 167.315 161.259C167.314 161.259 167.314 161.259 167.313 161.26L167.043 161.402C163.761 163.133 161.315 164.423 159.492 165.227C158.556 165.639 157.806 165.913 157.205 166.054C156.602 166.196 156.203 166.189 155.937 166.102C154.342 165.535 153.218 163.976 152.428 162.131Z" fill="white" stroke="black"/>
<path d="M74.9484 166.811L74.9485 166.81C76.433 162.431 79.2745 156.621 83.2765 151.859C87.2818 147.093 92.3915 143.444 98.4137 143.225C102.164 143.155 105.306 144.393 107.303 145.408C108.26 147.853 109.211 150.305 110.163 152.761C112.544 158.901 114.933 165.062 117.435 171.183C118.258 173.364 119.08 175.539 119.902 177.71C122.074 183.451 124.235 189.162 126.356 194.874L126.767 195.98L127.276 194.916C131.393 186.307 136.408 177.026 142.545 167.521C145.259 163.34 148.046 159.301 150.763 155.548C151.977 155.665 155.275 156.141 157.967 158.899L157.971 158.903C160.422 161.354 160.96 164.219 161.119 165.297C159.762 173.965 156.392 194.793 149.675 215.017L149.675 215.018C147.695 221.034 146.653 223.301 145.284 226.142C145.197 226.322 145.109 226.504 145.019 226.69C143.682 229.458 141.985 232.971 138.89 240.779C138.852 240.862 138.803 240.978 138.741 241.122C138.154 242.493 136.438 246.5 133.039 250.632L133.039 250.632C129.649 254.759 127.098 256.06 125.83 256.555C125.786 256.569 125.735 256.586 125.679 256.606C124.84 256.893 122.624 257.65 119.775 257.65C115.135 257.65 111.719 255.478 109.622 254.13C106.689 252.224 104.704 250.098 102.092 246.814C96.5631 239.791 93.0531 233.741 92.2381 232.259L92.2358 232.255C88.1878 225.058 83.7029 217.06 79.2167 205.395L79.2152 205.392C77.2758 200.469 75.1845 194.122 73.2409 186.576C71.913 177.392 73.6909 170.509 74.9484 166.811Z" fill="white" stroke="black"/>
<path d="M72.3749 186.825C75.7499 199.875 80.5499 212.55 86.8499 224.475C90.0749 230.625 93.6749 236.55 97.6499 242.25C100.875 246.9 104.4 251.625 109.125 254.85C118.575 261.3 128.7 258.375 134.85 249.3C138.6 243.825 141.3 237.525 143.925 231.45C146.7 225.15 149.175 218.7 151.35 212.175C156.45 196.95 159.9 181.2 161.775 165.3C161.85 164.925 161.25 164.925 161.175 165.3C158.1 191.4 150.675 216.9 139.125 240.525C136.8 245.325 134.25 250.275 130.275 253.875C124.575 258.975 116.775 258.9 110.475 255C104.925 251.625 101.025 246.15 97.4249 240.9C94.1249 236.1 91.0499 231.075 88.2749 225.9C81.5249 213.525 76.4249 200.325 72.9749 186.675C72.8249 186.375 72.2999 186.525 72.3749 186.825Z" fill="white"/>
<path d="M151.875 155.7C156.375 156.45 159.975 159.825 161.1 164.25C161.175 164.625 161.7 164.475 161.625 164.1C160.5 159.45 156.75 155.925 152.025 155.175C151.725 155.1 151.575 155.7 151.875 155.7Z" fill="#202124"/>
<path d="M163.5 137.85C162.75 139.875 162 141.825 161.25 143.85C161.1 144.225 161.7 144.3 161.775 144C162.525 141.975 163.275 140.025 164.025 138C164.175 137.7 163.65 137.55 163.5 137.85Z" fill="#202124"/>
<path d="M162 146.1C171.15 147.45 179.025 141.45 186.525 137.025C186.825 136.875 186.525 136.35 186.225 136.575C178.95 140.85 171.075 146.925 162.15 145.575C161.775 145.5 161.625 146.025 162 146.1Z" fill="#202124"/>
<path d="M176.625 146.7C180.525 144.9 183.9 142.275 186.675 139.05C186.9 138.75 186.525 138.375 186.3 138.675C183.525 141.9 180.225 144.45 176.4 146.25C175.95 146.325 176.25 146.85 176.625 146.7Z" fill="#202124"/>
<path d="M176.925 149.925C180.9 147.675 184.275 144.6 186.9 140.85C187.125 140.55 186.6 140.25 186.45 140.55C183.9 144.225 180.6 147.225 176.7 149.4C176.325 149.625 176.55 150.15 176.925 149.925Z" fill="#202124"/>
<path d="M177.375 153C180.825 151.05 183.6 148.35 185.7 145.05C185.925 144.75 185.4 144.45 185.25 144.75C183.225 148.05 180.525 150.675 177.15 152.55C176.775 152.7 177.075 153.15 177.375 153Z" fill="#202124"/>
<path d="M122.625 51.975C123.225 70.2 123.75 88.5 124.35 106.725C152.775 108.9 181.125 111.075 209.55 113.25C209.775 93.075 210 72.9 210.225 52.725C180.975 52.425 151.8 52.2 122.625 51.975Z" fill="#EB506E"/>
</svg>
