<svg width="700" height="525" viewBox="0 0 700 525" fill="none" xmlns="http://www.w3.org/2000/svg">
<path d="M118.869 482.387H218.312C220.019 482.387 220.019 479.762 218.312 479.762C185.15 479.762 151.987 479.762 118.869 479.762C117.163 479.762 117.163 482.387 118.869 482.387Z" fill="#E8E8E8"/>
<path d="M151.288 472.106H251.081H279.387C281.094 472.106 281.094 469.481 279.387 469.481C246.137 469.481 212.888 469.481 179.594 469.481C170.144 469.481 160.694 469.481 151.288 469.481C149.625 469.481 149.625 472.106 151.288 472.106Z" fill="#E8E8E8"/>
<path d="M277.244 455.919H344.794C346.5 455.919 346.5 453.294 344.794 453.294C322.263 453.294 299.731 453.294 277.244 453.294C275.538 453.294 275.538 455.919 277.244 455.919Z" fill="#E8E8E8"/>
<path d="M335.081 492.669H475.737H515.069C516.775 492.669 516.775 490.044 515.069 490.044C468.169 490.044 421.269 490.044 374.412 490.044C361.287 490.044 348.206 490.044 335.081 490.044C333.375 490.044 333.375 492.669 335.081 492.669V492.669Z" fill="#E8E8E8"/>
<path d="M445.9 482.387H538.869C540.575 482.387 540.575 479.762 538.869 479.762C507.894 479.762 476.875 479.762 445.9 479.762C444.194 479.762 444.194 482.387 445.9 482.387Z" fill="#E8E8E8"/>
<path d="M200.944 163.887C198.669 164.281 195.081 165.2 191.319 167.519C188.956 168.962 184.144 172.462 181.125 178.894C180.031 181.169 177.581 186.462 178.806 193.025C180.6 202.738 189.131 207.594 190.487 208.338C194.819 201.731 199.106 195.081 203.438 188.475C202.562 180.294 201.731 172.112 200.944 163.887V163.887Z" fill="#EC615B"/>
<path d="M204.181 187.688C210.569 184.231 216.913 180.775 223.3 177.275C224.7 179.025 227.325 182.919 227.281 188.169C227.281 189.35 227.15 190.444 226.931 191.45C219.319 190.181 211.75 188.913 204.181 187.688V187.688Z" fill="#5222D0"/>
<path d="M135.669 217.875C136.456 228.156 137.2 238.481 137.988 248.763C140.788 248.588 143.588 248.369 146.344 248.194C145.425 237.738 144.506 227.325 143.588 216.869C140.919 217.219 138.294 217.525 135.669 217.875V217.875Z" fill="#5222D0"/>
<path d="M151.287 228.594C151.725 234.937 152.162 241.237 152.644 247.581C155.444 247.319 158.244 247.1 161 246.837C160.387 240.494 159.819 234.194 159.206 227.85C156.537 228.069 153.912 228.331 151.287 228.594Z" fill="#EC615B"/>
<path d="M250.819 267.794C207.419 271.775 164.062 275.713 120.662 279.694C116.681 216.169 112.656 152.644 108.675 89.0751C151.944 87.5438 195.256 86.0126 238.525 84.4813C242.637 145.6 246.75 206.719 250.819 267.794V267.794Z" stroke="#161616" stroke-width="2" stroke-miterlimit="10"/>
<path d="M153.431 77.0437C153.913 80.4999 154.438 83.9562 154.919 87.4124C155.05 88.2437 156.319 87.8937 156.188 87.0624C155.706 83.6062 155.181 80.1499 154.7 76.6937C154.569 75.8624 153.3 76.2124 153.431 77.0437Z" fill="#E8E8E8"/>
<path d="M154.35 76.9563C164.194 76.3 174.081 75.9063 183.925 75.6875C184.756 75.6875 184.756 74.375 183.925 74.375C174.037 74.5938 164.194 75.0312 154.35 75.6437C153.519 75.6875 153.519 77 154.35 76.9563V76.9563Z" fill="#E8E8E8"/>
<path d="M183.531 75.1625C183.969 78.8812 184.319 82.5562 184.538 86.275C184.581 87.1062 185.894 87.1062 185.85 86.275C185.631 82.5562 185.281 78.8375 184.844 75.1625C184.713 74.3313 183.4 74.3313 183.531 75.1625Z" fill="#E8E8E8"/>
<path d="M154.394 76.9125C154.7 80.15 155.006 83.4313 155.313 86.6688C155.356 87.0188 155.575 87.325 155.969 87.325C165.375 87.4125 174.738 85.925 184.188 86.2313C185.019 86.275 185.019 84.9625 184.188 84.9188C174.781 84.6125 165.419 86.0563 155.969 86.0125L156.625 86.6688C156.319 83.4313 156.013 80.15 155.706 76.9125C155.619 76.0812 154.306 76.0812 154.394 76.9125Z" fill="#E8E8E8"/>
<path d="M155.094 77.35C156.538 78.225 158.419 77.7875 159.994 77.7C162.619 77.5687 165.244 77.4375 167.869 77.3062C173.119 77.0437 178.325 76.7375 183.575 76.475C183.356 76.2562 183.138 76.0375 182.919 75.8187C183.05 78.6625 183.181 81.5062 183.313 84.3937C183.356 85.225 184.669 85.225 184.625 84.3937C184.494 81.55 184.363 78.7062 184.231 75.8187C184.231 75.4687 183.925 75.1625 183.575 75.1625C178.938 75.425 174.256 75.6437 169.619 75.9062C167.3 76.0375 164.981 76.1687 162.619 76.2562C160.781 76.3437 157.369 77.2187 155.75 76.2125C155.05 75.775 154.394 76.9125 155.094 77.35Z" fill="#E8E8E8"/>
<path d="M155.05 77.6125C155.706 80.2813 156.144 82.9938 156.406 85.7501C156.844 85.7063 157.281 85.6188 157.675 85.5751C157.194 83.2126 157.325 80.8938 157.763 78.4876C157.325 78.4438 156.888 78.3563 156.494 78.3126C156.581 80.9376 156.756 83.4313 157.763 85.8376C158.069 86.5376 159.163 86.0126 158.944 85.3126C158.2 82.5126 157.5 79.7563 158.244 76.8688C157.806 76.8688 157.413 76.8688 156.975 76.8688C157.369 79.4938 157.763 82.1188 158.156 84.7438C158.288 85.5751 159.556 85.2251 159.425 84.3938C159.031 81.7688 158.638 79.1438 158.244 76.5188C158.156 75.8625 157.106 75.95 156.975 76.5188C156.188 79.6251 156.888 82.6438 157.675 85.6626C158.069 85.4876 158.463 85.3126 158.856 85.1376C157.938 82.9501 157.85 80.5876 157.763 78.2688C157.763 77.5688 156.625 77.3501 156.494 78.0938C156.013 80.7188 155.838 83.2563 156.406 85.8813C156.538 86.5813 157.763 86.4501 157.675 85.7063C157.413 82.8626 156.931 80.0188 156.275 77.2188C156.1 76.4313 154.875 76.7813 155.05 77.6125Z" fill="#E8E8E8"/>
<path d="M158.419 79.9313C158.9 79.1438 159.381 78.3563 159.863 77.5688C159.469 77.35 159.119 77.1313 158.725 76.9125C158.156 78.1813 157.631 79.45 157.063 80.7188C156.8 81.3313 157.588 82.1625 158.113 81.5063C158.988 80.4125 159.819 79.275 160.694 78.1813C160.344 77.9625 159.95 77.7438 159.6 77.525C159.25 78.575 158.813 79.5375 158.2 80.5C157.806 81.1125 158.769 81.9 159.25 81.2875C159.906 80.4563 160.563 79.625 161.263 78.7938C160.913 78.5313 160.563 78.2688 160.213 78.0063C159.338 80.0625 158.463 82.075 157.588 84.1313C157.325 84.7438 158.113 85.575 158.638 84.9188C160.213 82.95 161.831 80.9375 163.406 78.9688C163.056 78.7063 162.706 78.4438 162.356 78.1813C161.175 80.1063 159.994 82.075 158.813 84C158.506 84.4813 158.988 85.1375 159.556 84.9625C160.256 84.7438 160.344 84.6563 160.869 84.2188C160.519 84 160.125 83.7813 159.775 83.5625C159.513 84.3063 159.075 84.875 158.419 85.3563C157.763 85.8375 158.331 86.9313 159.075 86.4938C159.775 86.1 160.431 85.8375 161.219 85.75C160.956 85.4875 160.694 85.225 160.431 84.9625C159.294 84.3938 158.944 83.6063 159.381 82.5563C159.513 81.9875 159.731 81.4625 159.994 80.9813C160.344 80.3688 161 78.8813 161.656 80.1938C162.138 81.1563 160.125 86.5375 159.863 83.2125C159.819 82.3375 159.906 81.4625 160.169 80.675C160.344 80.0625 160.606 79.4938 160.913 78.925C161.35 78.05 161.569 78.05 161.613 78.925C162.444 80.675 161.438 83.4313 160.606 84.9625C161 85.0063 161.394 85.05 161.788 85.1375C161.438 83.9125 161.306 82.7313 161.569 81.5063C161.656 81.025 162.094 78.7063 162.575 79.45C163.581 80.8938 161.919 84.175 161.219 85.4438C161.613 85.575 162.05 85.6625 162.444 85.7938C162.313 84.6125 162.269 83.475 162.488 82.2938C162.619 81.5063 163.1 78.9688 163.931 78.8813C165.113 78.75 162.838 84.1313 162.313 84.9188C162.706 84.9625 163.1 85.0063 163.494 85.0938C163.1 83.125 163.1 78.925 165.769 78.2688C165.506 78.1375 165.244 77.9625 164.981 77.8313C165.463 80.5 164.719 83.0813 162.881 85.05C163.231 85.1375 163.625 85.225 163.975 85.3563C163.669 84.1313 163.625 82.95 163.931 81.725C164.106 81.0688 165.025 78.3125 165.9 78.5313C166.513 78.6625 165.725 81.2 165.55 81.7688C165.069 83.1688 164.325 84.3938 163.231 85.4438C163.581 85.5313 163.975 85.6188 164.325 85.75C163.625 82.8188 164.85 79.8875 167.431 78.3125C167.125 78.1813 166.775 78.05 166.469 77.9188C167.475 80.5875 164.894 84.0438 163.188 85.8375C163.538 85.925 163.931 86.0125 164.281 86.1438C163.975 84.875 163.975 83.65 164.369 82.3813C164.5 81.9875 165.813 79.0125 166.425 79.2313C167.3 79.5375 165.813 82.2063 165.55 82.6C165.244 83.1688 164.675 84.175 164.106 84.525C163.45 84.9625 163.494 85.05 163.45 84.0875C163.406 82.775 164.281 81.2875 165.025 80.325C165.419 79.8 166.075 78.9688 166.688 78.75C167.388 78.4438 167.3 78.3563 167.213 79.275C166.906 81.9875 165.375 84.4375 163.45 86.3188C163.8 86.4063 164.194 86.4938 164.544 86.625C164.15 84.0438 165.025 81.375 166.95 79.5813C167.519 79.0563 168.175 78.7063 168.394 79.8C168.481 80.2375 167.956 81.2875 167.781 81.6813C167.169 83.125 166.294 84.35 165.2 85.4438H166.119C165.331 84.525 166.338 82.5125 166.819 81.6375C167.038 81.2438 168.919 78.3563 169.444 78.6188C170.056 78.925 168.7 81.8563 168.525 82.1625C167.913 83.3438 167.125 84.3938 166.206 85.3563C166.6 85.5313 166.95 85.6625 167.344 85.8375C167.388 82.6438 168.875 79.9313 171.588 78.225C171.238 78.05 170.931 77.8313 170.581 77.6563C170.625 80.5875 169.575 83.1688 167.475 85.225C167.869 85.4 168.219 85.5313 168.613 85.7063C168.875 82.5125 170.363 79.7563 172.813 77.7C172.463 77.6563 172.113 77.6125 171.763 77.5688C173.163 79.6688 170.1 83.6063 168.875 85.1813C169.269 85.3563 169.619 85.4875 170.013 85.6625C170.056 84.4375 170.275 83.3 170.756 82.1625C171.019 81.4625 172.113 79.0563 172.9 78.8813C173.95 78.6625 172.856 80.675 172.506 81.4188C171.894 82.6875 171.063 83.7813 170.1 84.7875C170.45 85.0063 170.844 85.225 171.194 85.4438C171.588 82.7313 172.681 79.1438 175.525 78.1375C175.263 77.9188 174.956 77.7 174.694 77.525C174.344 80.5 173.031 83.0375 170.844 85.05C171.238 85.225 171.588 85.3563 171.981 85.5313C172.113 84.1313 172.419 82.775 173.031 81.4625C173.425 80.6313 174.475 78.4438 175.438 78.2688C175.919 78.1813 175.438 78.925 175.263 79.4063C175 80.1063 174.65 80.7625 174.3 81.375C173.6 82.6 172.725 83.6938 171.719 84.7C172.113 84.875 172.463 85.0063 172.856 85.1813C173.031 82.3813 174.344 79.975 176.531 78.2688C176.225 78.0063 175.875 77.7875 175.569 77.525C175.219 79.5813 174.169 81.2 172.769 82.7313C171.938 83.65 171.675 83.4313 171.588 82.2063C171.5 80.5438 172.506 78.8813 174.169 78.4438C173.906 78.225 173.6 78.0063 173.338 77.8313C173.206 80.4563 172.419 82.8188 171.019 85.0063C171.413 85.1375 171.85 85.225 172.244 85.3563C172.375 84.0438 172.725 82.775 173.338 81.5938C173.731 80.8063 174.738 78.8375 175.613 78.6188C176.881 78.2688 175.613 80.7625 175.306 81.375C174.694 82.6 173.863 83.65 172.9 84.6563C173.294 84.8313 173.644 84.9625 174.038 85.1375C173.863 81.9438 175.788 79.1438 178.806 78.1813C178.544 77.9625 178.238 77.7438 177.975 77.5688C177.625 80.675 176.138 83.3 173.731 85.3125C174.125 85.4875 174.475 85.6188 174.869 85.7938C175.219 82.775 176.75 80.1938 179.244 78.4438C178.938 78.3125 178.588 78.1813 178.281 78.05C178.981 80.325 176.575 83.3 175.263 84.9188C175.656 85.0938 176.006 85.225 176.4 85.4C176.575 83.1688 177.844 79.1 180.513 78.7063C180.25 78.4438 179.988 78.1813 179.725 77.9188C179.244 80.4125 178.238 82.6438 176.619 84.6125C177.013 84.7875 177.363 84.9188 177.756 85.0938C177.888 82.425 178.938 80.1063 180.775 78.225C180.425 78.1813 180.075 78.1375 179.725 78.0938C180.731 79.9313 178.675 83.1688 177.756 84.7875L178.938 85.3125C179.375 83.2125 179.725 79.6688 181.694 78.4C181.431 78.3563 181.169 78.3125 180.906 78.3125C182 79.5375 179.9 83.65 179.419 84.875C179.856 85.0063 180.25 85.0938 180.688 85.225C181.3 82.9938 181.869 80.8063 182.481 78.575C182.044 78.5313 181.606 78.4438 181.213 78.4C181.3 80.5 180.994 82.4688 180.294 84.4813C180.731 84.525 181.169 84.6125 181.563 84.6563C181.781 82.6875 181.563 79.625 182.7 77.9625C182.306 77.9188 181.913 77.875 181.519 77.7875C182.131 79.9313 181.913 81.9875 181.606 84.2188C182.044 84.2625 182.481 84.35 182.875 84.3938C182.7 81.9438 182.525 79.45 182.35 77C181.956 77.175 181.606 77.3063 181.213 77.4813C182.875 79.1875 182.219 81.4188 181.475 83.3875C181.869 83.3438 182.263 83.3 182.656 83.2125C182.175 82.2938 181.213 80.7625 181.256 79.6688C180.819 78.9688 180.994 78.6188 181.825 78.6625C182.219 79.3625 182.35 80.1063 182.175 80.85C182.569 80.675 182.919 80.5438 183.313 80.3688C182.613 79.5375 182.263 78.75 182.044 77.7438C181.738 78.0063 181.388 78.225 181.081 78.4875C181.256 78.9688 181.431 79.4938 181.606 79.975C182 80.0188 182.394 80.0625 182.788 80.15C182.481 79.275 182.35 78.4875 182.394 77.5688C182.131 77.7875 181.825 78.0063 181.563 78.1813C183.269 78.8813 182.088 83.4313 181.869 84.6125C182.088 84.4375 182.306 84.3063 182.481 84.1313C179.156 84.2188 175.831 84.3063 172.506 84.3938C171.675 84.4375 171.675 85.6625 172.506 85.7063C175.438 85.7938 178.325 85.3563 181.213 84.9188C181.081 84.4813 180.994 84.0875 180.863 83.65C177.45 84.5688 174.038 85.1813 170.538 85.4438C169.706 85.4875 169.706 86.7125 170.538 86.7563C173.95 86.8875 177.275 85.7063 180.688 85.8375C180.644 85.4 180.556 84.9625 180.513 84.5688C177.888 85.4438 175.263 85.7063 172.506 85.4V86.7125C175.656 86.4063 178.806 86.1 181.956 85.7938C181.913 85.3563 181.825 84.9188 181.781 84.525C179.681 85.1375 177.625 85.3563 175.438 85.2688V86.5813C177.581 86.5813 179.638 86.3188 181.694 85.7938C182.525 85.575 182.175 84.35 181.344 84.525C178.894 85.05 176.444 85.3125 173.95 85.3125V86.625C176.925 86.2313 179.9 85.75 182.875 85.1375C183.575 85.0063 183.444 83.7813 182.7 83.8688C179.856 84.2188 177.056 84.175 174.256 83.7375C173.425 83.6063 173.075 84.875 173.906 85.0063C176.838 85.4438 179.769 85.5313 182.7 85.1813C182.656 84.7438 182.569 84.3063 182.525 83.9125C179.681 84.4813 176.838 85.0063 173.95 85.3563C173.119 85.4438 173.075 86.6688 173.95 86.6688C176.575 86.6688 179.113 86.4063 181.694 85.8375C181.563 85.4 181.475 85.0063 181.344 84.5688C179.375 85.05 177.45 85.3125 175.438 85.3125C174.606 85.3125 174.606 86.5813 175.438 86.625C177.713 86.7125 179.9 86.45 182.131 85.8375C182.831 85.6188 182.7 84.4813 181.956 84.5688C178.806 84.875 175.656 85.1813 172.506 85.4875C171.675 85.575 171.675 86.7125 172.506 86.8C175.394 87.1063 178.15 86.8 180.863 85.925C181.563 85.7063 181.431 84.6563 180.688 84.6563C177.275 84.525 173.95 85.7063 170.538 85.575V86.8875C174.169 86.625 177.713 86.0125 181.213 85.05C182.044 84.8313 181.694 83.65 180.863 83.7813C178.063 84.2188 175.306 84.6125 172.506 84.525V85.8375C175.831 85.75 179.156 85.6625 182.481 85.575C182.744 85.575 183.05 85.3563 183.094 85.0938C183.531 82.6438 184.888 78.3125 181.869 77.0438C181.431 76.8688 181.081 77.3063 181.038 77.6563C180.95 78.75 181.081 79.5813 181.475 80.5875C181.65 81.0688 182.394 81.2875 182.656 80.7625C183.269 79.4938 182.919 78.225 181.65 77.4813C181.125 77.175 180.556 77.6563 180.688 78.225C180.95 79.4938 181.475 80.4563 182.306 81.4625C182.7 81.9438 183.4 81.5063 183.444 80.9813C183.575 79.5813 182.35 75.425 180.119 76.6938C178.106 77.875 180.775 82.6438 181.431 84C181.694 84.5688 182.438 84.3063 182.613 83.825C183.575 81.3313 184.013 78.7063 182 76.65C181.606 76.2563 180.819 76.5188 180.863 77.1313C181.038 79.5813 181.213 82.075 181.388 84.525C181.431 85.225 182.569 85.4875 182.656 84.7C183.006 82.2938 183.269 79.975 182.569 77.5688C182.394 77 181.694 76.9563 181.388 77.3938C180.031 79.3188 180.294 82.5125 180.075 84.7438C179.988 85.5313 181.125 85.575 181.344 84.9188C182.088 82.8188 182.394 80.7188 182.306 78.4875C182.263 77.7438 181.213 77.5688 181.038 78.3125C180.425 80.5438 179.856 82.7313 179.244 84.9625C179.025 85.7938 180.206 86.1 180.513 85.3125C181.3 83.3 183.4 79.45 181.65 77.4375C181.475 77.2188 181.081 77.175 180.863 77.35C178.456 78.925 178.019 82.4688 177.494 85.05C177.363 85.75 178.325 86.2313 178.675 85.575C179.856 83.4313 181.956 79.975 180.644 77.525C180.425 77.175 179.9 77.0875 179.594 77.3938C177.494 79.5813 176.356 82.1625 176.181 85.1813C176.138 85.7063 176.925 86.1 177.319 85.6625C179.113 83.5188 180.25 81.1125 180.775 78.4C180.863 77.875 180.469 77.525 179.988 77.6125C176.706 78.0938 175.131 82.7313 174.913 85.575C174.869 86.1438 175.656 86.45 176.05 86.0563C177.756 84 180.294 80.7625 179.419 77.9188C179.288 77.525 178.806 77.2625 178.456 77.525C175.569 79.5375 173.819 82.4688 173.425 85.9688C173.338 86.5813 174.169 86.7563 174.563 86.45C177.231 84.2188 178.763 81.2 179.156 77.7875C179.2 77.35 178.719 77.0438 178.325 77.175C174.738 78.3125 172.375 81.6375 172.594 85.4C172.638 85.9688 173.294 86.275 173.731 85.8813C174.738 84.875 179.988 77.7438 176.706 76.9563C175.35 76.6063 173.819 78.7063 173.163 79.5813C171.806 81.375 171.106 83.4313 170.844 85.6625C170.756 86.3625 171.763 86.4938 172.069 86.0125C173.644 83.65 174.475 81.025 174.606 78.1813C174.606 77.7438 174.169 77.4375 173.775 77.5688C171.981 78.05 170.888 79.3625 170.45 81.1563C170.144 82.2938 169.838 84.4375 171.063 85.1813C172.244 85.925 173.206 84.6125 173.863 83.825C175.263 82.2063 176.4 80.4563 176.75 78.3125C176.838 77.8313 176.313 77.175 175.788 77.5688C173.163 79.5813 171.675 82.3375 171.456 85.6188C171.413 86.1875 172.2 86.45 172.594 86.1C173.644 85.05 179.244 78.1375 176.225 77C174.869 76.475 173.425 78.6625 172.813 79.5375C171.456 81.4625 170.8 83.6063 170.581 85.925C170.538 86.5375 171.325 86.7563 171.719 86.4063C174.169 84.1313 175.613 81.2875 175.963 77.9625C176.006 77.5688 175.525 77.2188 175.131 77.35C171.806 78.5313 170.363 82.3375 169.881 85.575C169.794 86.1875 170.494 86.7563 170.975 86.2313C172.025 85.1375 177.013 78.2688 173.95 77.3938C172.55 77 171.019 79.4063 170.406 80.3688C169.269 82.1188 168.744 84.1313 168.656 86.1875C168.613 86.7125 169.4 87.1063 169.794 86.6688C171.456 84.6125 174.694 80.2375 172.9 77.4813C172.638 77.0875 172.2 77.0875 171.85 77.35C169.138 79.625 167.563 82.775 167.256 86.3188C167.213 86.8875 168 87.15 168.394 86.8C170.713 84.4813 171.894 81.55 171.85 78.3125C171.85 77.8313 171.281 77.4813 170.844 77.7438C167.738 79.6688 165.988 82.8625 165.944 86.4938C165.944 87.0625 166.688 87.3688 167.081 86.975C168.744 85.225 170.1 83.125 170.669 80.7625C170.931 79.7563 171.106 77.7875 169.488 77.875C167.781 77.9625 165.988 80.9375 165.375 82.25C164.719 83.7375 164.019 85.6625 165.2 87.0188C165.419 87.2813 165.9 87.2375 166.119 87.0188C167.869 85.3125 169.181 83.1688 169.663 80.7625C169.881 79.6688 169.969 77.8313 168.394 77.8313C166.731 77.8313 164.938 80.2813 164.281 81.55C163.231 83.4313 162.969 85.4875 163.319 87.5875C163.406 88.1125 164.106 88.2 164.413 87.8938C166.381 85.9688 167.825 83.5625 168.438 80.85C168.7 79.6688 169.05 77.6563 167.3 77.7C164.281 77.7875 160.125 85.3563 162.969 87.325C163.188 87.4563 163.45 87.4125 163.625 87.325C165.156 86.5813 170.581 79.2313 167.256 78.2688C165.856 77.8313 164.281 80.1938 163.756 81.2C162.75 83.0813 162.531 85.1375 163.013 87.15C163.1 87.6313 163.8 87.8063 164.106 87.4563C166.163 85.2688 168.919 81.375 167.738 78.2688C167.606 77.875 167.169 77.6563 166.775 77.875C163.669 79.7563 162.225 83.3 163.056 86.8C163.188 87.2813 163.8 87.4125 164.15 87.1063C165.9 85.4 166.863 83.2563 167.3 80.85C167.475 79.8 167.869 77.875 166.513 77.4375C165.069 77 163.713 79.45 163.231 80.5C162.356 82.3813 162.225 84.4375 162.706 86.4938C162.838 86.975 163.45 87.15 163.8 86.8C165.988 84.4375 166.863 81.4625 166.25 78.3125C166.163 77.9625 165.769 77.7875 165.463 77.875C162.05 78.7063 161.7 83.5188 162.269 86.3188C162.4 86.9313 163.188 86.8875 163.45 86.4938C164.588 84.875 165.331 83.0813 165.506 81.0688C165.594 80.1063 165.856 78.0938 164.544 77.7438C163.231 77.3938 162.444 79.3188 162.05 80.2375C161.131 82.2938 160.913 84.4813 161.175 86.7125C161.263 87.325 162.05 87.675 162.4 87.0625C163.756 84.7 164.894 81.1563 163.669 78.5313C163.581 78.3125 163.319 78.1813 163.1 78.225C159.863 78.2688 160.038 84.4375 160.606 86.4938C160.738 87.0188 161.525 87.15 161.788 86.6688C163.013 84.525 163.8 81.375 162.75 78.9688C162.006 77.2625 160.65 78.05 159.819 79.3188C158.638 81.1563 157.894 84.6125 159.075 86.625C159.994 88.2 161.175 87.0188 161.831 85.8375C162.619 84.3938 163.888 80.85 162.575 79.3188C161.394 77.9625 159.863 79.8438 159.206 80.8063C158.2 82.3375 157.238 85.1375 158.506 86.8C159.469 88.0688 161.219 87.8063 161.744 86.3625C161.963 85.8375 161.394 85.4875 160.956 85.575C160.038 85.7063 159.294 85.9688 158.506 86.45C158.725 86.8438 158.944 87.1938 159.163 87.5875C160.081 86.8875 160.694 86.1 161.131 85.0063C161.394 84.35 160.475 84 160.038 84.35C159.775 84.4813 159.556 84.6125 159.294 84.7438C159.556 85.05 159.775 85.4 160.038 85.7063C161.219 83.7813 162.4 81.8125 163.581 79.8875C163.975 79.275 163.013 78.4875 162.531 79.1C160.956 81.0688 159.338 83.0813 157.763 85.05C158.113 85.3125 158.463 85.575 158.813 85.8375C159.688 83.7813 160.563 81.7688 161.438 79.7125C161.7 79.1 160.913 78.2688 160.388 78.925C159.731 79.7563 159.075 80.5875 158.375 81.4188C158.725 81.6813 159.075 81.9438 159.425 82.2063C160.081 81.1563 160.563 80.1063 160.956 78.925C161.131 78.3125 160.256 77.7438 159.863 78.2688C158.988 79.3625 158.156 80.5 157.281 81.5938C157.631 81.8563 157.981 82.1188 158.331 82.3813C158.9 81.1125 159.425 79.8438 159.994 78.575C160.344 77.8313 159.294 77.175 158.856 77.9188C158.375 78.7063 157.894 79.4938 157.413 80.2813C156.844 80.0188 157.981 80.675 158.419 79.9313V79.9313Z" fill="#E8E8E8"/>
<path d="M182.175 76.2125C182.175 77.7 182.219 79.2312 182.263 80.7187C182.306 81.8125 182.788 84.1312 182.088 84.9625C181.65 85.4875 182.219 86.4062 182.875 86.0125C183.181 85.7937 183.269 85.75 183.531 85.4875C183.794 85.1375 183.75 84.525 183.225 84.3937C182.438 84.2187 181.869 84.2187 181.081 84.4812C180.294 84.7437 180.6 86.0125 181.431 85.75C181.913 85.7062 182.394 85.7062 182.875 85.6625C182.788 85.3125 182.7 84.9187 182.569 84.5687C182.438 84.7 182.306 84.7875 182.219 84.9187C182.481 85.2687 182.744 85.6187 183.006 85.9687C183.969 84.8312 183.706 84.0437 183.619 82.5125C183.531 80.4562 183.488 78.3562 183.488 76.3C183.488 75.3375 182.175 75.3375 182.175 76.2125V76.2125Z" fill="#E8E8E8"/>
<path d="M117.469 114.319C135.45 113.313 153.475 112.919 171.5 113.138C172.331 113.138 172.331 111.825 171.5 111.825C153.475 111.606 135.45 112 117.469 113.006C116.638 113.05 116.638 114.363 117.469 114.319Z" fill="#E8E8E8"/>
<path d="M119.788 126.306C132.694 124.95 145.644 124.25 158.594 124.25C159.425 124.25 159.425 122.938 158.594 122.938C145.644 122.938 132.694 123.594 119.788 124.994C118.956 125.081 118.913 126.394 119.788 126.306Z" fill="#E8E8E8"/>
<path d="M120.969 148.663C138.206 146.869 155.488 145.863 172.813 145.731C173.644 145.731 173.644 144.419 172.813 144.419C155.488 144.55 138.206 145.556 120.969 147.35C120.138 147.438 120.138 148.75 120.969 148.663Z" fill="#E8E8E8"/>
<path d="M191.756 208.512C183.269 205.231 178.238 195.825 179.069 186.9C179.944 177.844 186.681 170.1 194.775 166.469C200.331 163.975 206.456 163.45 211.925 166.381C216.213 168.656 219.888 172.156 222.469 176.269C227.85 184.844 227.456 195.212 221.769 203.612C218.356 208.644 211.925 210.087 206.281 210.962C200.681 211.837 194.775 211.531 190.05 208.075C189.35 207.594 188.694 208.731 189.394 209.212C193.769 212.406 199.15 213.062 204.4 212.537C209.606 212.012 215.775 210.875 219.975 207.55C224.131 204.269 226.625 198.056 227.5 192.981C228.331 188.125 227.413 183.225 225.356 178.762C220.763 168.831 210.175 160.869 198.931 163.625C189.219 165.987 180.644 173.819 178.281 183.662C175.744 194.119 181.213 205.8 191.363 209.737C192.194 210.087 192.544 208.819 191.756 208.512V208.512Z" fill="#E8E8E8"/>
<path d="M200.988 163.844C201.513 171.938 202.038 180.031 202.606 188.125C202.65 188.956 203.963 188.956 203.919 188.125C203.394 180.031 202.869 171.938 202.3 163.844C202.256 163.013 200.944 163.013 200.988 163.844Z" fill="#E8E8E8"/>
<path d="M203.831 188.912C210.481 185.281 217.044 181.475 223.519 177.45C224.219 177.012 223.563 175.875 222.863 176.312C216.431 180.337 209.869 184.144 203.175 187.775C202.431 188.212 203.088 189.35 203.831 188.912Z" fill="#E8E8E8"/>
<path d="M204.094 189.131C211.619 189.131 219.056 190.925 226.45 192.194C227.281 192.325 227.631 191.056 226.8 190.925C219.319 189.656 211.75 187.819 204.094 187.819C203.263 187.819 203.263 189.131 204.094 189.131Z" fill="#E8E8E8"/>
<path d="M202.956 188.256C198.756 195.213 194.556 202.125 190.313 209.081C189.875 209.825 191.013 210.481 191.45 209.738C195.65 202.781 199.85 195.869 204.094 188.913C204.531 188.213 203.394 187.513 202.956 188.256Z" fill="#E8E8E8"/>
<path d="M128.45 250.25C147.481 248.806 166.469 247.144 185.413 245.175C186.244 245.088 186.244 243.775 185.413 243.863C166.425 245.788 147.438 247.494 128.45 248.938C127.619 249.025 127.619 250.338 128.45 250.25Z" fill="#E8E8E8"/>
<path d="M134.925 218.006C135.625 228.069 136.369 238.175 137.069 248.238C137.113 249.069 138.425 249.069 138.381 248.238C137.681 238.175 136.938 228.069 136.238 218.006C136.15 217.175 134.838 217.175 134.925 218.006V218.006Z" fill="#E8E8E8"/>
<path d="M136.194 218.137C138.688 217.7 141.181 217.569 143.719 217.7C143.5 217.481 143.281 217.262 143.063 217.044C143.719 227.281 144.681 237.475 145.863 247.625C145.95 248.456 147.263 248.456 147.175 247.625C145.95 237.475 145.031 227.237 144.375 217.044C144.331 216.694 144.113 216.387 143.719 216.387C141.05 216.256 138.469 216.431 135.844 216.869C135.013 217.044 135.406 218.312 136.194 218.137Z" fill="#E8E8E8"/>
<path d="M149.975 228.375C150.981 234.456 151.594 240.625 151.813 246.794C151.856 247.625 153.169 247.625 153.125 246.794C152.906 240.494 152.294 234.238 151.244 228.025C151.113 227.194 149.844 227.544 149.975 228.375Z" fill="#E8E8E8"/>
<path d="M151.55 229.031C154.088 229.031 156.581 228.9 159.075 228.55C158.856 228.331 158.638 228.113 158.419 227.894C159.031 233.975 159.688 240.013 160.3 246.094C160.388 246.925 161.7 246.925 161.613 246.094C161 240.013 160.344 233.975 159.731 227.894C159.688 227.588 159.469 227.194 159.075 227.238C156.581 227.544 154.044 227.719 151.55 227.719C150.719 227.719 150.719 229.031 151.55 229.031Z" fill="#E8E8E8"/>
<path d="M165.55 217.919C166.6 227.369 167.256 236.819 167.519 246.356C167.563 247.187 168.875 247.187 168.831 246.356C168.525 236.862 167.869 227.369 166.863 217.919C166.775 217.087 165.463 217.087 165.55 217.919Z" fill="#E8E8E8"/>
<path d="M166.206 218.444C167.606 218.531 169.05 218.575 170.45 218.663C172.419 218.75 172.463 218.794 172.506 220.763C172.638 223.606 172.769 226.406 172.944 229.25C173.338 234.675 173.95 240.056 174.956 245.394C175.131 246.225 176.356 245.875 176.225 245.044C174.956 238.306 174.344 231.438 173.994 224.569C173.906 222.994 173.863 221.463 173.775 219.888C173.731 219.275 173.819 218.356 173.338 217.831C172.813 217.306 171.894 217.394 171.238 217.35C169.531 217.263 167.869 217.175 166.163 217.088C165.375 217.088 165.375 218.4 166.206 218.444V218.444Z" fill="#E8E8E8"/>
<path d="M183.225 259.569C200.113 258.388 216.956 256.244 233.581 253.138C234.413 252.963 234.063 251.738 233.231 251.869C216.694 254.975 199.981 257.075 183.225 258.256C182.35 258.3 182.35 259.613 183.225 259.569Z" fill="#E8E8E8"/>
<path d="M208.95 251.213C216.125 250.469 223.344 249.725 230.519 248.981C231.35 248.894 231.35 247.581 230.519 247.669C223.344 248.413 216.125 249.156 208.95 249.9C208.119 249.988 208.119 251.3 208.95 251.213V251.213Z" fill="#E8E8E8"/>
<path d="M221.2 242.462C224.481 242.331 227.806 242.2 231.088 242.069C231.919 242.025 231.919 240.712 231.088 240.756C227.806 240.887 224.481 241.019 221.2 241.15C220.325 241.194 220.325 242.506 221.2 242.462Z" fill="#E8E8E8"/>
<path d="M186.55 95.3311C187.381 97.7374 187.731 100.187 187.6 102.725C187.556 103.556 188.869 103.556 188.913 102.725C189.044 100.056 188.694 97.5186 187.819 94.9811C187.513 94.1936 186.244 94.5436 186.55 95.3311V95.3311Z" fill="#E8E8E8"/>
<path d="M187.644 95.4626C199.675 94.2376 211.706 93.4501 223.781 93.0564C224.613 93.0126 224.613 91.7001 223.781 91.7439C211.706 92.1376 199.631 92.9251 187.644 94.1501C186.813 94.2376 186.813 95.5501 187.644 95.4626Z" fill="#E8E8E8"/>
<path d="M188.913 103.425C200.9 102.55 212.844 101.675 224.831 100.8C225.663 100.756 225.663 99.4436 224.831 99.4874C212.844 100.362 200.9 101.237 188.913 102.112C188.081 102.156 188.081 103.469 188.913 103.425V103.425Z" fill="#E8E8E8"/>
<path d="M223.956 93.275C224.35 95.9875 224.744 98.6563 225.138 101.369C225.269 102.2 226.538 101.85 226.406 101.019C226.013 98.3063 225.619 95.6375 225.225 92.925C225.094 92.0938 223.825 92.4438 223.956 93.275Z" fill="#E8E8E8"/>
<path d="M435.531 128.887C435.575 130.55 435.663 132.169 435.881 133.831C436.013 134.662 437.325 134.662 437.194 133.831C436.975 132.212 436.844 130.55 436.844 128.887C436.844 128.056 435.531 128.056 435.531 128.887Z" fill="#E8E8E8"/>
<path d="M436.494 129.544H521.413C522.244 129.544 522.244 128.231 521.413 128.231C493.106 128.231 464.8 128.231 436.494 128.231C435.663 128.231 435.663 129.544 436.494 129.544V129.544Z" fill="#E8E8E8"/>
<path d="M520.625 129.412V132.3C520.625 133.131 521.938 133.131 521.938 132.3C521.938 131.337 521.938 130.375 521.938 129.412C521.938 128.537 520.625 128.537 520.625 129.412Z" fill="#E8E8E8"/>
<path d="M437.281 134.312H521.106C521.938 134.312 521.938 133 521.106 133C493.15 133 465.194 133 437.281 133C436.406 133 436.406 134.312 437.281 134.312V134.312Z" fill="#E8E8E8"/>
<path d="M437.15 113.794C438.244 118.737 439.163 123.725 439.906 128.712C440.038 129.544 441.306 129.194 441.175 128.362C440.388 123.375 439.469 118.387 438.419 113.444C438.2 112.612 436.975 112.962 437.15 113.794Z" fill="#E8E8E8"/>
<path d="M437.938 113.706C443.669 113.881 449.663 114.581 455.394 113.881C456.225 113.794 456.225 112.481 455.394 112.569C449.663 113.269 443.669 112.569 437.938 112.394C437.106 112.35 437.106 113.662 437.938 113.706V113.706Z" fill="#E8E8E8"/>
<path d="M454.738 114.144C454.125 118.869 453.556 123.594 452.944 128.363C452.856 129.194 454.169 129.194 454.256 128.363C454.869 123.638 455.438 118.913 456.05 114.144C456.137 113.313 454.825 113.313 454.738 114.144Z" fill="#E8E8E8"/>
<path d="M444.456 112.262C443.581 111.869 442.531 111.475 441.875 110.775C440.738 109.637 440.825 108.106 440.65 106.619C440.388 104.65 439.294 102.9 439.162 100.887C438.812 101.062 438.506 101.281 438.156 101.456C442.225 104.081 445.813 107.8 445.681 112.962C445.638 113.794 446.95 113.794 446.994 112.962C447.169 107.319 443.275 103.206 438.812 100.319C438.419 100.056 437.806 100.406 437.806 100.887C437.894 102.069 438.244 103.119 438.637 104.256C439.206 105.831 439.206 107.362 439.512 108.981C439.994 111.387 441.656 112.437 443.756 113.4C444.544 113.706 445.2 112.612 444.456 112.262V112.262Z" fill="#E8E8E8"/>
<path d="M445.725 106.663C445.244 103.338 447.431 100.144 448.656 97.2125C449.619 94.8938 450.319 92.5313 450.188 89.9938C449.75 90.0375 449.313 90.125 448.919 90.1688C450.538 97.7375 452.55 104.913 449.094 112.35C448.744 113.094 449.881 113.794 450.231 113.006C451.806 109.594 452.638 105.919 452.463 102.156C452.244 98 451.063 93.8875 450.188 89.8188C450.056 89.075 448.875 89.25 448.919 89.9938C449.181 96.075 443.581 100.975 444.5 107.013C444.588 107.844 445.856 107.494 445.725 106.663V106.663Z" fill="#E8E8E8"/>
<path d="M467.119 81.3312C467.644 97.2562 467.819 113.137 467.512 129.062C467.512 129.894 468.825 129.894 468.825 129.062C469.088 113.137 468.956 97.2124 468.431 81.3312C468.431 80.4562 467.119 80.4562 467.119 81.3312Z" fill="#E8E8E8"/>
<path d="M468.125 81.55C470.006 79.975 473.2 80.675 475.3 81.3313C476.088 81.5938 476.438 80.325 475.65 80.0625C472.981 79.2313 469.481 78.7063 467.206 80.6313C466.55 81.1563 467.469 82.075 468.125 81.55Z" fill="#E8E8E8"/>
<path d="M474.775 81.3312C474.862 97.0374 474.95 112.7 475.038 128.406C475.038 129.237 476.35 129.237 476.35 128.406C476.263 112.7 476.175 97.0374 476.088 81.3312C476.088 80.4562 474.775 80.4562 474.775 81.3312Z" fill="#E8E8E8"/>
<path d="M469.088 91.9188C470.838 90.4751 473.419 90.6063 475.038 92.1376C475.65 92.7063 476.569 91.7876 475.956 91.2188C473.769 89.1626 470.444 89.1188 468.169 91.0001C467.513 91.5251 468.431 92.4438 469.088 91.9188V91.9188Z" fill="#E8E8E8"/>
<path d="M468.519 86.8875C470.444 85.225 473.2 85.1813 475.212 86.7125C475.912 87.2375 476.525 86.0563 475.869 85.575C473.331 83.6938 469.919 83.9563 467.556 85.9688C466.944 86.5375 467.906 87.4563 468.519 86.8875Z" fill="#E8E8E8"/>
<path d="M476.131 92.5751C478.1 92.5751 480.025 92.7939 481.95 93.2751C481.775 93.0564 481.644 92.8376 481.469 92.6626C481.731 104.475 481.6 116.244 480.988 128.056C480.944 128.888 482.256 128.888 482.3 128.056C482.913 116.288 483.044 104.475 482.781 92.6626C482.781 92.4001 482.563 92.0939 482.3 92.0501C480.244 91.5251 478.231 91.3064 476.131 91.3064C475.256 91.2626 475.256 92.5751 476.131 92.5751V92.5751Z" fill="#E8E8E8"/>
<path d="M476.438 105C478.188 103.862 480.288 103.819 482.081 104.869C482.825 105.306 483.481 104.169 482.738 103.731C480.55 102.419 477.881 102.462 475.781 103.862C475.081 104.3 475.738 105.437 476.438 105Z" fill="#E8E8E8"/>
<path d="M476.219 98.7437C477.75 98 479.5 97.9562 481.075 98.6125C481.863 98.9187 482.519 97.825 481.731 97.475C479.675 96.6 477.575 96.6437 475.563 97.6062C474.819 98 475.475 99.1375 476.219 98.7437Z" fill="#E8E8E8"/>
<path d="M485.669 128.187C485.669 127.444 485.188 124.731 485.625 124.206C486.238 123.462 489.606 123.725 490.481 123.681C493.5 123.506 496.563 123.375 499.581 123.331C505.663 123.244 511.744 123.462 517.781 123.944C517.563 123.725 517.344 123.506 517.125 123.287C517.388 125.256 517.519 127.225 517.475 129.237C517.475 130.069 518.788 130.069 518.788 129.237C518.788 127.225 518.7 125.256 518.438 123.287C518.394 122.894 518.175 122.675 517.781 122.631C510.3 122.062 502.731 121.887 495.25 122.15C493.5 122.194 491.794 122.281 490.044 122.412C488.775 122.5 486.413 122.237 485.231 122.806C483.525 123.594 484.313 126.787 484.356 128.231C484.356 129.019 485.669 129.062 485.669 128.187V128.187Z" fill="#E8E8E8"/>
<path d="M490.175 122.194C490.088 121.713 489.65 120.269 489.738 119.788C490.044 118.475 491.313 118.781 492.275 118.781C493.85 118.738 495.469 118.738 497.044 118.694C500.369 118.65 503.694 118.563 507.063 118.519C510.256 118.475 513.45 118.388 516.644 118.344C518.394 118.3 520.144 118.3 521.85 118.256C523.075 118.256 523.775 117.819 524.169 119.394C524.344 120.094 524.213 121.013 524.169 121.713C524.125 122.544 525.438 122.544 525.481 121.713C525.525 120.575 525.875 118.344 524.956 117.381C524.125 116.55 522.419 116.944 521.413 116.988C516.469 117.075 511.569 117.163 506.625 117.25C501.856 117.338 497.044 117.425 492.275 117.513C491.313 117.513 489.256 117.119 488.556 117.994C487.725 119 488.731 121.494 488.906 122.588C489.081 123.375 490.35 123.025 490.175 122.194V122.194Z" fill="#E8E8E8"/>
<path d="M517.519 123.9C519.488 123.944 521.5 123.988 523.469 123.856C524.431 123.769 525.394 123.419 525.306 122.281C525.219 121.45 523.906 121.45 523.994 122.281C524.038 122.763 518.088 122.631 517.519 122.588C516.688 122.544 516.688 123.856 517.519 123.9V123.9Z" fill="#E8E8E8"/>
<path d="M494.025 117.775C493.981 117.031 493.763 116.025 493.85 115.281C493.938 114.406 493.719 114.275 494.725 114.144C496.125 113.969 497.919 114.45 499.319 114.537C502.25 114.756 505.225 114.888 508.156 114.931C511.088 114.975 514.063 114.975 516.994 114.844C518.306 114.8 519.881 114.45 521.194 114.625C521.806 114.363 522.288 114.538 522.594 115.106C523.075 115.325 523.25 115.719 523.206 116.2C523.338 116.55 523.381 116.987 523.513 117.381C523.819 118.169 525.088 117.819 524.781 117.031C524.388 116.069 524.65 114.625 523.863 113.794C523.163 113.05 522.156 113.225 521.194 113.269C516.863 113.488 512.488 113.619 508.156 113.575C503.956 113.488 499.756 113.269 495.556 112.875C494.681 112.788 493.325 112.438 492.712 113.313C492.012 114.363 492.625 116.594 492.712 117.731C492.8 118.606 494.112 118.606 494.025 117.775V117.775Z" fill="#E8E8E8"/>
<path d="M527.581 161.088V180.556C527.581 181.388 528.894 181.388 528.894 180.556C528.894 174.081 528.894 167.563 528.894 161.088C528.894 160.256 527.581 160.256 527.581 161.088Z" fill="#E8E8E8"/>
<path d="M528.675 161.088H562.8C563.631 161.088 563.631 159.775 562.8 159.775C551.425 159.775 540.05 159.775 528.675 159.775C527.844 159.775 527.844 161.088 528.675 161.088Z" fill="#E8E8E8"/>
<path d="M562.188 160.65V180.119C562.188 180.95 563.5 180.95 563.5 180.119C563.5 173.644 563.5 167.125 563.5 160.65C563.5 159.819 562.188 159.819 562.188 160.65Z" fill="#E8E8E8"/>
<path d="M528.238 181.65H562.363C563.194 181.65 563.194 180.338 562.363 180.338C550.988 180.338 539.613 180.338 528.238 180.338C527.406 180.338 527.406 181.65 528.238 181.65Z" fill="#E8E8E8"/>
<path d="M543.113 159.775C543.113 158.637 543.2 157.587 543.506 156.494C543.638 156.012 543.813 155.269 544.119 154.919C544.25 154.481 544.556 154.35 545.081 154.525C545.781 154.219 546.131 154.437 546.175 155.225C546.7 157.062 546.788 159.162 547.05 161.087C547.181 161.919 548.45 161.569 548.319 160.737C548.056 158.812 547.969 156.756 547.444 154.875C547.181 153.825 546.394 152.731 545.213 152.644C542.281 152.469 541.756 157.806 541.756 159.775C541.844 160.606 543.156 160.606 543.113 159.775V159.775Z" fill="#E8E8E8"/>
<path d="M529.725 163.931V178.369C529.725 179.2 531.038 179.2 531.038 178.369C531.038 173.556 531.038 168.744 531.038 163.931C531.038 163.1 529.725 163.1 529.725 163.931Z" fill="#E8E8E8"/>
<path d="M531.081 163.931H560.831C561.663 163.931 561.663 162.619 560.831 162.619C550.9 162.619 540.969 162.619 531.081 162.619C530.25 162.619 530.25 163.931 531.081 163.931Z" fill="#E8E8E8"/>
<path d="M560 163.494V178.806C560 179.638 561.313 179.638 561.313 178.806C561.313 173.688 561.313 168.613 561.313 163.494C561.313 162.663 560 162.663 560 163.494Z" fill="#E8E8E8"/>
<path d="M530.644 179.025H559.081C559.913 179.025 559.913 177.713 559.081 177.713C549.588 177.713 540.094 177.713 530.644 177.713C529.813 177.713 529.813 179.025 530.644 179.025Z" fill="#E8E8E8"/>
<path d="M531.869 173.206C532.831 171.806 533.706 171.5 534.45 172.2C534.581 172.287 534.669 172.375 534.8 172.462C535.106 172.594 535.325 172.812 535.631 172.9C536.156 173.075 536.769 173.031 537.294 172.812C537.688 172.637 538.038 172.331 538.169 171.894C538.388 171.194 537.863 171.062 537.819 170.45C537.6 170.187 537.688 169.925 538.081 169.575C538.169 168.569 538.781 168.35 539.831 168.962C540.094 168.962 540.356 169.05 540.575 169.006C541.363 168.875 541.45 168.612 542.019 168.131C543.856 166.644 545.913 167.387 546.394 169.75C546.438 170.056 546.656 172.069 546.306 172.287C545.956 171.85 545.606 171.456 545.256 171.019C546.394 171.194 547.225 171.806 547.706 172.769C547.969 173.206 548.538 173.162 548.844 172.769C549.719 171.85 550.594 171.806 551.469 172.681C551.775 172.375 552.081 172.069 552.388 171.762C552.038 171.456 551.731 171.15 551.381 170.844C550.244 169.881 550.331 168.787 551.688 167.519C553.525 167.606 554.488 169.4 553.7 171.019C552.694 172.987 550.288 173.25 548.319 173.075V174.387C551.163 174.562 554.05 174.737 556.894 174.912C557.725 174.956 557.725 173.644 556.894 173.6C554.05 173.425 551.163 173.25 548.319 173.075C547.488 173.031 547.488 174.3 548.319 174.387C550.594 174.606 553.088 174.169 554.531 172.156C555.669 170.537 555.581 168.087 553.919 166.819C552.65 165.856 550.725 166.031 549.675 167.3C548.1 169.269 549.938 171.412 551.425 172.725C552.038 173.294 552.956 172.419 552.344 171.806C550.944 170.319 548.8 170.581 547.663 172.156H548.8C547.706 170.362 545.65 169.05 543.594 170.144C542.019 171.019 541.45 173.294 542.894 174.606C544.381 175.962 546.525 174.912 547.313 173.381C548.188 171.631 548.013 168.875 546.744 167.3C545.475 165.725 543.244 165.55 541.669 166.731C540.575 167.562 541.231 167.694 539.394 167.562C538.781 167.519 538.256 167.387 537.644 167.562C536.988 167.737 536.375 168.131 536.069 168.787C535.85 169.269 535.763 169.706 535.981 170.231C536.025 170.406 536.506 170.8 536.463 170.931C536.288 171.894 533.75 170.144 533.313 170.056C531.344 169.75 530.031 171.85 530.6 173.556C530.863 174.344 532.131 174.037 531.869 173.206V173.206Z" fill="#E8E8E8"/>
<path d="M569.363 136.237V151.288C569.363 152.119 570.675 152.119 570.675 151.288C570.675 146.256 570.675 141.269 570.675 136.237C570.675 135.406 569.363 135.406 569.363 136.237Z" fill="#E8E8E8"/>
<path d="M570.763 136.15H594.912C595.744 136.15 595.744 134.838 594.912 134.838C586.863 134.838 578.813 134.838 570.763 134.838C569.888 134.838 569.888 136.15 570.763 136.15Z" fill="#E8E8E8"/>
<path d="M570.369 152.338H594.519C595.35 152.338 595.35 151.025 594.519 151.025C586.469 151.025 578.419 151.025 570.369 151.025C569.538 151.025 569.538 152.338 570.369 152.338Z" fill="#E8E8E8"/>
<path d="M594.256 136.063V151.506C594.256 152.338 595.569 152.338 595.569 151.506C595.569 146.344 595.569 141.225 595.569 136.063C595.569 135.187 594.256 135.187 594.256 136.063Z" fill="#E8E8E8"/>
<path d="M570.85 136.806V151.113C570.85 151.944 572.163 151.944 572.163 151.113C572.163 146.344 572.163 141.575 572.163 136.806C572.163 135.931 570.85 135.931 570.85 136.806Z" fill="#E8E8E8"/>
<path d="M571.331 151.2H594.388C595.219 151.2 595.219 149.888 594.388 149.888C586.688 149.888 579.031 149.888 571.331 149.888C570.456 149.888 570.456 151.2 571.331 151.2Z" fill="#E8E8E8"/>
<path d="M571.681 137.069H593.994C594.825 137.069 594.825 135.756 593.994 135.756C586.556 135.756 579.119 135.756 571.681 135.756C570.85 135.756 570.85 137.069 571.681 137.069Z" fill="#E8E8E8"/>
<path d="M593.688 136.587V150.325C593.688 151.156 595 151.156 595 150.325C595 145.731 595 141.137 595 136.587C595 135.756 593.688 135.756 593.688 136.587Z" fill="#E8E8E8"/>
<path d="M575.925 147.744C579.556 145.994 583.669 145.163 587.344 147.306C588.088 147.744 588.744 146.606 588 146.169C583.931 143.763 579.338 144.638 575.269 146.606C574.481 146.956 575.181 148.094 575.925 147.744Z" fill="#E8E8E8"/>
<path d="M575.925 145.906C575.138 144.944 577.15 144.637 577.413 144.112C577.631 143.719 577.325 142.494 577.456 142.537C577.85 142.625 578.288 142.362 578.288 141.925C578.244 139.869 580.475 143.15 580.388 143.019C580.65 143.325 580.913 143.631 581.35 143.806C581.963 144.069 583.275 143.369 583.625 143.631C584.019 143.981 584.544 143.806 584.719 143.325C585.069 143.194 585.419 143.062 585.813 142.975C585.769 143.544 586.556 143.85 586.95 143.456C588.131 144.375 588.306 145.119 587.431 145.644C586.775 146.212 587.738 147.131 588.35 146.562C589.488 145.6 590.275 143.937 589.225 142.581C588.35 141.444 586.906 141.531 585.988 142.537C586.381 142.712 586.731 142.844 587.125 143.019C587.213 142.056 586.644 141.269 585.594 141.181C584.456 141.094 583.8 142.056 583.45 143.019C583.8 142.931 584.194 142.844 584.544 142.712C583.8 142.1 583.669 142.362 582.838 142.319C580.606 142.231 581.263 140.831 579.819 140C578.375 139.169 576.975 140.437 576.975 141.925C577.238 141.706 577.544 141.487 577.806 141.312C577.15 141.181 576.363 141.137 575.925 141.706C575.444 142.319 576.188 142.8 576.013 143.237C575.75 143.937 574.481 143.719 574.175 144.637C573.869 145.512 574.481 146.3 575.006 146.912C575.531 147.525 576.45 146.562 575.925 145.906V145.906Z" fill="#E8E8E8"/>
<path d="M581.175 134.4C580.913 133.831 580.781 133.263 580.913 132.65C580.956 132.256 581.306 130.988 581.919 131.163C582.356 131.294 582.794 132.431 582.881 132.825C583.1 133.525 583.144 134.181 583.056 134.925C582.969 135.756 584.281 135.756 584.369 134.925C584.5 133.744 584.325 132.606 583.756 131.556C583.319 130.681 582.488 129.5 581.35 129.85C580.475 130.113 579.906 131.206 579.688 132.038C579.425 133.088 579.556 134.138 580.038 135.1C580.431 135.844 581.525 135.188 581.175 134.4V134.4Z" fill="#E8E8E8"/>
<path d="M571.288 158.769V178.85C571.288 179.681 572.6 179.681 572.6 178.85C572.6 172.156 572.6 165.462 572.6 158.769C572.6 157.894 571.288 157.894 571.288 158.769Z" fill="#E8E8E8"/>
<path d="M571.944 158.287H592.288C593.119 158.287 593.119 156.975 592.288 156.975C585.506 156.975 578.725 156.975 571.944 156.975C571.069 156.975 571.069 158.287 571.944 158.287Z" fill="#E8E8E8"/>
<path d="M591.631 157.631V178.806C591.631 179.637 592.944 179.637 592.944 178.806C592.944 171.763 592.944 164.675 592.944 157.631C592.944 156.8 591.631 156.8 591.631 157.631Z" fill="#E8E8E8"/>
<path d="M572.469 180.338H591.719C592.55 180.338 592.55 179.025 591.719 179.025C585.288 179.025 578.9 179.025 572.469 179.025C571.638 179.025 571.638 180.338 572.469 180.338Z" fill="#E8E8E8"/>
<path d="M578.463 165.463C578.156 168 579.775 170.756 582.488 171.063C585.331 171.369 587.431 169.181 587.344 166.425C587.3 165.594 585.988 165.594 586.031 166.425C586.119 168.481 584.544 170.144 582.4 169.706C580.431 169.313 579.6 167.3 579.775 165.463C579.863 164.631 578.55 164.631 578.463 165.463Z" fill="#E8E8E8"/>
<path d="M582.881 170.756C582.794 171.369 583.188 171.85 583.013 172.419C582.75 173.294 581.613 174.125 581.044 174.781C580.081 175.919 579.381 177.056 579.338 178.587C579.294 179.419 580.606 179.419 580.65 178.587C580.738 176.575 582.444 175.394 583.581 173.906C583.931 173.469 584.281 172.988 584.413 172.463C584.544 171.85 584.106 171.369 584.194 170.756C584.281 169.925 582.969 169.925 582.881 170.756Z" fill="#E8E8E8"/>
<path d="M579.863 170.712C578.331 170.625 575.444 169.662 576.144 167.519C576.494 166.381 577.938 166.337 578.55 165.55C579.381 164.544 578.681 163.975 578.025 163.231C577.413 162.531 576.144 162.269 577.85 160.737C578.813 159.862 580.388 160.956 581.175 161.612C581.656 162.05 581.744 162.531 582.4 162.837C582.837 163.056 583.406 163.144 583.887 162.969C584.675 162.619 585.55 160.3 586.381 163.187C586.469 163.537 586.862 163.756 587.169 163.625C587.212 164.544 587.256 165.419 587.256 166.337C586.731 166.994 587.65 167.912 588.175 167.256C589.006 166.206 589.969 164.894 589.356 163.494C588.875 162.444 587.825 162.05 586.775 162.356C587.037 162.487 587.3 162.662 587.562 162.794C587.212 161.612 586.644 160.387 585.287 160.3C584.85 160.256 584.456 160.344 584.106 160.562C584.194 160.519 583.581 161.219 583.581 161.219C582.662 161.7 582.4 160.869 581.875 160.344C580.956 159.337 580.213 158.769 578.725 158.987C577.588 159.162 575.969 159.95 575.575 161.131C575.094 162.531 576.275 162.925 576.8 163.975C577.369 164.194 577.369 164.456 576.756 164.762C576.625 165.025 576.45 165.156 576.231 165.244C576.056 165.375 575.794 165.462 575.619 165.637C575.269 166.031 575.006 166.425 574.831 166.906C573.825 170.1 577.106 171.806 579.731 171.981C580.694 172.069 580.694 170.756 579.863 170.712V170.712Z" fill="#E8E8E8"/>
<path d="M580.344 157.5C580.3 156.844 580.081 155.662 580.869 155.269C581.7 154.875 581.569 156.144 581.481 156.581C581.306 157.412 582.575 157.762 582.75 156.931C582.881 156.231 582.969 155.444 582.619 154.787C582.269 154.175 581.613 153.825 580.956 153.912C579.163 154.131 578.944 156.056 579.075 157.5C579.075 158.331 580.388 158.331 580.344 157.5V157.5Z" fill="#E8E8E8"/>
<path d="M572.906 158.638V177.931C572.906 178.763 574.219 178.763 574.219 177.931C574.219 171.5 574.219 165.069 574.219 158.638C574.219 157.763 572.906 157.763 572.906 158.638Z" fill="#E8E8E8"/>
<path d="M573.694 178.894H591.15C591.981 178.894 591.981 177.581 591.15 177.581C585.331 177.581 579.513 177.581 573.694 177.581C572.863 177.581 572.863 178.894 573.694 178.894Z" fill="#E8E8E8"/>
<path d="M591.631 178.413C591.631 171.675 591.631 164.894 591.631 158.156C591.631 157.325 590.319 157.325 590.319 158.156V178.413C590.319 179.244 591.631 179.244 591.631 178.413Z" fill="#E8E8E8"/>
<path d="M574 158.812H591.281C592.113 158.812 592.113 157.5 591.281 157.5C585.506 157.5 579.775 157.5 574 157.5C573.169 157.5 573.169 158.812 574 158.812Z" fill="#E8E8E8"/>
<path d="M329.525 395.237C326.594 392.875 322.612 392.394 319.375 394.012C315.569 395.937 313.512 400.444 314.475 404.95C315.262 410.944 316.05 416.981 316.837 422.975C300.869 430.281 293.256 435.05 293.912 437.238C294.7 439.906 307.65 438.769 332.806 433.912C331.712 421.006 330.619 408.144 329.525 395.237V395.237Z" fill="#191919"/>
<path d="M318.85 253.225C318.237 262.019 317.231 276.281 315.525 293.956C313.425 316.138 312.55 338.494 309.575 360.588C306.513 383.513 303.144 399.219 310.887 404.688C313.687 406.656 317.056 406.656 319.463 406.35C322 405.694 324.537 404.994 327.075 404.338C329.569 405.563 332.937 406.744 335.65 405.344C343.612 401.275 336.087 380.406 336.656 350.481C337.05 330.75 340.856 311.063 345.931 285.206C349.781 265.475 352.712 255.238 347.244 250.206C340.594 244.038 325.85 249.944 318.85 253.225V253.225Z" fill="white" stroke="#161616" stroke-width="2" stroke-miterlimit="10"/>
<path opacity="0.14" d="M331.406 249.113C333.069 256.856 334.95 268.581 334.819 282.844C334.6 305.856 329.219 320.381 325.325 337.663C321.781 353.325 318.369 376.163 319.9 405.606C322.219 405.169 324.581 404.688 326.9 404.25C327.425 404.644 329.569 406.088 332.544 405.825C332.981 405.781 335.869 405.475 337.75 403.331C340.069 400.706 339.588 396.813 339.325 394.931C338.319 386.75 338.1 378.481 337.269 370.256C336.394 361.594 336.525 354.856 336.569 350.788C336.613 347.725 336.831 341.994 337.925 332.675C339.85 316.444 341.6 313.688 345.406 290.106C348.294 272.344 347.025 275.581 348.119 271.556C349.125 267.969 350.831 262.763 349.913 256.156C349.475 253.05 348.688 251.3 347.419 250.031C344.794 247.45 340.9 247.494 338.581 247.538C335.475 247.581 332.938 248.456 331.406 249.113V249.113Z" fill="#6D6C6C"/>
<path opacity="0.1" d="M343.875 293.738C340.594 301 337.137 310.538 335.037 322.044C331.362 342.344 334.994 352.669 331.887 374.369C330.75 382.375 328.606 392.438 324.406 403.813C325.981 404.031 327.556 404.25 329.175 404.513C331.538 405.344 334.512 405.956 336.656 404.513C340.506 401.931 339.194 394.363 338.231 385.481C338.231 385.481 337.05 374.544 336.875 353.763C336.787 342.256 337.838 333.769 339.369 321.388C340.725 310.275 342.387 300.869 343.875 293.738V293.738Z" fill="#6D6C6C"/>
<path d="M384.737 391.913C381.806 389.55 377.825 389.069 374.587 390.688C370.781 392.613 368.725 397.119 369.687 401.625C370.475 407.619 371.262 413.656 372.05 419.65C356.081 426.956 348.469 431.725 349.125 433.913C349.912 436.581 362.862 435.444 388.019 430.588C386.881 417.681 385.787 404.819 384.737 391.913V391.913Z" fill="#191919"/>
<path d="M368.419 251.869C370.956 272.65 373.669 294.088 376.556 316.356C378.525 331.669 379.006 335.3 380.538 341.25C383.163 351.575 386.706 360.369 389.769 376.338C391.213 383.775 391.956 389.813 388.5 394.363C385.919 397.775 380.888 400.488 379.75 399.438C379.269 398.956 379.575 397.731 380.013 396.638C378.963 397.644 372.313 403.9 367.019 401.713C363.913 400.444 362.644 396.813 362.031 394.844C355.819 375.813 354.813 356.738 354.813 356.738C354.419 349.388 353.456 341.863 351.575 326.769C350.175 315.7 347.55 299.688 341.906 280.219C341.075 279.694 332.938 274.269 332.413 264.25C332.369 263.506 332.063 255.938 336.831 250.819C343.131 244.038 356.606 243.556 368.419 251.869V251.869Z" fill="white" stroke="#161616" stroke-width="2" stroke-miterlimit="10"/>
<path d="M333.112 257.119C331.538 261.669 331.1 266.788 333.594 271.119C335.737 274.838 339.194 278.906 343.394 280.219C344.181 280.481 344.531 279.213 343.744 278.95C339.894 277.769 336.656 273.875 334.731 270.463C332.412 266.438 332.937 261.713 334.381 257.469C334.687 256.681 333.419 256.331 333.112 257.119Z" fill="white"/>
<path d="M331.8 265.256C332.194 272.081 336.569 277.769 343.219 279.65C344.05 279.869 344.4 278.6 343.569 278.381C337.531 276.675 333.506 271.512 333.112 265.256C333.069 264.425 331.756 264.425 331.8 265.256Z" fill="white"/>
<path opacity="0.14" d="M351.181 246.181C352.319 249.594 354.069 255.106 355.994 261.931C361.594 281.706 371.262 315.963 371.875 357.175C371.962 364.044 372.225 399 375.375 399.175C376.119 399.219 377.344 397.294 379.006 397.731C380.144 398.038 380.187 399.088 381.194 399.481C383.381 400.313 387.012 396.55 388.762 393.794C389.375 392.831 390.775 390.644 391.081 387.538C391.256 386.138 391.125 385.131 390.644 382.156C389.944 377.563 389.594 375.288 389.331 374.15C387.45 365.269 384.081 356.738 381.325 344.706C380.144 339.631 379.356 335.081 378.394 329.831C378.087 328.169 377.256 323.313 376.337 317.275C374.281 303.45 373.625 293.956 372.269 281.838C371.525 275.231 370.387 265.913 368.637 254.581C368.2 253.619 367.412 252.131 366.012 250.775C365.531 250.338 364.044 248.981 360.019 247.713C358.05 247.013 355.031 246.269 351.181 246.181V246.181Z" fill="#6D6C6C"/>
<path opacity="0.2" d="M379.619 338.188C382.025 349.387 383.644 358.969 384.738 366.494C386.488 378.744 386.575 383.206 384.3 387.931C380.888 395.062 373.8 399.306 374.238 399.875C374.413 400.094 375.55 399.656 379.488 397.119C379.619 398.169 379.925 399.35 380.8 399.744C383.031 400.706 387.975 395.894 390.119 391.3C393.05 384.956 390.906 378.437 388.938 372.181C386.488 364.262 383.206 352.975 379.619 338.188Z" fill="#6D6C6C"/>
<path d="M321.431 177.494C317.144 176.925 313.206 182.525 305.55 193.681C300.3 201.294 296.625 207.987 294.219 212.625C289.012 212.362 283.806 212.1 278.6 211.794C273.744 211.531 268.887 211.269 264.031 210.962C262.106 210.306 259.219 209.344 255.675 208.512C249.944 207.112 238.087 204.794 237.344 206.85C237.125 207.506 237.912 208.862 242.987 212.056C242.637 212.931 241.369 216.606 242.987 220.85C243.25 221.506 244.694 225.05 248.106 226.887C252.481 229.206 258.519 227.937 262.937 223.606C266.35 225.662 284.856 236.469 302.269 229.075C307.956 226.669 311.937 222.994 315.481 219.756C321.912 213.85 330.356 206.106 330.575 195.344C330.75 187.556 326.637 178.194 321.431 177.494V177.494Z" fill="white" stroke="#161616" stroke-width="2" stroke-miterlimit="10"/>
<path d="M236.994 207.375C238.7 209.081 240.362 210.919 242.287 212.363C244.169 213.763 246.313 214.55 248.5 215.294C249.113 215.513 249.375 214.55 248.762 214.331C246.444 213.544 244.212 212.669 242.287 211.094C240.625 209.738 239.181 208.163 237.694 206.675C237.256 206.238 236.556 206.938 236.994 207.375V207.375Z" fill="#161616"/>
<path d="M257.687 211.881C256.025 212.494 254.494 213.456 253.313 214.769C252.481 215.687 251.256 217.131 251.563 218.444C251.869 219.931 253.706 219.931 254.931 219.931C256.9 219.887 258.781 219.319 260.487 218.312C261.012 218.006 260.531 217.131 260.006 217.481C258.912 218.137 257.731 218.619 256.462 218.837C255.369 219.012 252.175 219.406 252.744 217.35C253.313 215.25 256.112 213.544 257.994 212.844C258.519 212.625 258.256 211.662 257.687 211.881V211.881Z" fill="#161616"/>
<path d="M242.419 212.844C241.5 215.775 241.5 218.619 244.65 220.019C246.969 221.069 250.337 220.544 251.519 218.05C251.781 217.481 250.95 217 250.687 217.569C249.725 219.625 246.969 219.975 245.044 219.1C242.375 217.919 242.637 215.512 243.381 213.106C243.556 212.494 242.637 212.231 242.419 212.844V212.844Z" fill="#161616"/>
<path d="M242.2 219.319C242.375 221.812 243.906 224.263 246.531 224.744C248.85 225.181 250.994 223.781 251.825 221.681C252.044 221.113 251.125 220.85 250.863 221.419C250.163 223.169 248.194 224.219 246.312 223.694C244.387 223.125 243.294 221.2 243.162 219.319C243.162 218.706 242.156 218.706 242.2 219.319V219.319Z" fill="#161616"/>
<path d="M251.65 222.163C255.063 221.55 253.925 227.631 251.431 227.413C250.819 227.369 250.819 228.331 251.431 228.419C253.531 228.594 254.669 226.013 254.8 224.263C254.931 222.338 253.269 220.938 251.388 221.288C250.775 221.331 251.038 222.25 251.65 222.163V222.163Z" fill="#161616"/>
<path d="M251.387 218.619C251.387 218.575 251.431 218.575 251.431 218.531C251.256 218.575 251.125 218.619 250.95 218.662C251.3 218.75 251.344 219.888 251.3 220.106C251.256 220.675 251.037 221.2 250.6 221.638C250.163 222.075 250.863 222.775 251.3 222.338C251.956 221.681 252.306 220.763 252.262 219.8C252.219 219.1 252 217.875 251.169 217.7C250.994 217.656 250.819 217.7 250.687 217.831C250.687 217.875 250.644 217.875 250.644 217.919C250.294 218.4 250.95 219.1 251.387 218.619V218.619Z" fill="#161616"/>
<path d="M249.025 215.381C250.075 215.425 250.731 216.431 250.469 217.437C250.294 218.05 251.256 218.312 251.431 217.7C251.869 216.081 250.775 214.462 249.069 214.419C248.369 214.375 248.369 215.381 249.025 215.381Z" fill="#161616"/>
<path opacity="0.12" d="M327.906 184.537C326.637 188.256 324.537 193.287 321.212 198.8C317.8 204.444 313.994 210.7 306.6 215.95C303.887 217.875 295.706 223.562 283.587 224C272.169 224.394 263.769 219.931 260.444 217.919C257.819 219.887 256.025 220.019 254.844 219.756C253.794 219.494 253.4 218.969 251.563 218.4C249.988 217.919 248.719 217.831 248.019 217.787C245.481 217.612 242.856 217.437 242.156 218.619C241.238 220.237 244.213 223.694 246.531 225.575C247.581 226.406 249.419 227.85 252 228.244C258.081 229.206 262.587 223.912 262.85 223.606C264.337 224.525 266.481 225.794 269.194 227.019C273.612 229.075 279.869 231.919 288.181 231.875C297.631 231.875 304.456 228.156 305.856 227.369C307.519 226.406 310.625 223.694 316.794 218.225C322.525 213.15 324.625 210.919 326.55 207.856C327.687 206.062 329.131 203.744 329.962 200.55C331.756 193.725 329.35 187.512 327.906 184.537V184.537Z" fill="#6D6C6C"/>
<path opacity="0.15" d="M330.225 189.787C329.394 192.675 327.95 196.744 325.456 201.25C323.137 205.45 317.012 216.256 304.019 222.906C300.169 224.875 293.519 228.2 284.287 228.025C274.05 227.806 266.7 223.431 263.594 221.331C261.844 222.425 259.219 223.825 255.806 224.744C251.256 225.925 247.975 225.531 247.887 226.187C247.8 226.844 250.95 228.244 254.231 228.156C258.825 228.025 262.062 225.006 263.244 223.781C266.262 225.969 277.55 233.669 292.337 231.7C303.756 230.169 310.975 223.737 317.319 218.05C322.044 213.806 327.512 208.775 329.612 200.375C330.706 196.087 330.531 192.325 330.225 189.787V189.787Z" fill="#6D6C6C"/>
<path d="M316.794 177.669C315.919 178.675 314.387 180.819 313.075 191.056C311.325 204.969 312.244 215.994 313.075 224.219C314.037 233.975 315.394 245.744 317.363 259.131C324.975 261.494 337.619 264.163 352.8 261.756C359.669 260.663 365.531 258.781 370.256 256.813C369.25 245.875 369.381 237.038 369.688 231.219C371.175 201.163 372.531 192.806 372.531 192.806C373.538 186.813 374.456 183.094 372.225 179.725C369.994 176.269 365.75 175.088 352.231 174.213C331.712 172.813 321.387 172.244 316.794 177.669V177.669Z" fill="#EC615B"/>
<path opacity="0.14" d="M346.325 174.3C347.681 179.112 348.819 184.231 349.781 189.656C354.769 218.181 351.269 243.469 346.325 262.325C348.863 262.15 351.531 261.844 354.375 261.362C360.413 260.356 365.706 258.781 370.081 257.162C369.469 248.456 369.294 241.019 369.294 235.112C369.337 218.619 370.781 206.019 371.394 200.987C372.181 194.862 373.013 189.744 373.713 186.025C373.888 184.975 374.063 183.05 373.144 181.037C372.094 178.719 370.125 177.494 369.294 177.012C366.45 175.306 363.563 175.306 361.988 175.306C358.225 175.175 353.238 174.956 346.325 174.3V174.3Z" fill="#6D6C6C"/>
<path opacity="0.16" d="M373.363 184.625C365.619 204.706 364 219.056 364.175 228.725C364.219 232.356 364.613 241.063 359.975 250.206C357.131 255.763 353.413 259.656 350.569 262.106C353.194 261.756 356.081 261.231 359.188 260.4C363.169 259.35 366.625 258.038 369.556 256.769C369.163 245.481 369.206 233.231 369.95 220.15C370.606 207.375 371.831 195.519 373.363 184.625V184.625Z" fill="#6D6C6C"/>
<path d="M367.412 177.8C372.794 175.438 380.1 182.35 384.825 186.769C389.987 191.625 400.444 201.469 400.969 217.569C401.406 231 394.712 240.713 391.387 244.781C386.181 251.125 380.275 254.45 376.775 256.069C376.731 257.556 376.512 259.919 375.506 262.5C374.937 263.9 372.05 271.25 366.537 271.556C365.794 271.6 363.256 271.6 360.325 268.844C360.15 268.844 359.275 268.712 358.706 267.925C358.181 267.181 358.137 266.087 358.662 265.212C358.531 265.125 357.394 264.556 357.131 263.2C356.825 261.712 357.831 260.619 357.919 260.575C357.962 259.831 358.137 258.869 358.837 258.387C359.625 257.862 360.456 258.3 361.725 258.213C362.556 258.125 363.737 257.819 365.137 256.594C363.562 256.156 360.019 255.019 360.106 253.75C360.15 252.263 365.269 251.387 366.406 251.169C369.206 250.687 371.612 250.775 373.231 250.906C374.194 249.156 375.594 246.575 377.256 243.469C380.056 238.219 381.456 235.594 382.287 233.713C383.862 230.213 385.612 224.919 386.094 217.525C384.125 215.6 381.106 212.844 377.256 209.825C368.944 203.35 366.144 203.219 363.869 199.544C359.581 192.675 361.637 180.338 367.412 177.8V177.8Z" fill="white" stroke="#161616" stroke-width="2" stroke-miterlimit="10"/>
<path d="M357.481 260.05C358.181 263.463 363.431 262.675 365.531 261.45C366.056 261.144 365.575 260.269 365.05 260.619C363.519 261.538 358.969 262.544 358.444 259.831C358.313 259.175 357.35 259.438 357.481 260.05V260.05Z" fill="#161616"/>
<path d="M358.006 265.519C360.631 267.4 364.481 266.525 367.238 265.256C367.806 264.994 367.325 264.162 366.756 264.425C364.306 265.519 360.85 266.306 358.531 264.687C358.006 264.294 357.525 265.169 358.006 265.519Z" fill="#161616"/>
<path d="M359.975 269.369C362.688 270.681 365.838 270.506 368.331 268.756C368.856 268.406 368.375 267.531 367.85 267.925C365.663 269.456 362.906 269.719 360.5 268.537C359.931 268.231 359.406 269.062 359.975 269.369Z" fill="#161616"/>
<path opacity="0.18" d="M365.531 179.462C364.656 182.437 374.894 185.281 383.862 194.906C386.969 198.231 393.312 205.012 394.8 215.075C396.681 227.544 390.162 237.519 387.756 241.106C383.119 248.15 377.475 252.306 374.062 254.45C374.062 255.675 373.887 260.137 370.475 263.9C369.775 264.687 367.019 267.706 362.994 268.144C360.675 268.406 358.575 267.75 358.487 268.012C358.444 268.275 360.062 268.625 362.162 270.069C363.519 270.987 363.562 271.381 364.219 271.687C366.931 272.956 371.219 269.106 371.7 268.712C376.162 264.644 376.687 258.606 376.775 256.375C377.781 255.806 379.137 255.019 380.712 253.969C382.331 252.875 387.1 249.725 390.862 245.569C391.869 244.475 396.987 238.656 399.481 229.337C400.356 226.056 402.762 216.562 398.912 206.194C397.206 201.687 395.019 198.756 391.081 193.637C387.581 189.044 385 186.769 380.012 182.35C376.425 179.156 374.281 177.669 371.394 177.494C369.425 177.362 366.012 177.844 365.531 179.462V179.462Z" fill="#6D6C6C"/>
<path opacity="0.18" d="M395.5 199.5C396.988 203.175 399.131 209.869 398.825 218.4C398.519 227.675 395.5 234.412 394.319 236.731C388.894 247.669 380.319 253.531 376.119 255.981C379.531 254.712 384.475 252.306 389.156 247.8C402.85 234.587 400.838 215.95 400.663 214.637C399.875 208.075 397.513 202.956 395.5 199.5V199.5Z" fill="#6D6C6C"/>
<path d="M345.363 144.112C347.988 152.906 348.95 158.025 352.669 166.075C354.419 169.837 356.081 172.812 357.263 174.781C353.456 176.575 347.288 178.894 339.369 179.2C334.688 179.375 330.663 178.762 327.556 178.062C327.863 175.656 328.038 172.637 327.819 169.225C327.513 164.937 326.594 161.306 325.719 158.637C321.519 158.112 317.275 157.544 313.075 157.019C312.244 155.181 311.413 153.3 310.581 151.462C309.444 151.419 308.263 151.375 307.125 151.331C308 148.794 309.313 144.812 310.844 139.869C313.688 130.55 313.644 129.237 315.175 127.137C319.419 121.406 328.913 117.731 335.169 120.837C338.888 122.631 341.075 129.806 345.363 144.112V144.112Z" fill="white" stroke="#161616" stroke-width="2" stroke-miterlimit="10"/>
<path d="M307.212 152.031C309.4 152.075 311.544 151.9 313.688 151.594C314.519 151.462 314.169 150.194 313.338 150.325C311.281 150.631 309.269 150.762 307.212 150.719C306.381 150.719 306.381 152.031 307.212 152.031Z" fill="#161616"/>
<path d="M306.381 135.319C307.606 134.663 309.225 135.013 310.012 136.15C310.494 136.85 311.631 136.194 311.15 135.494C309.925 133.744 307.606 133.175 305.725 134.181C304.981 134.575 305.637 135.713 306.381 135.319Z" fill="#161616"/>
<path d="M316.706 136.85C318.281 136.369 319.988 136.894 320.906 138.294C321.387 138.994 322.525 138.338 322.044 137.638C320.775 135.8 318.5 134.925 316.356 135.625C315.569 135.844 315.875 137.113 316.706 136.85Z" fill="#161616"/>
<path d="M317.013 141.75C316.969 141.269 317.056 140.787 317.319 140.35C317.363 140.262 317.45 140.131 317.538 140.044C317.363 139.825 317.275 139.781 317.319 140C317.231 140.087 317.275 140.525 317.231 140.656C317.188 140.875 317.1 141.094 317.013 141.312C316.969 141.4 316.925 141.487 316.881 141.531C317.1 141.925 317.231 141.969 317.319 141.662C317.494 141.487 317.581 141.094 317.713 140.875C317.844 140.612 317.975 140.35 318.106 140.087C318.456 139.431 317.625 138.775 317.056 139.3C316.75 139.606 316.575 139.912 316.444 140.306C316.225 141.137 317.494 141.487 317.713 140.656C317.756 140.437 317.844 140.35 317.975 140.219C317.625 139.956 317.275 139.694 316.925 139.431C316.619 140.044 316.269 140.656 316.006 141.312C315.788 141.794 315.831 142.362 316.313 142.669C317.494 143.412 318.238 141.881 318.456 140.962C318.631 140.087 318.631 138.25 317.188 138.644C316.05 138.994 315.613 140.656 315.656 141.662C315.744 142.581 317.056 142.581 317.013 141.75V141.75Z" fill="#161616"/>
<path d="M313.644 129.412C313.95 127.531 314.694 124.381 316.75 121.144C317.494 120.006 319.025 117.6 321.519 115.981C326.288 112.875 333.594 113.137 338.888 116.944C344.094 120.662 346.675 127.312 345.538 133.962C334.95 132.475 324.275 130.944 313.644 129.412V129.412Z" fill="#5222D0"/>
<path d="M296.231 129.544C312.638 131.6 329 133.656 345.406 135.712C347.9 136.019 347.9 132.081 345.406 131.775C329 129.719 312.638 127.662 296.231 125.606C293.694 125.3 293.738 129.237 296.231 129.544Z" fill="#161616"/>
<path d="M334.95 133.525C332.062 134.575 330.356 136.588 328.431 138.906C324.319 143.894 325.544 145.731 322.656 148.838C318.062 153.781 313.381 150.85 309.269 155.706C305.769 159.819 306.25 165.375 306.381 166.644C306.512 167.869 307.125 172.813 311.194 176.225C314.737 179.156 319.462 179.813 319.769 179.156C319.856 178.938 319.506 178.325 316.881 176.575C317.625 177.1 318.85 177.756 320.381 178.063C322.175 178.369 323.881 178.063 323.881 177.8C323.881 177.581 322.919 177.625 322.175 176.838C321.737 176.356 321.562 175.831 321.431 175.35C322.875 176.269 324.669 177.1 326.375 176.575C331.056 175.175 331.887 164.806 332.15 161.35C333.025 150.238 329.831 144.156 333.725 140.219C334.031 139.869 335.606 138.294 337.356 138.644C339.544 139.038 341.206 142.406 340.506 144.638C339.894 146.563 337.706 147.088 337.837 147.481C338.056 147.919 341.731 147.219 344.837 144.769C345.975 143.894 346.894 143.15 347.375 141.838C348.206 139.519 347.244 136.894 345.931 135.319C343.219 132.169 338.1 132.388 334.95 133.525V133.525Z" fill="#161616" stroke="#161616" stroke-width="2" stroke-miterlimit="10"/>
<path opacity="0.22" d="M339.281 147.875C338.581 147.963 337.575 147.963 337.531 147.744C337.487 147.613 337.75 147.438 337.75 147.438C337.75 147.438 336.919 148.488 335.869 148.619C335.387 148.663 334.95 148.531 334.644 148.356C336.481 152.25 338.362 156.931 339.981 162.356C341.731 168.306 342.737 173.688 343.306 178.325C345.187 178.325 347.856 178.106 350.919 177.144C353.412 176.356 355.381 175.306 356.869 174.388C352.931 168.219 350.919 163.275 349.781 159.906C349.256 158.331 348.119 154.613 347.594 152.775C346.587 149.45 345.756 146.694 345.231 144.856C344.969 145.119 344.487 145.513 343.919 145.906C343.087 146.519 341.469 147.656 339.281 147.875V147.875Z" fill="#6D6C6C"/>
<path d="M327.512 114.056C331.756 114.888 334.95 118.3 335.475 122.281C336.044 127.05 332.544 130.331 332.194 130.594C336.744 131.163 341.25 131.688 345.8 132.256C345.888 131.206 345.931 129.763 345.625 128.1C344.75 122.763 341.6 119.438 340.944 118.781C339.894 117.731 336.175 114.187 330.619 113.881C329.35 113.837 328.256 113.969 327.512 114.056Z" fill="#321693"/>
<path d="M231.219 305.55C231.438 307.912 231.613 310.319 231.831 312.681L454.563 313.075C455.219 310.712 455.875 308.306 456.531 305.944C381.456 305.812 306.338 305.681 231.219 305.55Z" fill="white"/>
<path d="M234.194 305.856H236.556C237.387 305.856 237.387 304.544 236.556 304.544C235.769 304.544 234.981 304.544 234.194 304.544C233.319 304.544 233.319 305.856 234.194 305.856Z" fill="#161616"/>
<path d="M231.788 307.125H319.594C319.594 307.125 378.131 307.125 407.4 307.125H457.188C458.894 307.125 458.894 304.5 457.188 304.5C427.919 304.5 398.65 304.5 369.381 304.5C340.113 304.5 310.844 304.5 281.575 304.5C264.994 304.5 248.369 304.5 231.788 304.5C230.125 304.5 230.125 307.125 231.788 307.125Z" fill="#161616"/>
<path d="M232.4 313.6H405.3H454.213C455.919 313.6 455.919 310.975 454.213 310.975C396.594 310.975 338.931 310.975 281.313 310.975C264.994 310.975 248.719 310.975 232.4 310.975C230.694 310.975 230.694 313.6 232.4 313.6Z" fill="#161616"/>
<path d="M239.356 319.987V429.931V461.344C239.356 463.05 241.981 463.05 241.981 461.344C241.981 424.681 241.981 388.019 241.981 351.4C241.981 340.944 241.981 330.444 241.981 319.987C241.981 318.325 239.356 318.325 239.356 319.987V319.987Z" fill="#161616"/>
<path d="M422.144 318.237V417.769V446.031C422.144 447.737 424.769 447.737 424.769 446.031C424.769 412.869 424.769 379.662 424.769 346.5C424.769 337.094 424.769 327.687 424.769 318.237C424.769 316.531 422.144 316.531 422.144 318.237Z" fill="#161616"/>
<path d="M58.5375 430.719H158.638H259.175H315.569C317.275 430.719 317.275 428.094 315.569 428.094C282.188 428.094 248.85 428.094 215.469 428.094C181.956 428.094 148.444 428.094 114.931 428.094C96.1188 428.094 77.35 428.094 58.5375 428.094C56.8313 428.094 56.8313 430.719 58.5375 430.719V430.719Z" fill="#161616"/>
<path d="M365.881 431.9H454.563H542.806H593.031C594.738 431.9 594.738 429.275 593.031 429.275C563.456 429.275 533.925 429.275 504.35 429.275C474.95 429.275 445.506 429.275 416.106 429.275C399.35 429.275 382.638 429.275 365.881 429.275C364.175 429.275 364.175 431.9 365.881 431.9Z" fill="#161616"/>
<path d="M239.881 319.944V427.481V458.106C239.881 459.813 242.506 459.813 242.506 458.106C242.506 422.275 242.506 386.4 242.506 350.569C242.506 340.375 242.506 330.181 242.506 319.944C242.506 318.237 239.881 318.237 239.881 319.944Z" fill="#161616"/>
<path d="M240.45 320.512V427.613V458.106C240.45 459.812 243.075 459.812 243.075 458.106C243.075 422.406 243.075 386.706 243.075 351.006C243.075 340.856 243.075 330.706 243.075 320.512C243.075 318.85 240.45 318.85 240.45 320.512V320.512Z" fill="#161616"/>
<path d="M421.925 317.581V415.013V442.838C421.925 444.544 424.55 444.544 424.55 442.838C424.55 410.375 424.55 377.869 424.55 345.406C424.55 336.131 424.55 326.856 424.55 317.581C424.55 315.919 421.925 315.919 421.925 317.581Z" fill="#161616"/>
<path d="M422.538 318.194V414.794V442.313C422.538 444.019 425.163 444.019 425.163 442.313C425.163 410.113 425.163 377.913 425.163 345.713C425.163 336.525 425.163 327.338 425.163 318.194C425.163 316.487 422.538 316.487 422.538 318.194V318.194Z" fill="#161616"/>
<path d="M233.844 313.819C236.119 316.575 238.131 319.463 239.925 322.525C240.8 323.969 243.075 322.656 242.2 321.213C240.275 317.975 238.088 314.913 235.681 311.981C234.588 310.669 232.75 312.506 233.844 313.819Z" fill="#161616"/>
<path d="M242.725 321.606C245.963 318.894 249.156 316.138 252.394 313.425C253.663 312.331 251.825 310.494 250.556 311.588C247.319 314.3 244.125 317.056 240.888 319.769C239.575 320.863 241.456 322.7 242.725 321.606Z" fill="#161616"/>
<path d="M414.619 315.175C417.331 316.881 420.044 318.587 422.756 320.294C424.2 321.212 425.512 318.937 424.069 318.019C421.356 316.312 418.644 314.606 415.931 312.9C414.488 312.025 413.175 314.3 414.619 315.175Z" fill="#161616"/>
<path d="M430.413 312.069C428.138 313.906 425.95 315.875 423.894 317.931C422.713 319.113 424.55 320.994 425.731 319.769C427.788 317.713 429.975 315.744 432.25 313.906C433.563 312.856 431.725 311.019 430.413 312.069Z" fill="#161616"/>
<path d="M416.675 315.306C420.175 315.831 423.587 315.963 427.087 315.613C426.869 314.781 426.65 313.994 426.431 313.162C424.987 314.081 423.5 314.344 421.794 314.519C420.831 314.65 419.869 315.963 420.875 316.75C422.231 317.844 423.587 318.194 425.294 317.756C426.912 317.363 426.256 314.825 424.594 315.219C423.937 315.481 423.281 315.35 422.712 314.869C422.406 315.613 422.1 316.356 421.794 317.1C423.894 316.881 425.95 316.575 427.744 315.35C428.75 314.694 428.487 312.769 427.087 312.9C423.85 313.206 420.569 313.163 417.331 312.681C415.712 312.506 415.012 315.044 416.675 315.306V315.306Z" fill="#161616"/>
<path d="M429.363 312.813C428.138 312.55 426.913 312.725 425.863 313.425C425.294 313.819 425.031 314.563 425.381 315.219C425.731 315.787 426.606 316.094 427.175 315.7C427.656 315.35 428.138 315.219 428.619 315.35C429.319 315.481 430.019 315.131 430.238 314.431C430.456 313.775 430.063 312.944 429.363 312.813Z" fill="#161616"/>
<path d="M236.819 315.044C237.606 315.569 240.537 316.925 240.406 318.063L241.719 316.75C241.544 316.75 241.019 314.738 240.887 314.388C240.494 315.044 240.144 315.7 239.75 316.356C242.375 316.225 244.869 315.7 247.275 314.738C246.837 313.994 246.444 313.294 246.006 312.55C244.519 314.081 242.944 315.525 241.237 316.838L243.031 318.631C244.606 315.963 242.375 313.775 240.1 312.638C239.881 313.469 239.662 314.256 239.444 315.088C241.237 315 243.031 314.956 244.825 315.044C246.531 315.131 246.487 312.506 244.825 312.419C243.031 312.331 241.237 312.331 239.444 312.463C238.219 312.55 237.562 314.3 238.787 314.913C239.575 315.306 241.5 316.138 240.8 317.319C240.188 318.369 241.5 319.944 242.594 319.113C244.475 317.669 246.269 316.138 247.887 314.431C248.719 313.556 247.887 311.719 246.619 312.244C244.387 313.119 242.156 313.644 239.794 313.775C238.744 313.819 238.262 314.825 238.656 315.744C239.4 317.406 239.356 319.419 241.762 319.375C242.55 319.375 242.987 318.763 243.075 318.063C243.425 315.438 239.969 313.95 238.219 312.813C236.731 311.85 235.419 314.125 236.819 315.044V315.044Z" fill="#161616"/>
<path d="M251.169 304.194C251.169 302.05 251.169 299.906 251.169 297.719C251.169 296.888 249.856 296.888 249.856 297.719V304.194C249.856 305.069 251.169 305.069 251.169 304.194Z" fill="#E8E8E8"/>
<path d="M250.512 298.287H286.825C287.656 298.287 287.656 296.975 286.825 296.975C274.706 296.975 262.631 296.975 250.512 296.975C249.681 296.975 249.681 298.287 250.512 298.287Z" fill="#E8E8E8"/>
<path d="M286.169 297.631V303.8C286.169 304.631 287.481 304.631 287.481 303.8C287.481 301.744 287.481 299.687 287.481 297.631C287.481 296.756 286.169 296.756 286.169 297.631Z" fill="#E8E8E8"/>
<path d="M252.175 300.738H279.956C280.787 300.738 280.787 299.425 279.956 299.425C270.681 299.425 261.45 299.425 252.175 299.425C251.344 299.425 251.344 300.738 252.175 300.738Z" fill="#E8E8E8"/>
<path d="M258.344 303.231H279.65C280.481 303.231 280.481 301.919 279.65 301.919C272.563 301.919 265.431 301.919 258.344 301.919C257.513 301.919 257.513 303.231 258.344 303.231Z" fill="#E8E8E8"/>
<path d="M259.831 297.5C259.831 296.013 259.831 294.569 259.831 293.081C259.831 292.25 258.519 292.25 258.519 293.081V297.5C258.519 298.331 259.831 298.331 259.831 297.5Z" fill="#E8E8E8"/>
<path d="M260.006 293.475H291.638C292.469 293.475 292.469 292.162 291.638 292.162C281.094 292.162 270.55 292.162 260.006 292.162C259.175 292.162 259.175 293.475 260.006 293.475Z" fill="#E8E8E8"/>
<path d="M287.219 297.981H291.331C292.163 297.981 292.163 296.669 291.331 296.669C289.975 296.669 288.575 296.669 287.219 296.669C286.388 296.669 286.388 297.981 287.219 297.981Z" fill="#E8E8E8"/>
<path d="M290.981 292.95V297.194C290.981 298.025 292.294 298.025 292.294 297.194C292.294 295.794 292.294 294.35 292.294 292.95C292.294 292.075 290.981 292.075 290.981 292.95Z" fill="#E8E8E8"/>
<path d="M266.35 295.663H273.919C274.75 295.663 274.75 294.35 273.919 294.35C271.381 294.35 268.887 294.35 266.35 294.35C265.475 294.35 265.475 295.663 266.35 295.663Z" fill="#E8E8E8"/>
<path d="M279.387 296.756H286.125C286.956 296.756 286.956 295.444 286.125 295.444C283.894 295.444 281.619 295.444 279.387 295.444C278.556 295.444 278.556 296.756 279.387 296.756Z" fill="#E8E8E8"/>
<path d="M267.181 291.55C266.131 290.544 265.913 289.013 266 287.613C266.175 285.294 268.275 285.206 270.025 285.906C270.813 286.213 271.163 284.944 270.375 284.638C268.406 283.85 265.825 283.894 264.95 286.213C264.206 288.181 264.731 291.025 266.263 292.469C266.875 293.081 267.794 292.119 267.181 291.55Z" fill="#E8E8E8"/>
<path d="M269.806 285.25C273.919 283.413 275.625 290.325 272.081 292.075C271.337 292.469 271.994 293.563 272.737 293.213C277.812 290.675 274.837 281.575 269.15 284.113C268.362 284.463 269.062 285.6 269.806 285.25V285.25Z" fill="#E8E8E8"/>
<path d="M269.938 284.9C269.719 283.5 269.194 282.231 268.363 281.094C267.881 280.394 266.744 281.05 267.225 281.75C267.969 282.8 268.45 283.938 268.669 285.25C268.8 286.081 270.069 285.731 269.938 284.9V284.9Z" fill="#E8E8E8"/>
<path d="M269.325 282.669C269.456 282.319 269.631 282.013 269.85 281.706C269.937 281.575 270.069 281.4 270.2 281.269C270.244 281.181 270.331 281.138 270.419 281.05C270.2 280.613 270.069 280.525 269.981 280.744C269.762 280.963 269.544 281.531 269.412 281.838C269.194 282.231 268.931 282.581 268.669 282.931C268.187 283.631 269.325 284.288 269.806 283.588C270.288 282.931 270.725 282.231 271.075 281.488C271.381 280.875 271.556 280.088 270.769 279.781C269.456 279.3 268.45 281.356 268.1 282.275C267.75 283.106 269.019 283.456 269.325 282.669V282.669Z" fill="#E8E8E8"/>
<path d="M484.312 370.738C484.488 372.794 484.662 374.894 484.837 376.95C505.006 376.775 525.175 376.6 545.344 376.425C545.125 374.456 544.906 372.488 544.688 370.562C524.519 370.65 504.438 370.694 484.312 370.738Z" fill="white"/>
<path d="M484.706 377.65H545.169C546.875 377.65 546.875 375.025 545.169 375.025C525 375.025 504.875 375.025 484.706 375.025C483.044 375.025 483 377.65 484.706 377.65Z" fill="#161616"/>
<path d="M485.1 371.656H544.425C546.131 371.656 546.131 369.031 544.425 369.031C524.65 369.031 504.875 369.031 485.1 369.031C483.394 369.031 483.394 371.656 485.1 371.656Z" fill="#161616"/>
<path d="M483.044 370.737V375.2C483.044 376.906 485.669 376.906 485.669 375.2C485.669 373.712 485.669 372.225 485.669 370.737C485.669 369.031 483.044 369.031 483.044 370.737Z" fill="#161616"/>
<path d="M543.856 370.737V376.687C543.856 378.394 546.481 378.394 546.481 376.687C546.481 374.719 546.481 372.706 546.481 370.737C546.481 369.031 543.856 369.031 543.856 370.737Z" fill="#161616"/>
<path d="M514.369 377.081V452.462C514.369 454.169 516.994 454.169 516.994 452.462C516.994 427.35 516.994 402.237 516.994 377.081C516.994 375.375 514.369 375.375 514.369 377.081V377.081Z" fill="#161616"/>
<path d="M514.281 452.069C509.775 454.738 505.269 457.406 500.719 460.075C499.275 460.95 500.587 463.225 502.031 462.35C506.537 459.681 511.044 457.013 515.594 454.344C517.081 453.469 515.725 451.194 514.281 452.069Z" fill="#161616"/>
<path d="M515.025 453.95C520.144 456.794 525.219 459.681 530.338 462.525C531.825 463.356 533.138 461.081 531.65 460.25C526.531 457.406 521.456 454.519 516.338 451.675C514.85 450.843 513.538 453.119 515.025 453.95Z" fill="#161616"/>
<path d="M501.506 463.313C511.219 463.225 520.888 462.919 530.6 462.437C532.263 462.35 532.306 459.725 530.6 459.812C520.931 460.294 511.219 460.6 501.506 460.687C499.8 460.687 499.8 463.313 501.506 463.313Z" fill="#161616"/>
<path d="M502.95 378.044C506.888 383.644 510.475 389.506 513.713 395.544C514.5 397.031 516.775 395.719 515.988 394.231C512.75 388.194 509.163 382.331 505.225 376.731C504.263 375.331 501.987 376.644 502.95 378.044Z" fill="#161616"/>
<path d="M529.244 376.162C523.513 381.631 518.613 387.844 514.631 394.669C513.756 396.112 516.031 397.469 516.906 395.981C520.8 389.331 525.569 383.337 531.125 378.044C532.35 376.862 530.469 374.981 529.244 376.162Z" fill="#161616"/>
<path d="M422.319 427.613C421.969 433.869 421.663 440.125 421.313 446.381C404.6 453.644 396.55 458.412 397.206 460.6C397.95 463.225 410.813 462.306 435.706 457.931C435.881 447.213 436.056 436.494 436.188 425.775C431.594 426.388 426.956 427 422.319 427.613V427.613Z" fill="#161616"/>
<path d="M474.206 326.244C470.488 329.569 465.194 334.381 459.025 340.331C444.325 354.594 433.519 365.05 426.213 375.856C420.175 384.825 411.206 401.887 410.506 429.8C416.544 431.462 424.156 432.862 432.994 432.775C435.969 432.731 438.813 432.556 441.394 432.25C440.256 425.906 439.338 415.975 441.656 404.337C443.275 396.156 445.988 389.594 448.438 384.825C468.125 376.075 481.425 365.356 489.913 357.175C498.488 348.906 508.244 339.456 505.619 332.762C503.212 326.419 490.394 323.969 474.206 326.244Z" fill="#EC615B"/>
<path opacity="0.18" d="M494.9 326.287C488.294 335.081 480.375 344.619 470.881 354.331C458.981 366.537 447.213 376.381 436.669 384.212C432.994 400.356 429.319 416.5 425.644 432.6C427.219 432.862 429.012 433.081 430.981 433.081C434.963 433.169 438.375 432.6 441 431.9C440.169 426.387 439.6 418.819 440.65 410.025C441.963 399.175 445.288 390.644 448 385C457.888 380.45 465.719 375.812 471.363 372.137C471.363 372.137 489.038 360.675 502.731 343.087C503.038 342.694 504.088 341.337 504.919 339.237C505.575 337.531 506.406 335.431 505.75 333.244C505.138 331.275 503.65 330.181 502.075 329.087C500.85 328.256 498.444 326.812 494.9 326.287V326.287Z" fill="#6D6C6C"/>
<path opacity="0.16" d="M447.65 385.219C445.769 388.719 443.931 392.394 442.138 396.244C436.1 409.238 431.9 421.663 428.969 432.95C432.994 432.775 436.975 432.6 441 432.469C440.081 427.175 439.381 420.044 440.169 411.775C441.263 400.094 444.806 390.994 447.65 385.219Z" fill="#6D6C6C"/>
<path d="M449.312 433.65C451.325 439.906 453.337 446.162 455.35 452.419C440.475 461.344 433.431 466.725 434.262 468.519C435.269 470.706 448.087 467.469 472.762 458.806C469.35 448.875 465.937 438.944 462.525 429.012C458.106 430.5 453.687 432.075 449.312 433.65V433.65Z" fill="#161616"/>
<path d="M521.456 334.731C524.562 350.525 519.881 359.406 517.65 362.819C513.187 369.644 507.237 371.744 489.869 380.362C483.087 383.731 472.762 388.981 460.119 395.937C460.994 401.494 462.394 407.881 464.625 414.837C466.725 421.4 469.175 427.131 471.538 431.944C469.219 434.175 464.537 438.112 457.406 440.387C449.706 442.881 443.1 442.137 439.863 441.569C432.994 428.006 431.244 416.106 430.762 408.844C430.194 400.094 429.538 390.162 434.656 380.362C438.594 372.837 442.4 372.137 458.325 359.975C482.256 341.731 484.662 334.906 497 332.369C507.106 330.312 516.075 332.719 521.456 334.731V334.731Z" fill="#EC615B"/>
<path opacity="0.22" d="M505.094 331.8C505.313 336.875 504.919 344.837 500.85 352.975C497.438 359.844 492.888 364.744 477.881 374.894C464.538 383.906 453.906 390.862 447.038 395.325C451.413 409.981 455.788 424.637 460.163 439.294C461.475 438.856 463.05 438.2 464.669 437.281C467.644 435.575 469.744 433.519 471.1 431.944C469.175 427.831 467.25 423.237 465.544 418.206C462.744 410.156 460.994 402.631 459.9 396.112C470.75 390.075 478.363 386.137 482.825 383.906C489.475 380.581 492.756 378.919 496.125 377.3C497.263 376.775 499.8 375.594 503.125 373.844C506.844 371.919 508.681 371 510.344 369.862C511.7 368.944 515.113 366.537 517.869 362.556C521.806 356.869 522.156 350.919 522.419 346.587C522.594 343.787 522.55 339.719 521.5 334.95C519.225 333.987 516.163 332.937 512.488 332.325C509.644 331.8 507.15 331.712 505.094 331.8V331.8Z" fill="#6D6C6C"/>
<path opacity="0.11" d="M522.375 343.481C521.675 345.8 520.406 349.169 518.175 352.8C511.306 363.825 500.806 368.2 493.456 371.875C484.75 376.25 473.025 383.469 459.987 395.937C463.662 393.881 468.169 391.431 473.419 388.631C482.694 383.687 487.287 381.237 492.056 378.962C495.775 377.212 500.019 375.331 506.363 371.962C510.913 369.556 513.406 368.069 515.769 365.312C518.438 362.206 519.619 359.1 520.406 357C521.369 354.375 522.725 349.694 522.375 343.481V343.481Z" fill="#6D6C6C"/>
<path opacity="0.17" d="M459.812 396.375C459.856 400.05 460.119 403.988 460.6 408.144C461.825 418.775 464.406 427.919 467.163 435.312C467.95 434.875 468.869 434.263 469.831 433.431C470.444 432.906 470.969 432.381 471.363 431.9C469.525 428.094 467.731 423.85 466.025 419.256C463.006 410.944 461.081 403.2 459.812 396.375V396.375Z" fill="#6D6C6C"/>
<path d="M492.625 249.069C487.156 250.906 486.194 257.425 482.519 264.863C482.519 264.863 476.744 276.675 464.1 286.387C459.506 289.931 449.575 296.188 432.994 297.281C431.375 296.625 428.881 295.75 425.731 295.225C421.225 294.481 414.925 293.388 410.681 297.019C408.756 298.681 406.612 301.831 407.575 303.756C408.756 306.119 414.006 305.2 422.625 304.806C434.569 304.281 434 305.594 442.312 305.069C449.75 304.587 461.475 303.887 473.681 296.756C485.362 289.975 491.4 280.919 492.844 278.6C495.644 274.225 496.912 270.681 499.494 263.55C502.906 254.188 502.337 252.088 501.375 250.863C499.712 248.588 495.687 248.019 492.625 249.069Z" fill="white" stroke="#161616" stroke-width="2" stroke-miterlimit="10"/>
<path d="M427.787 298.637C425.031 299.162 421.05 299.294 419.037 301.569C417.9 302.881 418.075 305.2 420.175 305.2C420.788 305.2 420.831 304.194 420.175 304.194C419.125 303.1 419.213 302.225 420.525 301.613C420.963 301.306 421.444 301.087 421.969 300.869C422.537 300.65 423.106 300.519 423.675 300.387C425.119 300.081 426.563 299.819 428.05 299.556C428.663 299.469 428.4 298.55 427.787 298.637V298.637Z" fill="#161616"/>
<path d="M407.137 302.706C409.719 305.944 413.744 302.181 416.85 303.013C417.462 303.188 417.725 302.225 417.113 302.05C415.756 301.7 414.575 301.875 413.219 302.313C411.425 302.881 409.237 303.844 407.794 302.006C407.444 301.525 406.744 302.225 407.137 302.706V302.706Z" fill="#161616"/>
<path d="M408.712 298.725C408.8 300.037 409.675 300.562 410.944 300.562C413.787 300.562 416.281 299.425 419.125 300.344C419.737 300.519 420 299.6 419.387 299.381C417.944 298.9 416.544 298.856 415.056 298.988C414.006 299.075 409.806 300.256 409.719 298.681C409.631 298.113 408.669 298.113 408.712 298.725V298.725Z" fill="#161616"/>
<path d="M413 296.012C413.438 297.062 414.181 297.544 415.319 297.719C417.55 298.025 419.475 298.112 421.531 299.031C422.1 299.294 422.625 298.419 422.012 298.2C420.875 297.719 419.737 297.281 418.512 297.062C417.112 296.8 414.531 297.237 413.919 295.75C413.7 295.181 412.738 295.444 413 296.012Z" fill="#161616"/>
<path opacity="0.16" d="M497.919 249.2C495.425 249.812 496.169 256.506 494.856 262.719C492.669 272.737 485.538 278.994 477.663 285.906C472.325 290.588 466.069 296.1 456.531 298.55C453.25 299.381 447.825 300.3 442.006 300.606C434.131 301 430.238 301.219 429.975 301.175C428.663 301.044 425.469 300.694 422.056 302.181C421.356 302.488 419.431 303.319 419.563 303.931C419.738 304.85 424.288 304.588 434.525 304.5C442.094 304.456 441.306 304.588 443.625 304.5C448 304.325 455.612 304.063 464.187 300.956C476.394 296.581 483.919 288.838 487.375 285.25C490.7 281.75 492.537 279.038 493.106 278.206C495.819 274.138 497.087 270.506 499.581 263.375C502.469 255.062 502.469 252.875 501.331 251.169C500.544 250.162 499.1 248.894 497.919 249.2V249.2Z" fill="#6D6C6C"/>
<path opacity="0.13" d="M408.319 304.106C408.625 303.319 409.937 300.081 413.437 298.375C418.687 295.881 423.806 299.25 424.025 299.381C422.888 299.994 421.925 300.431 421.225 300.694C420.131 301.175 419.694 301.263 419.3 301.7C418.644 302.531 418.819 303.756 418.994 304.5C417.594 304.806 415.756 305.025 413.569 304.938C411.469 304.894 409.675 304.5 408.319 304.106V304.106Z" fill="#6D6C6C"/>
<path opacity="0.14" d="M501.288 256.375C499.45 262.5 495.425 272.825 486.587 282.8C474.556 296.406 460.425 301.7 453.994 303.669C458.937 302.794 477.312 298.9 490.262 282.1C497.919 272.125 500.369 261.975 501.288 256.375V256.375Z" fill="#6D6C6C"/>
<path d="M491.137 249.419C488.381 252.437 486.412 256.419 485.144 271.119C483.262 292.6 486.237 297.544 482.912 308.175C481.381 313.031 478.231 320.075 470.925 327.644C476.087 330.969 484.444 335.519 495.644 338.144C506.712 340.725 516.119 340.331 522.244 339.631C530.119 315.438 529.462 295.881 527.844 283.85C526.312 272.388 522.856 246.006 509.119 242.681C502.6 241.063 495.206 245 491.137 249.419Z" fill="white" stroke="#161616" stroke-width="2" stroke-miterlimit="10"/>
<path opacity="0.12" d="M505.619 242.769C505.4 244.563 505.094 247.231 504.787 250.425C502.731 271.819 505.137 275.713 503.562 288.313C502.687 295.488 500.85 308.919 491.4 321.431C487.462 326.638 483.306 330.269 480.331 332.5C485.1 334.906 492.362 337.925 501.637 339.325C509.95 340.55 516.994 340.069 521.981 339.325C523.381 335.3 525.044 329.831 526.356 323.269C528.806 311.106 528.981 300.738 528.675 293.563C528.106 279.694 526.837 249.944 511.612 243.863C509.25 242.944 507.106 242.769 505.619 242.769Z" fill="#6D6C6C"/>
<path opacity="0.24" d="M528.369 305.594C527.844 305.506 526.619 310.931 524.825 315.831C522.55 322.175 518.263 330.706 509.381 339.937C513.669 339.719 518 339.544 522.287 339.325C523.731 334.687 525.569 327.775 527.056 319.244C528.019 313.513 529.025 305.725 528.369 305.594V305.594Z" fill="#6D6C6C"/>
<path d="M517.125 248.85C522.069 249.812 524.169 257.644 525.919 264.512C527.669 271.425 531.038 285.513 526.313 304.063C524.344 311.719 522.594 318.85 516.513 326.069C508.594 335.519 498.488 339.194 493.763 340.55C488.513 344.181 485.8 346.019 484.269 346.981C483.175 347.681 482.519 348.075 481.337 348.906C479.631 350.131 479.325 350.525 478.494 350.875C477.619 351.225 476.219 351.488 474.119 350.831C473.944 350.875 472.588 351.05 471.581 350.044C470.969 349.431 470.837 348.731 470.837 348.425C470.706 348.425 469.875 348.338 469.306 347.638C468.781 346.981 468.738 346.063 469.131 345.275C468.956 344.925 468.781 344.444 468.781 343.831C468.562 340.769 472.194 338.319 474.206 336.919C476.35 335.431 480.594 333.069 487.156 332.456C490.7 330.575 495.994 327.206 500.675 321.563C502.163 319.813 512.094 307.475 511.306 290.894C511 283.938 508.506 270.988 507.106 258.912C507.019 258.037 506.756 255.675 508.025 253.4C509.863 250.294 514.063 248.281 517.125 248.85V248.85Z" fill="white" stroke="#161616" stroke-width="2" stroke-miterlimit="10"/>
<path d="M469.262 345.581C469.875 345.581 469.919 344.575 469.262 344.575C468.65 344.575 468.65 345.581 469.262 345.581Z" fill="#161616"/>
<path d="M468.781 345.056V345.363C468.825 345.888 469.394 346.019 469.7 345.625C471.45 343.306 473.813 341.6 476.569 340.725C477.181 340.55 476.919 339.588 476.306 339.763C473.288 340.725 470.75 342.563 468.825 345.1C469.131 345.188 469.437 345.275 469.744 345.363C469.744 345.275 469.744 345.188 469.744 345.056C469.744 344.444 468.738 344.444 468.781 345.056Z" fill="#161616"/>
<path d="M471.231 348.6C473.462 346.062 476.219 344.137 479.369 342.869C479.937 342.65 479.719 341.687 479.106 341.906C475.781 343.219 472.894 345.187 470.531 347.856C470.138 348.381 470.837 349.081 471.231 348.6Z" fill="#161616"/>
<path d="M474.513 350.962C476.787 348.381 479.412 346.237 482.387 344.487C482.912 344.181 482.431 343.306 481.906 343.656C478.887 345.45 476.175 347.637 473.856 350.306C473.419 350.744 474.119 351.444 474.513 350.962V350.962Z" fill="#161616"/>
<path opacity="0.13" d="M515.2 250.513C513.538 252.919 516.25 257.163 517.781 260.313C520.013 264.95 520.363 269.981 521.063 280.044C522.331 298.288 513.844 313.906 513.231 315C505.488 328.781 493.456 337.05 489.694 339.588C483.306 343.875 474.25 348.556 474.994 350.35C475.256 351.006 476.7 351.094 477.312 351.05C479.412 350.963 480.287 349.344 483.219 347.288C484.75 346.194 484.706 346.544 487.331 344.969C488.863 344.05 491.05 342.65 493.631 340.681C499.494 339.106 503.825 336.7 506.538 334.95C510.475 332.413 518.044 326.594 522.681 316.444C524.256 312.988 524.869 310.231 526.094 304.763C527.363 299.031 529.375 289.625 528.238 277.638C527.713 272.213 526.794 268.581 525.525 263.813C523.556 256.156 521.763 249.55 518.35 249.113C517.213 248.938 515.856 249.594 515.2 250.513V250.513Z" fill="#6D6C6C"/>
<path opacity="0.16" d="M527.669 274.444C527.275 274.444 527.362 279.037 525.481 291.244C523.775 302.181 522.9 307.781 520.494 312.9C516.994 320.337 512.225 325.019 509.906 327.25C503.3 333.637 499.319 334.075 489.212 341.512C483.919 345.406 479.981 348.95 477.663 351.137C482.913 347.637 488.119 344.137 493.369 340.681C498.181 339.281 508.069 335.606 516.031 326.2C521.5 319.725 523.644 313.381 525.306 308.437C530.994 290.806 528.369 274.444 527.669 274.444V274.444Z" fill="#6D6C6C"/>
<path d="M497.481 229.775C495.512 231.131 495.162 233.756 494.856 236.644C494.55 239.575 494.506 244.694 497.175 251.037C498.837 251.037 500.894 250.906 503.169 250.469C504.962 250.119 506.538 249.637 507.85 249.156C507.675 243.337 507.544 237.519 507.369 231.7C503.694 228.987 499.844 228.156 497.481 229.775V229.775Z" fill="white" stroke="#161616" stroke-width="2" stroke-miterlimit="10"/>
<path d="M487.069 200.594C484.006 202.344 482.694 205.275 480.112 210.963C477.225 217.438 475.212 223.038 474.425 227.15C474.294 227.763 474.6 228.375 475.169 228.638C475.912 228.988 477.225 229.119 477.925 229.294C477.925 231 478.144 233.931 479.675 237.081C482.475 242.813 487.637 245.131 489.169 245.744C494.025 244.913 497.612 243.25 499.756 241.981C501.725 240.887 504.262 239.4 506.756 236.513C508.987 233.888 510.169 231.263 510.781 229.513C511.7 229.513 513.1 229.425 514.544 228.638C517.519 227.019 520.056 222.775 518.481 220.194C517.3 218.313 514.062 217.525 510.737 218.75C510.781 217.35 510.737 215.425 510.256 213.15C510.125 212.581 509.206 208.425 507.106 205.494C503.081 199.85 493.281 197.05 487.069 200.594V200.594Z" fill="white" stroke="#161616" stroke-width="2" stroke-miterlimit="10"/>
<path d="M476.044 220.412C474.95 218.706 472.544 214.419 472.894 208.731C473.025 206.806 473.288 203.131 475.956 199.675C479.194 195.475 483.7 194.381 485.013 194.119C485.625 193.112 486.675 191.625 488.425 190.4C489.125 189.919 491.05 188.737 495.775 188.475C498.269 188.344 502.075 188.431 506.625 189.744C510.169 190.794 512.531 192.281 513.975 193.462C519.531 197.837 519.094 201.294 526.138 208.381C527.756 210 528.894 210.569 531.344 212.975C533.925 215.469 535.981 217.875 537.119 219.319C539.7 222.6 544.556 228.812 545.475 237.212C545.781 240.056 546.656 248.062 541.669 254.187C534.888 262.544 519.575 263.2 510.256 256.55C508.506 255.325 501.244 250.075 501.638 241.631C501.988 234.019 508.331 229.469 509.206 228.812C509.95 229.119 511.481 229.6 512.969 229.075C516.075 227.937 517.388 223.169 515.769 220.762C515.113 219.8 514.063 219.406 513.756 219.319C511.219 218.444 508.856 220.325 508.681 220.456C505.269 217.962 502.688 215.556 500.894 213.675C498.444 211.181 497.219 209.519 496.781 208.906C495.425 206.981 494.419 205.231 493.763 203.919C491.75 204.4 489.125 205.319 486.369 207.112C485.712 207.506 483.525 208.994 481.25 211.575C480.988 211.881 479.719 213.325 478.363 215.512C477.356 217.394 476.569 219.056 476.044 220.412V220.412Z" fill="#5222D0"/>
<path d="M484.969 224.306C484.969 224.263 484.969 224.263 484.969 224.306C484.969 224.35 485.013 224.438 485.013 224.525V224.569C484.969 224.656 484.925 224.7 484.881 224.788C484.969 224.7 484.881 224.744 484.706 224.875C484.619 224.831 484.531 224.831 484.444 224.788C484.4 224.744 484.356 224.744 484.356 224.7C484.313 224.613 484.313 224.525 484.269 224.438V224.394C484.313 224.306 484.356 224.263 484.4 224.175C484.488 224.175 484.575 224.131 484.663 224.131L485.013 224.481V224.613C484.794 224.656 484.575 224.744 484.356 224.788L484.313 224.744C484.269 224.656 484.225 224.613 484.181 224.525C484.225 224.394 484.313 224.263 484.356 224.175C484.444 224.131 484.531 224.131 484.619 224.088H484.575C484.313 224.131 484.094 224.306 484.094 224.569C484.094 224.831 484.313 225.094 484.575 225.05C484.838 225.006 485.1 224.875 485.144 224.569C485.231 224.306 485.1 224 484.838 223.869C484.575 223.738 484.313 223.825 484.181 224.044C483.919 224.394 484.094 224.963 484.531 225.006C484.925 225.05 485.275 224.744 485.275 224.35C485.275 223.956 484.881 223.694 484.488 223.781C484.094 223.913 483.919 224.306 484.094 224.7C484.225 224.963 484.575 225.006 484.75 224.875C485.056 224.831 485.056 224.525 484.969 224.306V224.306Z" fill="#161616"/>
<path d="M488.819 223.256C488.906 223.694 488.731 223.65 488.338 223.125C488.425 223.081 488.469 223.038 488.556 222.994C488.731 222.994 488.863 223.081 488.95 223.3C488.994 223.038 488.688 222.819 488.469 222.819C488.163 222.819 487.988 223.038 487.988 223.3C487.944 223.694 488.338 224 488.688 223.956C489.125 223.956 489.388 223.519 489.256 223.125C489.125 222.731 488.688 222.513 488.294 222.731C487.9 222.95 487.856 223.344 488.031 223.738C488.119 224 488.513 224.044 488.688 223.913C488.906 223.781 488.95 223.519 488.819 223.256V223.256Z" fill="#161616"/>
<path d="M487.594 226.144C487.856 226.144 487.9 226.231 487.725 226.45C487.725 226.625 487.681 226.712 487.55 226.712C487.506 226.537 487.506 226.319 487.462 226.144C487.594 226.1 487.681 226.1 487.813 226.187C487.375 225.706 486.675 226.406 487.113 226.887C487.419 227.237 487.988 227.15 488.206 226.756C488.425 226.362 488.206 225.881 487.813 225.75C487.375 225.619 486.938 225.925 486.894 226.362C486.894 226.844 487.375 227.194 487.813 227.106C488.469 226.931 488.206 225.969 487.594 226.144V226.144Z" fill="#161616"/>
<path d="M479.5 235.681C482.212 235.2 484.575 233.625 486.106 231.306C486.456 230.781 485.625 230.3 485.275 230.825C483.875 232.925 481.775 234.281 479.281 234.762C478.625 234.85 478.888 235.769 479.5 235.681V235.681Z" fill="#161616"/>
<path opacity="0.1" d="M494.375 205.362C495.162 206.937 496.169 209.037 497.306 211.531C500.806 219.144 501.2 221.244 501.331 223.081C501.506 225.837 501.025 227.937 500.631 229.425C498.619 237.562 492.712 242.987 489.781 245.35C491.225 245.175 492.975 244.869 494.9 244.212C497.875 243.206 500.194 241.85 501.769 240.712C501.638 242.069 501.638 244.169 502.425 246.531C503.3 249.331 504.875 251.081 506.187 252.744C507.194 254.013 508.988 256.025 511.831 257.644C514.588 259.263 517.169 259.831 518.744 260.094C522.419 260.925 525.481 260.837 527.538 260.662C530.381 260.4 534.887 260.006 539.087 256.769C540.137 255.938 542.544 254.056 543.988 250.731C544.338 249.944 544.862 248.456 545.125 244.519C545.431 239.881 545.65 236.644 544.556 232.531C543.419 228.287 541.363 225.006 539.35 222.6C535.85 232.006 527.406 237.431 519.794 236.294C513.844 235.375 510.256 230.694 509.206 229.25C511.525 229.775 513.887 229.075 515.244 227.369C516.862 225.444 517.344 221.987 515.244 220.15C513.581 218.706 510.825 218.662 508.769 220.281C506.275 218.487 503.431 216.125 500.544 213.062C497.962 210.394 495.95 207.725 494.375 205.362V205.362Z" fill="#6D6C6C"/>
<path d="M484.269 219.581C484.006 219.144 483.962 218.488 484.4 218.138C484.269 218.181 484.181 218.225 484.05 218.269H484.181C484.05 218.225 483.963 218.181 483.831 218.138C484.269 218.488 483.919 219.844 483.744 220.238C483.831 220.15 483.919 220.106 484.05 220.019C484.006 220.019 483.962 220.063 483.962 220.063C484.094 220.063 484.225 220.106 484.356 220.106C484.094 219.975 484.138 219.275 484.181 219.1C484.225 218.706 484.313 218.356 484.488 218.05C484.269 218.094 484.05 218.181 483.831 218.225C484.05 218.4 484.094 218.75 484.05 219.013C484.05 219.144 484.006 219.275 483.962 219.363C483.919 219.581 483.831 219.581 484.05 219.625C484.138 219.713 484.225 219.756 484.356 219.844C484.356 219.8 484.313 219.8 484.313 219.756C483.919 219.275 483.087 219.756 483.481 220.238C483.7 220.5 484.006 220.675 484.356 220.544C484.75 220.413 484.881 220.019 484.969 219.669C485.188 218.794 485.188 217.919 484.4 217.35C484.181 217.175 483.831 217.306 483.744 217.525C483.306 218.4 483.044 219.756 483.613 220.631C483.831 220.981 484.313 221.156 484.663 220.894C485.056 220.588 485.1 219.8 485.144 219.363C485.231 218.706 485.1 216.825 483.962 217.394C483.044 217.875 483.131 219.363 483.569 220.106C483.744 220.631 484.619 220.106 484.269 219.581V219.581Z" fill="#161616"/>
<path d="M482.256 215.119C484.575 214.725 486.544 215.994 488.338 217.35C488.863 217.744 489.344 216.869 488.819 216.519C486.806 214.988 484.619 213.806 481.994 214.2C481.381 214.244 481.644 215.206 482.256 215.119V215.119Z" fill="#161616"/>
<path d="M484.881 230.869C485.363 231.175 485.8 231.569 486.194 232.006C486.631 232.487 487.331 231.787 486.894 231.306C486.456 230.825 485.931 230.387 485.363 229.994C484.838 229.644 484.356 230.519 484.881 230.869Z" fill="#161616"/>
</svg>
